<svg width="48" height="48" viewBox="0 0 48 48" fill="none" xmlns="http://www.w3.org/2000/svg">
<circle cx="24" cy="24" r="23.5" fill="white" stroke="black"/>
<g clip-path="url(#clip0_1485_27790)">
<path d="M18.4848 25.103L21.2351 30.0225L16.4142 32.8305" stroke="black" stroke-linecap="round" stroke-linejoin="round"/>
<path d="M33.1686 27.0527C34.2874 25.9076 34.6896 24.6326 34.4178 23.4124C34.1416 22.1727 33.1623 20.9546 31.5237 19.9864C29.8896 19.0208 27.7374 18.3883 25.3969 18.2062C23.058 18.0243 20.6887 18.3045 18.6614 18.9962C16.628 19.6899 15.0935 20.7436 14.2467 21.9517C13.4136 23.1401 13.2819 24.419 13.8301 25.6279C14.3902 26.8632 15.6564 28.013 17.51 28.8535C18.4196 29.2659 19.4345 29.5871 20.5123 29.8068" stroke="black" stroke-linecap="round" stroke-linejoin="round"/>
<path d="M30.2481 28.6921C30.2481 29.2444 30.6958 29.6921 31.2481 29.6921C31.8004 29.6921 32.2481 29.2444 32.2481 28.6921C32.2481 28.1398 31.8004 27.6921 31.2481 27.6921C30.6958 27.6921 30.2481 28.1398 30.2481 28.6921Z" fill="#FF2164"/>
<path d="M23 12.9999C23 12.4476 23.4477 11.9999 24 11.9999C24.5523 11.9999 25 12.4476 25 12.9999V15.9999H23V12.9999Z" fill="black"/>
<path d="M25 35.0001C25 35.5523 24.5523 36.0001 24 36.0001C23.4477 36.0001 23 35.5523 23 35.0001L23 32.0001L25 32.0001L25 35.0001Z" fill="black"/>
<path d="M24 15.9999L24 32.0001" stroke="black"/>
</g>
<defs>
<clipPath id="clip0_1485_27790">
<rect width="24" height="24" fill="white" transform="translate(12 12)"/>
</clipPath>
</defs>
</svg>
