<svg width="21" height="20" viewBox="0 0 21 20" fill="none" xmlns="http://www.w3.org/2000/svg">
<ellipse cx="3.83333" cy="16.6666" rx="3.33333" ry="3.33333" fill="#DBFC3D"/>
<path d="M17.4769 6.38221C17.5276 6.69084 17.5541 7.00869 17.5541 7.33332C17.5541 7.65795 17.5276 7.97581 17.4769 8.28444C18.6762 8.9398 19.5 10.2977 19.5 11.8665C19.5 13.1119 18.9808 14.2245 18.1667 14.9581L18.5271 16.9333L15.918 16.6033C15.1653 17.4641 14.106 18 12.9324 18C11.9484 18 11.0446 17.6232 10.3346 16.9939C9.65697 17.6216 8.78096 18 7.82434 18C6.3296 18 5.03167 17.0762 4.37967 15.721C2.72102 15.2325 1.5 13.5726 1.5 11.6001C1.5 9.98855 2.31494 8.5857 3.51768 7.85982C3.47063 7.60344 3.44594 7.3382 3.44594 7.06663C3.44594 4.85749 5.0795 3.06663 7.0946 3.06663C7.83728 3.06663 8.52813 3.3099 9.10448 3.72771C9.99374 2.6657 11.2706 2 12.6892 2C13.0616 2 13.4243 2.04588 13.7727 2.13277" stroke="black" stroke-linecap="round"/>
<path d="M8.5 7.50008C8.5 7.03984 8.8731 6.66675 9.33333 6.66675C9.79357 6.66675 10.1667 7.03984 10.1667 7.50008V10.0001H8.5V7.50008Z" fill="black"/>
<path d="M11.834 7.50008C11.834 7.03984 12.2071 6.66675 12.6673 6.66675C13.1276 6.66675 13.5007 7.03984 13.5007 7.50008V10.0001H11.834V7.50008Z" fill="black"/>
<path d="M17.0417 3.7618C17.0417 4.22204 16.6686 4.59513 16.2083 4.59513C15.7481 4.59513 15.375 4.22204 15.375 3.7618C15.375 3.30156 15.7481 2.92847 16.2083 2.92847C16.6686 2.92847 17.0417 3.30156 17.0417 3.7618Z" fill="#FF2164"/>
</svg>
