<svg width="48" height="48" viewBox="0 0 48 48" fill="none" xmlns="http://www.w3.org/2000/svg">
<circle cx="24" cy="24" r="23.5" fill="white" stroke="black"/>
<path d="M36 24C36 30.3322 30.6469 35.5 24 35.5C17.3531 35.5 12 30.3322 12 24C12 17.6678 17.3531 12.5 24 12.5C30.6469 12.5 36 17.6678 36 24Z" fill="white" stroke="black"/>
<g clip-path="url(#clip0_2577_79435)">
<path d="M28.25 22.2629C29.25 22.8402 29.25 24.2836 28.25 24.8609L23 27.892C22 28.4694 20.75 27.7477 20.75 26.593L20.75 20.5308C20.75 19.3761 22 18.6544 23 19.2318L28.25 22.2629Z" fill="white" stroke="black"/>
</g>
<path d="M30.5 19C30.5 19.5523 30.0523 20 29.5 20C28.9477 20 28.5 19.5523 28.5 19C28.5 18.4477 28.9477 18 29.5 18C30.0523 18 30.5 18.4477 30.5 19Z" fill="#FF2164"/>
<defs>
<clipPath id="clip0_2577_79435">
<rect width="15" height="14.4" fill="white" transform="translate(16.5 16.8)"/>
</clipPath>
</defs>
</svg>
