<svg width="48" height="48" viewBox="0 0 48 48" fill="none" xmlns="http://www.w3.org/2000/svg">
<circle cx="24" cy="24" r="23.5" fill="white" stroke="black"/>
<path d="M29.8235 24.6471L31.7647 22.7059C33.5515 20.9191 33.5515 18.0221 31.7647 16.2353V16.2353C29.9779 14.4485 27.0809 14.4485 25.2941 16.2353L22.7059 18.8235M18.8235 22.7059L16.2353 25.2941C14.4485 27.0809 14.4485 29.9779 16.2353 31.7647V31.7647C18.0221 33.5515 20.9191 33.5515 22.7059 31.7647L24.6471 29.8235" stroke="black" stroke-linecap="round"/>
<path d="M26.001 23.413L26.7081 22.7059L25.2939 21.2917L24.5868 21.9988L26.001 23.413ZM21.3515 25.2341C20.961 25.6246 20.961 26.2577 21.3515 26.6483C21.742 27.0388 22.3752 27.0388 22.7657 26.6483L21.3515 25.2341ZM24.5868 21.9988L21.3515 25.2341L22.7657 26.6483L26.001 23.413L24.5868 21.9988Z" fill="black"/>
<path d="M28.2891 27.4445C28.2891 27.9968 27.8414 28.4445 27.2891 28.4445C26.7368 28.4445 26.2891 27.9968 26.2891 27.4445C26.2891 26.8923 26.7368 26.4445 27.2891 26.4445C27.8414 26.4445 28.2891 26.8923 28.2891 27.4445Z" fill="#FF2164"/>
</svg>
