<svg width="36" height="36" viewBox="0 0 36 36" fill="none" xmlns="http://www.w3.org/2000/svg">
<circle cx="18" cy="18" r="18" fill="black"/>
<path d="M9.01758 12.5902H26.9813" stroke="white" stroke-linecap="round" stroke-linejoin="round"/>
<path d="M12.9102 12.5902V10.3541C12.9102 9.59676 13.7179 8.98364 14.7157 8.98364H21.2828C22.2806 8.98364 23.0883 9.59676 23.0883 10.3541V12.5902" stroke="white" stroke-linecap="round" stroke-linejoin="round"/>
<path d="M25.1287 12.9181V23.0001M10.8711 12.9181V25.3017C10.8711 26.2492 11.6653 27.0165 12.6461 27.0165H21.7274" stroke="white" stroke-linecap="round" stroke-linejoin="round"/>
<path d="M19 17C19 16.4477 19.4477 16 20 16C20.5523 16 21 16.4477 21 17V20H19V17Z" fill="white"/>
<path d="M15 17C15 16.4477 15.4477 16 16 16C16.5523 16 17 16.4477 17 17V20H15V17Z" fill="white"/>
<path d="M26 26C26 26.5523 25.5523 27 25 27C24.4477 27 24 26.5523 24 26C24 25.4477 24.4477 25 25 25C25.5523 25 26 25.4477 26 26Z" fill="#FF2164"/>
</svg>