<svg width="48" height="48" viewBox="0 0 48 48" fill="none" xmlns="http://www.w3.org/2000/svg">
<circle cx="24" cy="24" r="23.5" fill="white" stroke="black"/>
<path d="M30.6133 18.0909C30.7842 18.1628 31.5366 18.3846 31.6919 18.4499V18.4499C32.4668 18.7758 32.9331 19.5745 32.8359 20.4095L32.4716 23.5373C32.4447 23.7684 32.4313 23.8839 32.4313 24C32.4313 24.1161 32.4447 24.2316 32.4716 24.4627L32.6524 26.015C32.8198 27.4521 32.9034 28.1706 32.5669 28.7471C32.2303 29.3237 31.5635 29.6041 30.2298 30.1649L28.614 30.8445C28.4116 30.9295 28.3105 30.9721 28.2147 31.0253C28.119 31.0785 28.0295 31.142 27.8505 31.269L26.3141 32.3587C25.1962 33.1516 24.6373 33.548 24 33.548C23.3627 33.548 22.8038 33.1516 21.6859 32.3587L20.1495 31.269C19.9705 31.142 19.881 31.0785 19.7853 31.0253C19.6895 30.9721 19.5884 30.9295 19.386 30.8445L17.7702 30.1649C16.4365 29.6041 15.7697 29.3237 15.4331 28.7471C15.0966 28.1706 15.1802 27.4521 15.3476 26.015L15.5284 24.4627C15.5553 24.2316 15.5687 24.1161 15.5687 24C15.5687 23.8839 15.5553 23.7684 15.5284 23.5373L15.3476 21.985C15.1802 20.5479 15.0966 19.8294 15.4331 19.2529C15.7697 18.6763 16.4365 18.3959 17.7702 17.8351L19.386 17.1555C19.5884 17.0705 19.6895 17.0279 19.7853 16.9747C19.881 16.9214 19.9705 16.858 20.1495 16.731L22.7183 14.9091C22.8376 14.8245 22.8972 14.7822 22.9539 14.7474C23.5957 14.3535 24.4043 14.3535 25.0461 14.7474C25.1028 14.7822 25.1624 14.8245 25.2817 14.9091V14.9091L26 15.5" stroke="black" stroke-linecap="round"/>
<circle cx="24" cy="24" r="3.5" stroke="black"/>
<path d="M29.0938 17.2285C29.0938 17.7807 28.646 18.2285 28.0938 18.2285C27.5415 18.2285 27.0938 17.7807 27.0938 17.2285C27.0938 16.6762 27.5415 16.2285 28.0938 16.2285C28.646 16.2285 29.0938 16.6762 29.0938 17.2285Z" fill="#FF2164"/>
</svg>
