<svg width="48" height="48" viewBox="0 0 48 48" fill="none" xmlns="http://www.w3.org/2000/svg">
<circle cx="24" cy="24" r="23.5" fill="white" stroke="black"/>
<path d="M28.6008 15C27.7787 15 21.6059 15 17.7998 15C16.1429 15 14.8008 16.3431 14.8008 18V30C14.8008 31.6569 16.1439 33 17.8008 33H29.8008C31.4576 33 32.8008 31.6569 32.8008 30V20.4" stroke="black" stroke-linecap="round"/>
<path d="M19.041 32.6704L25.9734 23.6788C26.7633 22.6542 28.3035 22.6379 29.115 23.6456L32.8009 28.2229" stroke="black" stroke-linecap="round"/>
<path d="M14.9023 28.6812L17.7536 25.8299C18.3394 25.2442 19.2891 25.2442 19.8749 25.8299L22.3692 28.3243" stroke="black" stroke-linecap="round"/>
<path d="M33 16.6C33 17.1523 32.5523 17.6 32 17.6C31.4477 17.6 31 17.1523 31 16.6C31 16.0477 31.4477 15.6 32 15.6C32.5523 15.6 33 16.0477 33 16.6Z" fill="#FF2164"/>
<circle cx="21.4012" cy="20.4" r="1.2" fill="black"/>
</svg>
