<svg xmlns="http://www.w3.org/2000/svg" width="80" height="80" viewBox="0 0 80 80" fill="none">
  <path fill-rule="evenodd" clip-rule="evenodd"
    d="M45.7564 34.0373C45.4978 34.0731 45.2633 34.2085 45.1032 34.4149L39 42.2791L68.6471 38.1861L74.2474 30.9698C74.5223 30.6156 74.2281 30.1066 73.784 30.1679L45.7564 34.0373ZM68.6471 38.1866L39 42.2796V74.0005L67.7838 70.0267C68.2786 69.9584 68.6471 69.5355 68.6471 69.0361V38.1866Z"
    fill="#DBFC3D" />
  <path
    d="M45.1032 34.4149L45.4982 34.7214L45.1032 34.4149ZM45.7564 34.0373L45.6881 33.542H45.6881L45.7564 34.0373ZM39 42.2791L38.605 41.9726C38.4804 42.1332 38.4654 42.3533 38.5671 42.5293C38.6688 42.7053 38.867 42.8022 39.0684 42.7744L39 42.2791ZM68.6471 38.1861L68.7154 38.6814C68.8448 38.6635 68.962 38.5958 69.0421 38.4926L68.6471 38.1861ZM74.2474 30.9698L73.8524 30.6632L73.8524 30.6632L74.2474 30.9698ZM73.784 30.1679L73.7157 29.6726L73.784 30.1679ZM39 42.2796L38.9316 41.7843C38.6842 41.8184 38.5 42.0299 38.5 42.2796H39ZM68.6471 38.1866H69.1471C69.1471 38.042 69.0845 37.9046 68.9755 37.8096C68.8666 37.7146 68.7219 37.6715 68.5787 37.6913L68.6471 38.1866ZM39 74.0005H38.5C38.5 74.145 38.5625 74.2825 38.6715 74.3775C38.7805 74.4724 38.9252 74.5156 39.0684 74.4958L39 74.0005ZM67.7838 70.0267L67.7154 69.5314L67.7154 69.5314L67.7838 70.0267ZM45.4982 34.7214C45.5783 34.6182 45.6955 34.5505 45.8248 34.5326L45.6881 33.542C45.3 33.5956 44.9484 33.7988 44.7082 34.1083L45.4982 34.7214ZM39.395 42.5857L45.4982 34.7214L44.7082 34.1083L38.605 41.9726L39.395 42.5857ZM68.5787 37.6908L38.9316 41.7838L39.0684 42.7744L68.7154 38.6814L68.5787 37.6908ZM73.8524 30.6632L68.2521 37.8795L69.0421 38.4926L74.6424 31.2763L73.8524 30.6632ZM73.8524 30.6632V30.6632L74.6424 31.2763C75.1921 30.568 74.6038 29.55 73.7157 29.6726L73.8524 30.6632ZM45.8248 34.5326L73.8524 30.6632L73.7157 29.6726L45.6881 33.542L45.8248 34.5326ZM39.0684 42.7749L68.7154 38.6819L68.5787 37.6913L38.9316 41.7843L39.0684 42.7749ZM39.5 74.0005V42.2796H38.5V74.0005H39.5ZM67.7154 69.5314L38.9316 73.5052L39.0684 74.4958L67.8522 70.522L67.7154 69.5314ZM68.1471 69.0361C68.1471 69.2858 67.9628 69.4972 67.7154 69.5314L67.8522 70.522C68.5943 70.4195 69.1471 69.7852 69.1471 69.0361H68.1471ZM68.1471 38.1866V69.0361H69.1471V38.1866H68.1471Z"
    fill="black" />
  <path fill-rule="evenodd" clip-rule="evenodd"
    d="M32.7787 34.0328C33.0514 34.0712 33.2961 34.2205 33.4552 34.4452L38.9997 42.2786L39.0001 42.2786V42.2791V73.9995L10.8603 70.0279C10.3669 69.9583 10.0001 69.536 10.0001 69.0377V38.1861L4.87548 30.946C4.62218 30.5881 4.91933 30.1007 5.35347 30.162L32.7787 34.0328Z"
    fill="#DBFC3D" />
  <path
    d="M33.4552 34.4452L33.8633 34.1564V34.1564L33.4552 34.4452ZM32.7787 34.0328L32.8486 33.5377L32.7787 34.0328ZM38.9997 42.2786L38.5916 42.5674C38.6711 42.6798 38.7936 42.7545 38.93 42.7737L38.9997 42.2786ZM39.0001 42.2786H39.5001C39.5001 42.0294 39.3166 41.8182 39.0698 41.7835L39.0001 42.2786ZM39.0001 73.9995L38.9302 74.4946C39.0736 74.5149 39.2187 74.472 39.328 74.377C39.4373 74.282 39.5001 74.1443 39.5001 73.9995H39.0001ZM10.8603 70.0279L10.9302 69.5328H10.9302L10.8603 70.0279ZM10.0001 38.1861H10.5001C10.5001 38.0826 10.468 37.9817 10.4082 37.8972L10.0001 38.1861ZM4.87548 30.946L4.46736 31.2348L4.87548 30.946ZM5.35347 30.162L5.28359 30.6571L5.35347 30.162ZM33.8633 34.1564C33.6247 33.8192 33.2576 33.5954 32.8486 33.5377L32.7089 34.5279C32.8452 34.5471 32.9676 34.6217 33.0471 34.7341L33.8633 34.1564ZM39.4078 41.9897L33.8633 34.1564L33.0471 34.7341L38.5916 42.5674L39.4078 41.9897ZM39.0698 41.7835L39.0694 41.7834L38.93 42.7737L38.9304 42.7737L39.0698 41.7835ZM39.5001 42.2791V42.2786H38.5001V42.2791H39.5001ZM39.5001 73.9995V42.2791H38.5001V73.9995H39.5001ZM10.7904 70.523L38.9302 74.4946L39.07 73.5044L10.9302 69.5328L10.7904 70.523ZM9.50007 69.0377C9.50007 69.7852 10.0503 70.4186 10.7904 70.523L10.9302 69.5328C10.6835 69.498 10.5001 69.2869 10.5001 69.0377H9.50007ZM9.50007 38.1861V69.0377H10.5001V38.1861H9.50007ZM4.46736 31.2348L9.59196 38.4749L10.4082 37.8972L5.28359 30.6571L4.46736 31.2348ZM5.42334 29.6669C4.55508 29.5444 3.96077 30.5191 4.46736 31.2348L5.28359 30.6571L5.28359 30.6571L5.42334 29.6669ZM32.8486 33.5377L5.42334 29.6669L5.28359 30.6571L32.7089 34.5279L32.8486 33.5377Z"
    fill="black" />
  <mask id="path-5-inside-1_1955_31014" fill="white">
    <path fill-rule="evenodd" clip-rule="evenodd"
      d="M43.3704 27.7637C51.7006 26.5803 58 21.0919 58 14.5C58 7.04416 49.9411 1 40 1C30.0589 1 22 7.04416 22 14.5C22 20.9352 28.0034 26.3187 36.0389 27.6721L38.971 31.2275C39.371 31.7126 40.114 31.7126 40.514 31.2275L43.3704 27.7637Z" />
  </mask>
  <path fill-rule="evenodd" clip-rule="evenodd"
    d="M43.3704 27.7637C51.7006 26.5803 58 21.0919 58 14.5C58 7.04416 49.9411 1 40 1C30.0589 1 22 7.04416 22 14.5C22 20.9352 28.0034 26.3187 36.0389 27.6721L38.971 31.2275C39.371 31.7126 40.114 31.7126 40.514 31.2275L43.3704 27.7637Z"
    fill="#DBFC3D" />
  <path
    d="M43.3704 27.7637L43.2298 26.7737L42.8457 26.8282L42.5989 27.1275L43.3704 27.7637ZM36.0389 27.6721L36.8104 27.0358L36.573 26.7479L36.205 26.686L36.0389 27.6721ZM38.971 31.2275L38.1995 31.8638L38.1995 31.8638L38.971 31.2275ZM40.514 31.2275L39.7425 30.5913V30.5913L40.514 31.2275ZM57 14.5C57 20.3891 51.3013 25.627 43.2298 26.7737L43.5111 28.7538C52.0999 27.5336 59 21.7946 59 14.5H57ZM40 2C44.7751 2 49.0597 3.45288 52.1279 5.75406C55.1959 8.05501 57 11.1574 57 14.5H59C59 10.3868 56.7747 6.73915 53.3279 4.15406C49.8814 1.5692 45.166 0 40 0V2ZM23 14.5C23 11.1574 24.8041 8.05501 27.8721 5.75406C30.9403 3.45288 35.2249 2 40 2V0C34.834 0 30.1186 1.5692 26.6721 4.15406C23.2253 6.73915 21 10.3868 21 14.5H23ZM36.205 26.686C28.4264 25.3758 23 20.2499 23 14.5H21C21 21.6204 27.5805 27.2615 35.8729 28.6582L36.205 26.686ZM39.7425 30.5913L36.8104 27.0358L35.2674 28.3083L38.1995 31.8638L39.7425 30.5913ZM39.7425 30.5913V30.5913L38.1995 31.8638C38.9994 32.8338 40.4855 32.8338 41.2855 31.8638L39.7425 30.5913ZM42.5989 27.1275L39.7425 30.5913L41.2855 31.8638L44.1419 28.4L42.5989 27.1275Z"
    fill="black" mask="url(#path-5-inside-1_1955_31014)" />
  <circle cx="33" cy="15" r="2" fill="black" />
  <circle cx="40" cy="15" r="2" fill="black" />
  <circle cx="47" cy="15" r="2" fill="black" />
</svg>