<svg width="34" height="35" viewBox="0 0 34 35" fill="none" xmlns="http://www.w3.org/2000/svg">
<circle cx="9" cy="25.0015" r="4" fill="currentColor"/>
<path d="M9.61366 11.5562L10.047 11.8057C10.136 11.6509 10.1359 11.4605 10.0465 11.3059C9.95717 11.1513 9.79219 11.0562 9.61366 11.0562V11.5562ZM9.61157 11.5562L9.16564 11.33C9.08703 11.485 9.09454 11.6697 9.18549 11.8178C9.27643 11.9659 9.43777 12.0562 9.61157 12.0562V11.5562ZM10.1354 22.3403L9.70946 22.6021L10.1354 22.3403ZM9.22724 26.5011L9.05299 26.0325C8.82617 26.1168 8.6923 26.3515 8.73514 26.5896C8.77798 26.8278 8.98525 27.0011 9.22724 27.0011V26.5011ZM14.7146 26.5011V27.0011C14.9907 27.0011 15.2146 26.7773 15.2146 26.5011H14.7146ZM14.7146 23.8725H15.2146C15.2146 23.7108 15.1364 23.5591 15.0047 23.4653L14.7146 23.8725ZM11.4905 16.7529V16.2529C11.2378 16.2529 11.0248 16.4414 10.9942 16.6922L11.4905 16.7529ZM11.5857 16.7529V17.2529C11.7658 17.2529 11.932 17.156 12.0208 16.9992C12.1095 16.8425 12.1071 16.6501 12.0144 16.4956L11.5857 16.7529ZM11.5804 16.7441L11.4836 16.2536C11.3238 16.2851 11.1895 16.3925 11.1234 16.5413C11.0573 16.6901 11.0679 16.8618 11.1517 17.0014L11.5804 16.7441ZM15.0564 12.7619L15.5301 12.6018C15.4608 12.3966 15.2671 12.2593 15.0504 12.2619C14.8338 12.2645 14.6434 12.4063 14.579 12.6132L15.0564 12.7619ZM22.4701 16.7441L22.8153 17.1058C22.9632 16.9647 23.0103 16.7477 22.9342 16.558C22.8581 16.3683 22.6741 16.244 22.4697 16.2441L22.4701 16.7441ZM22.4609 16.7529L22.1157 16.3912C21.9678 16.5323 21.9207 16.7492 21.9967 16.9389C22.0727 17.1286 22.2565 17.2529 22.4609 17.2529V16.7529ZM22.6227 16.7529L23.119 16.6922C23.0883 16.4414 22.8754 16.2529 22.6227 16.2529V16.7529ZM19.1986 24.0093L18.9244 23.5912C18.7835 23.6836 18.6986 23.8408 18.6986 24.0093H19.1986ZM19.1986 26.5011H18.6986C18.6986 26.7773 18.9224 27.0011 19.1986 27.0011V26.5011ZM24.9215 26.5011V27.0011C25.1551 27.0011 25.3575 26.8394 25.4091 26.6115C25.4607 26.3837 25.3477 26.1505 25.1368 26.0499L24.9215 26.5011ZM24.0247 22.3403L23.5786 22.1143V22.1143L24.0247 22.3403ZM24.4973 11.5153L24.0531 11.7449C24.0571 11.7526 24.0612 11.7602 24.0656 11.7676L24.4973 11.5153ZM9.61366 11.0562H9.61157V12.0562H9.61366V11.0562ZM10.5614 22.0784C9.06723 19.6479 8.66597 17.5765 8.7639 15.881C8.86219 14.1793 9.46581 12.8149 10.047 11.8057L9.18036 11.3066C8.55424 12.394 7.87596 13.912 7.76556 15.8234C7.6548 17.741 8.11804 20.0134 9.70946 22.6021L10.5614 22.0784ZM9.40149 26.9698C10.2883 26.6401 10.817 25.7803 11.0096 24.8851C11.2042 23.9805 11.0853 22.9307 10.5614 22.0784L9.70946 22.6021C10.0814 23.2072 10.1797 23.9881 10.032 24.6748C9.88225 25.3708 9.509 25.8629 9.05299 26.0325L9.40149 26.9698ZM14.7146 26.0011H9.22724V27.0011H14.7146V26.0011ZM14.2146 23.8725V26.5011H15.2146V23.8725H14.2146ZM10.9346 17.685C10.9346 20.4112 12.5706 22.9588 14.4245 24.2797L15.0047 23.4653C13.3701 22.3006 11.9346 20.0372 11.9346 17.685H10.9346ZM10.9942 16.6922C10.9548 17.0142 10.9346 17.3455 10.9346 17.685H11.9346C11.9346 17.3853 11.9524 17.0945 11.9868 16.8136L10.9942 16.6922ZM11.5857 16.2529H11.4905V17.2529H11.5857V16.2529ZM11.1517 17.0014L11.157 17.0102L12.0144 16.4956L12.0091 16.4868L11.1517 17.0014ZM14.579 12.6132C14.2016 13.8252 13.5675 14.7132 12.9476 15.3128C12.3122 15.9273 11.7287 16.2052 11.4836 16.2536L11.6772 17.2347C12.1795 17.1355 12.9293 16.7216 13.6428 16.0316C14.3718 15.3265 15.102 14.2971 15.5338 12.9105L14.579 12.6132ZM22.4697 16.2441C20.516 16.2457 18.9766 15.9211 17.8331 15.309C16.7029 14.7039 15.9372 13.8069 15.5301 12.6018L14.5827 12.9219C15.0724 14.3716 16.0104 15.4675 17.3612 16.1906C18.6988 16.9067 20.4178 17.2458 22.4705 17.2441L22.4697 16.2441ZM22.8061 17.1146L22.8153 17.1058L22.1249 16.3824L22.1157 16.3912L22.8061 17.1146ZM22.6227 16.2529H22.4609V17.2529H22.6227V16.2529ZM23.1786 17.685C23.1786 17.3455 23.1584 17.0142 23.119 16.6922L22.1264 16.8136C22.1607 17.0945 22.1786 17.3853 22.1786 17.685H23.1786ZM19.4727 24.4275C21.4178 23.1522 23.1786 20.5131 23.1786 17.685H22.1786C22.1786 20.1287 20.6296 22.4732 18.9244 23.5912L19.4727 24.4275ZM19.6986 26.5011V24.0093H18.6986V26.5011H19.6986ZM24.9215 26.0011H19.1986V27.0011H24.9215V26.0011ZM23.5786 22.1143C22.5383 24.1675 23.362 26.3108 24.7061 26.9523L25.1368 26.0499C24.389 25.6929 23.637 24.2116 24.4707 22.5663L23.5786 22.1143ZM24.0656 11.7676C26.3988 15.7585 24.764 19.775 23.5786 22.1143L24.4707 22.5663C25.6691 20.2011 27.5465 15.7402 24.9289 11.2629L24.0656 11.7676ZM17.0649 8.00146C20.2578 8.00146 22.9349 9.5822 24.0531 11.7449L24.9414 11.2856C23.6213 8.73244 20.5611 7.00146 17.0649 7.00146V8.00146ZM10.0575 11.7823C11.1641 9.60056 13.8533 8.00146 17.0649 8.00146V7.00146C13.5487 7.00146 10.473 8.7524 9.16564 11.33L10.0575 11.7823Z" fill="black"/>
</svg>
