<svg width="34" height="35" viewBox="0 0 34 35" fill="none" xmlns="http://www.w3.org/2000/svg">
<circle cx="9" cy="25.0015" r="4" fill="currentColor"/>
<path d="M16.2 10.2025C16.2 10.5339 15.9314 10.8025 15.6 10.8025C15.2686 10.8025 15 10.5339 15 10.2025C15 9.87117 15.2686 9.60254 15.6 9.60254C15.9314 9.60254 16.2 9.87117 16.2 10.2025Z" fill="#222222"/>
<path d="M19.2 10.2025C19.2 10.5339 18.9314 10.8025 18.6 10.8025C18.2686 10.8025 18 10.5339 18 10.2025C18 9.87117 18.2686 9.60254 18.6 9.60254C18.9314 9.60254 19.2 9.87117 19.2 10.2025Z" fill="#222222"/>
<path d="M22.2 10.2025C22.2 10.5339 21.9314 10.8025 21.6 10.8025C21.2686 10.8025 21 10.5339 21 10.2025C21 9.87117 21.2686 9.60254 21.6 9.60254C21.9314 9.60254 22.2 9.87117 22.2 10.2025Z" fill="#222222"/>
<path d="M25.2 10.2025C25.2 10.5339 24.9314 10.8025 24.6 10.8025C24.2686 10.8025 24 10.5339 24 10.2025C24 9.87117 24.2686 9.60254 24.6 9.60254C24.9314 9.60254 25.2 9.87117 25.2 10.2025Z" fill="#222222"/>
<path d="M16.2 15.2025C16.2 15.5339 15.9314 15.8025 15.6 15.8025C15.2686 15.8025 15 15.5339 15 15.2025C15 14.8712 15.2686 14.6025 15.6 14.6025C15.9314 14.6025 16.2 14.8712 16.2 15.2025Z" fill="#222222"/>
<path d="M19.2 15.2025C19.2 15.5339 18.9314 15.8025 18.6 15.8025C18.2686 15.8025 18 15.5339 18 15.2025C18 14.8712 18.2686 14.6025 18.6 14.6025C18.9314 14.6025 19.2 14.8712 19.2 15.2025Z" fill="#222222"/>
<path d="M22.2 15.2025C22.2 15.5339 21.9314 15.8025 21.6 15.8025C21.2686 15.8025 21 15.5339 21 15.2025C21 14.8712 21.2686 14.6025 21.6 14.6025C21.9314 14.6025 22.2 14.8712 22.2 15.2025Z" fill="#222222"/>
<path d="M25.2 15.2025C25.2 15.5339 24.9314 15.8025 24.6 15.8025C24.2686 15.8025 24 15.5339 24 15.2025C24 14.8712 24.2686 14.6025 24.6 14.6025C24.9314 14.6025 25.2 14.8712 25.2 15.2025Z" fill="#222222"/>
<path d="M17.7 12.7025C17.7 13.0339 17.4314 13.3025 17.1 13.3025C16.7686 13.3025 16.5 13.0339 16.5 12.7025C16.5 12.3712 16.7686 12.1025 17.1 12.1025C17.4314 12.1025 17.7 12.3712 17.7 12.7025Z" fill="#222222"/>
<path d="M20.7 12.7025C20.7 13.0339 20.4314 13.3025 20.1 13.3025C19.7686 13.3025 19.5 13.0339 19.5 12.7025C19.5 12.3712 19.7686 12.1025 20.1 12.1025C20.4314 12.1025 20.7 12.3712 20.7 12.7025Z" fill="#222222"/>
<path d="M23.7 12.7025C23.7 13.0339 23.4314 13.3025 23.1 13.3025C22.7686 13.3025 22.5 13.0339 22.5 12.7025C22.5 12.3712 22.7686 12.1025 23.1 12.1025C23.4314 12.1025 23.7 12.3712 23.7 12.7025Z" fill="#222222"/>
<path d="M17.7 17.7025C17.7 18.0339 17.4314 18.3025 17.1 18.3025C16.7686 18.3025 16.5 18.0339 16.5 17.7025C16.5 17.3712 16.7686 17.1025 17.1 17.1025C17.4314 17.1025 17.7 17.3712 17.7 17.7025Z" fill="#222222"/>
<path d="M20.7 17.7025C20.7 18.0339 20.4314 18.3025 20.1 18.3025C19.7686 18.3025 19.5 18.0339 19.5 17.7025C19.5 17.3712 19.7686 17.1025 20.1 17.1025C20.4314 17.1025 20.7 17.3712 20.7 17.7025Z" fill="#222222"/>
<path d="M23.7 17.7025C23.7 18.0339 23.4314 18.3025 23.1 18.3025C22.7686 18.3025 22.5 18.0339 22.5 17.7025C22.5 17.3712 22.7686 17.1025 23.1 17.1025C23.4314 17.1025 23.7 17.3712 23.7 17.7025Z" fill="#222222"/>
<path d="M7.5 26.0015V13.0015L13.5 8.00146H26.5V20.0015L20.5 26.0015H7.5Z" stroke="#222222" stroke-linecap="round" stroke-linejoin="round"/>
<path d="M26.5 20.0015H13.5M13.5 20.0015L7.5 25.5015M13.5 20.0015V8.00146" stroke="#222222" stroke-linecap="round" stroke-linejoin="round"/>
</svg>
