<svg width="25" height="25" viewBox="0 0 25 25" fill="none" xmlns="http://www.w3.org/2000/svg">
<g clip-path="url(#clip0_1320_67444)">
<path d="M10.0679 9.96262V6.8482C10.0679 5.77301 11.1375 4.90063 12.4544 4.90063H13.1795C14.4992 4.90063 15.566 5.77301 15.566 6.8482V9.96262" stroke="black" stroke-linecap="round" stroke-linejoin="round"/>
<path fill-rule="evenodd" clip-rule="evenodd" d="M16.5306 7.46228H7.63408C7.37488 7.46228 7.15865 7.66036 7.136 7.91857L6.14694 19.19C6.13468 19.3296 6.18163 19.468 6.27634 19.5714C6.37105 19.6748 6.50481 19.7337 6.64502 19.7337H19.0666C19.2068 19.7337 19.3406 19.6748 19.4353 19.5714C19.53 19.468 19.577 19.3296 19.5647 19.19L18.7357 9.742H17.7318L18.5208 18.7337H7.19082L8.09213 8.46228H16.5306V7.46228Z" fill="black"/>
<path d="M18.8922 8.40671C18.8922 8.89763 18.4942 9.2956 18.0033 9.2956C17.5123 9.2956 17.1144 8.89763 17.1144 8.40671C17.1144 7.91579 17.5123 7.51782 18.0033 7.51782C18.4942 7.51782 18.8922 7.91579 18.8922 8.40671Z" fill="#FF2164"/>
</g>
<defs>
<clipPath id="clip0_1320_67444">
<rect width="14.0886" height="16" fill="white" transform="translate(5.81152 4.06714)"/>
</clipPath>
</defs>
</svg>
