<svg width="35" height="34" viewBox="0 0 35 34" fill="none" xmlns="http://www.w3.org/2000/svg">
<circle cx="14.0391" cy="21.7417" r="4" fill="currentColor"/>
<path d="M20.0602 10.8895L19.5634 10.8328C19.5331 11.0983 19.717 11.3407 19.9808 11.3831L20.0602 10.8895ZM22.4072 14.9977L21.9414 14.8158C21.8892 14.9493 21.8969 15.0988 21.9625 15.2264C22.0281 15.3539 22.1453 15.4471 22.2843 15.4823L22.4072 14.9977ZM19.7586 20.321L20.071 19.9307C19.9532 19.8364 19.7992 19.8003 19.6517 19.8326C19.5043 19.8648 19.3794 19.9619 19.3117 20.0968L19.7586 20.321ZM14.3195 20.3216L14.7664 20.0972C14.6987 19.9624 14.5738 19.8654 14.4264 19.8331C14.279 19.8009 14.125 19.8369 14.0072 19.9311L14.3195 20.3216ZM11.6716 14.9977L11.7945 15.4823C11.9335 15.4471 12.0507 15.3539 12.1163 15.2264C12.1819 15.0988 12.1895 14.9493 12.1374 14.8158L11.6716 14.9977ZM14.0177 10.8896L14.0972 11.3833C14.361 11.3407 14.5448 11.0984 14.5145 10.8329L14.0177 10.8896ZM20.557 10.9462C20.5722 10.813 20.5799 10.6778 20.5799 10.541H19.5799C19.5799 10.6399 19.5743 10.7372 19.5634 10.8328L20.557 10.9462ZM23.1145 13.8917C23.1145 12.1285 21.8263 10.6671 20.1396 10.3958L19.9808 11.3831C21.1904 11.5777 22.1145 12.6273 22.1145 13.8917H23.1145ZM22.8729 15.1796C23.029 14.7798 23.1145 14.3451 23.1145 13.8917H22.1145C22.1145 14.2187 22.053 14.53 21.9414 14.8158L22.8729 15.1796ZM22.2843 15.4823C23.3848 15.7614 24.1984 16.7591 24.1984 17.9455H25.1984C25.1984 16.2905 24.0634 14.9018 22.53 14.513L22.2843 15.4823ZM24.1984 17.9455C24.1984 19.3489 23.0608 20.4866 21.6574 20.4866V21.4866C23.6131 21.4866 25.1984 19.9012 25.1984 17.9455H24.1984ZM21.6574 20.4866C21.0567 20.4866 20.5059 20.2787 20.071 19.9307L19.4462 20.7114C20.052 21.1963 20.8215 21.4866 21.6574 21.4866V20.4866ZM17.0389 22.5C18.4251 22.5 19.6244 21.7034 20.2055 20.5453L19.3117 20.0968C18.8936 20.9299 18.0324 21.5 17.0389 21.5V22.5ZM13.8727 20.5459C14.4539 21.7037 15.653 22.5 17.0389 22.5V21.5C16.0456 21.5 15.1845 20.9301 14.7664 20.0972L13.8727 20.5459ZM12.4214 21.4866C13.257 21.4866 14.0262 21.1965 14.6319 20.712L14.0072 19.9311C13.5724 20.2789 13.0218 20.4866 12.4214 20.4866V21.4866ZM8.88037 17.9455C8.88037 19.9012 10.4657 21.4866 12.4214 21.4866V20.4866C11.018 20.4866 9.88037 19.3489 9.88037 17.9455H8.88037ZM11.5488 14.513C10.0154 14.9018 8.88037 16.2905 8.88037 17.9455H9.88037C9.88037 16.7591 10.694 15.7614 11.7945 15.4823L11.5488 14.513ZM10.9643 13.8917C10.9643 14.3451 11.0498 14.7798 11.2059 15.1796L12.1374 14.8158C12.0258 14.53 11.9643 14.2187 11.9643 13.8917H10.9643ZM13.9381 10.396C12.252 10.6678 10.9643 12.1289 10.9643 13.8917H11.9643C11.9643 12.6276 12.888 11.5782 14.0972 11.3833L13.9381 10.396ZM13.4979 10.541C13.4979 10.6779 13.5057 10.8131 13.5209 10.9463L14.5145 10.8329C14.5035 10.7373 14.4979 10.6399 14.4979 10.541H13.4979ZM17.0389 7C15.0833 7 13.4979 8.58536 13.4979 10.541H14.4979C14.4979 9.13765 15.6356 8 17.0389 8V7ZM20.5799 10.541C20.5799 8.58536 18.9946 7 17.0389 7V8C18.4423 8 19.5799 9.13765 19.5799 10.541H20.5799Z" fill="black"/>
<path d="M15.5391 21.5V25.5C15.5391 26.0523 15.9868 26.5 16.5391 26.5H17.5391C18.0913 26.5 18.5391 26.0523 18.5391 25.5V21.5" stroke="black"/>
</svg>
