<svg width="25" height="25" viewBox="0 0 25 25" fill="none" xmlns="http://www.w3.org/2000/svg">
<path fill-rule="evenodd" clip-rule="evenodd" d="M19.5058 8.34108C19.8269 8.52647 19.937 8.93706 19.7516 9.25815L17.9559 12.3684C17.9434 12.39 17.9299 12.4106 17.9155 12.4303V15.2788C17.9155 15.6496 17.615 15.9501 17.2442 15.9501H17.1108C16.74 15.9501 16.4394 15.6496 16.4394 15.2788V12.3992C16.4329 12.3892 16.4266 12.3789 16.4206 12.3684L14.6248 9.25815C14.4395 8.93706 14.5495 8.52647 14.8706 8.34108L14.9861 8.27438C15.3072 8.089 15.7178 8.19901 15.9032 8.52011L17.1882 10.7459L18.4732 8.52011C18.6586 8.19901 19.0692 8.089 19.3903 8.27438L19.5058 8.34108Z" fill="black"/>
<path fill-rule="evenodd" clip-rule="evenodd" d="M12.9082 8.218C12.6126 8.12068 12.2793 8.24014 12.1175 8.52035L9.65329 12.7885L7.18905 8.52035C7.01427 8.21764 6.63935 8.10253 6.32794 8.24567C6.03469 8.31763 5.81714 8.58226 5.81714 8.8977V15.1124C5.81714 15.4831 6.11771 15.7837 6.48848 15.7837H6.62189C6.99266 15.7837 7.29323 15.4831 7.29323 15.1124V11.653L9.01804 14.6404C9.15188 14.8723 9.4031 14.9941 9.65329 14.9741C9.90347 14.9941 10.1547 14.8723 10.2885 14.6404L12.0143 11.6513V15.0981C12.0143 15.4689 12.3149 15.7695 12.6857 15.7695H12.8191C13.1898 15.7695 13.4904 15.4689 13.4904 15.0981V8.88348C13.4904 8.54294 13.2369 8.26162 12.9082 8.218Z" fill="black"/>
</svg>
