<svg width="35" height="34" viewBox="0 0 35 34" fill="none" xmlns="http://www.w3.org/2000/svg">
<circle cx="9.03906" cy="25" r="4" fill="currentColor"/>
<path d="M7.53906 26V13L13.5391 8H26.5391V20L20.5391 26H7.53906Z" stroke="black" stroke-linecap="round" stroke-linejoin="round"/>
<path d="M15.8387 9.6C15.8387 9.93137 15.57 10.2 15.2387 10.2C14.9073 10.2 14.6387 9.93137 14.6387 9.6C14.6387 9.26863 14.9073 9 15.2387 9C15.57 9 15.8387 9.26863 15.8387 9.6Z" fill="black"/>
<path d="M18.8387 9.6C18.8387 9.93137 18.57 10.2 18.2387 10.2C17.9073 10.2 17.6387 9.93137 17.6387 9.6C17.6387 9.26863 17.9073 9 18.2387 9C18.57 9 18.8387 9.26863 18.8387 9.6Z" fill="black"/>
<path d="M21.8387 9.6C21.8387 9.93137 21.57 10.2 21.2387 10.2C20.9073 10.2 20.6387 9.93137 20.6387 9.6C20.6387 9.26863 20.9073 9 21.2387 9C21.57 9 21.8387 9.26863 21.8387 9.6Z" fill="black"/>
<path d="M13.2391 11.5004C13.2391 11.8318 12.9704 12.1004 12.6391 12.1004C12.3077 12.1004 12.0391 11.8318 12.0391 11.5004C12.0391 11.169 12.3077 10.9004 12.6391 10.9004C12.9704 10.9004 13.2391 11.169 13.2391 11.5004Z" fill="black"/>
<path d="M16.2391 11.5004C16.2391 11.8318 15.9704 12.1004 15.6391 12.1004C15.3077 12.1004 15.0391 11.8318 15.0391 11.5004C15.0391 11.169 15.3077 10.9004 15.6391 10.9004C15.9704 10.9004 16.2391 11.169 16.2391 11.5004Z" fill="black"/>
<path d="M19.2391 11.5004C19.2391 11.8318 18.9704 12.1004 18.6391 12.1004C18.3077 12.1004 18.0391 11.8318 18.0391 11.5004C18.0391 11.169 18.3077 10.9004 18.6391 10.9004C18.9704 10.9004 19.2391 11.169 19.2391 11.5004Z" fill="black"/>
<path d="M7.53906 13.5H20.5391M20.5391 13.5L26.5391 8M20.5391 13.5V25.5" stroke="black" stroke-linecap="round" stroke-linejoin="round"/>
</svg>
