<svg width="34" height="34" viewBox="0 0 34 34" fill="none" xmlns="http://www.w3.org/2000/svg">
<circle cx="9" cy="25" r="4" fill="currentColor"/>
<path fill-rule="evenodd" clip-rule="evenodd" d="M9.58073 7.5H13.4193C13.6828 7.49999 13.9102 7.49998 14.0975 7.51529C14.2952 7.53144 14.4918 7.56709 14.681 7.66349C14.9632 7.8073 15.1927 8.03677 15.3365 8.31902C15.4329 8.5082 15.4686 8.70481 15.4847 8.90249C15.5 9.08978 15.5 9.31716 15.5 9.58074V13.4193C15.5 13.6828 15.5 13.9102 15.4847 14.0975C15.4686 14.2952 15.4329 14.4918 15.3365 14.681C15.1927 14.9632 14.9632 15.1927 14.681 15.3365C14.4918 15.4329 14.2952 15.4686 14.0975 15.4847C13.9102 15.5 13.6828 15.5 13.4193 15.5H9.58074C9.31716 15.5 9.08978 15.5 8.90249 15.4847C8.70481 15.4686 8.5082 15.4329 8.31902 15.3365C8.03677 15.1927 7.8073 14.9632 7.66349 14.681C7.56709 14.4918 7.53144 14.2952 7.51529 14.0975C7.49998 13.9102 7.49999 13.6828 7.5 13.4193V9.58073C7.49999 9.31715 7.49998 9.08977 7.51529 8.90249C7.53144 8.70481 7.56709 8.5082 7.66349 8.31902C7.8073 8.03677 8.03677 7.8073 8.31902 7.66349C8.5082 7.56709 8.70481 7.53144 8.90249 7.51529C9.08977 7.49998 9.31715 7.49999 9.58073 7.5ZM8.98392 8.51196C8.84809 8.52306 8.79773 8.5419 8.77301 8.5545C8.67892 8.60243 8.60243 8.67892 8.5545 8.77301C8.5419 8.79773 8.52306 8.84809 8.51196 8.98392C8.50039 9.12559 8.5 9.31172 8.5 9.6V13.4C8.5 13.6883 8.50039 13.8744 8.51196 14.0161C8.52306 14.1519 8.5419 14.2023 8.5545 14.227C8.60243 14.3211 8.67892 14.3976 8.77301 14.4455C8.79773 14.4581 8.84809 14.4769 8.98392 14.488C9.12559 14.4996 9.31172 14.5 9.6 14.5H13.4C13.6883 14.5 13.8744 14.4996 14.0161 14.488C14.1519 14.4769 14.2023 14.4581 14.227 14.4455C14.3211 14.3976 14.3976 14.3211 14.4455 14.227C14.4581 14.2023 14.4769 14.1519 14.488 14.0161C14.4996 13.8744 14.5 13.6883 14.5 13.4V9.6C14.5 9.31172 14.4996 9.12559 14.488 8.98392C14.4769 8.84809 14.4581 8.79773 14.4455 8.77301C14.3976 8.67892 14.3211 8.60243 14.227 8.5545C14.2023 8.5419 14.1519 8.52306 14.0161 8.51196C13.8744 8.50039 13.6883 8.5 13.4 8.5H9.6C9.31172 8.5 9.12559 8.50039 8.98392 8.51196ZM20.5807 7.5H24.4193C24.6828 7.49999 24.9102 7.49998 25.0975 7.51529C25.2952 7.53144 25.4918 7.56709 25.681 7.66349C25.9632 7.8073 26.1927 8.03677 26.3365 8.31902C26.4329 8.5082 26.4686 8.70481 26.4847 8.90249C26.5 9.08977 26.5 9.31715 26.5 9.58072V13.4193C26.5 13.6829 26.5 13.9102 26.4847 14.0975C26.4686 14.2952 26.4329 14.4918 26.3365 14.681C26.1927 14.9632 25.9632 15.1927 25.681 15.3365C25.4918 15.4329 25.2952 15.4686 25.0975 15.4847C24.9102 15.5 24.6828 15.5 24.4193 15.5H20.5807C20.3172 15.5 20.0898 15.5 19.9025 15.4847C19.7048 15.4686 19.5082 15.4329 19.319 15.3365C19.0368 15.1927 18.8073 14.9632 18.6635 14.681C18.5671 14.4918 18.5314 14.2952 18.5153 14.0975C18.5 13.9102 18.5 13.6829 18.5 13.4193V9.58072C18.5 9.31715 18.5 9.08977 18.5153 8.90249C18.5314 8.70481 18.5671 8.5082 18.6635 8.31902C18.8073 8.03677 19.0368 7.8073 19.319 7.66349C19.5082 7.56709 19.7048 7.53144 19.9025 7.51529C20.0898 7.49998 20.3172 7.49999 20.5807 7.5ZM19.9839 8.51196C19.8481 8.52306 19.7977 8.5419 19.773 8.5545C19.6789 8.60243 19.6024 8.67892 19.5545 8.77301C19.5419 8.79773 19.5231 8.84809 19.512 8.98392C19.5004 9.12559 19.5 9.31172 19.5 9.6V13.4C19.5 13.6883 19.5004 13.8744 19.512 14.0161C19.5231 14.1519 19.5419 14.2023 19.5545 14.227C19.6024 14.3211 19.6789 14.3976 19.773 14.4455C19.7977 14.4581 19.8481 14.4769 19.9839 14.488C20.1256 14.4996 20.3117 14.5 20.6 14.5H24.4C24.6883 14.5 24.8744 14.4996 25.0161 14.488C25.1519 14.4769 25.2023 14.4581 25.227 14.4455C25.3211 14.3976 25.3976 14.3211 25.4455 14.227C25.4581 14.2023 25.4769 14.1519 25.488 14.0161C25.4996 13.8744 25.5 13.6883 25.5 13.4V9.6C25.5 9.31172 25.4996 9.12559 25.488 8.98392C25.4769 8.84809 25.4581 8.79773 25.4455 8.77301C25.3976 8.67892 25.3211 8.60243 25.227 8.5545C25.2023 8.5419 25.1519 8.52306 25.0161 8.51196C24.8744 8.50039 24.6883 8.5 24.4 8.5H20.6C20.3117 8.5 20.1256 8.50039 19.9839 8.51196ZM9.58072 18.5H13.4193C13.6829 18.5 13.9102 18.5 14.0975 18.5153C14.2952 18.5314 14.4918 18.5671 14.681 18.6635C14.9632 18.8073 15.1927 19.0368 15.3365 19.319C15.4329 19.5082 15.4686 19.7048 15.4847 19.9025C15.5 20.0898 15.5 20.3172 15.5 20.5807V24.4193C15.5 24.6828 15.5 24.9102 15.4847 25.0975C15.4686 25.2952 15.4329 25.4918 15.3365 25.681C15.1927 25.9632 14.9632 26.1927 14.681 26.3365C14.4918 26.4329 14.2952 26.4686 14.0975 26.4847C13.9102 26.5 13.6829 26.5 13.4193 26.5H9.58072C9.31715 26.5 9.08977 26.5 8.90249 26.4847C8.70481 26.4686 8.5082 26.4329 8.31902 26.3365C8.03677 26.1927 7.8073 25.9632 7.66349 25.681C7.56709 25.4918 7.53144 25.2952 7.51529 25.0975C7.49998 24.9102 7.49999 24.6828 7.5 24.4193V20.5807C7.49999 20.3172 7.49998 20.0898 7.51529 19.9025C7.53144 19.7048 7.56709 19.5082 7.66349 19.319C7.8073 19.0368 8.03677 18.8073 8.31902 18.6635C8.5082 18.5671 8.70481 18.5314 8.90249 18.5153C9.08977 18.5 9.31715 18.5 9.58072 18.5ZM8.98392 19.512C8.84809 19.5231 8.79773 19.5419 8.77301 19.5545C8.67892 19.6024 8.60243 19.6789 8.5545 19.773C8.5419 19.7977 8.52306 19.8481 8.51196 19.9839C8.50039 20.1256 8.5 20.3117 8.5 20.6V24.4C8.5 24.6883 8.50039 24.8744 8.51196 25.0161C8.52306 25.1519 8.5419 25.2023 8.5545 25.227C8.60243 25.3211 8.67892 25.3976 8.77301 25.4455C8.79773 25.4581 8.84809 25.4769 8.98392 25.488C9.12559 25.4996 9.31172 25.5 9.6 25.5H13.4C13.6883 25.5 13.8744 25.4996 14.0161 25.488C14.1519 25.4769 14.2023 25.4581 14.227 25.4455C14.3211 25.3976 14.3976 25.3211 14.4455 25.227C14.4581 25.2023 14.4769 25.1519 14.488 25.0161C14.4996 24.8744 14.5 24.6883 14.5 24.4V20.6C14.5 20.3117 14.4996 20.1256 14.488 19.9839C14.4769 19.8481 14.4581 19.7977 14.4455 19.773C14.3976 19.6789 14.3211 19.6024 14.227 19.5545C14.2023 19.5419 14.1519 19.5231 14.0161 19.512C13.8744 19.5004 13.6883 19.5 13.4 19.5H9.6C9.31172 19.5 9.12559 19.5004 8.98392 19.512ZM20.5807 18.5H24.4193C24.6829 18.5 24.9102 18.5 25.0975 18.5153C25.2952 18.5314 25.4918 18.5671 25.681 18.6635C25.9632 18.8073 26.1927 19.0368 26.3365 19.319C26.4329 19.5082 26.4686 19.7048 26.4847 19.9025C26.5 20.0898 26.5 20.3171 26.5 20.5807V24.4193C26.5 24.6829 26.5 24.9102 26.4847 25.0975C26.4686 25.2952 26.4329 25.4918 26.3365 25.681C26.1927 25.9632 25.9632 26.1927 25.681 26.3365C25.4918 26.4329 25.2952 26.4686 25.0975 26.4847C24.9102 26.5 24.6829 26.5 24.4193 26.5H20.5807C20.3171 26.5 20.0898 26.5 19.9025 26.4847C19.7048 26.4686 19.5082 26.4329 19.319 26.3365C19.0368 26.1927 18.8073 25.9632 18.6635 25.681C18.5671 25.4918 18.5314 25.2952 18.5153 25.0975C18.5 24.9102 18.5 24.6829 18.5 24.4193V20.5807C18.5 20.3171 18.5 20.0898 18.5153 19.9025C18.5314 19.7048 18.5671 19.5082 18.6635 19.319C18.8073 19.0368 19.0368 18.8073 19.319 18.6635C19.5082 18.5671 19.7048 18.5314 19.9025 18.5153C20.0898 18.5 20.3171 18.5 20.5807 18.5ZM19.9839 19.512C19.8481 19.5231 19.7977 19.5419 19.773 19.5545C19.6789 19.6024 19.6024 19.6789 19.5545 19.773C19.5419 19.7977 19.5231 19.8481 19.512 19.9839C19.5004 20.1256 19.5 20.3117 19.5 20.6V24.4C19.5 24.6883 19.5004 24.8744 19.512 25.0161C19.5231 25.1519 19.5419 25.2023 19.5545 25.227C19.6024 25.3211 19.6789 25.3976 19.773 25.4455C19.7977 25.4581 19.8481 25.4769 19.9839 25.488C20.1256 25.4996 20.3117 25.5 20.6 25.5H24.4C24.6883 25.5 24.8744 25.4996 25.0161 25.488C25.1519 25.4769 25.2023 25.4581 25.227 25.4455C25.3211 25.3976 25.3976 25.3211 25.4455 25.227C25.4581 25.2023 25.4769 25.1519 25.488 25.0161C25.4996 24.8744 25.5 24.6883 25.5 24.4V20.6C25.5 20.3117 25.4996 20.1256 25.488 19.9839C25.4769 19.8481 25.4581 19.7977 25.4455 19.773C25.3976 19.6789 25.3211 19.6024 25.227 19.5545C25.2023 19.5419 25.1519 19.5231 25.0161 19.512C24.8744 19.5004 24.6883 19.5 24.4 19.5H20.6C20.3117 19.5 20.1256 19.5004 19.9839 19.512Z" fill="black"/>
</svg>
