<svg width="36" height="36" viewBox="0 0 36 36" fill="none" xmlns="http://www.w3.org/2000/svg">
<circle cx="18" cy="18" r="18" fill="black"/>
<rect x="18" y="6" width="16.9693" height="16.9718" rx="2.5" transform="rotate(45 18 6)" fill="white"/>
<path d="M12.6765 11.3183C13.5776 10.4172 15.0386 10.4172 15.9397 11.3183L20.9834 16.362C21.8845 17.2631 21.8845 18.7241 20.9834 19.6252L15.9397 24.6689C15.0386 25.57 13.5776 25.57 12.6765 24.6689L7.63285 19.6252C6.73176 18.7241 6.73176 17.2631 7.63285 16.362L12.6765 11.3183Z" fill="#FFC93F" fill-opacity="0.4"/>
<path d="M20.0602 11.3183C20.9613 10.4172 22.4223 10.4172 23.3234 11.3183L28.367 16.362C29.2681 17.2631 29.2681 18.7241 28.367 19.6252L23.3234 24.6689C22.4223 25.57 20.9613 25.57 20.0602 24.6689L15.0165 19.6252C14.1154 18.7241 14.1154 17.2631 15.0165 16.362L20.0602 11.3183Z" fill="#3EC5FF" fill-opacity="0.4"/>
<path d="M16.3684 7.6265C17.2695 6.72541 18.7304 6.72541 19.6315 7.6265L24.6752 12.6702C25.5763 13.5713 25.5763 15.0322 24.6752 15.9333L19.6315 20.977C18.7304 21.8781 17.2695 21.8781 16.3684 20.977L11.3247 15.9333C10.4236 15.0322 10.4236 13.5713 11.3247 12.6702L16.3684 7.6265Z" fill="#FF67AD" fill-opacity="0.4"/>
<path d="M16.3684 15.0102C17.2695 14.1091 18.7304 14.1091 19.6315 15.0102L24.6752 20.0539C25.5763 20.955 25.5763 22.4159 24.6752 23.317L19.6315 28.3607C18.7304 29.2618 17.2695 29.2618 16.3684 28.3607L11.3247 23.317C10.4236 22.4159 10.4236 20.955 11.3247 20.0539L16.3684 15.0102Z" fill="#2BFF26" fill-opacity="0.4"/>
<path d="M20.9833 16.362C21.8843 17.2631 21.8844 18.7241 20.9833 19.6252L19.6314 20.977C18.7303 21.8781 17.2693 21.8781 16.3683 20.977L15.0164 19.6252C14.1153 18.7241 14.1153 17.2631 15.0164 16.362L16.3683 15.0102C17.2693 14.1091 18.7303 14.1091 19.6314 15.0102L20.9833 16.362Z" fill="white"/>
</svg>
