<svg width="36" height="36" viewBox="0 0 36 36" fill="none" xmlns="http://www.w3.org/2000/svg">
<g clip-path="url(#clip0_1320_68297)">
<circle cx="18" cy="18" r="17.5" fill="#DBFC3D" stroke="black"/>
<path d="M18 27C20.0822 27 22.1 26.278 23.7095 24.9571C25.3191 23.6362 26.4209 21.798 26.8271 19.7558C27.2333 17.7136 26.9188 15.5938 25.9373 13.7574C24.9558 11.9211 23.3679 10.4819 21.4442 9.68508C19.5205 8.88826 17.38 8.78311 15.3874 9.38754C13.3949 9.99197 11.6736 11.2686 10.5168 12.9999C9.35997 14.7311 8.83925 16.81 9.04334 18.8822C9.24743 20.9543 10.1637 22.8916 11.636 24.364" stroke="black" stroke-linecap="round"/>
<path d="M15.2817 26.4113C15.2817 26.9636 14.834 27.4113 14.2817 27.4113C13.7295 27.4113 13.2817 26.9636 13.2817 26.4113C13.2817 25.859 13.7295 25.4113 14.2817 25.4113C14.834 25.4113 15.2817 25.859 15.2817 26.4113Z" fill="black"/>
<path d="M22 16L18.402 20.3175C17.7465 21.1042 17.4187 21.4976 16.9781 21.5176C16.5375 21.5375 16.1755 21.1755 15.4514 20.4514L14 19" stroke="black" stroke-linecap="round"/>
</g>
<defs>
<clipPath id="clip0_1320_68297">
<rect width="36" height="36" fill="white"/>
</clipPath>
</defs>
</svg>
