<svg width="14" height="14" viewBox="0 0 14 14" fill="none" xmlns="http://www.w3.org/2000/svg">
<circle cx="7" cy="7" r="6.5" fill="#FFD233" stroke="black"/>
<path fill-rule="evenodd" clip-rule="evenodd" d="M7.23664 9.23672C7.61801 9.23672 7.97337 9.16367 8.32874 8.96278V8.05188H7.71246C7.38046 8.05188 7.11133 7.78274 7.11133 7.45074C7.11133 7.11875 7.38046 6.84961 7.71246 6.84961H8.32874V6.84752H9.61152V9.68416C8.94413 10.2138 8.02538 10.4969 7.15863 10.4969C5.25179 10.4969 3.84766 9.11802 3.84766 7.1913C3.84766 5.26458 5.25179 3.88574 7.18463 3.88574C8.02336 3.88574 8.74942 4.12311 9.30797 4.57562C9.56678 4.7853 9.54089 5.1689 9.3021 5.40112C9.04059 5.65544 8.62586 5.62685 8.31551 5.43516C7.99811 5.23912 7.64729 5.14587 7.25397 5.14587C6.0752 5.14587 5.26912 5.97683 5.26912 7.1913C5.26912 8.38751 6.0752 9.23672 7.23664 9.23672Z" fill="black"/>
</svg>
