<svg width="14" height="14" viewBox="0 0 14 14" fill="none" xmlns="http://www.w3.org/2000/svg">
<circle cx="7" cy="7" r="6.5" fill="#CC79FD" stroke="black"/>
<path d="M7.20049 10.3654C8.05566 10.3654 8.79546 10.1237 9.35965 9.67045C9.6231 9.4588 9.59189 9.06872 9.34357 8.8395C9.07694 8.59337 8.66449 8.63164 8.35845 8.82661C8.04103 9.02882 7.6811 9.13109 7.28099 9.13109C6.10927 9.13109 5.27744 8.3082 5.27744 7.12754C5.27744 5.94687 6.10927 5.12398 7.28099 5.12398C7.68123 5.12398 8.04127 5.22632 8.35876 5.42633C8.66441 5.61888 9.0746 5.65491 9.34005 5.40989C9.58994 5.17922 9.62 4.78633 9.35336 4.57525C8.79032 4.12953 8.0544 3.88965 7.20944 3.88965C5.25955 3.88965 3.81055 5.24026 3.81055 7.12754C3.81055 9.01482 5.25955 10.3654 7.20049 10.3654Z" fill="black"/>
</svg>
