<svg width="48" height="48" viewBox="0 0 48 48" fill="none" xmlns="http://www.w3.org/2000/svg">
<circle cx="24" cy="24" r="23.5" fill="white" stroke="black"/>
<path d="M26.9346 33L19.055 33C18.1962 33 17.5 32.2819 17.5 31.396V22.9604C17.3753 22.9249 17.2548 22.8734 17.1415 22.8066L13.3918 21.0433C12.9467 20.781 12.8653 20.1539 13.2278 19.7799L15.5849 17.3487C16.7307 16.1667 18.206 15.3836 19.8045 15.1088L20.4373 15C20.7615 16.7245 22.2333 18.0266 23.9999 18.0266C25.7665 18.0266 27.2383 16.7245 27.5625 15L28.1955 15.1088C29.794 15.3836 31.2693 16.1667 32.4151 17.3487L34.7722 19.7799C35.1347 20.1539 35.0533 20.781 34.6082 21.0433L30.8586 22.8066C30.7453 22.8734 30.6248 22.9249 30.5 22.9604V29.625" stroke="black" stroke-linecap="round" stroke-linejoin="round"/>
<path d="M26.0268 27.3856C26.1809 26.9344 26.8191 26.9344 26.9732 27.3856L27.0571 27.6313C27.1071 27.7778 27.2222 27.8929 27.3687 27.9429L27.6144 28.0268C28.0656 28.1809 28.0656 28.8191 27.6144 28.9732L27.3687 29.0571C27.2222 29.1071 27.1071 29.2222 27.0571 29.3687L26.9732 29.6144C26.8191 30.0656 26.1809 30.0656 26.0268 29.6144L25.9429 29.3687C25.8929 29.2222 25.7778 29.1071 25.6313 29.0571L25.3856 28.9732C24.9344 28.8191 24.9344 28.1809 25.3856 28.0268L25.6313 27.9429C25.7778 27.8929 25.8929 27.7778 25.9429 27.6313L26.0268 27.3856Z" fill="black"/>
<path d="M23.2209 25.7076C23.3208 25.4544 23.6792 25.4544 23.7791 25.7076L23.8765 25.9545C23.907 26.0318 23.9682 26.093 24.0455 26.1235L24.2924 26.2209C24.5456 26.3208 24.5456 26.6792 24.2924 26.7791L24.0455 26.8765C23.9682 26.907 23.907 26.9682 23.8765 27.0455L23.7791 27.2924C23.6792 27.5456 23.3208 27.5456 23.2209 27.2924L23.1235 27.0455C23.093 26.9682 23.0318 26.907 22.9545 26.8765L22.7076 26.7791C22.4544 26.6792 22.4544 26.3208 22.7076 26.2209L22.9545 26.1235C23.0318 26.093 23.093 26.0318 23.1235 25.9545L23.2209 25.7076Z" fill="black"/>
<path d="M31 32.5C31 33.0523 30.5523 33.5 30 33.5C29.4477 33.5 29 33.0523 29 32.5C29 31.9477 29.4477 31.5 30 31.5C30.5523 31.5 31 31.9477 31 32.5Z" fill="#FF2164"/>
<path d="M17 21.5C17 21.2239 17.2239 21 17.5 21C17.7761 21 18 21.2239 18 21.5V23.5C18 23.7761 17.7761 24 17.5 24C17.2239 24 17 23.7761 17 23.5V21.5Z" fill="black"/>
<path d="M30 21.5C30 21.2239 30.2239 21 30.5 21C30.7761 21 31 21.2239 31 21.5V23.5C31 23.7761 30.7761 24 30.5 24C30.2239 24 30 23.7761 30 23.5V21.5Z" fill="black"/>
</svg>
