<svg width="48" height="49" viewBox="0 0 48 49" fill="none" xmlns="http://www.w3.org/2000/svg">
<circle cx="24" cy="24.9985" r="23.5" fill="white" stroke="black"/>
<g clip-path="url(#clip0_2632_36698)">
<path d="M24.8784 32.1601L24.8768 32.1616C24.3845 32.612 23.6267 32.6119 23.1344 32.1549L23.132 32.1527L23.033 32.0621L23.0321 32.0613C20.6601 29.8984 18.7418 28.1459 17.4245 26.5003C16.1146 24.8639 15.4502 23.3944 15.5029 21.8034C15.5517 20.4143 16.2589 19.086 17.3913 18.309L17.3916 18.3088C19.5231 16.8442 22.1745 17.5142 23.6184 19.2174L23.9998 19.6673L24.3811 19.2174C25.8261 17.513 28.4769 16.8363 30.6069 18.3081L30.6082 18.309C31.7407 19.0861 32.4479 20.4146 32.4966 21.8039L32.4966 21.8043C32.5536 23.3945 31.8897 24.8636 30.5783 26.5026C29.2646 28.1446 27.3535 29.8945 24.9934 32.0556L24.9683 32.0785L24.9666 32.0801L24.8784 32.1601Z" fill="#FF2164" stroke="black"/>
</g>
<defs>
<clipPath id="clip0_2632_36698">
<rect width="20" height="20" fill="white" transform="translate(14 14.9985)"/>
</clipPath>
</defs>
</svg>
