<svg width="23" height="23" viewBox="0 0 23 23" fill="none" xmlns="http://www.w3.org/2000/svg">
<g id="Logo / google">
<path id="Vector" fill-rule="evenodd" clip-rule="evenodd" d="M21.7888 11.3277C21.7897 10.6415 21.7276 9.95672 21.6033 9.28149H11.9902V13.1496H17.4822C17.3682 13.7608 17.129 14.343 16.7791 14.8612C16.4291 15.3793 15.9757 15.8226 15.4461 16.1642V18.6739H18.7434C20.6728 16.9329 21.786 14.3686 21.786 11.3258L21.7888 11.3277Z" fill="#3E82F1"/>
<path id="Vector_2" fill-rule="evenodd" clip-rule="evenodd" d="M11.9935 21.0996C14.7486 21.0996 17.0586 20.2047 18.7467 18.6776L15.4494 16.1679C14.5352 16.768 13.3662 17.1232 11.9935 17.1232C9.33546 17.1232 7.086 15.3634 6.28427 12.9998H2.87451V15.5914C3.72391 17.2478 5.02654 18.6401 6.63688 19.6128C8.24721 20.5855 10.1018 21.1003 11.9935 21.0996Z" fill="#32A753"/>
<path id="Vector_3" fill-rule="evenodd" clip-rule="evenodd" d="M6.28408 12.9998C5.85726 11.7679 5.85726 10.4324 6.28408 9.2005V6.60889H2.87432C2.16068 8.00276 1.78906 9.54069 1.78906 11.1002C1.78906 12.6597 2.16068 14.1976 2.87432 15.5915L6.28408 12.9998Z" fill="#F9BB00"/>
<path id="Vector_4" fill-rule="evenodd" clip-rule="evenodd" d="M11.9935 5.07703C13.4922 5.07703 14.837 5.58198 15.8945 6.57303L18.8207 3.70445C17.0538 2.0907 14.7438 1.10059 11.9954 1.10059C10.1038 1.0999 8.24916 1.61466 6.63883 2.58737C5.0285 3.56008 3.72586 4.95242 2.87646 6.60883L6.28622 9.20044C7.08795 6.83681 9.33741 5.07703 11.9954 5.07703H11.9935Z" fill="#E74133"/>
</g>
</svg>
