<svg width="21" height="20" viewBox="0 0 21 20" fill="none" xmlns="http://www.w3.org/2000/svg">
<g clip-path="url(#clip0_1194_1260)">
<path d="M11.3784 17.1616L11.3768 17.163C10.8845 17.6135 10.1267 17.6133 9.63438 17.1564L9.63198 17.1542L9.53302 17.0635L9.53214 17.0627C7.16015 14.8999 5.24181 13.1474 3.92452 11.5017C2.61462 9.86536 1.95017 8.3959 2.00292 6.80491C2.0517 5.41578 2.75895 4.08745 3.89129 3.31048L3.89157 3.31029C6.02313 1.84562 8.67448 2.51569 10.1184 4.21887L10.4998 4.66875L10.8811 4.21887C12.3261 2.51446 14.9769 1.83781 17.1069 3.30956L17.1082 3.31048C18.2407 4.08753 18.9479 5.41604 18.9966 6.80533L18.9966 6.80572C19.0536 8.39599 18.3897 9.86505 17.0783 11.5041C15.7646 13.1461 13.8535 14.896 11.4934 17.057L11.4683 17.08L11.4666 17.0816L11.3784 17.1616Z" fill="#FF2164" stroke="black"/>
</g>
<defs>
<clipPath id="clip0_1194_1260">
<rect width="20" height="20" fill="white" transform="translate(0.5)"/>
</clipPath>
</defs>
</svg>
