<svg xmlns="http://www.w3.org/2000/svg" width="60" height="60" viewBox="0 0 60 60" fill="none">
  <path fill-rule="evenodd" clip-rule="evenodd"
    d="M30 56.0256C46.0163 56.0256 59 43.7077 59 28.5128C59 13.3179 46.0163 1 30 1C13.9837 1 1 13.3179 1 28.5128C1 37.2819 5.32424 45.0928 12.06 50.1309C11.4748 52.0363 9.20923 55.3343 7.11626 57.5365C6.67239 58.0035 7.18385 59.1121 7.8228 58.9908C12.0957 58.1797 18.723 56.7066 20.9887 54.6715C23.8252 55.5504 26.8541 56.0256 30 56.0256Z"
    fill="white" />
  <path
    d="M12.06 50.1309L12.538 50.2777C12.6 50.0759 12.5286 49.8569 12.3595 49.7305L12.06 50.1309ZM7.11626 57.5365L7.47868 57.8809L7.47868 57.8809L7.11626 57.5365ZM7.8228 58.9908L7.72955 58.4996L7.8228 58.9908ZM20.9887 54.6715L21.1366 54.1939C20.9685 54.1418 20.7854 54.1819 20.6545 54.2995L20.9887 54.6715ZM58.5 28.5128C58.5 43.4071 45.7652 55.5256 30 55.5256V56.5256C46.2673 56.5256 59.5 44.0084 59.5 28.5128H58.5ZM30 1.5C45.7652 1.5 58.5 13.6185 58.5 28.5128H59.5C59.5 13.0173 46.2673 0.5 30 0.5V1.5ZM1.5 28.5128C1.5 13.6185 14.2348 1.5 30 1.5V0.5C13.7327 0.5 0.5 13.0173 0.5 28.5128H1.5ZM12.3595 49.7305C5.73937 44.7789 1.5 37.1115 1.5 28.5128H0.5C0.5 37.4522 4.90912 45.4067 11.7606 50.5312L12.3595 49.7305ZM7.47868 57.8809C8.5464 56.7575 9.65324 55.3602 10.5683 54.0017C11.4769 52.6527 12.2233 51.3025 12.538 50.2777L11.5821 49.9841C11.3116 50.8646 10.6326 52.1161 9.73886 53.4431C8.85154 54.7604 7.77909 56.1133 6.75383 57.192L7.47868 57.8809ZM7.72955 58.4996C7.72644 58.5002 7.72408 58.5004 7.71848 58.4989C7.71136 58.497 7.69559 58.4912 7.67247 58.4746C7.62311 58.4391 7.56258 58.3696 7.51507 58.2697C7.46796 58.1705 7.44726 58.0697 7.44936 57.9912C7.45143 57.9139 7.47322 57.8867 7.47868 57.8809L6.75383 57.192C6.32335 57.645 6.42067 58.2966 6.61187 58.6989C6.80073 59.0963 7.25897 59.6068 7.91605 59.4821L7.72955 58.4996ZM20.6545 54.2995C20.1471 54.7554 19.3652 55.2035 18.3775 55.6322C17.3965 56.058 16.2435 56.4517 15.018 56.8103C12.5671 57.5275 9.86068 58.095 7.72955 58.4996L7.91605 59.4821C10.0579 59.0755 12.8015 58.5009 15.2989 57.77C16.5476 57.4046 17.7433 56.9977 18.7757 56.5496C19.8012 56.1044 20.6974 55.6052 21.3228 55.0434L20.6545 54.2995ZM30 55.5256C26.9046 55.5256 23.9256 55.0581 21.1366 54.1939L20.8407 55.1491C23.7247 56.0427 26.8035 56.5256 30 56.5256V55.5256Z"
    fill="black" />
</svg>