<svg width="25" height="24" viewBox="0 0 25 24" fill="none" xmlns="http://www.w3.org/2000/svg">
<path d="M17.3 3C16.4779 3 10.3051 3 6.49899 3C4.84214 3 3.5 4.34315 3.5 6V18C3.5 19.6569 4.84315 21 6.5 21H18.5C20.1569 21 21.5 19.6569 21.5 18V8.4" stroke="black" stroke-linecap="round"/>
<path d="M7.74023 20.6704L14.6726 11.6788C15.4625 10.6542 17.0028 10.6379 17.8142 11.6456L21.5001 16.2229" stroke="black" stroke-linecap="round"/>
<path d="M3.60156 16.6812L6.45278 13.8299C7.03857 13.2442 7.98832 13.2442 8.5741 13.8299L11.0684 16.3243" stroke="black" stroke-linecap="round"/>
<path d="M21.7002 4.6001C21.7002 5.15238 21.2525 5.6001 20.7002 5.6001C20.1479 5.6001 19.7002 5.15238 19.7002 4.6001C19.7002 4.04781 20.1479 3.6001 20.7002 3.6001C21.2525 3.6001 21.7002 4.04781 21.7002 4.6001Z" fill="#FF2164"/>
<circle cx="10.0999" cy="8.39995" r="1.2" fill="black"/>
</svg>
