<svg width="21" height="20" viewBox="0 0 21 20" fill="none" xmlns="http://www.w3.org/2000/svg">
<ellipse cx="3.83333" cy="16.6666" rx="3.33333" ry="3.33333" fill="#DBFC3D"/>
<path d="M14.5 2.5C13.8498 2.5 9.18352 2.5 5.99845 2.5C4.3416 2.5 3 3.84315 3 5.5V14.5C3 16.1569 4.34315 17.5 6 17.5H15C16.6569 17.5 18 16.1569 18 14.5V7" stroke="black" stroke-linecap="round"/>
<path d="M6.5332 17.2252L12.0519 10.0672C12.8418 9.04261 14.3821 9.02633 15.1935 10.034L17.9997 13.519" stroke="black" stroke-linecap="round"/>
<path d="M3.08398 13.901L5.28323 11.7018C5.86901 11.116 6.81876 11.116 7.40455 11.7018L9.30639 13.6036" stroke="black" stroke-linecap="round"/>
<path d="M18.1667 3.83333C18.1667 4.29357 17.7936 4.66667 17.3333 4.66667C16.8731 4.66667 16.5 4.29357 16.5 3.83333C16.5 3.3731 16.8731 3 17.3333 3C17.7936 3 18.1667 3.3731 18.1667 3.83333Z" fill="#FF2164"/>
<circle cx="8.5" cy="7" r="1" fill="black"/>
</svg>
