<svg width="11" height="10" viewBox="0 0 11 10" fill="none" xmlns="http://www.w3.org/2000/svg">
<path d="M6.29962 9.00849L6.29802 9.00996C6.10959 9.18237 5.81961 9.18223 5.63122 9.00735L5.62883 9.00515L5.57385 8.95477L5.57297 8.95397C4.25057 7.74818 3.1999 6.78748 2.48138 5.88987C1.77024 5.00149 1.43566 4.2362 1.46243 3.42695C1.48723 2.72287 1.84661 2.0514 2.41516 1.66128L2.41544 1.66109C3.4914 0.921754 4.83926 1.25334 5.57941 2.12641L5.9608 2.57629L6.34219 2.12641C7.08338 1.2521 8.43068 0.917983 9.5051 1.66036L9.50644 1.66128C10.0751 2.05148 10.4345 2.72316 10.4592 3.42741L10.4592 3.4278C10.4881 4.23631 10.1541 5.00118 9.44202 5.89123C8.72295 6.78997 7.67163 7.75263 6.34965 8.96311L6.34961 8.96316L6.34786 8.96475L6.29962 9.00849Z" fill="#FF2164" stroke="black"/>
</svg>
