<svg width="12" height="12" viewBox="0 0 12 12" fill="none" xmlns="http://www.w3.org/2000/svg">
<circle cx="5.53906" cy="6.45166" r="5" fill="#FFD233" stroke="#FEB643"/>
<path d="M8.81692 5.39143H8.11207L8.4111 4.25165H7.44993L7.17226 5.39143H6.31789L5.9975 4.25165H5.0577L4.73731 5.39143H3.88294L3.60527 4.25165H2.62275L2.92178 5.39143H2.23828V6.2003H3.13537L3.77615 8.64531H4.71595L5.37809 6.2003H5.67712L6.31789 8.64531H7.2577L7.91983 6.2003H8.83828V5.39143H8.81692ZM4.31013 6.88049C4.31013 6.89887 4.31013 6.91726 4.28877 6.93564C4.28877 6.95402 4.28877 6.97241 4.28877 6.97241C4.28877 6.99079 4.28877 7.00918 4.26741 7.00918C4.26741 7.02756 4.26741 7.02756 4.26741 7.04594C4.26741 7.02756 4.26741 7.02756 4.26741 7.00918C4.26741 6.99079 4.26741 6.99079 4.26741 6.97241C4.26741 6.95402 4.26741 6.95402 4.26741 6.93564C4.26741 6.91726 4.26741 6.91726 4.26741 6.89887L4.09653 6.18192H4.52372L4.31013 6.88049ZM6.7878 6.97241L6.76644 7.02756L6.74508 6.97241L6.53149 6.21868H6.95867L6.7878 6.97241Z" fill="white"/>
</svg>
