<svg width="20" height="20" viewBox="0 0 20 20" fill="none" xmlns="http://www.w3.org/2000/svg">
<path d="M13.1765 10.3529L14.2353 9.29412C15.2099 8.3195 15.2099 6.73933 14.2353 5.76471V5.76471C13.2607 4.79009 11.6805 4.79009 10.7059 5.76471L9.29412 7.17647M7.17647 9.29412L5.76471 10.7059C4.79009 11.6805 4.79009 13.2607 5.76471 14.2353V14.2353C6.73933 15.2099 8.3195 15.2099 9.29412 14.2353L10.3529 13.1765" stroke="black" stroke-linecap="round"/>
<path d="M11.0597 9.64769L11.4132 9.29413L10.7061 8.58703L10.3526 8.94058L11.0597 9.64769ZM8.58785 10.7053C8.39259 10.9005 8.39259 11.2171 8.58785 11.4124C8.78312 11.6077 9.0997 11.6077 9.29496 11.4124L8.58785 10.7053ZM10.3526 8.94058L8.58785 10.7053L9.29496 11.4124L11.0597 9.64769L10.3526 8.94058Z" fill="black"/>
<path d="M12.6 11.8C12.6 12.2418 12.2418 12.6 11.8 12.6C11.3582 12.6 11 12.2418 11 11.8C11 11.3581 11.3582 11 11.8 11C12.2418 11 12.6 11.3581 12.6 11.8Z" fill="#FF2164"/>
</svg>
