<svg width="24" height="24" viewBox="0 0 24 24" fill="none" xmlns="http://www.w3.org/2000/svg">
<path d="M21.0274 7.88558C21.0893 8.22966 21.1216 8.58403 21.1216 8.94595C21.1216 9.30787 21.0893 9.66224 21.0274 10.0063C22.4931 10.737 23.5 12.2508 23.5 13.9998C23.5 15.3883 22.8654 16.6286 21.8704 17.4465L22.3108 19.6487L19.122 19.2807C18.2021 20.2404 16.9073 20.8379 15.473 20.8379C14.2702 20.8379 13.1656 20.4177 12.2979 19.7162C11.4696 20.416 10.3989 20.8379 9.22974 20.8379C7.40284 20.8379 5.81648 19.808 5.0196 18.2971C2.99236 17.7525 1.5 15.9019 1.5 13.7028C1.5 11.9062 2.49604 10.3422 3.96605 9.53292C3.90855 9.2471 3.87838 8.95138 3.87838 8.64862C3.87838 6.18572 5.87494 4.18916 8.33784 4.18916C9.24556 4.18916 10.0899 4.46036 10.7944 4.92616C11.8812 3.74217 13.4418 3 15.1757 3C15.6309 3 16.0741 3.05115 16.5 3.14802" stroke="black" stroke-linecap="round"/>
<path d="M9.5 10C9.5 9.44772 9.94772 9 10.5 9V9C11.0523 9 11.5 9.44772 11.5 10V13H9.5V10Z" fill="black"/>
<path d="M13.5 10C13.5 9.44772 13.9477 9 14.5 9V9C15.0523 9 15.5 9.44772 15.5 10V13H13.5V10Z" fill="black"/>
<path d="M20.5 5C20.5 5.55228 20.0523 6 19.5 6C18.9477 6 18.5 5.55228 18.5 5C18.5 4.44772 18.9477 4 19.5 4C20.0523 4 20.5 4.44772 20.5 5Z" fill="#FF2164"/>
</svg>
