<svg width="14" height="14" viewBox="0 0 14 14" fill="none" xmlns="http://www.w3.org/2000/svg">
<g clip-path="url(#clip0_2131_20607)">
<path d="M7.51404 11.902L7.51243 11.9035C7.22524 12.1663 6.78322 12.1661 6.49606 11.8996L6.49367 11.8974L6.4244 11.8339L6.42352 11.8331C4.76 10.3163 3.42734 9.09821 2.51422 7.95751C1.60849 6.82603 1.16669 5.83188 1.20191 4.76858C1.2345 3.84185 1.70693 2.95689 2.45872 2.44104L2.459 2.44086C3.87803 1.46578 5.64953 1.90738 6.61839 3.05023L6.99978 3.50012L7.38117 3.05023C8.35108 1.90614 10.122 1.4607 11.5395 2.44012L11.5408 2.44104C12.2927 2.95697 12.7652 3.84212 12.7977 4.76901L12.7977 4.7694C12.8357 5.83198 12.3945 6.82572 11.4876 7.95919C10.5753 9.09947 9.24456 10.318 7.5853 11.8373L7.57701 11.8449L7.57527 11.8465L7.51404 11.902Z" fill="currentColor" stroke="black"/>
</g>
<defs>
<clipPath id="clip0_2131_20607">
<rect width="14" height="14" fill="white"/>
</clipPath>
</defs>
</svg>
