<svg width="23" height="23" viewBox="0 0 23 23" fill="none" xmlns="http://www.w3.org/2000/svg">
<circle cx="4" cy="19" r="4" fill="currentColor"/>
<path d="M14.5 1.75L12.8944 0.947214C12.3314 0.665686 11.6686 0.665686 11.1056 0.947213L7 3L2.97101 5.41739C2.3686 5.77884 2 6.42986 2 7.13238V14.8175C2 15.5468 2.39707 16.2184 3.03616 16.5699L11.0362 20.9699C11.6363 21.3 12.3637 21.3 12.9638 20.9699L20.9638 16.5699C21.6029 16.2184 22 15.5468 22 14.8175V7.13238C22 6.42986 21.6314 5.77884 21.029 5.41739L19.6973 4.61839" stroke="black" stroke-linecap="round"/>
<path d="M21 16L12.8123 12.361C12.2952 12.1312 11.7049 12.1312 11.1877 12.361L3 16" stroke="black" stroke-linecap="round"/>
<path d="M12.9853 3.9964C12.9834 3.44412 12.534 2.99802 11.9818 3.00001C11.4295 3.002 10.9834 3.45132 10.9854 4.0036L12.9853 3.9964ZM10.9998 8.0036L11.0034 9.00359L13.0034 8.99639L12.9997 7.9964L10.9998 8.0036ZM10.9854 4.0036C10.9854 4.00679 10.9854 4.00998 10.9854 4.01316C10.9854 4.01634 10.9854 4.01952 10.9854 4.0227C10.9854 4.02587 10.9854 4.02905 10.9855 4.03222C10.9855 4.03538 10.9855 4.03855 10.9855 4.04171C10.9855 4.04488 10.9855 4.04803 10.9855 4.05119C10.9855 4.05435 10.9856 4.0575 10.9856 4.06065C10.9856 4.0638 10.9856 4.06694 10.9856 4.07008C10.9856 4.07323 10.9856 4.07637 10.9856 4.0795C10.9856 4.08264 10.9857 4.08577 10.9857 4.0889C10.9857 4.09203 10.9857 4.09515 10.9857 4.09827C10.9857 4.1014 10.9857 4.10452 10.9857 4.10763C10.9857 4.11075 10.9858 4.11386 10.9858 4.11697C10.9858 4.12008 10.9858 4.12318 10.9858 4.12629C10.9858 4.12939 10.9858 4.13249 10.9858 4.13559C10.9858 4.13868 10.9859 4.14178 10.9859 4.14486C10.9859 4.14795 10.9859 4.15104 10.9859 4.15412C10.9859 4.15721 10.9859 4.16029 10.9859 4.16336C10.9859 4.16644 10.986 4.16952 10.986 4.17259C10.986 4.17566 10.986 4.17872 10.986 4.18179C10.986 4.18485 10.986 4.18791 10.986 4.19097C10.986 4.19403 10.9861 4.19708 10.9861 4.20013C10.9861 4.20319 10.9861 4.20623 10.9861 4.20928C10.9861 4.21232 10.9861 4.21537 10.9861 4.21841C10.9861 4.22144 10.9862 4.22448 10.9862 4.22751C10.9862 4.23055 10.9862 4.23358 10.9862 4.2366C10.9862 4.23963 10.9862 4.24265 10.9862 4.24567C10.9862 4.24869 10.9863 4.25171 10.9863 4.25472C10.9863 4.25774 10.9863 4.26075 10.9863 4.26376C10.9863 4.26677 10.9863 4.26977 10.9863 4.27277C10.9863 4.27577 10.9863 4.27877 10.9864 4.28177C10.9864 4.28476 10.9864 4.28776 10.9864 4.29075C10.9864 4.29374 10.9864 4.29672 10.9864 4.29971C10.9864 4.30269 10.9864 4.30567 10.9865 4.30865C10.9865 4.31163 10.9865 4.3146 10.9865 4.31757C10.9865 4.32055 10.9865 4.32352 10.9865 4.32648C10.9865 4.32945 10.9865 4.33241 10.9866 4.33537C10.9866 4.33833 10.9866 4.34129 10.9866 4.34424C10.9866 4.3472 10.9866 4.35015 10.9866 4.3531C10.9866 4.35604 10.9866 4.35899 10.9866 4.36193C10.9867 4.36487 10.9867 4.36781 10.9867 4.37075C10.9867 4.37369 10.9867 4.37662 10.9867 4.37955C10.9867 4.38248 10.9867 4.38541 10.9867 4.38834C10.9868 4.39126 10.9868 4.39418 10.9868 4.3971C10.9868 4.40002 10.9868 4.40294 10.9868 4.40585C10.9868 4.40877 10.9868 4.41168 10.9868 4.41458C10.9868 4.41749 10.9869 4.4204 10.9869 4.4233C10.9869 4.4262 10.9869 4.4291 10.9869 4.432C10.9869 4.4349 10.9869 4.43779 10.9869 4.44068C10.9869 4.44357 10.987 4.44646 10.987 4.44935C10.987 4.45223 10.987 4.45511 10.987 4.45799C10.987 4.46087 10.987 4.46375 10.987 4.46663C10.987 4.4695 10.987 4.47237 10.9871 4.47524C10.9871 4.47811 10.9871 4.48098 10.9871 4.48384C10.9871 4.4867 10.9871 4.48957 10.9871 4.49242C10.9871 4.49528 10.9871 4.49814 10.9871 4.50099C10.9872 4.50384 10.9872 4.50669 10.9872 4.50954C10.9872 4.51239 10.9872 4.51523 10.9872 4.51808C10.9872 4.52092 10.9872 4.52376 10.9872 4.52659C10.9873 4.52943 10.9873 4.53226 10.9873 4.5351C10.9873 4.53793 10.9873 4.54076 10.9873 4.54358C10.9873 4.54641 10.9873 4.54923 10.9873 4.55205C10.9873 4.55487 10.9874 4.55769 10.9874 4.56051C10.9874 4.56332 10.9874 4.56614 10.9874 4.56895C10.9874 4.57176 10.9874 4.57457 10.9874 4.57737C10.9874 4.58018 10.9874 4.58298 10.9875 4.58578C10.9875 4.58858 10.9875 4.59138 10.9875 4.59417C10.9875 4.59697 10.9875 4.59976 10.9875 4.60255C10.9875 4.60534 10.9875 4.60813 10.9875 4.61091C10.9876 4.6137 10.9876 4.61648 10.9876 4.61926C10.9876 4.62204 10.9876 4.62482 10.9876 4.62759C10.9876 4.63037 10.9876 4.63314 10.9876 4.63591C10.9876 4.63868 10.9877 4.64145 10.9877 4.64422C10.9877 4.64698 10.9877 4.64974 10.9877 4.6525C10.9877 4.65526 10.9877 4.65802 10.9877 4.66078C10.9877 4.66353 10.9877 4.66628 10.9878 4.66904C10.9878 4.67179 10.9878 4.67453 10.9878 4.67728C10.9878 4.68002 10.9878 4.68277 10.9878 4.68551C10.9878 4.68825 10.9878 4.69099 10.9878 4.69372C10.9879 4.69646 10.9879 4.69919 10.9879 4.70192C10.9879 4.70466 10.9879 4.70738 10.9879 4.71011C10.9879 4.71284 10.9879 4.71556 10.9879 4.71828C10.9879 4.72101 10.988 4.72373 10.988 4.72644C10.988 4.72916 10.988 4.73187 10.988 4.73459C10.988 4.7373 10.988 4.74001 10.988 4.74272C10.988 4.74543 10.988 4.74813 10.988 4.75083C10.9881 4.75354 10.9881 4.75624 10.9881 4.75894C10.9881 4.76164 10.9881 4.76433 10.9881 4.76703C10.9881 4.76972 10.9881 4.77241 10.9881 4.7751C10.9881 4.77779 10.9882 4.78048 10.9882 4.78316C10.9882 4.78585 10.9882 4.78853 10.9882 4.79121C10.9882 4.79389 10.9882 4.79657 10.9882 4.79925C10.9882 4.80192 10.9882 4.8046 10.9883 4.80727C10.9883 4.80994 10.9883 4.81261 10.9883 4.81528C10.9883 4.81795 10.9883 4.82061 10.9883 4.82328C10.9883 4.82594 10.9883 4.8286 10.9883 4.83126C10.9883 4.83392 10.9884 4.83657 10.9884 4.83923C10.9884 4.84188 10.9884 4.84454 10.9884 4.84719C10.9884 4.84984 10.9884 4.85248 10.9884 4.85513C10.9884 4.85778 10.9884 4.86042 10.9885 4.86306C10.9885 4.8657 10.9885 4.86834 10.9885 4.87098C10.9885 4.87362 10.9885 4.87625 10.9885 4.87889C10.9885 4.88152 10.9885 4.88415 10.9885 4.88678C10.9885 4.88941 10.9886 4.89204 10.9886 4.89466C10.9886 4.89729 10.9886 4.89991 10.9886 4.90253C10.9886 4.90515 10.9886 4.90777 10.9886 4.91039C10.9886 4.913 10.9886 4.91562 10.9887 4.91823C10.9887 4.92085 10.9887 4.92346 10.9887 4.92607C10.9887 4.92867 10.9887 4.93128 10.9887 4.93389C10.9887 4.93649 10.9887 4.93909 10.9887 4.9417C10.9887 4.9443 10.9888 4.9469 10.9888 4.94949C10.9888 4.95209 10.9888 4.95468 10.9888 4.95728C10.9888 4.95987 10.9888 4.96246 10.9888 4.96505C10.9888 4.96764 10.9888 4.97023 10.9888 4.97281C10.9889 4.9754 10.9889 4.97798 10.9889 4.98056C10.9889 4.98315 10.9889 4.98573 10.9889 4.9883C10.9889 4.99088 10.9889 4.99346 10.9889 4.99603C10.9889 4.99861 10.989 5.00118 10.989 5.00375C10.989 5.00632 10.989 5.00889 10.989 5.01145C10.989 5.01402 10.989 5.01658 10.989 5.01915C10.989 5.02171 10.989 5.02427 10.989 5.02683C10.9891 5.02939 10.9891 5.03195 10.9891 5.0345C10.9891 5.03706 10.9891 5.03961 10.9891 5.04217C10.9891 5.04472 10.9891 5.04727 10.9891 5.04982C10.9891 5.05236 10.9891 5.05491 10.9892 5.05746C10.9892 5.06 10.9892 5.06254 10.9892 5.06509C10.9892 5.06763 10.9892 5.07017 10.9892 5.0727C10.9892 5.07524 10.9892 5.07778 10.9892 5.08031C10.9892 5.08285 10.9893 5.08538 10.9893 5.08791C10.9893 5.09044 10.9893 5.09297 10.9893 5.0955C10.9893 5.09803 10.9893 5.10055 10.9893 5.10308C10.9893 5.1056 10.9893 5.10812 10.9893 5.11064C10.9894 5.11316 10.9894 5.11568 10.9894 5.1182C10.9894 5.12072 10.9894 5.12323 10.9894 5.12575C10.9894 5.12826 10.9894 5.13078 10.9894 5.13329C10.9894 5.1358 10.9894 5.13831 10.9895 5.14081C10.9895 5.14332 10.9895 5.14583 10.9895 5.14833C10.9895 5.15084 10.9895 5.15334 10.9895 5.15584C10.9895 5.15834 10.9895 5.16084 10.9895 5.16334C10.9895 5.16584 10.9896 5.16833 10.9896 5.17083C10.9896 5.17332 10.9896 5.17582 10.9896 5.17831C10.9896 5.1808 10.9896 5.18329 10.9896 5.18578C10.9896 5.18827 10.9896 5.19075 10.9896 5.19324C10.9897 5.19573 10.9897 5.19821 10.9897 5.20069C10.9897 5.20317 10.9897 5.20566 10.9897 5.20814C10.9897 5.21061 10.9897 5.21309 10.9897 5.21557C10.9897 5.21805 10.9897 5.22052 10.9897 5.22299C10.9898 5.22547 10.9898 5.22794 10.9898 5.23041C10.9898 5.23288 10.9898 5.23535 10.9898 5.23782C10.9898 5.24029 10.9898 5.24275 10.9898 5.24522C10.9898 5.24768 10.9898 5.25015 10.9899 5.25261C10.9899 5.25507 10.9899 5.25753 10.9899 5.25999C10.9899 5.26245 10.9899 5.26491 10.9899 5.26736C10.9899 5.26982 10.9899 5.27227 10.9899 5.27473C10.9899 5.27718 10.99 5.27963 10.99 5.28208C10.99 5.28454 10.99 5.28698 10.99 5.28943C10.99 5.29188 10.99 5.29433 10.99 5.29677C10.99 5.29922 10.99 5.30166 10.99 5.30411C10.9901 5.30655 10.9901 5.30899 10.9901 5.31143C10.9901 5.31387 10.9901 5.31631 10.9901 5.31875C10.9901 5.32118 10.9901 5.32362 10.9901 5.32605C10.9901 5.32849 10.9901 5.33092 10.9901 5.33336C10.9902 5.33579 10.9902 5.33822 10.9902 5.34065C10.9902 5.34308 10.9902 5.34551 10.9902 5.34793C10.9902 5.35036 10.9902 5.35279 10.9902 5.35521C10.9902 5.35764 10.9902 5.36006 10.9903 5.36248C10.9903 5.36491 10.9903 5.36733 10.9903 5.36975C10.9903 5.37217 10.9903 5.37459 10.9903 5.377C10.9903 5.37942 10.9903 5.38184 10.9903 5.38425C10.9903 5.38667 10.9903 5.38908 10.9904 5.39149C10.9904 5.39391 10.9904 5.39632 10.9904 5.39873C10.9904 5.40114 10.9904 5.40355 10.9904 5.40596C10.9904 5.40837 10.9904 5.41077 10.9904 5.41318C10.9904 5.41559 10.9905 5.41799 10.9905 5.42039C10.9905 5.4228 10.9905 5.4252 10.9905 5.4276C10.9905 5.43 10.9905 5.4324 10.9905 5.4348C10.9905 5.4372 10.9905 5.4396 10.9905 5.442C10.9905 5.4444 10.9906 5.44679 10.9906 5.44919C10.9906 5.45158 10.9906 5.45398 10.9906 5.45637C10.9906 5.45876 10.9906 5.46115 10.9906 5.46354C10.9906 5.46594 10.9906 5.46832 10.9906 5.47071C10.9906 5.4731 10.9907 5.47549 10.9907 5.47788C10.9907 5.48026 10.9907 5.48265 10.9907 5.48503C10.9907 5.48742 10.9907 5.4898 10.9907 5.49219C10.9907 5.49457 10.9907 5.49695 10.9907 5.49933C10.9908 5.50171 10.9908 5.50409 10.9908 5.50647C10.9908 5.50885 10.9908 5.51123 10.9908 5.51361C10.9908 5.51598 10.9908 5.51836 10.9908 5.52073C10.9908 5.52311 10.9908 5.52548 10.9908 5.52786C10.9909 5.53023 10.9909 5.5326 10.9909 5.53497C10.9909 5.53735 10.9909 5.53972 10.9909 5.54209C10.9909 5.54446 10.9909 5.54683 10.9909 5.54919C10.9909 5.55156 10.9909 5.55393 10.9909 5.55629C10.991 5.55866 10.991 5.56103 10.991 5.56339C10.991 5.56576 10.991 5.56812 10.991 5.57048C10.991 5.57285 10.991 5.57521 10.991 5.57757C10.991 5.57993 10.991 5.58229 10.9911 5.58465C10.9911 5.58701 10.9911 5.58937 10.9911 5.59173C10.9911 5.59408 10.9911 5.59644 10.9911 5.5988C10.9911 5.60116 10.9911 5.60351 10.9911 5.60587C10.9911 5.60822 10.9911 5.61057 10.9912 5.61293C10.9912 5.61528 10.9912 5.61763 10.9912 5.61999C10.9912 5.62234 10.9912 5.62469 10.9912 5.62704C10.9912 5.62939 10.9912 5.63174 10.9912 5.63409C10.9912 5.63644 10.9912 5.63879 10.9913 5.64113C10.9913 5.64348 10.9913 5.64583 10.9913 5.64818C10.9913 5.65052 10.9913 5.65287 10.9913 5.65521C10.9913 5.65756 10.9913 5.6599 10.9913 5.66225C10.9913 5.66459 10.9913 5.66693 10.9914 5.66927C10.9914 5.67162 10.9914 5.67396 10.9914 5.6763C10.9914 5.67864 10.9914 5.68098 10.9914 5.68332C10.9914 5.68566 10.9914 5.688 10.9914 5.69034C10.9914 5.69268 10.9914 5.69501 10.9915 5.69735C10.9915 5.69969 10.9915 5.70203 10.9915 5.70436C10.9915 5.7067 10.9915 5.70903 10.9915 5.71137C10.9915 5.7137 10.9915 5.71604 10.9915 5.71837C10.9915 5.72071 10.9915 5.72304 10.9916 5.72537C10.9916 5.72771 10.9916 5.73004 10.9916 5.73237C10.9916 5.7347 10.9916 5.73703 10.9916 5.73936C10.9916 5.74169 10.9916 5.74402 10.9916 5.74635C10.9916 5.74868 10.9917 5.75101 10.9917 5.75334C10.9917 5.75567 10.9917 5.758 10.9917 5.76033C10.9917 5.76265 10.9917 5.76498 10.9917 5.76731C10.9917 5.76964 10.9917 5.77196 10.9917 5.77429C10.9917 5.77661 10.9918 5.77894 10.9918 5.78127C10.9918 5.78359 10.9918 5.78592 10.9918 5.78824C10.9918 5.79056 10.9918 5.79289 10.9918 5.79521C10.9918 5.79753 10.9918 5.79986 10.9918 5.80218C10.9918 5.8045 10.9919 5.80683 10.9919 5.80915C10.9919 5.81147 10.9919 5.81379 10.9919 5.81611C10.9919 5.81843 10.9919 5.82075 10.9919 5.82307C10.9919 5.82539 10.9919 5.82772 10.9919 5.83003C10.9919 5.83235 10.992 5.83467 10.992 5.83699C10.992 5.83931 10.992 5.84163 10.992 5.84395C10.992 5.84627 10.992 5.84859 10.992 5.8509C10.992 5.85322 10.992 5.85554 10.992 5.85786C10.992 5.86017 10.9921 5.86249 10.9921 5.86481C10.9921 5.86713 10.9921 5.86944 10.9921 5.87176C10.9921 5.87407 10.9921 5.87639 10.9921 5.87871C10.9921 5.88102 10.9921 5.88334 10.9921 5.88565C10.9921 5.88797 10.9922 5.89028 10.9922 5.8926C10.9922 5.89491 10.9922 5.89723 10.9922 5.89954C10.9922 5.90186 10.9922 5.90417 10.9922 5.90648C10.9922 5.9088 10.9922 5.91111 10.9922 5.91343C10.9922 5.91574 10.9923 5.91805 10.9923 5.92037C10.9923 5.92268 10.9923 5.92499 10.9923 5.92731C10.9923 5.92962 10.9923 5.93193 10.9923 5.93424C10.9923 5.93656 10.9923 5.93887 10.9923 5.94118C10.9923 5.9435 10.9924 5.94581 10.9924 5.94812C10.9924 5.95043 10.9924 5.95274 10.9924 5.95506C10.9924 5.95737 10.9924 5.95968 10.9924 5.96199C10.9924 5.9643 10.9924 5.96662 10.9924 5.96893C10.9924 5.97124 10.9925 5.97355 10.9925 5.97586C10.9925 5.97817 10.9925 5.98049 10.9925 5.9828C10.9925 5.98511 10.9925 5.98742 10.9925 5.98973C10.9925 5.99204 10.9925 5.99436 10.9925 5.99667C10.9925 5.99898 10.9926 6.00129 10.9926 6.0036C10.9926 6.00591 10.9926 6.00822 10.9926 6.01054C10.9926 6.01285 10.9926 6.01516 10.9926 6.01747C10.9926 6.01978 10.9926 6.02209 10.9926 6.0244C10.9926 6.02672 10.9927 6.02903 10.9927 6.03134C10.9927 6.03365 10.9927 6.03596 10.9927 6.03827C10.9927 6.04059 10.9927 6.0429 10.9927 6.04521C10.9927 6.04752 10.9927 6.04983 10.9927 6.05215C10.9927 6.05446 10.9928 6.05677 10.9928 6.05908C10.9928 6.06139 10.9928 6.06371 10.9928 6.06602C10.9928 6.06833 10.9928 6.07064 10.9928 6.07296C10.9928 6.07527 10.9928 6.07758 10.9928 6.0799C10.9928 6.08221 10.9929 6.08452 10.9929 6.08684C10.9929 6.08915 10.9929 6.09146 10.9929 6.09378C10.9929 6.09609 10.9929 6.0984 10.9929 6.10072C10.9929 6.10303 10.9929 6.10535 10.9929 6.10766C10.9929 6.10997 10.993 6.11229 10.993 6.1146C10.993 6.11692 10.993 6.11923 10.993 6.12155C10.993 6.12386 10.993 6.12618 10.993 6.1285C10.993 6.13081 10.993 6.13313 10.993 6.13544C10.993 6.13776 10.9931 6.14008 10.9931 6.14239C10.9931 6.14471 10.9931 6.14703 10.9931 6.14934C10.9931 6.15166 10.9931 6.15398 10.9931 6.1563C10.9931 6.15862 10.9931 6.16093 10.9931 6.16325C10.9931 6.16557 10.9932 6.16789 10.9932 6.17021C10.9932 6.17253 10.9932 6.17485 10.9932 6.17717C10.9932 6.17949 10.9932 6.18181 10.9932 6.18413C10.9932 6.18645 10.9932 6.18877 10.9932 6.19109C10.9932 6.19341 10.9933 6.19573 10.9933 6.19805C10.9933 6.20038 10.9933 6.2027 10.9933 6.20502C10.9933 6.20734 10.9933 6.20967 10.9933 6.21199C10.9933 6.21431 10.9933 6.21664 10.9933 6.21896C10.9933 6.22129 10.9934 6.22361 10.9934 6.22594C10.9934 6.22826 10.9934 6.23059 10.9934 6.23291C10.9934 6.23524 10.9934 6.23757 10.9934 6.23989C10.9934 6.24222 10.9934 6.24455 10.9934 6.24688C10.9934 6.2492 10.9935 6.25153 10.9935 6.25386C10.9935 6.25619 10.9935 6.25852 10.9935 6.26085C10.9935 6.26318 10.9935 6.26551 10.9935 6.26784C10.9935 6.27017 10.9935 6.2725 10.9935 6.27483C10.9935 6.27716 10.9936 6.2795 10.9936 6.28183C10.9936 6.28416 10.9936 6.2865 10.9936 6.28883C10.9936 6.29116 10.9936 6.2935 10.9936 6.29583C10.9936 6.29817 10.9936 6.3005 10.9936 6.30284C10.9936 6.30518 10.9937 6.30751 10.9937 6.30985C10.9937 6.31219 10.9937 6.31453 10.9937 6.31686C10.9937 6.3192 10.9937 6.32154 10.9937 6.32388C10.9937 6.32622 10.9937 6.32856 10.9937 6.3309C10.9937 6.33324 10.9938 6.33559 10.9938 6.33793C10.9938 6.34027 10.9938 6.34261 10.9938 6.34496C10.9938 6.3473 10.9938 6.34964 10.9938 6.35199C10.9938 6.35433 10.9938 6.35668 10.9938 6.35903C10.9938 6.36137 10.9939 6.36372 10.9939 6.36607C10.9939 6.36842 10.9939 6.37076 10.9939 6.37311C10.9939 6.37546 10.9939 6.37781 10.9939 6.38016C10.9939 6.38251 10.9939 6.38486 10.9939 6.38722C10.994 6.38957 10.994 6.39192 10.994 6.39427C10.994 6.39663 10.994 6.39898 10.994 6.40134C10.994 6.40369 10.994 6.40605 10.994 6.4084C10.994 6.41076 10.994 6.41312 10.994 6.41548C10.9941 6.41783 10.9941 6.42019 10.9941 6.42255C10.9941 6.42491 10.9941 6.42727 10.9941 6.42963C10.9941 6.43199 10.9941 6.43436 10.9941 6.43672C10.9941 6.43908 10.9941 6.44145 10.9941 6.44381C10.9942 6.44618 10.9942 6.44854 10.9942 6.45091C10.9942 6.45327 10.9942 6.45564 10.9942 6.45801C10.9942 6.46038 10.9942 6.46275 10.9942 6.46512C10.9942 6.46749 10.9942 6.46986 10.9942 6.47223C10.9943 6.4746 10.9943 6.47697 10.9943 6.47935C10.9943 6.48172 10.9943 6.48409 10.9943 6.48647C10.9943 6.48884 10.9943 6.49122 10.9943 6.4936C10.9943 6.49597 10.9943 6.49835 10.9944 6.50073C10.9944 6.50311 10.9944 6.50549 10.9944 6.50787C10.9944 6.51025 10.9944 6.51263 10.9944 6.51502C10.9944 6.5174 10.9944 6.51978 10.9944 6.52217C10.9944 6.52455 10.9944 6.52694 10.9945 6.52932C10.9945 6.53171 10.9945 6.5341 10.9945 6.53649C10.9945 6.53888 10.9945 6.54127 10.9945 6.54366C10.9945 6.54605 10.9945 6.54844 10.9945 6.55083C10.9945 6.55323 10.9945 6.55562 10.9946 6.55802C10.9946 6.56041 10.9946 6.56281 10.9946 6.5652C10.9946 6.5676 10.9946 6.57 10.9946 6.5724C10.9946 6.5748 10.9946 6.5772 10.9946 6.5796C10.9946 6.582 10.9947 6.5844 10.9947 6.58681C10.9947 6.58921 10.9947 6.59162 10.9947 6.59402C10.9947 6.59643 10.9947 6.59884 10.9947 6.60124C10.9947 6.60365 10.9947 6.60606 10.9947 6.60847C10.9947 6.61088 10.9948 6.61329 10.9948 6.61571C10.9948 6.61812 10.9948 6.62053 10.9948 6.62295C10.9948 6.62536 10.9948 6.62778 10.9948 6.6302C10.9948 6.63262 10.9948 6.63503 10.9948 6.63745C10.9949 6.63987 10.9949 6.6423 10.9949 6.64472C10.9949 6.64714 10.9949 6.64956 10.9949 6.65199C10.9949 6.65441 10.9949 6.65684 10.9949 6.65927C10.9949 6.66169 10.9949 6.66412 10.9949 6.66655C10.995 6.66898 10.995 6.67141 10.995 6.67385C10.995 6.67628 10.995 6.67871 10.995 6.68115C10.995 6.68358 10.995 6.68602 10.995 6.68846C10.995 6.69089 10.995 6.69333 10.9951 6.69577C10.9951 6.69821 10.9951 6.70065 10.9951 6.7031C10.9951 6.70554 10.9951 6.70798 10.9951 6.71043C10.9951 6.71287 10.9951 6.71532 10.9951 6.71777C10.9951 6.72022 10.9951 6.72267 10.9952 6.72512C10.9952 6.72757 10.9952 6.73002 10.9952 6.73247C10.9952 6.73493 10.9952 6.73738 10.9952 6.73984C10.9952 6.7423 10.9952 6.74475 10.9952 6.74721C10.9952 6.74967 10.9953 6.75213 10.9953 6.75459C10.9953 6.75706 10.9953 6.75952 10.9953 6.76198C10.9953 6.76445 10.9953 6.76692 10.9953 6.76938C10.9953 6.77185 10.9953 6.77432 10.9953 6.77679C10.9954 6.77926 10.9954 6.78173 10.9954 6.78421C10.9954 6.78668 10.9954 6.78916 10.9954 6.79163C10.9954 6.79411 10.9954 6.79659 10.9954 6.79907C10.9954 6.80155 10.9954 6.80403 10.9955 6.80651C10.9955 6.80899 10.9955 6.81148 10.9955 6.81396C10.9955 6.81645 10.9955 6.81893 10.9955 6.82142C10.9955 6.82391 10.9955 6.8264 10.9955 6.82889C10.9955 6.83139 10.9956 6.83388 10.9956 6.83637C10.9956 6.83887 10.9956 6.84136 10.9956 6.84386C10.9956 6.84636 10.9956 6.84886 10.9956 6.85136C10.9956 6.85386 10.9956 6.85637 10.9956 6.85887C10.9956 6.86137 10.9957 6.86388 10.9957 6.86639C10.9957 6.8689 10.9957 6.8714 10.9957 6.87392C10.9957 6.87643 10.9957 6.87894 10.9957 6.88145C10.9957 6.88397 10.9957 6.88648 10.9957 6.889C10.9958 6.89152 10.9958 6.89404 10.9958 6.89656C10.9958 6.89908 10.9958 6.9016 10.9958 6.90413C10.9958 6.90665 10.9958 6.90918 10.9958 6.9117C10.9958 6.91423 10.9958 6.91676 10.9959 6.91929C10.9959 6.92182 10.9959 6.92435 10.9959 6.92689C10.9959 6.92942 10.9959 6.93196 10.9959 6.9345C10.9959 6.93704 10.9959 6.93958 10.9959 6.94212C10.9959 6.94466 10.996 6.9472 10.996 6.94975C10.996 6.95229 10.996 6.95484 10.996 6.95739C10.996 6.95993 10.996 6.96248 10.996 6.96504C10.996 6.96759 10.996 6.97014 10.996 6.9727C10.9961 6.97525 10.9961 6.97781 10.9961 6.98037C10.9961 6.98293 10.9961 6.98549 10.9961 6.98805C10.9961 6.99062 10.9961 6.99318 10.9961 6.99575C10.9961 6.99832 10.9962 7.00088 10.9962 7.00345C10.9962 7.00602 10.9962 7.0086 10.9962 7.01117C10.9962 7.01374 10.9962 7.01632 10.9962 7.0189C10.9962 7.02148 10.9962 7.02406 10.9962 7.02664C10.9963 7.02922 10.9963 7.0318 10.9963 7.03439C10.9963 7.03697 10.9963 7.03956 10.9963 7.04215C10.9963 7.04474 10.9963 7.04733 10.9963 7.04992C10.9963 7.05252 10.9963 7.05511 10.9964 7.05771C10.9964 7.06031 10.9964 7.06291 10.9964 7.06551C10.9964 7.06811 10.9964 7.07071 10.9964 7.07332C10.9964 7.07592 10.9964 7.07853 10.9964 7.08114C10.9964 7.08375 10.9965 7.08636 10.9965 7.08897C10.9965 7.09158 10.9965 7.0942 10.9965 7.09681C10.9965 7.09943 10.9965 7.10205 10.9965 7.10467C10.9965 7.10729 10.9965 7.10992 10.9966 7.11254C10.9966 7.11517 10.9966 7.11779 10.9966 7.12042C10.9966 7.12305 10.9966 7.12568 10.9966 7.12832C10.9966 7.13095 10.9966 7.13358 10.9966 7.13622C10.9966 7.13886 10.9967 7.1415 10.9967 7.14414C10.9967 7.14678 10.9967 7.14943 10.9967 7.15207C10.9967 7.15472 10.9967 7.15737 10.9967 7.16002C10.9967 7.16267 10.9967 7.16532 10.9968 7.16797C10.9968 7.17063 10.9968 7.17328 10.9968 7.17594C10.9968 7.1786 10.9968 7.18126 10.9968 7.18393C10.9968 7.18659 10.9968 7.18925 10.9968 7.19192C10.9968 7.19459 10.9969 7.19726 10.9969 7.19993C10.9969 7.2026 10.9969 7.20528 10.9969 7.20795C10.9969 7.21063 10.9969 7.21331 10.9969 7.21599C10.9969 7.21867 10.9969 7.22135 10.997 7.22404C10.997 7.22672 10.997 7.22941 10.997 7.2321C10.997 7.23479 10.997 7.23748 10.997 7.24018C10.997 7.24287 10.997 7.24557 10.997 7.24826C10.9971 7.25096 10.9971 7.25366 10.9971 7.25637C10.9971 7.25907 10.9971 7.26178 10.9971 7.26448C10.9971 7.26719 10.9971 7.2699 10.9971 7.27262C10.9971 7.27533 10.9971 7.27804 10.9972 7.28076C10.9972 7.28348 10.9972 7.2862 10.9972 7.28892C10.9972 7.29164 10.9972 7.29436 10.9972 7.29709C10.9972 7.29982 10.9972 7.30255 10.9972 7.30528C10.9973 7.30801 10.9973 7.31074 10.9973 7.31348C10.9973 7.31621 10.9973 7.31895 10.9973 7.32169C10.9973 7.32443 10.9973 7.32718 10.9973 7.32992C10.9973 7.33267 10.9974 7.33542 10.9974 7.33817C10.9974 7.34092 10.9974 7.34367 10.9974 7.34643C10.9974 7.34918 10.9974 7.35194 10.9974 7.3547C10.9974 7.35746 10.9974 7.36022 10.9975 7.36299C10.9975 7.36575 10.9975 7.36852 10.9975 7.37129C10.9975 7.37406 10.9975 7.37683 10.9975 7.37961C10.9975 7.38238 10.9975 7.38516 10.9975 7.38794C10.9976 7.39072 10.9976 7.3935 10.9976 7.39629C10.9976 7.39907 10.9976 7.40186 10.9976 7.40465C10.9976 7.40744 10.9976 7.41023 10.9976 7.41303C10.9976 7.41582 10.9977 7.41862 10.9977 7.42142C10.9977 7.42422 10.9977 7.42702 10.9977 7.42983C10.9977 7.43264 10.9977 7.43544 10.9977 7.43825C10.9977 7.44106 10.9977 7.44388 10.9978 7.44669C10.9978 7.44951 10.9978 7.45233 10.9978 7.45515C10.9978 7.45797 10.9978 7.46079 10.9978 7.46362C10.9978 7.46645 10.9978 7.46927 10.9978 7.47211C10.9979 7.47494 10.9979 7.47777 10.9979 7.48061C10.9979 7.48345 10.9979 7.48628 10.9979 7.48913C10.9979 7.49197 10.9979 7.49481 10.9979 7.49766C10.998 7.50051 10.998 7.50336 10.998 7.50621C10.998 7.50906 10.998 7.51192 10.998 7.51478C10.998 7.51764 10.998 7.5205 10.998 7.52336C10.998 7.52622 10.9981 7.52909 10.9981 7.53196C10.9981 7.53483 10.9981 7.5377 10.9981 7.54058C10.9981 7.54345 10.9981 7.54633 10.9981 7.54921C10.9981 7.55209 10.9981 7.55497 10.9982 7.55786C10.9982 7.56074 10.9982 7.56363 10.9982 7.56652C10.9982 7.56941 10.9982 7.57231 10.9982 7.5752C10.9982 7.5781 10.9982 7.581 10.9983 7.5839C10.9983 7.5868 10.9983 7.58971 10.9983 7.59262C10.9983 7.59553 10.9983 7.59844 10.9983 7.60135C10.9983 7.60426 10.9983 7.60718 10.9983 7.6101C10.9984 7.61302 10.9984 7.61594 10.9984 7.61887C10.9984 7.62179 10.9984 7.62472 10.9984 7.62765C10.9984 7.63058 10.9984 7.63352 10.9984 7.63645C10.9985 7.63939 10.9985 7.64233 10.9985 7.64527C10.9985 7.64821 10.9985 7.65116 10.9985 7.65411C10.9985 7.65705 10.9985 7.66001 10.9985 7.66296C10.9985 7.66591 10.9986 7.66887 10.9986 7.67183C10.9986 7.67479 10.9986 7.67775 10.9986 7.68072C10.9986 7.68369 10.9986 7.68666 10.9986 7.68963C10.9986 7.6926 10.9987 7.69557 10.9987 7.69855C10.9987 7.70153 10.9987 7.70451 10.9987 7.70749C10.9987 7.71048 10.9987 7.71346 10.9987 7.71645C10.9987 7.71944 10.9987 7.72244 10.9988 7.72543C10.9988 7.72843 10.9988 7.73143 10.9988 7.73443C10.9988 7.73743 10.9988 7.74044 10.9988 7.74344C10.9988 7.74645 10.9988 7.74946 10.9989 7.75248C10.9989 7.75549 10.9989 7.75851 10.9989 7.76153C10.9989 7.76455 10.9989 7.76757 10.9989 7.7706C10.9989 7.77363 10.9989 7.77666 10.999 7.77969C10.999 7.78272 10.999 7.78576 10.999 7.7888C10.999 7.79184 10.999 7.79488 10.999 7.79792C10.999 7.80097 10.999 7.80402 10.9991 7.80707C10.9991 7.81012 10.9991 7.81317 10.9991 7.81623C10.9991 7.81929 10.9991 7.82235 10.9991 7.82541C10.9991 7.82848 10.9991 7.83155 10.9992 7.83462C10.9992 7.83769 10.9992 7.84076 10.9992 7.84384C10.9992 7.84691 10.9992 7.84999 10.9992 7.85308C10.9992 7.85616 10.9992 7.85925 10.9993 7.86234C10.9993 7.86543 10.9993 7.86852 10.9993 7.87162C10.9993 7.87471 10.9993 7.87781 10.9993 7.88091C10.9993 7.88402 10.9993 7.88712 10.9994 7.89023C10.9994 7.89334 10.9994 7.89645 10.9994 7.89957C10.9994 7.90269 10.9994 7.9058 10.9994 7.90893C10.9994 7.91205 10.9994 7.91518 10.9995 7.9183C10.9995 7.92143 10.9995 7.92457 10.9995 7.9277C10.9995 7.93084 10.9995 7.93398 10.9995 7.93712C10.9995 7.94026 10.9995 7.94341 10.9996 7.94655C10.9996 7.9497 10.9996 7.95286 10.9996 7.95601C10.9996 7.95917 10.9996 7.96233 10.9996 7.96549C10.9996 7.96865 10.9996 7.97182 10.9997 7.97499C10.9997 7.97816 10.9997 7.98133 10.9997 7.9845C10.9997 7.98768 10.9997 7.99086 10.9997 7.99404C10.9997 7.99723 10.9998 8.00041 10.9998 8.0036L12.9997 7.9964C12.9997 7.99321 12.9997 7.99002 12.9997 7.98684C12.9997 7.98366 12.9997 7.98048 12.9997 7.9773C12.9997 7.97413 12.9997 7.97095 12.9996 7.96778C12.9996 7.96462 12.9996 7.96145 12.9996 7.95829C12.9996 7.95512 12.9996 7.95197 12.9996 7.94881C12.9996 7.94565 12.9996 7.9425 12.9995 7.93935C12.9995 7.9362 12.9995 7.93306 12.9995 7.92992C12.9995 7.92677 12.9995 7.92363 12.9995 7.9205C12.9995 7.91736 12.9995 7.91423 12.9994 7.9111C12.9994 7.90797 12.9994 7.90485 12.9994 7.90173C12.9994 7.8986 12.9994 7.89548 12.9994 7.89237C12.9994 7.88925 12.9994 7.88614 12.9993 7.88303C12.9993 7.87992 12.9993 7.87682 12.9993 7.87371C12.9993 7.87061 12.9993 7.86751 12.9993 7.86441C12.9993 7.86132 12.9993 7.85822 12.9992 7.85513C12.9992 7.85205 12.9992 7.84896 12.9992 7.84588C12.9992 7.84279 12.9992 7.83971 12.9992 7.83664C12.9992 7.83356 12.9992 7.83048 12.9991 7.82741C12.9991 7.82434 12.9991 7.82128 12.9991 7.81821C12.9991 7.81515 12.9991 7.81209 12.9991 7.80903C12.9991 7.80597 12.9991 7.80292 12.999 7.79987C12.999 7.79681 12.999 7.79377 12.999 7.79072C12.999 7.78768 12.999 7.78463 12.999 7.78159C12.999 7.77856 12.999 7.77552 12.9989 7.77249C12.9989 7.76945 12.9989 7.76642 12.9989 7.7634C12.9989 7.76037 12.9989 7.75735 12.9989 7.75433C12.9989 7.75131 12.9989 7.74829 12.9988 7.74528C12.9988 7.74226 12.9988 7.73925 12.9988 7.73624C12.9988 7.73323 12.9988 7.73023 12.9988 7.72723C12.9988 7.72423 12.9988 7.72123 12.9987 7.71823C12.9987 7.71524 12.9987 7.71224 12.9987 7.70925C12.9987 7.70626 12.9987 7.70328 12.9987 7.70029C12.9987 7.69731 12.9987 7.69433 12.9987 7.69135C12.9986 7.68837 12.9986 7.6854 12.9986 7.68242C12.9986 7.67945 12.9986 7.67648 12.9986 7.67352C12.9986 7.67055 12.9986 7.66759 12.9986 7.66463C12.9985 7.66167 12.9985 7.65871 12.9985 7.65576C12.9985 7.6528 12.9985 7.64985 12.9985 7.6469C12.9985 7.64396 12.9985 7.64101 12.9985 7.63807C12.9984 7.63513 12.9984 7.63219 12.9984 7.62925C12.9984 7.62631 12.9984 7.62338 12.9984 7.62045C12.9984 7.61752 12.9984 7.61459 12.9984 7.61166C12.9984 7.60874 12.9983 7.60582 12.9983 7.6029C12.9983 7.59998 12.9983 7.59706 12.9983 7.59415C12.9983 7.59123 12.9983 7.58832 12.9983 7.58542C12.9983 7.58251 12.9982 7.5796 12.9982 7.5767C12.9982 7.5738 12.9982 7.5709 12.9982 7.568C12.9982 7.5651 12.9982 7.56221 12.9982 7.55932C12.9982 7.55643 12.9982 7.55354 12.9981 7.55065C12.9981 7.54777 12.9981 7.54489 12.9981 7.54201C12.9981 7.53913 12.9981 7.53625 12.9981 7.53337C12.9981 7.5305 12.9981 7.52763 12.9981 7.52476C12.998 7.52189 12.998 7.51902 12.998 7.51616C12.998 7.51329 12.998 7.51043 12.998 7.50758C12.998 7.50472 12.998 7.50186 12.998 7.49901C12.9979 7.49616 12.9979 7.49331 12.9979 7.49046C12.9979 7.48761 12.9979 7.48477 12.9979 7.48192C12.9979 7.47908 12.9979 7.47624 12.9979 7.47341C12.9979 7.47057 12.9978 7.46774 12.9978 7.4649C12.9978 7.46207 12.9978 7.45924 12.9978 7.45642C12.9978 7.45359 12.9978 7.45077 12.9978 7.44795C12.9978 7.44513 12.9978 7.44231 12.9977 7.43949C12.9977 7.43668 12.9977 7.43386 12.9977 7.43105C12.9977 7.42824 12.9977 7.42543 12.9977 7.42263C12.9977 7.41982 12.9977 7.41702 12.9977 7.41422C12.9976 7.41142 12.9976 7.40862 12.9976 7.40583C12.9976 7.40303 12.9976 7.40024 12.9976 7.39745C12.9976 7.39466 12.9976 7.39187 12.9976 7.38909C12.9976 7.3863 12.9975 7.38352 12.9975 7.38074C12.9975 7.37796 12.9975 7.37518 12.9975 7.37241C12.9975 7.36963 12.9975 7.36686 12.9975 7.36409C12.9975 7.36132 12.9975 7.35855 12.9974 7.35578C12.9974 7.35302 12.9974 7.35026 12.9974 7.3475C12.9974 7.34474 12.9974 7.34198 12.9974 7.33922C12.9974 7.33647 12.9974 7.33372 12.9974 7.33096C12.9973 7.32821 12.9973 7.32547 12.9973 7.32272C12.9973 7.31998 12.9973 7.31723 12.9973 7.31449C12.9973 7.31175 12.9973 7.30901 12.9973 7.30628C12.9973 7.30354 12.9972 7.30081 12.9972 7.29808C12.9972 7.29534 12.9972 7.29261 12.9972 7.28989C12.9972 7.28716 12.9972 7.28444 12.9972 7.28172C12.9972 7.27899 12.9972 7.27627 12.9971 7.27356C12.9971 7.27084 12.9971 7.26813 12.9971 7.26541C12.9971 7.2627 12.9971 7.25999 12.9971 7.25728C12.9971 7.25457 12.9971 7.25187 12.9971 7.24917C12.997 7.24646 12.997 7.24376 12.997 7.24106C12.997 7.23836 12.997 7.23567 12.997 7.23297C12.997 7.23028 12.997 7.22759 12.997 7.2249C12.997 7.22221 12.997 7.21952 12.9969 7.21684C12.9969 7.21415 12.9969 7.21147 12.9969 7.20879C12.9969 7.20611 12.9969 7.20343 12.9969 7.20075C12.9969 7.19808 12.9969 7.1954 12.9969 7.19273C12.9968 7.19006 12.9968 7.18739 12.9968 7.18472C12.9968 7.18205 12.9968 7.17939 12.9968 7.17672C12.9968 7.17406 12.9968 7.1714 12.9968 7.16874C12.9968 7.16608 12.9967 7.16343 12.9967 7.16077C12.9967 7.15812 12.9967 7.15546 12.9967 7.15281C12.9967 7.15016 12.9967 7.14752 12.9967 7.14487C12.9967 7.14222 12.9967 7.13958 12.9967 7.13694C12.9966 7.1343 12.9966 7.13166 12.9966 7.12902C12.9966 7.12638 12.9966 7.12375 12.9966 7.12111C12.9966 7.11848 12.9966 7.11585 12.9966 7.11322C12.9966 7.11059 12.9966 7.10796 12.9965 7.10534C12.9965 7.10271 12.9965 7.10009 12.9965 7.09747C12.9965 7.09485 12.9965 7.09223 12.9965 7.08961C12.9965 7.087 12.9965 7.08438 12.9965 7.08177C12.9964 7.07915 12.9964 7.07654 12.9964 7.07393C12.9964 7.07133 12.9964 7.06872 12.9964 7.06611C12.9964 7.06351 12.9964 7.06091 12.9964 7.0583C12.9964 7.0557 12.9964 7.0531 12.9963 7.05051C12.9963 7.04791 12.9963 7.04532 12.9963 7.04272C12.9963 7.04013 12.9963 7.03754 12.9963 7.03495C12.9963 7.03236 12.9963 7.02977 12.9963 7.02719C12.9962 7.0246 12.9962 7.02202 12.9962 7.01944C12.9962 7.01685 12.9962 7.01427 12.9962 7.0117C12.9962 7.00912 12.9962 7.00654 12.9962 7.00397C12.9962 7.00139 12.9962 6.99882 12.9961 6.99625C12.9961 6.99368 12.9961 6.99111 12.9961 6.98855C12.9961 6.98598 12.9961 6.98341 12.9961 6.98085C12.9961 6.97829 12.9961 6.97573 12.9961 6.97317C12.9961 6.97061 12.996 6.96805 12.996 6.9655C12.996 6.96294 12.996 6.96039 12.996 6.95783C12.996 6.95528 12.996 6.95273 12.996 6.95018C12.996 6.94764 12.996 6.94509 12.996 6.94254C12.9959 6.94 12.9959 6.93746 12.9959 6.93491C12.9959 6.93237 12.9959 6.92983 12.9959 6.9273C12.9959 6.92476 12.9959 6.92222 12.9959 6.91969C12.9959 6.91715 12.9959 6.91462 12.9958 6.91209C12.9958 6.90956 12.9958 6.90703 12.9958 6.9045C12.9958 6.90197 12.9958 6.89945 12.9958 6.89692C12.9958 6.8944 12.9958 6.89188 12.9958 6.88936C12.9958 6.88684 12.9957 6.88432 12.9957 6.8818C12.9957 6.87928 12.9957 6.87677 12.9957 6.87425C12.9957 6.87174 12.9957 6.86922 12.9957 6.86671C12.9957 6.8642 12.9957 6.86169 12.9957 6.85919C12.9956 6.85668 12.9956 6.85417 12.9956 6.85167C12.9956 6.84916 12.9956 6.84666 12.9956 6.84416C12.9956 6.84166 12.9956 6.83916 12.9956 6.83666C12.9956 6.83416 12.9956 6.83167 12.9955 6.82917C12.9955 6.82668 12.9955 6.82418 12.9955 6.82169C12.9955 6.8192 12.9955 6.81671 12.9955 6.81422C12.9955 6.81173 12.9955 6.80925 12.9955 6.80676C12.9955 6.80427 12.9954 6.80179 12.9954 6.79931C12.9954 6.79683 12.9954 6.79434 12.9954 6.79186C12.9954 6.78939 12.9954 6.78691 12.9954 6.78443C12.9954 6.78195 12.9954 6.77948 12.9954 6.77701C12.9953 6.77453 12.9953 6.77206 12.9953 6.76959C12.9953 6.76712 12.9953 6.76465 12.9953 6.76218C12.9953 6.75971 12.9953 6.75725 12.9953 6.75478C12.9953 6.75232 12.9953 6.74985 12.9953 6.74739C12.9952 6.74493 12.9952 6.74247 12.9952 6.74001C12.9952 6.73755 12.9952 6.73509 12.9952 6.73264C12.9952 6.73018 12.9952 6.72773 12.9952 6.72527C12.9952 6.72282 12.9952 6.72037 12.9951 6.71792C12.9951 6.71546 12.9951 6.71302 12.9951 6.71057C12.9951 6.70812 12.9951 6.70567 12.9951 6.70323C12.9951 6.70078 12.9951 6.69834 12.9951 6.69589C12.9951 6.69345 12.995 6.69101 12.995 6.68857C12.995 6.68613 12.995 6.68369 12.995 6.68125C12.995 6.67882 12.995 6.67638 12.995 6.67395C12.995 6.67151 12.995 6.66908 12.995 6.66664C12.995 6.66421 12.9949 6.66178 12.9949 6.65935C12.9949 6.65692 12.9949 6.65449 12.9949 6.65207C12.9949 6.64964 12.9949 6.64721 12.9949 6.64479C12.9949 6.64236 12.9949 6.63994 12.9949 6.63752C12.9948 6.63509 12.9948 6.63267 12.9948 6.63025C12.9948 6.62783 12.9948 6.62541 12.9948 6.623C12.9948 6.62058 12.9948 6.61816 12.9948 6.61575C12.9948 6.61333 12.9948 6.61092 12.9948 6.6085C12.9947 6.60609 12.9947 6.60368 12.9947 6.60127C12.9947 6.59886 12.9947 6.59645 12.9947 6.59404C12.9947 6.59163 12.9947 6.58923 12.9947 6.58682C12.9947 6.58441 12.9947 6.58201 12.9946 6.57961C12.9946 6.5772 12.9946 6.5748 12.9946 6.5724C12.9946 6.57 12.9946 6.5676 12.9946 6.5652C12.9946 6.5628 12.9946 6.5604 12.9946 6.558C12.9946 6.5556 12.9946 6.55321 12.9945 6.55081C12.9945 6.54842 12.9945 6.54602 12.9945 6.54363C12.9945 6.54124 12.9945 6.53885 12.9945 6.53646C12.9945 6.53406 12.9945 6.53168 12.9945 6.52929C12.9945 6.5269 12.9944 6.52451 12.9944 6.52212C12.9944 6.51974 12.9944 6.51735 12.9944 6.51497C12.9944 6.51258 12.9944 6.5102 12.9944 6.50781C12.9944 6.50543 12.9944 6.50305 12.9944 6.50067C12.9944 6.49829 12.9943 6.49591 12.9943 6.49353C12.9943 6.49115 12.9943 6.48877 12.9943 6.48639C12.9943 6.48402 12.9943 6.48164 12.9943 6.47927C12.9943 6.47689 12.9943 6.47452 12.9943 6.47214C12.9943 6.46977 12.9942 6.4674 12.9942 6.46503C12.9942 6.46265 12.9942 6.46028 12.9942 6.45791C12.9942 6.45554 12.9942 6.45317 12.9942 6.45081C12.9942 6.44844 12.9942 6.44607 12.9942 6.44371C12.9941 6.44134 12.9941 6.43897 12.9941 6.43661C12.9941 6.43424 12.9941 6.43188 12.9941 6.42952C12.9941 6.42715 12.9941 6.42479 12.9941 6.42243C12.9941 6.42007 12.9941 6.41771 12.9941 6.41535C12.994 6.41299 12.994 6.41063 12.994 6.40827C12.994 6.40592 12.994 6.40356 12.994 6.4012C12.994 6.39884 12.994 6.39649 12.994 6.39413C12.994 6.39178 12.994 6.38942 12.994 6.38707C12.9939 6.38472 12.9939 6.38237 12.9939 6.38001C12.9939 6.37766 12.9939 6.37531 12.9939 6.37296C12.9939 6.37061 12.9939 6.36826 12.9939 6.36591C12.9939 6.36356 12.9939 6.36121 12.9939 6.35887C12.9938 6.35652 12.9938 6.35417 12.9938 6.35182C12.9938 6.34948 12.9938 6.34713 12.9938 6.34479C12.9938 6.34244 12.9938 6.3401 12.9938 6.33775C12.9938 6.33541 12.9938 6.33307 12.9938 6.33073C12.9937 6.32838 12.9937 6.32604 12.9937 6.3237C12.9937 6.32136 12.9937 6.31902 12.9937 6.31668C12.9937 6.31434 12.9937 6.312 12.9937 6.30966C12.9937 6.30732 12.9937 6.30499 12.9937 6.30265C12.9936 6.30031 12.9936 6.29797 12.9936 6.29564C12.9936 6.2933 12.9936 6.29097 12.9936 6.28863C12.9936 6.2863 12.9936 6.28396 12.9936 6.28163C12.9936 6.27929 12.9936 6.27696 12.9935 6.27463C12.9935 6.27229 12.9935 6.26996 12.9935 6.26763C12.9935 6.2653 12.9935 6.26297 12.9935 6.26064C12.9935 6.25831 12.9935 6.25598 12.9935 6.25365C12.9935 6.25132 12.9935 6.24899 12.9934 6.24666C12.9934 6.24433 12.9934 6.242 12.9934 6.23967C12.9934 6.23735 12.9934 6.23502 12.9934 6.23269C12.9934 6.23036 12.9934 6.22804 12.9934 6.22571C12.9934 6.22339 12.9934 6.22106 12.9933 6.21873C12.9933 6.21641 12.9933 6.21408 12.9933 6.21176C12.9933 6.20944 12.9933 6.20711 12.9933 6.20479C12.9933 6.20247 12.9933 6.20014 12.9933 6.19782C12.9933 6.1955 12.9933 6.19317 12.9932 6.19085C12.9932 6.18853 12.9932 6.18621 12.9932 6.18389C12.9932 6.18157 12.9932 6.17925 12.9932 6.17693C12.9932 6.1746 12.9932 6.17228 12.9932 6.16997C12.9932 6.16765 12.9932 6.16533 12.9931 6.16301C12.9931 6.16069 12.9931 6.15837 12.9931 6.15605C12.9931 6.15373 12.9931 6.15141 12.9931 6.1491C12.9931 6.14678 12.9931 6.14446 12.9931 6.14214C12.9931 6.13983 12.9931 6.13751 12.993 6.13519C12.993 6.13287 12.993 6.13056 12.993 6.12824C12.993 6.12593 12.993 6.12361 12.993 6.12129C12.993 6.11898 12.993 6.11666 12.993 6.11435C12.993 6.11203 12.993 6.10972 12.9929 6.1074C12.9929 6.10509 12.9929 6.10277 12.9929 6.10046C12.9929 6.09814 12.9929 6.09583 12.9929 6.09352C12.9929 6.0912 12.9929 6.08889 12.9929 6.08657C12.9929 6.08426 12.9929 6.08195 12.9928 6.07963C12.9928 6.07732 12.9928 6.07501 12.9928 6.07269C12.9928 6.07038 12.9928 6.06807 12.9928 6.06575C12.9928 6.06344 12.9928 6.06113 12.9928 6.05882C12.9928 6.0565 12.9928 6.05419 12.9927 6.05188C12.9927 6.04957 12.9927 6.04726 12.9927 6.04494C12.9927 6.04263 12.9927 6.04032 12.9927 6.03801C12.9927 6.0357 12.9927 6.03338 12.9927 6.03107C12.9927 6.02876 12.9927 6.02645 12.9926 6.02414C12.9926 6.02183 12.9926 6.01951 12.9926 6.0172C12.9926 6.01489 12.9926 6.01258 12.9926 6.01027C12.9926 6.00796 12.9926 6.00564 12.9926 6.00333C12.9926 6.00102 12.9926 5.99871 12.9925 5.9964C12.9925 5.99409 12.9925 5.99178 12.9925 5.98946C12.9925 5.98715 12.9925 5.98484 12.9925 5.98253C12.9925 5.98022 12.9925 5.97791 12.9925 5.9756C12.9925 5.97328 12.9925 5.97097 12.9924 5.96866C12.9924 5.96635 12.9924 5.96404 12.9924 5.96173C12.9924 5.95941 12.9924 5.9571 12.9924 5.95479C12.9924 5.95248 12.9924 5.95017 12.9924 5.94785C12.9924 5.94554 12.9924 5.94323 12.9923 5.94092C12.9923 5.93861 12.9923 5.93629 12.9923 5.93398C12.9923 5.93167 12.9923 5.92936 12.9923 5.92704C12.9923 5.92473 12.9923 5.92242 12.9923 5.9201C12.9923 5.91779 12.9923 5.91548 12.9922 5.91316C12.9922 5.91085 12.9922 5.90854 12.9922 5.90622C12.9922 5.90391 12.9922 5.9016 12.9922 5.89928C12.9922 5.89697 12.9922 5.89465 12.9922 5.89234C12.9922 5.89003 12.9922 5.88771 12.9921 5.8854C12.9921 5.88308 12.9921 5.88077 12.9921 5.87845C12.9921 5.87614 12.9921 5.87382 12.9921 5.8715C12.9921 5.86919 12.9921 5.86687 12.9921 5.86456C12.9921 5.86224 12.9921 5.85992 12.992 5.85761C12.992 5.85529 12.992 5.85297 12.992 5.85066C12.992 5.84834 12.992 5.84602 12.992 5.8437C12.992 5.84138 12.992 5.83907 12.992 5.83675C12.992 5.83443 12.992 5.83211 12.9919 5.82979C12.9919 5.82747 12.9919 5.82515 12.9919 5.82283C12.9919 5.82051 12.9919 5.81819 12.9919 5.81587C12.9919 5.81355 12.9919 5.81123 12.9919 5.80891C12.9919 5.80659 12.9919 5.80427 12.9918 5.80195C12.9918 5.79962 12.9918 5.7973 12.9918 5.79498C12.9918 5.79266 12.9918 5.79033 12.9918 5.78801C12.9918 5.78569 12.9918 5.78336 12.9918 5.78104C12.9918 5.77871 12.9918 5.77639 12.9917 5.77406C12.9917 5.77174 12.9917 5.76941 12.9917 5.76709C12.9917 5.76476 12.9917 5.76243 12.9917 5.76011C12.9917 5.75778 12.9917 5.75545 12.9917 5.75312C12.9917 5.7508 12.9917 5.74847 12.9916 5.74614C12.9916 5.74381 12.9916 5.74148 12.9916 5.73915C12.9916 5.73682 12.9916 5.73449 12.9916 5.73216C12.9916 5.72983 12.9916 5.7275 12.9916 5.72517C12.9916 5.72284 12.9916 5.7205 12.9915 5.71817C12.9915 5.71584 12.9915 5.7135 12.9915 5.71117C12.9915 5.70884 12.9915 5.7065 12.9915 5.70417C12.9915 5.70183 12.9915 5.6995 12.9915 5.69716C12.9915 5.69482 12.9915 5.69249 12.9914 5.69015C12.9914 5.68781 12.9914 5.68547 12.9914 5.68314C12.9914 5.6808 12.9914 5.67846 12.9914 5.67612C12.9914 5.67378 12.9914 5.67144 12.9914 5.6691C12.9914 5.66676 12.9914 5.66441 12.9913 5.66207C12.9913 5.65973 12.9913 5.65739 12.9913 5.65504C12.9913 5.6527 12.9913 5.65036 12.9913 5.64801C12.9913 5.64567 12.9913 5.64332 12.9913 5.64097C12.9913 5.63863 12.9913 5.63628 12.9912 5.63393C12.9912 5.63158 12.9912 5.62924 12.9912 5.62689C12.9912 5.62454 12.9912 5.62219 12.9912 5.61984C12.9912 5.61749 12.9912 5.61514 12.9912 5.61278C12.9912 5.61043 12.9911 5.60808 12.9911 5.60573C12.9911 5.60337 12.9911 5.60102 12.9911 5.59866C12.9911 5.59631 12.9911 5.59395 12.9911 5.5916C12.9911 5.58924 12.9911 5.58688 12.9911 5.58452C12.9911 5.58217 12.991 5.57981 12.991 5.57745C12.991 5.57509 12.991 5.57273 12.991 5.57037C12.991 5.56801 12.991 5.56564 12.991 5.56328C12.991 5.56092 12.991 5.55855 12.991 5.55619C12.991 5.55382 12.9909 5.55146 12.9909 5.54909C12.9909 5.54673 12.9909 5.54436 12.9909 5.54199C12.9909 5.53962 12.9909 5.53725 12.9909 5.53488C12.9909 5.53251 12.9909 5.53014 12.9909 5.52777C12.9909 5.5254 12.9908 5.52303 12.9908 5.52065C12.9908 5.51828 12.9908 5.51591 12.9908 5.51353C12.9908 5.51116 12.9908 5.50878 12.9908 5.5064C12.9908 5.50403 12.9908 5.50165 12.9908 5.49927C12.9907 5.49689 12.9907 5.49451 12.9907 5.49213C12.9907 5.48975 12.9907 5.48737 12.9907 5.48498C12.9907 5.4826 12.9907 5.48022 12.9907 5.47783C12.9907 5.47545 12.9907 5.47306 12.9907 5.47068C12.9906 5.46829 12.9906 5.4659 12.9906 5.46351C12.9906 5.46112 12.9906 5.45873 12.9906 5.45634C12.9906 5.45395 12.9906 5.45156 12.9906 5.44917C12.9906 5.44677 12.9906 5.44438 12.9906 5.44198C12.9905 5.43959 12.9905 5.43719 12.9905 5.4348C12.9905 5.4324 12.9905 5.43 12.9905 5.4276C12.9905 5.4252 12.9905 5.4228 12.9905 5.4204C12.9905 5.418 12.9905 5.4156 12.9904 5.41319C12.9904 5.41079 12.9904 5.40838 12.9904 5.40598C12.9904 5.40357 12.9904 5.40116 12.9904 5.39876C12.9904 5.39635 12.9904 5.39394 12.9904 5.39153C12.9904 5.38912 12.9904 5.38671 12.9903 5.38429C12.9903 5.38188 12.9903 5.37947 12.9903 5.37705C12.9903 5.37464 12.9903 5.37222 12.9903 5.3698C12.9903 5.36738 12.9903 5.36497 12.9903 5.36255C12.9903 5.36013 12.9902 5.3577 12.9902 5.35528C12.9902 5.35286 12.9902 5.35044 12.9902 5.34801C12.9902 5.34559 12.9902 5.34316 12.9902 5.34073C12.9902 5.33831 12.9902 5.33588 12.9902 5.33345C12.9902 5.33102 12.9901 5.32859 12.9901 5.32615C12.9901 5.32372 12.9901 5.32129 12.9901 5.31885C12.9901 5.31642 12.9901 5.31398 12.9901 5.31154C12.9901 5.30911 12.9901 5.30667 12.9901 5.30423C12.99 5.30179 12.99 5.29935 12.99 5.2969C12.99 5.29446 12.99 5.29202 12.99 5.28957C12.99 5.28713 12.99 5.28468 12.99 5.28223C12.99 5.27978 12.99 5.27733 12.9899 5.27488C12.9899 5.27243 12.9899 5.26998 12.9899 5.26753C12.9899 5.26507 12.9899 5.26262 12.9899 5.26016C12.9899 5.2577 12.9899 5.25525 12.9899 5.25279C12.9899 5.25033 12.9899 5.24787 12.9898 5.24541C12.9898 5.24294 12.9898 5.24048 12.9898 5.23802C12.9898 5.23555 12.9898 5.23308 12.9898 5.23062C12.9898 5.22815 12.9898 5.22568 12.9898 5.22321C12.9898 5.22074 12.9897 5.21827 12.9897 5.21579C12.9897 5.21332 12.9897 5.21084 12.9897 5.20837C12.9897 5.20589 12.9897 5.20341 12.9897 5.20093C12.9897 5.19845 12.9897 5.19597 12.9897 5.19349C12.9896 5.19101 12.9896 5.18852 12.9896 5.18604C12.9896 5.18355 12.9896 5.18107 12.9896 5.17858C12.9896 5.17609 12.9896 5.1736 12.9896 5.17111C12.9896 5.16861 12.9896 5.16612 12.9895 5.16363C12.9895 5.16113 12.9895 5.15864 12.9895 5.15614C12.9895 5.15364 12.9895 5.15114 12.9895 5.14864C12.9895 5.14614 12.9895 5.14363 12.9895 5.14113C12.9895 5.13863 12.9894 5.13612 12.9894 5.13361C12.9894 5.1311 12.9894 5.1286 12.9894 5.12608C12.9894 5.12357 12.9894 5.12106 12.9894 5.11855C12.9894 5.11603 12.9894 5.11352 12.9894 5.111C12.9893 5.10848 12.9893 5.10596 12.9893 5.10344C12.9893 5.10092 12.9893 5.0984 12.9893 5.09587C12.9893 5.09335 12.9893 5.09082 12.9893 5.0883C12.9893 5.08577 12.9893 5.08324 12.9892 5.08071C12.9892 5.07818 12.9892 5.07565 12.9892 5.07311C12.9892 5.07058 12.9892 5.06804 12.9892 5.0655C12.9892 5.06296 12.9892 5.06042 12.9892 5.05788C12.9892 5.05534 12.9891 5.0528 12.9891 5.05025C12.9891 5.04771 12.9891 5.04516 12.9891 5.04261C12.9891 5.04007 12.9891 5.03752 12.9891 5.03496C12.9891 5.03241 12.9891 5.02986 12.9891 5.0273C12.989 5.02475 12.989 5.02219 12.989 5.01963C12.989 5.01707 12.989 5.01451 12.989 5.01195C12.989 5.00938 12.989 5.00682 12.989 5.00425C12.989 5.00168 12.989 4.99912 12.9889 4.99655C12.9889 4.99398 12.9889 4.9914 12.9889 4.98883C12.9889 4.98626 12.9889 4.98368 12.9889 4.9811C12.9889 4.97852 12.9889 4.97594 12.9889 4.97336C12.9889 4.97078 12.9888 4.9682 12.9888 4.96561C12.9888 4.96303 12.9888 4.96044 12.9888 4.95785C12.9888 4.95526 12.9888 4.95267 12.9888 4.95008C12.9888 4.94748 12.9888 4.94489 12.9888 4.94229C12.9887 4.93969 12.9887 4.93709 12.9887 4.93449C12.9887 4.93189 12.9887 4.92929 12.9887 4.92668C12.9887 4.92408 12.9887 4.92147 12.9887 4.91886C12.9887 4.91625 12.9886 4.91364 12.9886 4.91103C12.9886 4.90842 12.9886 4.9058 12.9886 4.90319C12.9886 4.90057 12.9886 4.89795 12.9886 4.89533C12.9886 4.89271 12.9886 4.89008 12.9886 4.88746C12.9885 4.88483 12.9885 4.88221 12.9885 4.87958C12.9885 4.87695 12.9885 4.87432 12.9885 4.87168C12.9885 4.86905 12.9885 4.86642 12.9885 4.86378C12.9885 4.86114 12.9884 4.8585 12.9884 4.85586C12.9884 4.85322 12.9884 4.85057 12.9884 4.84793C12.9884 4.84528 12.9884 4.84263 12.9884 4.83998C12.9884 4.83733 12.9884 4.83468 12.9884 4.83203C12.9883 4.82937 12.9883 4.82672 12.9883 4.82406C12.9883 4.8214 12.9883 4.81874 12.9883 4.81607C12.9883 4.81341 12.9883 4.81074 12.9883 4.80808C12.9883 4.80541 12.9882 4.80274 12.9882 4.80007C12.9882 4.7974 12.9882 4.79472 12.9882 4.79205C12.9882 4.78937 12.9882 4.78669 12.9882 4.78401C12.9882 4.78133 12.9882 4.77865 12.9882 4.77596C12.9881 4.77328 12.9881 4.77059 12.9881 4.7679C12.9881 4.76521 12.9881 4.76252 12.9881 4.75982C12.9881 4.75713 12.9881 4.75443 12.9881 4.75174C12.9881 4.74904 12.988 4.74634 12.988 4.74363C12.988 4.74093 12.988 4.73822 12.988 4.73552C12.988 4.73281 12.988 4.7301 12.988 4.72738C12.988 4.72467 12.988 4.72196 12.9879 4.71924C12.9879 4.71652 12.9879 4.7138 12.9879 4.71108C12.9879 4.70836 12.9879 4.70564 12.9879 4.70291C12.9879 4.70018 12.9879 4.69745 12.9879 4.69472C12.9879 4.69199 12.9878 4.68926 12.9878 4.68652C12.9878 4.68379 12.9878 4.68105 12.9878 4.67831C12.9878 4.67557 12.9878 4.67282 12.9878 4.67008C12.9878 4.66733 12.9878 4.66458 12.9877 4.66183C12.9877 4.65908 12.9877 4.65633 12.9877 4.65357C12.9877 4.65082 12.9877 4.64806 12.9877 4.6453C12.9877 4.64254 12.9877 4.63978 12.9877 4.63701C12.9876 4.63425 12.9876 4.63148 12.9876 4.62871C12.9876 4.62594 12.9876 4.62317 12.9876 4.62039C12.9876 4.61762 12.9876 4.61484 12.9876 4.61206C12.9876 4.60928 12.9875 4.6065 12.9875 4.60371C12.9875 4.60093 12.9875 4.59814 12.9875 4.59535C12.9875 4.59256 12.9875 4.58977 12.9875 4.58697C12.9875 4.58418 12.9875 4.58138 12.9874 4.57858C12.9874 4.57578 12.9874 4.57298 12.9874 4.57017C12.9874 4.56736 12.9874 4.56456 12.9874 4.56175C12.9874 4.55894 12.9874 4.55612 12.9874 4.55331C12.9873 4.55049 12.9873 4.54767 12.9873 4.54485C12.9873 4.54203 12.9873 4.53921 12.9873 4.53638C12.9873 4.53355 12.9873 4.53073 12.9873 4.52789C12.9872 4.52506 12.9872 4.52223 12.9872 4.51939C12.9872 4.51655 12.9872 4.51372 12.9872 4.51087C12.9872 4.50803 12.9872 4.50519 12.9872 4.50234C12.9872 4.49949 12.9871 4.49664 12.9871 4.49379C12.9871 4.49094 12.9871 4.48808 12.9871 4.48522C12.9871 4.48236 12.9871 4.4795 12.9871 4.47664C12.9871 4.47378 12.9871 4.47091 12.987 4.46804C12.987 4.46517 12.987 4.4623 12.987 4.45942C12.987 4.45655 12.987 4.45367 12.987 4.45079C12.987 4.44791 12.987 4.44503 12.987 4.44214C12.9869 4.43926 12.9869 4.43637 12.9869 4.43348C12.9869 4.43059 12.9869 4.42769 12.9869 4.4248C12.9869 4.4219 12.9869 4.419 12.9869 4.4161C12.9868 4.4132 12.9868 4.41029 12.9868 4.40738C12.9868 4.40447 12.9868 4.40156 12.9868 4.39865C12.9868 4.39574 12.9868 4.39282 12.9868 4.3899C12.9868 4.38698 12.9867 4.38406 12.9867 4.38113C12.9867 4.37821 12.9867 4.37528 12.9867 4.37235C12.9867 4.36942 12.9867 4.36648 12.9867 4.36355C12.9867 4.36061 12.9866 4.35767 12.9866 4.35473C12.9866 4.35179 12.9866 4.34884 12.9866 4.34589C12.9866 4.34295 12.9866 4.33999 12.9866 4.33704C12.9866 4.33409 12.9866 4.33113 12.9865 4.32817C12.9865 4.32521 12.9865 4.32225 12.9865 4.31928C12.9865 4.31631 12.9865 4.31334 12.9865 4.31037C12.9865 4.3074 12.9865 4.30443 12.9864 4.30145C12.9864 4.29847 12.9864 4.29549 12.9864 4.29251C12.9864 4.28952 12.9864 4.28654 12.9864 4.28355C12.9864 4.28056 12.9864 4.27756 12.9863 4.27457C12.9863 4.27157 12.9863 4.26857 12.9863 4.26557C12.9863 4.26257 12.9863 4.25956 12.9863 4.25656C12.9863 4.25355 12.9863 4.25054 12.9862 4.24752C12.9862 4.24451 12.9862 4.24149 12.9862 4.23847C12.9862 4.23545 12.9862 4.23243 12.9862 4.2294C12.9862 4.22637 12.9862 4.22334 12.9862 4.22031C12.9861 4.21728 12.9861 4.21424 12.9861 4.2112C12.9861 4.20816 12.9861 4.20512 12.9861 4.20208C12.9861 4.19903 12.9861 4.19598 12.9861 4.19293C12.986 4.18988 12.986 4.18683 12.986 4.18377C12.986 4.18071 12.986 4.17765 12.986 4.17459C12.986 4.17152 12.986 4.16845 12.986 4.16538C12.9859 4.16231 12.9859 4.15924 12.9859 4.15616C12.9859 4.15309 12.9859 4.15001 12.9859 4.14692C12.9859 4.14384 12.9859 4.14075 12.9859 4.13766C12.9858 4.13457 12.9858 4.13148 12.9858 4.12838C12.9858 4.12529 12.9858 4.12219 12.9858 4.11909C12.9858 4.11598 12.9858 4.11288 12.9858 4.10977C12.9857 4.10666 12.9857 4.10355 12.9857 4.10043C12.9857 4.09731 12.9857 4.0942 12.9857 4.09107C12.9857 4.08795 12.9857 4.08482 12.9857 4.0817C12.9856 4.07857 12.9856 4.07543 12.9856 4.0723C12.9856 4.06916 12.9856 4.06602 12.9856 4.06288C12.9856 4.05974 12.9856 4.05659 12.9856 4.05345C12.9855 4.0503 12.9855 4.04714 12.9855 4.04399C12.9855 4.04083 12.9855 4.03767 12.9855 4.03451C12.9855 4.03135 12.9855 4.02818 12.9854 4.02501C12.9854 4.02184 12.9854 4.01867 12.9854 4.0155C12.9854 4.01232 12.9854 4.00914 12.9854 4.00596C12.9854 4.00277 12.9854 3.99959 12.9853 3.9964L10.9854 4.0036Z" fill="black"/>
<path d="M18.1714 3.19946C18.1714 3.75175 17.7237 4.19946 17.1714 4.19946C16.6191 4.19946 16.1714 3.75175 16.1714 3.19946C16.1714 2.64718 16.6191 2.19946 17.1714 2.19946C17.7237 2.19946 18.1714 2.64718 18.1714 3.19946Z" fill="#FF2164"/>
</svg>
