<svg width="24" height="24" viewBox="0 0 24 24" fill="none" xmlns="http://www.w3.org/2000/svg">
<circle cx="4" cy="20" r="4" fill="currentColor"/>
<path d="M9.00195 10C9.00195 9.44772 9.44967 9 10.002 9C10.5542 9 11.002 9.44772 11.002 10V13H9.00195V10Z" fill="black"/>
<path d="M13.002 10C13.002 9.44772 13.4497 9 14.002 9C14.5542 9 15.002 9.44772 15.002 10V13H13.002V10Z" fill="black"/>
<path d="M18 3.99927C16.3287 2.74389 14.2512 2 12 2C6.47715 2 2 6.47715 2 12C2 17.5228 6.47715 22 12 22C17.5228 22 22 17.5228 22 12C22 11.3151 21.9311 10.6462 21.8 10" stroke="black" stroke-linecap="round"/>
<path d="M18.002 15C18.002 16.6569 16.6588 18 15.002 18" stroke="black" stroke-linecap="round"/>
<path d="M21.3549 6.84492C21.3549 7.3972 20.9072 7.84492 20.3549 7.84492C19.8027 7.84492 19.3549 7.3972 19.3549 6.84492C19.3549 6.29263 19.8027 5.84492 20.3549 5.84492C20.9072 5.84492 21.3549 6.29263 21.3549 6.84492Z" fill="#FF2164"/>
</svg>
