<svg width="36" height="36" viewBox="0 0 36 36" fill="none" xmlns="http://www.w3.org/2000/svg">
<circle cx="18" cy="18" r="18" fill="black"/>
<path d="M8 15.5865C8 14.4526 8.91925 13.5333 10.0532 13.5333V13.5333C10.8367 13.5333 11.5519 13.0874 11.8968 12.3839L12.8148 10.5111C13.0001 10.1331 13.0927 9.94413 13.2112 9.78856C13.5073 9.39959 13.9356 9.13254 14.4152 9.03787C14.607 9 14.8175 9 15.2385 9H20.7615C21.1825 9 21.393 9 21.5848 9.03787C22.0644 9.13254 22.4927 9.39959 22.7888 9.78856C22.9073 9.94413 22.9999 10.1331 23.1852 10.5111L24.1032 12.3839C24.4481 13.0874 25.1633 13.5333 25.9468 13.5333V13.5333C27.0808 13.5333 28 14.4526 28 15.5865V20.6571C28 22.8524 28 23.95 27.4532 24.7269C27.2546 25.0089 27.0089 25.2546 26.7269 25.4532C25.95 26 24.8524 26 22.6571 26H13.3429C11.1476 26 10.05 26 9.27315 25.4532C8.99109 25.2546 8.74539 25.0089 8.54684 24.7269C8 23.95 8 22.8524 8 20.6571V15.5865Z" stroke="white"/>
<circle cx="18" cy="19" r="2.5" stroke="white"/>
<path d="M24 16C24 16.5523 23.5523 17 23 17C22.4477 17 22 16.5523 22 16C22 15.4477 22.4477 15 23 15C23.5523 15 24 15.4477 24 16Z" fill="white"/>
</svg>
