<svg width="36" height="36" viewBox="0 0 36 36" fill="none" xmlns="http://www.w3.org/2000/svg">
<path d="M0.5 18C0.5 8.33502 8.33502 0.5 18 0.5C27.665 0.5 35.5 8.33502 35.5 18C35.5 27.665 27.665 35.5 18 35.5H4C2.067 35.5 0.5 33.933 0.5 32V18Z" fill="white" stroke="black"/>
<path d="M10.327 11.1628L10.7725 11.3898V11.3898L10.327 11.1628ZM10.7086 26.5024L10.4213 26.0932H10.4213L10.7086 26.5024ZM24.362 24.1978L24.135 23.7523H24.135L24.362 24.1978ZM25.673 22.8868L26.1185 23.1137H26.1185L25.673 22.8868ZM25.673 11.1628L25.2275 11.3898L25.673 11.1628ZM24.362 9.85176L24.135 10.2973L24.362 9.85176ZM11.638 9.85176L11.411 9.40626V9.40626L11.638 9.85176ZM13.2666 24.7064L13.5539 25.1156L13.2666 24.7064ZM9.5 14.3248C9.5 13.493 9.49961 12.839 9.54253 12.3137C9.58593 11.7825 9.67609 11.3389 9.88148 10.9358L10.7725 11.3898C10.6509 11.6284 10.5776 11.9258 10.5392 12.3951C10.5004 12.8703 10.5 13.4765 10.5 14.3248H9.5ZM9.5 17.5248V14.3248H10.5V17.5248H9.5ZM10.5 17.5248V24.1914H9.5V17.5248H10.5ZM10.5 24.1914V24.5248H9.5V24.1914H10.5ZM10.5 24.5248V26.1341H9.5V24.5248H10.5ZM10.5 26.1341C10.5 26.1288 10.4978 26.1177 10.4909 26.1069C10.4851 26.0976 10.4784 26.0925 10.4731 26.0897C10.4677 26.087 10.4597 26.0844 10.4488 26.0849C10.4359 26.0855 10.4256 26.0901 10.4213 26.0932L10.9959 26.9116C10.3664 27.3536 9.5 26.9033 9.5 26.1341H10.5ZM10.4213 26.0932L12.9793 24.2971L13.5539 25.1156L10.9959 26.9116L10.4213 26.0932ZM21.2 25.0248H13.8412V24.0248H21.2V25.0248ZM24.589 24.6433C24.1859 24.8487 23.7423 24.9388 23.2111 24.9822C22.6858 25.0252 22.0318 25.0248 21.2 25.0248V24.0248C22.0483 24.0248 22.6545 24.0244 23.1297 23.9856C23.599 23.9472 23.8963 23.8739 24.135 23.7523L24.589 24.6433ZM26.1185 23.1137C25.783 23.7723 25.2475 24.3077 24.589 24.6433L24.135 23.7523C24.6054 23.5126 24.9878 23.1302 25.2275 22.6598L26.1185 23.1137ZM26.5 19.7248C26.5 20.5566 26.5004 21.2106 26.4575 21.7359C26.4141 22.2671 26.3239 22.7106 26.1185 23.1137L25.2275 22.6598C25.3491 22.4211 25.4224 22.1238 25.4608 21.6545C25.4996 21.1793 25.5 20.5731 25.5 19.7248H26.5ZM26.5 14.3248V19.7248H25.5V14.3248H26.5ZM26.1185 10.9358C26.3239 11.3389 26.4141 11.7825 26.4575 12.3137C26.5004 12.839 26.5 13.493 26.5 14.3248H25.5C25.5 13.4765 25.4996 12.8703 25.4608 12.3951C25.4224 11.9258 25.3491 11.6284 25.2275 11.3898L26.1185 10.9358ZM24.589 9.40626C25.2475 9.74181 25.783 10.2772 26.1185 10.9358L25.2275 11.3898C24.9878 10.9194 24.6054 10.5369 24.135 10.2973L24.589 9.40626ZM21.2 9.02478C22.0318 9.02478 22.6858 9.02439 23.2111 9.06731C23.7423 9.11071 24.1859 9.20087 24.589 9.40626L24.135 10.2973C23.8963 10.1757 23.599 10.1023 23.1297 10.064C22.6545 10.0252 22.0483 10.0248 21.2 10.0248V9.02478ZM14.8 9.02478H21.2V10.0248H14.8V9.02478ZM11.411 9.40626C11.8141 9.20087 12.2577 9.11071 12.7889 9.06731C13.3142 9.02439 13.9682 9.02478 14.8 9.02478V10.0248C13.9517 10.0248 13.3455 10.0252 12.8703 10.064C12.401 10.1023 12.1037 10.1757 11.865 10.2973L11.411 9.40626ZM9.88148 10.9358C10.217 10.2772 10.7525 9.74181 11.411 9.40626L11.865 10.2973C11.3946 10.5369 11.0122 10.9194 10.7725 11.3898L9.88148 10.9358ZM12.9793 24.2971C13.2318 24.1199 13.5328 24.0248 13.8412 24.0248V25.0248C13.7384 25.0248 13.6381 25.0565 13.5539 25.1156L12.9793 24.2971Z" fill="black"/>
<rect x="14" y="17.9999" width="8" height="1" rx="0.5" fill="black"/>
<path d="M14 15.4999C14 15.2237 14.2239 14.9999 14.5 14.9999H18V15.9999H14.5C14.2239 15.9999 14 15.776 14 15.4999Z" fill="black"/>
</svg>
