<svg width="36" height="36" viewBox="0 0 36 36" fill="none" xmlns="http://www.w3.org/2000/svg">
<g clip-path="url(#clip0_3055_122)">
<path d="M0.5 18C0.5 8.33502 8.33502 0.5 18 0.5C27.665 0.5 35.5 8.33502 35.5 18C35.5 27.665 27.665 35.5 18 35.5H4C2.067 35.5 0.5 33.933 0.5 32V18Z" fill="white" stroke="black"/>
<path d="M24.0268 24.3856C24.1809 23.9344 24.8191 23.9344 24.9732 24.3856L25.3116 25.3768C25.3617 25.5233 25.4767 25.6383 25.6232 25.6884L26.6144 26.0268C27.0656 26.1809 27.0656 26.8191 26.6144 26.9732L25.6232 27.3116C25.4767 27.3617 25.3617 27.4767 25.3116 27.6232L24.9732 28.6144C24.8191 29.0656 24.1809 29.0656 24.0268 28.6144L23.6884 27.6232C23.6383 27.4767 23.5233 27.3617 23.3768 27.3116L22.3856 26.9732C21.9344 26.8191 21.9344 26.1809 22.3856 26.0268L23.3768 25.6884C23.5233 25.6383 23.6383 25.5233 23.6884 25.3768L24.0268 24.3856Z" fill="black"/>
<path d="M27.7209 20.7076C27.8208 20.4544 28.1792 20.4544 28.2791 20.7076L28.5179 21.3131C28.5484 21.3904 28.6096 21.4516 28.6869 21.4821L29.2924 21.7209C29.5456 21.8208 29.5456 22.1792 29.2924 22.2791L28.6869 22.5179C28.6096 22.5484 28.5484 22.6096 28.5179 22.6869L28.2791 23.2924C28.1792 23.5456 27.8208 23.5456 27.7209 23.2924L27.4821 22.6869C27.4516 22.6096 27.3904 22.5484 27.3131 22.5179L26.7076 22.2791C26.4544 22.1792 26.4544 21.8208 26.7076 21.7209L27.3131 21.4821C27.3904 21.4516 27.4516 21.3904 27.4821 21.3131L27.7209 20.7076Z" fill="black"/>
<g clip-path="url(#clip1_3055_122)">
<g clip-path="url(#clip2_3055_122)">
<path d="M26.3531 9.14758C25.5995 8.39384 24.3813 8.39384 23.6277 9.14758C22.5816 10.335 21.5974 11.5706 20.6752 12.8578C20.4274 13.2054 19.9284 13.2501 19.6291 12.9473L17.5368 10.8547C17.0448 10.3625 16.243 10.3625 15.7509 10.8547L14.5017 12.104C14.2781 12.3278 14.2781 12.6926 14.5017 12.9163L22.0929 20.5088C22.585 21.001 23.3868 21.001 23.8789 20.5088L24.6394 19.7482C25.1315 19.256 25.1315 18.4541 24.6394 17.9619L22.5472 15.8693C22.2443 15.5664 22.2891 15.0708 22.6366 14.823C23.9202 13.9006 25.159 12.9163 26.3462 11.8734C27.0998 11.1197 27.0998 9.90133 26.3462 9.14758H26.3531Z" stroke="black" stroke-miterlimit="10" stroke-linejoin="round"/>
<path d="M22.5783 21.001L14.6499 13.0677C14.3436 12.7614 13.8481 12.7614 13.5418 13.0677L8.46268 18.1478C8.239 18.3715 8.239 18.7363 8.46268 18.96L9.62579 20.1233C9.69805 20.1956 9.80817 20.2059 9.89076 20.1474L11.5287 19.0426C11.7215 18.9153 11.9486 19.1424 11.8212 19.3352L10.7166 20.9734C10.6616 21.056 10.6719 21.1696 10.7407 21.2385L16.5391 27.0378C16.7627 27.2615 17.1275 27.2615 17.3512 27.0378L22.5749 21.8132C22.7985 21.5895 22.7985 21.2247 22.5749 21.001H22.5783Z" stroke="black" stroke-miterlimit="10" stroke-linejoin="round"/>
<path d="M14.5425 11.3602L12.1992 13.7039L12.4424 13.947L14.7856 11.6034L14.5425 11.3602Z" fill="black"/>
<path d="M24.5444 20.0576L22.2012 22.4013L22.4445 22.6446L24.7877 20.301L24.5444 20.0576Z" fill="black"/>
</g>
</g>
</g>
<defs>
<clipPath id="clip0_3055_122">
<rect width="36" height="36" fill="white"/>
</clipPath>
<clipPath id="clip1_3055_122">
<rect width="24" height="24" fill="white" transform="translate(6 6)"/>
</clipPath>
<clipPath id="clip2_3055_122">
<rect width="20" height="20" fill="white" transform="translate(7.60547 7.89478)"/>
</clipPath>
</defs>
</svg>
