<svg width="24" height="24" viewBox="0 0 24 24" fill="none" xmlns="http://www.w3.org/2000/svg">
<g id="icon/24px/myroom">
<circle id="Ellipse 51" cx="4" cy="20" r="4" fill="currentColor"/>
<path id="Union" d="M15.8337 2.76123C14.6531 2.27075 13.3582 2 12 2C6.47715 2 2 6.47715 2 12C2 17.5228 6.47715 22 12 22H18.3636C20.3719 22 22 20.3719 22 18.3636V12C22 10.1786 21.513 8.47087 20.6622 7" stroke="black" stroke-linecap="round"/>
<path id="Rectangle 4224" d="M9 9C9 8.44772 9.44772 8 10 8C10.5523 8 11 8.44772 11 9V12H9V9Z" fill="black"/>
<path id="Rectangle 4225" d="M13 9C13 8.44772 13.4477 8 14 8C14.5523 8 15 8.44772 15 9V12H13V9Z" fill="black"/>
<path id="Ellipse 460" d="M19.5736 4.50267C19.5736 5.05495 19.1259 5.50267 18.5736 5.50267C18.0213 5.50267 17.5736 5.05495 17.5736 4.50267C17.5736 3.95038 18.0213 3.50267 18.5736 3.50267C19.1259 3.50267 19.5736 3.95038 19.5736 4.50267Z" fill="#FF2164"/>
</g>
</svg>
