<svg width="24" height="24" viewBox="0 0 24 24" fill="none" xmlns="http://www.w3.org/2000/svg">
<g id="icon/24px/Search">
<circle id="Ellipse 51" cx="4" cy="20" r="4" fill="currentColor"/>
<path id="Ellipse 524" d="M16.4 3.79934C14.8958 2.6695 13.0261 2 11 2C6.02944 2 2 6.02944 2 11C2 15.9706 6.02944 20 11 20C15.9706 20 20 15.9706 20 11C20 10.3836 19.938 9.7816 19.82 9.2" stroke="black" stroke-linecap="round"/>
<path id="Vector 109" d="M21.2929 22.7071C21.6834 23.0976 22.3166 23.0976 22.7071 22.7071C23.0976 22.3166 23.0976 21.6834 22.7071 21.2929L21.2929 22.7071ZM19.7071 18.2929L19 17.5858L17.5858 19L18.2929 19.7071L19.7071 18.2929ZM22.7071 21.2929L19.7071 18.2929L18.2929 19.7071L21.2929 22.7071L22.7071 21.2929Z" fill="black"/>
<path id="Ellipse 460" d="M19.5278 6.2352C19.5278 6.78748 19.0801 7.2352 18.5278 7.2352C17.9755 7.2352 17.5278 6.78748 17.5278 6.2352C17.5278 5.68291 17.9755 5.2352 18.5278 5.2352C19.0801 5.2352 19.5278 5.68291 19.5278 6.2352Z" fill="#FF2164"/>
</g>
</svg>
