<svg width="24" height="24" viewBox="0 0 24 24" fill="none" xmlns="http://www.w3.org/2000/svg">
<g id="icon/24px/Storyup">
<circle id="Ellipse 51" cx="4" cy="20" r="4" fill="currentColor"/>
<path id="Vector 278" d="M17.5 2.5H17.7C19.4913 2.5 20.387 2.5 20.9435 3.0565C21.5 3.61299 21.5 4.50866 21.5 6.3V6.5" stroke="black" stroke-linecap="round"/>
<path id="Vector 279" d="M6.5 2.5H6.3C4.50866 2.5 3.61299 2.5 3.0565 3.0565C2.5 3.61299 2.5 4.50866 2.5 6.3V6.5" stroke="black" stroke-linecap="round"/>
<path id="Vector 281" d="M6.5 21.5H6.3C4.50866 21.5 3.61299 21.5 3.0565 20.9435C2.5 20.387 2.5 19.4913 2.5 17.7V17.5" stroke="black" stroke-linecap="round"/>
<path id="Vector 282" d="M17.4978 21.5H17.6978C19.4891 21.5 20.3848 21.5 20.9413 20.9435C21.4978 20.387 21.4978 19.4913 21.4978 17.7V17.5" stroke="black" stroke-linecap="round"/>
<g id="Rectangle 4224">
<mask id="path-6-inside-1_833_7145" fill="white">
<path d="M7.99976 12C7.99976 11.4477 8.44747 11 8.99976 11H15.9998V13H8.99976C8.44747 13 7.99976 12.5523 7.99976 12Z"/>
</mask>
<path d="M15.9998 11H17.9998V9H15.9998V11ZM15.9998 13V15H17.9998V13H15.9998ZM8.99976 13H15.9998V9H8.99976V13ZM13.9998 11V13H17.9998V11H13.9998ZM15.9998 11H8.99976V15H15.9998V11ZM8.99976 11C9.55204 11 9.99976 11.4477 9.99976 12H5.99976C5.99976 13.6569 7.3429 15 8.99976 15V11ZM8.99976 9C7.3429 9 5.99976 10.3431 5.99976 12H9.99976C9.99976 12.5523 9.55204 13 8.99976 13V9Z" fill="black" mask="url(#path-6-inside-1_833_7145)"/>
</g>
<path id="Rectangle 4223" d="M12.4998 8.5L12.4998 15C12.4998 15.2761 12.2759 15.5 11.9998 15.5C11.7236 15.5 11.4998 15.2761 11.4998 15L11.4998 8.5L12.4998 8.5Z" stroke="black" stroke-linecap="round"/>
<path id="Ellipse 460" d="M22.5 9.5C22.5 10.0523 22.0523 10.5 21.5 10.5C20.9477 10.5 20.5 10.0523 20.5 9.5C20.5 8.94771 20.9477 8.5 21.5 8.5C22.0523 8.5 22.5 8.94771 22.5 9.5Z" fill="#FF2164"/>
</g>
</svg>
