<svg width="25" height="24" viewBox="0 0 25 24" fill="none" xmlns="http://www.w3.org/2000/svg">
<g id="icon/24px/Myplay">
<circle id="Ellipse 51" cx="4.9978" cy="20" r="4" fill="currentColor"/>
<path id="Ellipse 50" d="M18.9978 3.99927C17.3265 2.74389 15.249 2 12.9978 2C7.47496 2 2.9978 6.47715 2.9978 12C2.9978 17.5228 7.47496 22 12.9978 22C18.5207 22 22.9978 17.5228 22.9978 12C22.9978 11.3151 22.9289 10.6462 22.7978 10" stroke="black" stroke-linecap="round"/>
<path id="Vector 11" d="M16.1155 10.8275C16.0705 10.8072 16.0255 10.7858 15.9829 10.7609L12.699 8.83856C12.6479 8.80867 12.5947 8.78191 12.5389 8.76228C11.3189 8.33321 9.9978 9.17682 9.9978 10.4147V13.8836C9.9978 15.1215 11.3189 15.9651 12.5389 15.5361C12.5947 15.5164 12.6479 15.4897 12.699 15.4598L15.9829 13.5374C16.0255 13.5125 16.0705 13.4911 16.1155 13.4708C17.2919 12.9397 17.2919 11.3586 16.1155 10.8275Z" stroke="black" stroke-linecap="round" stroke-linejoin="round"/>
<path id="Ellipse 515" d="M22.3529 6.84483C22.3529 7.39711 21.9051 7.84483 21.3529 7.84483C20.8006 7.84483 20.3529 7.39711 20.3529 6.84483C20.3529 6.29254 20.8006 5.84483 21.3529 5.84483C21.9051 5.84483 22.3529 6.29254 22.3529 6.84483Z" fill="#FF2164"/>
</g>
</svg>
