<svg xmlns="http://www.w3.org/2000/svg" width="34" height="34" viewBox="0 0 34 34" fill="none">
  <circle cx="10" cy="10" r="6" fill="currentColor" />
  <path
    d="M8.92269 19.6101C6.73025 20.5332 5.46094 21.9179 5.46094 23.3026C5.46094 26.1874 10.6536 28.4953 17.0001 28.4953C23.3467 28.4953 28.5393 26.1874 28.5393 23.3026C28.5393 21.8026 27.27 20.5332 25.0775 19.6101"
    stroke="black" stroke-linecap="round" stroke-linejoin="round" />
  <path
    d="M24.1544 21.1106C24.1544 21.803 23.5775 22.38 22.8851 22.38H18.1541C17.4617 22.38 16.4232 22.38 15.7308 22.38H10.9998C10.3074 22.38 9.73047 21.803 9.73047 21.1106V18.8028C9.73047 18.1105 9.73047 17.0719 9.73047 16.3796V11.5331C9.73047 10.8408 10.192 10.033 10.769 9.57147L15.9616 5.76354C16.5386 5.41736 17.3463 5.41736 17.9233 5.76354L23.1159 9.57147C23.6929 9.91764 24.1544 10.8408 24.1544 11.5331V16.2642C24.1544 16.9565 24.1544 17.9951 24.1544 18.6874V21.1106V21.1106Z"
    stroke="black" stroke-linecap="round" stroke-linejoin="round" />
  <path
    d="M19.3081 18.3408C19.3081 17.0715 18.2695 16.033 17.0002 16.033C15.7309 16.033 14.6924 17.0715 14.6924 18.3408V22.2641H19.3081V18.3408Z"
    fill="black" />

</svg>