<svg xmlns="http://www.w3.org/2000/svg" width="34" height="34" viewBox="0 0 34 34" fill="none">
  <circle cx="10" cy="10" r="6" fill="currentColor" />
  <path
    d="M8.50725 10.4812L8.94055 10.7307C9.02964 10.576 9.02948 10.3855 8.94012 10.2309C8.85077 10.0764 8.68578 9.98117 8.50725 9.98117V10.4812ZM8.50495 10.4812L8.05903 10.255C7.98041 10.41 7.98792 10.5947 8.07887 10.7428C8.16982 10.8909 8.33115 10.9812 8.50495 10.9812V10.4812ZM9.08395 22.4011L9.5099 22.1393L9.5099 22.1393L9.08395 22.4011ZM8.08015 27.0002L7.90589 26.5315C7.67907 26.6158 7.5452 26.8505 7.58805 27.0887C7.63089 27.3269 7.83815 27.5002 8.08015 27.5002V27.0002ZM14.1453 27.0002V27.5002C14.4215 27.5002 14.6453 27.2763 14.6453 27.0002H14.1453ZM14.1453 24.0947H14.6453C14.6453 23.933 14.5671 23.7813 14.4355 23.6875L14.1453 24.0947ZM10.5817 16.2251V15.7251C10.329 15.7251 10.1161 15.9136 10.0854 16.1644L10.5817 16.2251ZM10.6868 16.2251V16.7251C10.867 16.7251 11.0332 16.6282 11.1219 16.4714C11.2107 16.3147 11.2083 16.1223 11.1156 15.9678L10.6868 16.2251ZM10.6811 16.2155L10.5843 15.725C10.4245 15.7565 10.2902 15.8639 10.2241 16.0127C10.158 16.1615 10.1686 16.3332 10.2524 16.4728L10.6811 16.2155ZM14.5231 11.8139L14.9968 11.6539C14.9275 11.4486 14.7338 11.3113 14.5172 11.3139C14.3005 11.3165 14.1102 11.4583 14.0457 11.6652L14.5231 11.8139ZM22.7175 16.2155L23.0627 16.5772C23.2106 16.4361 23.2577 16.2191 23.1816 16.0294C23.1055 15.8397 22.9215 15.7154 22.7171 15.7155L22.7175 16.2155ZM22.7075 16.2251L22.3623 15.8634C22.2144 16.0045 22.1674 16.2213 22.2434 16.411C22.3194 16.6007 22.5031 16.7251 22.7075 16.7251V16.2251ZM22.8862 16.2251L23.3825 16.1644C23.3518 15.9136 23.1388 15.7251 22.8862 15.7251V16.2251ZM19.1015 24.2459L18.8273 23.8277C18.6864 23.9202 18.6015 24.0773 18.6015 24.2459H19.1015ZM19.1015 27.0002H18.6015C18.6015 27.2763 18.8253 27.5002 19.1015 27.5002V27.0002ZM25.427 27.0002V27.5002C25.6606 27.5002 25.8631 27.3384 25.9146 27.1106C25.9662 26.8827 25.8532 26.6496 25.6424 26.5489L25.427 27.0002ZM24.4358 22.4011L24.8818 22.6271L24.8818 22.6271L24.4358 22.4011ZM24.9575 10.4349L24.5134 10.6646C24.5173 10.6723 24.5215 10.6798 24.5259 10.6873L24.9575 10.4349ZM8.50725 9.98117H8.50495V10.9812H8.50725V9.98117ZM9.5099 22.1393C7.85331 19.4444 7.40653 17.1442 7.51545 15.2585C7.62473 13.3665 8.29584 11.8503 8.94055 10.7307L8.07395 10.2317C7.38427 11.4294 6.6385 13.0992 6.51711 15.2008C6.39536 17.3088 6.90412 19.8098 8.65799 22.663L9.5099 22.1393ZM8.2544 27.4688C9.21188 27.1128 9.78812 26.1819 9.99874 25.2029C10.2114 24.2145 10.081 23.0682 9.5099 22.1393L8.65799 22.663C9.07709 23.3447 9.18687 24.2221 9.02111 24.9926C8.85334 25.7724 8.4326 26.3357 7.90589 26.5315L8.2544 27.4688ZM14.1453 26.5002H8.08015V27.5002H14.1453V26.5002ZM13.6453 24.0947V27.0002H14.6453V24.0947H13.6453ZM10.0199 17.2554C10.0199 20.2491 11.8177 23.0501 13.8552 24.5019L14.4355 23.6875C12.6172 22.3919 11.0199 19.8751 11.0199 17.2554H10.0199ZM10.0854 16.1644C10.0422 16.5182 10.0199 16.8822 10.0199 17.2554H11.0199C11.0199 16.922 11.0398 16.5985 11.078 16.2858L10.0854 16.1644ZM10.6868 15.7251H10.5817V16.7251H10.6868V15.7251ZM10.2524 16.4728L10.2581 16.4824L11.1156 15.9678L11.1098 15.9583L10.2524 16.4728ZM14.0457 11.6652C13.6257 13.0141 12.9198 14.003 12.2289 14.6713C11.5225 15.3545 10.8687 15.6689 10.5843 15.725L10.7779 16.7061C11.3195 16.5992 12.1396 16.1489 12.9241 15.3901C13.7241 14.6163 14.5261 13.4859 15.0005 11.9625L14.0457 11.6652ZM22.7171 15.7155C20.5524 15.7173 18.8415 15.3577 17.5674 14.6757C16.3065 14.0006 15.4511 12.9988 14.9968 11.6539L14.0494 11.9739C14.5864 13.5634 15.614 14.7642 17.0954 15.5573C18.5637 16.3433 20.4543 16.7174 22.7179 16.7155L22.7171 15.7155ZM23.0527 16.5868L23.0627 16.5772L22.3723 15.8539L22.3623 15.8634L23.0527 16.5868ZM22.8862 15.7251H22.7075V16.7251H22.8862V15.7251ZM23.448 17.2554C23.448 16.8822 23.4257 16.5182 23.3825 16.1644L22.3898 16.2858C22.4281 16.5985 22.448 16.922 22.448 17.2554H23.448ZM19.3756 24.664C21.5129 23.2626 23.448 20.3611 23.448 17.2554H22.448C22.448 19.9767 20.7247 22.5837 18.8273 23.8277L19.3756 24.664ZM19.6015 27.0002V24.2459H18.6015V27.0002H19.6015ZM25.427 26.5002H19.1015V27.5002H25.427V26.5002ZM23.9898 22.1751C22.8508 24.423 23.7574 26.7573 25.2116 27.4514L25.6424 26.5489C24.7844 26.1394 23.9494 24.4672 24.8818 22.6271L23.9898 22.1751ZM24.5259 10.6873C27.1207 15.1244 25.3007 19.5879 23.9898 22.1751L24.8818 22.6271C26.2058 20.014 28.2684 15.1061 25.3891 10.1825L24.5259 10.6873ZM16.7431 6.49951C20.2876 6.49951 23.2665 8.25411 24.5134 10.6646L25.4016 10.2052C23.9528 7.40431 20.5909 5.49951 16.7431 5.49951V6.49951ZM8.95087 10.7073C10.1846 8.27498 13.1773 6.49951 16.7431 6.49951V5.49951C12.8727 5.49951 9.49351 7.42683 8.05903 10.255L8.95087 10.7073Z"
    fill="black" />
</svg>