<svg width="24" height="24" viewBox="0 0 24 24" fill="none" xmlns="http://www.w3.org/2000/svg">
<path d="M4.00003 6.5C4.00003 5.67157 4.6716 5 5.50003 5H15V8H5.50003C4.6716 8 4.00003 7.32843 4.00003 6.5Z" fill="black"/>
<path d="M10 12.5C10 11.6716 10.6716 11 11.5 11H18.5C19.3285 11 20 11.6716 20 12.5C20 13.3284 19.3285 14 18.5 14H11.5C10.6716 14 10 13.3284 10 12.5Z" fill="black"/>
<path d="M4.00003 18.5C4.00003 17.6716 4.6716 17 5.50003 17H18.5C19.3285 17 20 17.6716 20 18.5C20 19.3284 19.3285 20 18.5 20H5.50003C4.6716 20 4.00003 19.3284 4.00003 18.5Z" fill="black"/>
<circle cx="18.5" cy="6.5" r="1.5" fill="black"/>
</svg>
