<svg width="14" height="14" viewBox="0 0 14 14" fill="none" stroke="currentColor" xmlns="http://www.w3.org/2000/svg">
<circle cx="7" cy="7" r="6.5" fill="#CC79FD" stroke="#B045EF"/>
<path d="M7.20012 10.4153C8.06478 10.4153 8.81616 10.1708 9.3906 9.70931C9.6835 9.47399 9.64225 9.04737 9.37712 8.80264C9.08765 8.53543 8.64827 8.58233 8.33122 8.78431C8.02228 8.98112 7.67177 9.08097 7.28062 9.08097C6.70676 9.08097 6.21896 8.87966 5.87475 8.53653C5.53056 8.19343 5.32707 7.70567 5.32707 7.12742C5.32707 6.54916 5.53056 6.0614 5.87475 5.7183C6.21896 5.37517 6.70676 5.17386 7.28062 5.17386C7.6719 5.17386 8.02262 5.27378 8.33174 5.46851C8.6485 5.66806 9.08548 5.71246 9.3736 5.4465C9.64036 5.20026 9.68044 4.77058 9.38403 4.53593C8.81088 4.08221 8.06355 3.83953 7.20907 3.83953C5.23419 3.83953 3.76018 5.20997 3.76018 7.12742C3.76018 9.04478 5.2341 10.4153 7.20012 10.4153Z" fill="white" stroke="white" stroke-width="0.1"/>
</svg>
