<svg
          width="14"
          height="14"
          viewBox="0 0 14 14"
          fill="none"
          stroke="currentColor"
          xmlns="http://www.w3.org/2000/svg"
        >
          <path
            d="M14 7C14 10.8732 10.8687 14 6.9899 14C3.11111 14 0 10.853 0 7C0 3.1268 3.13131 0 7.0101 0C10.8889 0 14 3.1268 14 7Z"
            fill="#FFAA00"
          />
          <path
            d="M11.2 3.30444C10.2247 2.46769 8.97064 1.97959 7.57728 1.97959C4.48865 1.97959 2.00382 4.4666 2.00382 7.55793C2.00382 8.92928 2.51472 10.2076 3.32751 11.1839C2.14315 10.1612 1.40002 8.65036 1.40002 6.97685C1.40002 3.88552 3.88486 1.39851 6.97348 1.39851C8.66874 1.37527 10.2014 2.11905 11.2 3.30444Z"
            fill="#FF7F00"
          />
          <path
            d="M11.1729 5.6446H10.2758L10.6564 4.19397H9.43306L9.07966 5.6446H7.99228L7.58452 4.19397H6.3884L5.98063 5.6446H4.89325L4.53985 4.19397H3.28937L3.66995 5.6446H2.80005V6.67407H3.9418L4.75733 9.7859H5.95345L6.79616 6.67407H7.17675L7.99228 9.7859H9.1884L10.0311 6.67407H11.2V5.6446H11.1729ZM5.43694 7.53977C5.43694 7.56317 5.43694 7.58656 5.40976 7.60996C5.40976 7.63336 5.40976 7.65676 5.40976 7.65676C5.40976 7.68015 5.40976 7.70355 5.38257 7.70355C5.38257 7.72695 5.38257 7.72695 5.38257 7.75034C5.38257 7.72695 5.38257 7.72695 5.38257 7.70355C5.38257 7.68015 5.38257 7.68015 5.38257 7.65676C5.38257 7.63336 5.38257 7.63336 5.38257 7.60996C5.38257 7.58656 5.38257 7.58656 5.38257 7.56317L5.1651 6.65068H5.70879L5.43694 7.53977ZM8.59034 7.65676L8.56316 7.72695L8.53597 7.65676L8.26413 6.69747H8.80782L8.59034 7.65676Z"
            fill="white"
          />
        </svg>