<svg width="24" height="24" viewBox="0 0 24 24" fill="none" xmlns="http://www.w3.org/2000/svg">
<path d="M15.8337 2.76123C14.6531 2.27075 13.3582 2 12 2C6.47715 2 2 6.47715 2 12C2 17.5228 6.47715 22 12 22H18.3636C20.3719 22 22 20.3719 22 18.3636V12C22 10.1786 21.513 8.47087 20.6622 7" stroke="black" stroke-linecap="round"/>
<path d="M9 9C9 8.44772 9.44772 8 10 8C10.5523 8 11 8.44772 11 9V12H9V9Z" fill="black"/>
<path d="M13 9C13 8.44772 13.4477 8 14 8C14.5523 8 15 8.44772 15 9V12H13V9Z" fill="black"/>
<path d="M19.5736 4.50291C19.5736 5.0552 19.1259 5.50291 18.5736 5.50291C18.0213 5.50291 17.5736 5.0552 17.5736 4.50291C17.5736 3.95063 18.0213 3.50291 18.5736 3.50291C19.1259 3.50291 19.5736 3.95063 19.5736 4.50291Z" fill="#FF2164"/>
</svg>
