<svg width="24" height="24" viewBox="0 0 24 24" fill="none" xmlns="http://www.w3.org/2000/svg">
<path d="M5 14.5C5 10.634 8.13401 7.5 12 7.5C15.866 7.5 19 10.634 19 14.5V21.5H5V14.5Z" stroke="black"/>
<mask id="path-2-inside-1_702_12029" fill="white">
<path d="M2 21.5C2 21.2239 2.22386 21 2.5 21H21.5C21.7761 21 22 21.2239 22 21.5C22 21.7761 21.7761 22 21.5 22H2.5C2.22386 22 2 21.7761 2 21.5Z"/>
</mask>
<path d="M2.5 22H21.5V20H2.5V22ZM21.5 21H2.5V23H21.5V21ZM2.5 21C2.77614 21 3 21.2239 3 21.5H1C1 22.3284 1.67157 23 2.5 23V21ZM21 21.5C21 21.2239 21.2239 21 21.5 21V23C22.3284 23 23 22.3284 23 21.5H21ZM21.5 22C21.2239 22 21 21.7761 21 21.5H23C23 20.6716 22.3284 20 21.5 20V22ZM2.5 20C1.67157 20 1 20.6716 1 21.5H3C3 21.7761 2.77614 22 2.5 22V20Z" fill="black" mask="url(#path-2-inside-1_702_12029)"/>
<rect x="11" y="2" width="2" height="3.5" rx="1" fill="black"/>
<rect width="2" height="3.5" rx="1" transform="matrix(-0.707107 0.707107 0.707107 0.707107 4.5 3.5)" fill="black"/>
<path d="M20 6C20 6.55228 19.5523 7 19 7C18.4477 7 18 6.55228 18 6C18 5.44772 18.4477 5 19 5C19.5523 5 20 5.44772 20 6Z" fill="#FF2164"/>
</svg>
