<svg width="24" height="24" viewBox="0 0 24 24" fill="none" xmlns="http://www.w3.org/2000/svg">
<path d="M14.5 2.75L12.8944 1.94721C12.3314 1.66569 11.6686 1.66569 11.1056 1.94721L7 4L2.97101 6.41739C2.3686 6.77884 2 7.42986 2 8.13238V15.8175C2 16.5468 2.39707 17.2184 3.03616 17.5699L11.0362 21.9699C11.6363 22.3 12.3637 22.3 12.9638 21.9699L20.9638 17.5699C21.6029 17.2184 22 16.5468 22 15.8175V8.13238C22 7.42986 21.6314 6.77884 21.029 6.41739L19.6973 5.61839" stroke="black" stroke-linecap="round"/>
<path d="M21 17L12.8123 13.361C12.2952 13.1312 11.7049 13.1312 11.1877 13.361L3 17" stroke="black" stroke-linecap="round"/>
<path d="M18.1714 4.19922C18.1714 4.7515 17.7237 5.19922 17.1714 5.19922C16.6191 5.19922 16.1714 4.7515 16.1714 4.19922C16.1714 3.64693 16.6191 3.19922 17.1714 3.19922C17.7237 3.19922 18.1714 3.64693 18.1714 4.19922Z" fill="#FF2164"/>
<path d="M9 7C9 6.44772 9.44772 6 10 6C10.5523 6 11 6.44772 11 7V10H9V7Z" fill="black"/>
<path d="M13 7C13 6.44772 13.4477 6 14 6C14.5523 6 15 6.44772 15 7V10H13V7Z" fill="black"/>
</svg>
