<svg width="36" height="36" viewBox="0 0 36 36" fill="none" xmlns="http://www.w3.org/2000/svg">
<g clip-path="url(#clip0_2397_35807)">
<circle cx="18" cy="18" r="17.5" fill="white" stroke="black"/>
<g clip-path="url(#clip1_2397_35807)">
<path d="M25.1945 9.81107L25.1945 13.9936L20.8808 13.9937" stroke="black" stroke-linecap="round" stroke-linejoin="round"/>
<mask id="path-3-inside-1_2397_35807" fill="white">
<path d="M25.3032 13.68C24.3538 12.0749 22.9021 10.8273 21.1725 10.1301C19.4429 9.43287 17.5318 9.32484 15.7346 9.82271C13.9375 10.3206 12.3544 11.3966 11.2301 12.8844C10.1059 14.3723 9.50306 16.189 9.51489 18.0538C9.52672 19.9186 10.1525 21.7276 11.2956 23.201C12.4386 24.6745 14.0352 25.7303 15.8385 26.2054C17.6419 26.6804 19.5515 26.5481 21.2721 25.829C22.9927 25.1099 24.4285 23.844 25.3574 22.227L24.6217 21.8043C23.7856 23.2596 22.4934 24.3989 20.9449 25.0461C19.3963 25.6933 17.6777 25.8124 16.0547 25.3848C14.4317 24.9573 12.9948 24.007 11.966 22.6809C10.9373 21.3548 10.374 19.7268 10.3634 18.0484C10.3528 16.3701 10.8953 14.735 11.9071 13.396C12.919 12.0569 14.3437 11.0885 15.9612 10.6404C17.5786 10.1924 19.2986 10.2896 20.8552 10.9171C22.4119 11.5446 23.7184 12.6674 24.5729 14.112L25.3032 13.68Z"/>
</mask>
<path d="M25.3032 13.68C24.3538 12.0749 22.9021 10.8273 21.1725 10.1301C19.4429 9.43287 17.5318 9.32484 15.7346 9.82271C13.9375 10.3206 12.3544 11.3966 11.2301 12.8844C10.1059 14.3723 9.50306 16.189 9.51489 18.0538C9.52672 19.9186 10.1525 21.7276 11.2956 23.201C12.4386 24.6745 14.0352 25.7303 15.8385 26.2054C17.6419 26.6804 19.5515 26.5481 21.2721 25.829C22.9927 25.1099 24.4285 23.844 25.3574 22.227L24.6217 21.8043C23.7856 23.2596 22.4934 24.3989 20.9449 25.0461C19.3963 25.6933 17.6777 25.8124 16.0547 25.3848C14.4317 24.9573 12.9948 24.007 11.966 22.6809C10.9373 21.3548 10.374 19.7268 10.3634 18.0484C10.3528 16.3701 10.8953 14.735 11.9071 13.396C12.919 12.0569 14.3437 11.0885 15.9612 10.6404C17.5786 10.1924 19.2986 10.2896 20.8552 10.9171C22.4119 11.5446 23.7184 12.6674 24.5729 14.112L25.3032 13.68Z" stroke="black" stroke-width="4" stroke-linejoin="round" mask="url(#path-3-inside-1_2397_35807)"/>
</g>
</g>
<defs>
<clipPath id="clip0_2397_35807">
<rect width="36" height="36" fill="white"/>
</clipPath>
<clipPath id="clip1_2397_35807">
<rect width="24" height="24" fill="white" transform="translate(6 6)"/>
</clipPath>
</defs>
</svg>
