<svg width="24" height="24" viewBox="0 0 24 24" fill="none" xmlns="http://www.w3.org/2000/svg">
<g clip-path="url(#clip0_2645_22114)">
<path d="M19.1945 3.81119L19.1945 7.99375L14.8808 7.99382" stroke="black" stroke-linecap="round" stroke-linejoin="round"/>
<mask id="path-2-inside-1_2645_22114" fill="white">
<path d="M19.3032 7.67996C18.3538 6.07491 16.9021 4.82733 15.1725 4.1301C13.4429 3.43287 11.5318 3.32484 9.73464 3.82271C7.93749 4.32057 6.35441 5.3966 5.23014 6.88443C4.10588 8.37226 3.50306 10.189 3.51489 12.0538C3.52672 13.9186 4.15253 15.7276 5.29558 17.201C6.43862 18.6745 8.03523 19.7303 9.83855 20.2054C11.6419 20.6804 13.5515 20.5481 15.2721 19.829C16.9927 19.1099 18.4285 17.844 19.3574 16.227L18.6217 15.8043C17.7856 17.2596 16.4934 18.3989 14.9449 19.0461C13.3963 19.6933 11.6777 19.8124 10.0547 19.3848C8.43171 18.9573 6.99476 18.007 5.96602 16.6809C4.93728 15.3548 4.37405 13.7268 4.3634 12.0484C4.35276 10.3701 4.89529 8.73504 5.90713 7.39599C6.91897 6.05694 8.34374 5.08851 9.96118 4.64044C11.5786 4.19236 13.2986 4.28959 14.8552 4.91709C16.4119 5.54459 17.7184 6.66742 18.5729 8.11197L19.3032 7.67996Z"/>
</mask>
<path d="M19.3032 7.67996C18.3538 6.07491 16.9021 4.82733 15.1725 4.1301C13.4429 3.43287 11.5318 3.32484 9.73464 3.82271C7.93749 4.32057 6.35441 5.3966 5.23014 6.88443C4.10588 8.37226 3.50306 10.189 3.51489 12.0538C3.52672 13.9186 4.15253 15.7276 5.29558 17.201C6.43862 18.6745 8.03523 19.7303 9.83855 20.2054C11.6419 20.6804 13.5515 20.5481 15.2721 19.829C16.9927 19.1099 18.4285 17.844 19.3574 16.227L18.6217 15.8043C17.7856 17.2596 16.4934 18.3989 14.9449 19.0461C13.3963 19.6933 11.6777 19.8124 10.0547 19.3848C8.43171 18.9573 6.99476 18.007 5.96602 16.6809C4.93728 15.3548 4.37405 13.7268 4.3634 12.0484C4.35276 10.3701 4.89529 8.73504 5.90713 7.39599C6.91897 6.05694 8.34374 5.08851 9.96118 4.64044C11.5786 4.19236 13.2986 4.28959 14.8552 4.91709C16.4119 5.54459 17.7184 6.66742 18.5729 8.11197L19.3032 7.67996Z" stroke="black" stroke-width="4" stroke-linejoin="round" mask="url(#path-2-inside-1_2645_22114)"/>
</g>
<defs>
<clipPath id="clip0_2645_22114">
<rect width="24" height="24" fill="white"/>
</clipPath>
</defs>
</svg>
