<svg width="24" height="24" viewBox="0 0 24 24" fill="none" xmlns="http://www.w3.org/2000/svg">
<path fill-rule="evenodd" clip-rule="evenodd" d="M19.2101 5.19087C18.7864 5.26625 18.2073 5.45789 17.3633 5.73923L9.15802 8.47432C7.80646 8.92484 6.82269 9.25319 6.127 9.54937C5.40425 9.85708 5.12317 10.0805 5.02511 10.2505C4.75758 10.7144 4.75758 11.2856 5.02511 11.7494C5.12317 11.9194 5.40425 12.1429 6.127 12.4506C6.82269 12.7468 7.80646 13.0751 9.15802 13.5256C9.17941 13.5328 9.20051 13.5398 9.22134 13.5467C9.69931 13.7059 10.0299 13.8159 10.3122 14.0054C10.5817 14.1864 10.8135 14.4182 10.9945 14.6877C11.1839 14.97 11.294 15.3006 11.4532 15.7786C11.4601 15.7994 11.4671 15.8205 11.4742 15.8419C11.9248 17.1934 12.2531 18.1772 12.5493 18.8729C12.857 19.5956 13.0805 19.8767 13.2505 19.9748C13.7143 20.2423 14.2855 20.2423 14.7494 19.9748C14.9194 19.8767 15.1428 19.5956 15.4505 18.8729C15.7467 18.1772 16.075 17.1934 16.5256 15.8419L19.2607 7.6366C19.542 6.79257 19.7336 6.21349 19.809 5.78975C19.885 5.36239 19.8101 5.2653 19.7723 5.22757C19.7346 5.18983 19.6375 5.11484 19.2101 5.19087ZM19.035 4.20633C19.5448 4.11564 20.0801 4.12118 20.4794 4.52046C20.8787 4.91974 20.8842 5.45511 20.7936 5.96489C20.7038 6.46967 20.4874 7.11882 20.2229 7.91199L20.2093 7.95283L17.4742 16.1581L17.4661 16.1824C17.0254 17.5047 16.6846 18.5271 16.3706 19.2646C16.0662 19.9795 15.7369 20.5596 15.249 20.841C14.476 21.2869 13.5239 21.2869 12.7508 20.841C12.2629 20.5596 11.9336 19.9795 11.6292 19.2646C11.3152 18.5271 10.9744 17.5047 10.5337 16.1825L10.5256 16.1581C10.337 15.5925 10.2686 15.4007 10.1642 15.2451C10.0556 15.0833 9.91655 14.9443 9.7548 14.8357C9.59921 14.7313 9.40738 14.6629 8.84179 14.4743L8.81742 14.4662C7.49518 14.0255 6.47276 13.6846 5.73528 13.3707C5.02036 13.0663 4.44029 12.737 4.15887 12.2491C3.71299 11.476 3.71299 10.5239 4.15887 9.75089C4.44029 9.26298 5.02036 8.93366 5.73528 8.62929C6.47276 8.31531 7.49517 7.97451 8.81741 7.53377L8.84179 7.52564L17.0471 4.79055L17.0879 4.77693C17.8811 4.51252 18.5302 4.29612 19.035 4.20633Z" fill="#222222"/>
<circle cx="7" cy="18" r="1" fill="#FF2164"/>
</svg>
