<svg width="48" height="48" viewBox="0 0 48 48" fill="none" xmlns="http://www.w3.org/2000/svg">
<circle cx="24" cy="24" r="23.5" fill="white" stroke="black"/>
<path d="M32.5274 19.8856C32.5893 20.2297 32.6216 20.584 32.6216 20.9459C32.6216 21.3079 32.5893 21.6622 32.5274 22.0063C33.9931 22.737 35 24.2508 35 25.9998C35 27.3883 34.3654 28.6286 33.3704 29.4465L33.8108 31.6487L30.622 31.2807C29.7021 32.2404 28.4073 32.8379 26.973 32.8379C25.7702 32.8379 24.6656 32.4177 23.7979 31.7162C22.9696 32.416 21.8989 32.8379 20.7297 32.8379C18.9028 32.8379 17.3165 31.808 16.5196 30.2971C14.4924 29.7525 13 27.9019 13 25.7028C13 23.9062 13.996 22.3422 15.466 21.5329C15.4085 21.2471 15.3784 20.9514 15.3784 20.6486C15.3784 18.1857 17.3749 16.1892 19.8378 16.1892C20.7456 16.1892 21.5899 16.4604 22.2944 16.9262C23.3812 15.7422 24.9418 15 26.6757 15C27.1309 15 27.5741 15.0512 28 15.148" stroke="black" stroke-linecap="round"/>
<path d="M21 22C21 21.4477 21.4477 21 22 21C22.5523 21 23 21.4477 23 22V25H21V22Z" fill="black"/>
<path d="M25 22C25 21.4477 25.4477 21 26 21C26.5523 21 27 21.4477 27 22V25H25V22Z" fill="black"/>
<path d="M32 17C32 17.5523 31.5523 18 31 18C30.4477 18 30 17.5523 30 17C30 16.4477 30.4477 16 31 16C31.5523 16 32 16.4477 32 17Z" fill="#FF2164"/>
</svg>
