<svg width="34" height="34" viewBox="0 0 34 34" fill="none" xmlns="http://www.w3.org/2000/svg">
<circle cx="9" cy="25" r="4" fill="#DBFC3D"/>
<path d="M7.5 26V13L13.5 8H26.5V20L20.5 26H7.5Z" stroke="black" stroke-linecap="round" stroke-linejoin="round"/>
<path d="M15.7996 9.6C15.7996 9.93137 15.531 10.2 15.1996 10.2C14.8682 10.2 14.5996 9.93137 14.5996 9.6C14.5996 9.26863 14.8682 9 15.1996 9C15.531 9 15.7996 9.26863 15.7996 9.6Z" fill="black"/>
<path d="M18.7996 9.6C18.7996 9.93137 18.531 10.2 18.1996 10.2C17.8682 10.2 17.5996 9.93137 17.5996 9.6C17.5996 9.26863 17.8682 9 18.1996 9C18.531 9 18.7996 9.26863 18.7996 9.6Z" fill="black"/>
<path d="M21.7996 9.6C21.7996 9.93137 21.531 10.2 21.1996 10.2C20.8682 10.2 20.5996 9.93137 20.5996 9.6C20.5996 9.26863 20.8682 9 21.1996 9C21.531 9 21.7996 9.26863 21.7996 9.6Z" fill="black"/>
<path d="M13.2 11.5004C13.2 11.8318 12.9314 12.1004 12.6 12.1004C12.2686 12.1004 12 11.8318 12 11.5004C12 11.169 12.2686 10.9004 12.6 10.9004C12.9314 10.9004 13.2 11.169 13.2 11.5004Z" fill="black"/>
<path d="M16.2 11.5004C16.2 11.8318 15.9314 12.1004 15.6 12.1004C15.2686 12.1004 15 11.8318 15 11.5004C15 11.169 15.2686 10.9004 15.6 10.9004C15.9314 10.9004 16.2 11.169 16.2 11.5004Z" fill="black"/>
<path d="M19.2 11.5004C19.2 11.8318 18.9314 12.1004 18.6 12.1004C18.2686 12.1004 18 11.8318 18 11.5004C18 11.169 18.2686 10.9004 18.6 10.9004C18.9314 10.9004 19.2 11.169 19.2 11.5004Z" fill="black"/>
<path d="M7.5 13.5H20.5M20.5 13.5L26.5 8M20.5 13.5V25.5" stroke="black" stroke-linecap="round" stroke-linejoin="round"/>
</svg>
