<svg width="20" height="20" viewBox="0 0 20 20" fill="none" xmlns="http://www.w3.org/2000/svg">
<path d="M16.9769 6.38221C17.0276 6.69084 17.0541 7.00869 17.0541 7.33332C17.0541 7.65795 17.0276 7.97581 16.9769 8.28444C18.1762 8.9398 19 10.2977 19 11.8665C19 13.1119 18.4808 14.2245 17.6667 14.9581L18.0271 16.9333L15.418 16.6033C14.6653 17.4641 13.606 18 12.4324 18C11.4484 18 10.5446 17.6232 9.83464 16.9939C9.15697 17.6216 8.28096 18 7.32434 18C5.8296 18 4.53167 17.0762 3.87967 15.721C2.22102 15.2325 1 13.5726 1 11.6001C1 9.98855 1.81494 8.5857 3.01768 7.85982C2.97063 7.60344 2.94594 7.3382 2.94594 7.06663C2.94594 4.85749 4.5795 3.06663 6.5946 3.06663C7.33728 3.06663 8.02813 3.3099 8.60448 3.72771C9.49374 2.6657 10.7706 2 12.1892 2C12.5616 2 12.9243 2.04588 13.2727 2.13277" stroke="currentColor" stroke-linecap="round"/>
<path d="M8 7.50008C8 7.03984 8.3731 6.66675 8.83333 6.66675C9.29357 6.66675 9.66667 7.03984 9.66667 7.50008V10.0001H8V7.50008Z" fill="currentColor"/>
<path d="M11.3335 7.50008C11.3335 7.03984 11.7066 6.66675 12.1668 6.66675C12.6271 6.66675 13.0002 7.03984 13.0002 7.50008V10.0001H11.3335V7.50008Z" fill="currentColor"/>
<path d="M16.5419 3.76192C16.5419 4.22216 16.1688 4.59526 15.7086 4.59526C15.2483 4.59526 14.8752 4.22216 14.8752 3.76192C14.8752 3.30168 15.2483 2.92859 15.7086 2.92859C16.1688 2.92859 16.5419 3.30168 16.5419 3.76192Z" fill="#FF2164"/>
</svg>
