<svg width="24" height="24" viewBox="0 0 24 24" fill="none" xmlns="http://www.w3.org/2000/svg">
<rect width="615" height="5335" transform="translate(-496 -965)"/>
<path d="M20.5274 7.88558C20.5893 8.22966 20.6216 8.58403 20.6216 8.94595C20.6216 9.30787 20.5893 9.66224 20.5274 10.0063C21.9931 10.737 23 12.2508 23 13.9998C23 15.3883 22.3654 16.6286 21.3704 17.4465L21.8108 19.6487L18.622 19.2807C17.7021 20.2404 16.4073 20.8379 14.973 20.8379C13.7702 20.8379 12.6656 20.4177 11.7979 19.7162C10.9696 20.416 9.89895 20.8379 8.72974 20.8379C6.90284 20.8379 5.31648 19.808 4.5196 18.2971C2.49236 17.7525 1 15.9019 1 13.7028C1 11.9062 1.99604 10.3422 3.46605 9.53292C3.40855 9.2471 3.37838 8.95138 3.37838 8.64862C3.37838 6.18572 5.37494 4.18916 7.83784 4.18916C8.74556 4.18916 9.58993 4.46036 10.2944 4.92616C11.3812 3.74217 12.9418 3 14.6757 3C15.1309 3 15.5741 3.05115 16 3.14802" stroke="currentColor" stroke-linecap="round"/>
<path d="M9 10C9 9.44772 9.44772 9 10 9C10.5523 9 11 9.44772 11 10V13H9V10Z" fill="currentColor"/>
<path d="M13 10C13 9.44772 13.4477 9 14 9C14.5523 9 15 9.44772 15 10V13H13V10Z" fill="currentColor"/>
<path d="M20 5C20 5.55228 19.5523 6 19 6C18.4477 6 18 5.55228 18 5C18 4.44772 18.4477 4 19 4C19.5523 4 20 4.44772 20 5Z" fill="#FF2164"/>
<path d="M-1809 -1358H8719V-1360H-1809V-1358ZM8720 -1357V4548H8722V-1357H8720ZM8719 4549H-1809V4551H8719V4549ZM-1810 4548V-1357H-1812V4548H-1810ZM-1809 4549C-1809.55 4549 -1810 4548.55 -1810 4548H-1812C-1812 4549.66 -1810.66 4551 -1809 4551V4549ZM8720 4548C8720 4548.55 8719.55 4549 8719 4549V4551C8720.66 4551 8722 4549.66 8722 4548H8720ZM8719 -1358C8719.55 -1358 8720 -1357.55 8720 -1357H8722C8722 -1358.66 8720.66 -1360 8719 -1360V-1358ZM-1809 -1360C-1810.66 -1360 -1812 -1358.66 -1812 -1357H-1810C-1810 -1357.55 -1809.55 -1358 -1809 -1358V-1360Z" fill-opacity="0.1"/>
</svg>
