<svg width="40" height="40" viewBox="0 0 40 40" fill="none" xmlns="http://www.w3.org/2000/svg">
<g clip-path="url(#clip0_2438_32213)">
<g filter="url(#filter0_d_2438_32213)">
<mask id="path-1-inside-1_2438_32213" fill="white">
<path fill-rule="evenodd" clip-rule="evenodd" d="M35.1 14.3333C35.1 14.9624 35.0438 15.5784 34.9361 16.1764C37.4835 17.4462 39.2333 20.0771 39.2333 23.1167C39.2333 25.5297 38.1305 27.6852 36.4014 29.1066L37.1667 32.9332L31.6248 32.2937C30.0261 33.9615 27.776 34.9998 25.2833 34.9998C23.1932 34.9998 21.2736 34.2698 19.7656 33.0507C18.3261 34.2669 16.4654 35.0001 14.4333 35.0001C11.2584 35.0001 8.50143 33.2102 7.11656 30.5844C3.59351 29.638 1 26.4219 1 22.6001C1 19.4778 2.73099 16.7598 5.28567 15.3534C5.18577 14.8567 5.13335 14.3429 5.13335 13.8168C5.13335 9.53661 8.60315 6.06682 12.8834 6.06682C14.4608 6.06682 15.9282 6.53811 17.1524 7.34756C19.0412 5.28985 21.7533 4 24.7667 4C30.4736 4 35.1 8.62639 35.1 14.3333Z"/>
</mask>
<path fill-rule="evenodd" clip-rule="evenodd" d="M35.1 14.3333C35.1 14.9624 35.0438 15.5784 34.9361 16.1764C37.4835 17.4462 39.2333 20.0771 39.2333 23.1167C39.2333 25.5297 38.1305 27.6852 36.4014 29.1066L37.1667 32.9332L31.6248 32.2937C30.0261 33.9615 27.776 34.9998 25.2833 34.9998C23.1932 34.9998 21.2736 34.2698 19.7656 33.0507C18.3261 34.2669 16.4654 35.0001 14.4333 35.0001C11.2584 35.0001 8.50143 33.2102 7.11656 30.5844C3.59351 29.638 1 26.4219 1 22.6001C1 19.4778 2.73099 16.7598 5.28567 15.3534C5.18577 14.8567 5.13335 14.3429 5.13335 13.8168C5.13335 9.53661 8.60315 6.06682 12.8834 6.06682C14.4608 6.06682 15.9282 6.53811 17.1524 7.34756C19.0412 5.28985 21.7533 4 24.7667 4C30.4736 4 35.1 8.62639 35.1 14.3333Z" fill="currentColor"/>
<path d="M34.9361 16.1764L33.9519 15.9992L33.8191 16.737L34.49 17.0714L34.9361 16.1764ZM36.4014 29.1066L35.7664 28.3341L35.3032 28.7148L35.4208 29.3027L36.4014 29.1066ZM37.1667 32.9332L37.0521 33.9266L38.4167 34.084L38.1473 32.7371L37.1667 32.9332ZM31.6248 32.2937L31.7395 31.3003L31.2464 31.2434L30.9029 31.6017L31.6248 32.2937ZM19.7656 33.0507L20.3942 32.273L19.7515 31.7535L19.1202 32.2869L19.7656 33.0507ZM7.11656 30.5844L8.00108 30.1179L7.79748 29.7319L7.37599 29.6186L7.11656 30.5844ZM5.28567 15.3534L5.76794 16.2294L6.41072 15.8756L6.26603 15.1562L5.28567 15.3534ZM17.1524 7.34756L16.6008 8.1817L17.3123 8.65213L17.889 8.02379L17.1524 7.34756ZM35.9203 16.3536C36.0385 15.6973 36.1 15.0221 36.1 14.3333H34.1C34.1 14.9027 34.0491 15.4594 33.9519 15.9992L35.9203 16.3536ZM40.2333 23.1167C40.2333 19.6834 38.2558 16.7138 35.3822 15.2814L34.49 17.0714C36.7111 18.1785 38.2333 20.4707 38.2333 23.1167H40.2333ZM37.0364 29.8791C38.9867 28.2759 40.2333 25.8415 40.2333 23.1167H38.2333C38.2333 25.218 37.2743 27.0945 35.7664 28.3341L37.0364 29.8791ZM38.1473 32.7371L37.382 28.9105L35.4208 29.3027L36.1861 33.1293L38.1473 32.7371ZM31.5102 33.2871L37.0521 33.9266L37.2813 31.9398L31.7395 31.3003L31.5102 33.2871ZM25.2833 35.9998C28.0597 35.9998 30.5673 34.8421 32.3467 32.9857L30.9029 31.6017C29.485 33.0809 27.4923 33.9998 25.2833 33.9998V35.9998ZM19.1369 33.8284C20.8164 35.1861 22.9562 35.9998 25.2833 35.9998V33.9998C23.4302 33.9998 21.7308 33.3535 20.3942 32.273L19.1369 33.8284ZM14.4333 36.0001C16.7103 36.0001 18.7978 35.1776 20.411 33.8146L19.1202 32.2869C17.8544 33.3563 16.2204 34.0001 14.4333 34.0001V36.0001ZM6.23204 31.0509C7.7831 33.9918 10.8729 36.0001 14.4333 36.0001V34.0001C11.6438 34.0001 9.21976 32.4286 8.00108 30.1179L6.23204 31.0509ZM0 22.6001C0 26.8857 2.90825 30.4894 6.85714 31.5502L7.37599 29.6186C4.27876 28.7866 2 25.9582 2 22.6001H0ZM4.8034 14.4774C1.94227 16.0525 0 19.0988 0 22.6001H2C2 19.8568 3.51972 17.4671 5.76794 16.2294L4.8034 14.4774ZM6.26603 15.1562C6.17912 14.7241 6.13335 14.2763 6.13335 13.8168H4.13335C4.13335 14.4095 4.19242 14.9894 4.3053 15.5506L6.26603 15.1562ZM6.13335 13.8168C6.13335 10.0889 9.15543 7.06682 12.8834 7.06682V5.06682C8.05086 5.06682 4.13335 8.98433 4.13335 13.8168H6.13335ZM12.8834 7.06682C14.2587 7.06682 15.5352 7.47709 16.6008 8.1817L17.7039 6.51342C16.3212 5.59912 14.6629 5.06682 12.8834 5.06682V7.06682ZM24.7667 3C21.4617 3 18.4859 4.41597 16.4157 6.67132L17.889 8.02379C19.5965 6.16373 22.0449 5 24.7667 5V3ZM36.1 14.3333C36.1 8.07411 31.0259 3 24.7667 3V5C29.9213 5 34.1 9.17868 34.1 14.3333H36.1Z" fill="black" mask="url(#path-1-inside-1_2438_32213)"/>
</g>
<rect x="13" y="13" width="2" height="4" rx="1" fill="black"/>
<rect x="17" y="13" width="2" height="4" rx="1" fill="black"/>
</g>
<defs>
<filter id="filter0_d_2438_32213" x="1" y="4" width="39.2334" height="32.0001" filterUnits="userSpaceOnUse" color-interpolation-filters="sRGB">
<feFlood flood-opacity="0" result="BackgroundImageFix"/>
<feColorMatrix in="SourceAlpha" type="matrix" values="0 0 0 0 0 0 0 0 0 0 0 0 0 0 0 0 0 0 127 0" result="hardAlpha"/>
<feOffset dx="1" dy="1"/>
<feComposite in2="hardAlpha" operator="out"/>
<feColorMatrix type="matrix" values="0 0 0 0 0 0 0 0 0 0 0 0 0 0 0 0 0 0 1 0"/>
<feBlend mode="normal" in2="BackgroundImageFix" result="effect1_dropShadow_2438_32213"/>
<feBlend mode="normal" in="SourceGraphic" in2="effect1_dropShadow_2438_32213" result="shape"/>
</filter>
<clipPath id="clip0_2438_32213">
<rect width="40" height="40" fill="white"/>
</clipPath>
</defs>
</svg>
