<svg width="24" height="24" viewBox="0 0 24 24" fill="none" xmlns="http://www.w3.org/2000/svg">
<g filter="url(#filter0_d_3379_29307)">
<mask id="path-1-inside-1_3379_29307" fill="white">
<path fill-rule="evenodd" clip-rule="evenodd" d="M19.7297 8.67567C19.7297 9.02122 19.6989 9.35955 19.6397 9.68806C21.0389 10.3855 22 11.8305 22 13.5001C22 14.8254 21.3943 16.0094 20.4445 16.7901L20.8649 18.8918L17.821 18.5406C16.9429 19.4566 15.707 20.0269 14.3378 20.0269C13.1898 20.0269 12.1354 19.6259 11.3071 18.9563C10.5165 19.6244 9.49448 20.027 8.37838 20.027C6.63452 20.027 5.12027 19.044 4.35961 17.6017C2.42452 17.0819 1 15.3155 1 13.2163C1 11.5013 1.95076 10.0085 3.35394 9.23597C3.29907 8.96318 3.27028 8.68094 3.27028 8.39198C3.27028 6.04104 5.1761 4.13522 7.52704 4.13522C8.39347 4.13522 9.19943 4.39409 9.87182 4.83868C10.9093 3.70846 12.3989 3 14.0541 3C17.1887 3 19.7297 5.54109 19.7297 8.67567Z"/>
</mask>
<path fill-rule="evenodd" clip-rule="evenodd" d="M19.7297 8.67567C19.7297 9.02122 19.6989 9.35955 19.6397 9.68806C21.0389 10.3855 22 11.8305 22 13.5001C22 14.8254 21.3943 16.0094 20.4445 16.7901L20.8649 18.8918L17.821 18.5406C16.9429 19.4566 15.707 20.0269 14.3378 20.0269C13.1898 20.0269 12.1354 19.6259 11.3071 18.9563C10.5165 19.6244 9.49448 20.027 8.37838 20.027C6.63452 20.027 5.12027 19.044 4.35961 17.6017C2.42452 17.0819 1 15.3155 1 13.2163C1 11.5013 1.95076 10.0085 3.35394 9.23597C3.29907 8.96318 3.27028 8.68094 3.27028 8.39198C3.27028 6.04104 5.1761 4.13522 7.52704 4.13522C8.39347 4.13522 9.19943 4.39409 9.87182 4.83868C10.9093 3.70846 12.3989 3 14.0541 3C17.1887 3 19.7297 5.54109 19.7297 8.67567Z" fill="#DBFC3D"/>
<path d="M19.6397 9.68806L18.6555 9.51086L18.5227 10.2486L19.1936 10.583L19.6397 9.68806ZM20.4445 16.7901L19.8095 16.0176L19.3464 16.3983L19.4639 16.9862L20.4445 16.7901ZM20.8649 18.8918L20.7503 19.8852L22.1149 20.0427L21.8455 18.6957L20.8649 18.8918ZM17.821 18.5406L17.9356 17.5472L17.4425 17.4903L17.0991 17.8486L17.821 18.5406ZM11.3071 18.9563L11.9358 18.1787L11.2931 17.6591L10.6617 18.1925L11.3071 18.9563ZM4.35961 17.6017L5.24412 17.1352L5.04052 16.7492L4.61903 16.636L4.35961 17.6017ZM3.35394 9.23597L3.83621 10.112L4.479 9.75813L4.33431 9.03878L3.35394 9.23597ZM9.87182 4.83868L9.32027 5.67282L10.0317 6.14326L10.6085 5.51492L9.87182 4.83868ZM20.6239 9.86527C20.6935 9.47855 20.7297 9.08091 20.7297 8.67567H18.7297C18.7297 8.96153 18.7042 9.24056 18.6555 9.51086L20.6239 9.86527ZM23 13.5001C23 11.4369 21.8112 9.65313 20.0858 8.79309L19.1936 10.583C20.2665 11.1178 21 12.2242 21 13.5001H23ZM21.0795 17.5626C22.2504 16.6001 23 15.1372 23 13.5001H21C21 14.5137 20.5381 15.4187 19.8095 16.0176L21.0795 17.5626ZM21.8455 18.6957L21.4251 16.5939L19.4639 16.9862L19.8843 19.0879L21.8455 18.6957ZM17.7063 19.534L20.7503 19.8852L20.9795 17.8984L17.9356 17.5472L17.7063 19.534ZM14.3378 21.0269C15.9906 21.0269 17.484 20.3372 18.5429 19.2326L17.0991 17.8486C16.4017 18.576 15.4233 19.0269 14.3378 19.0269V21.0269ZM10.6785 19.734C11.6782 20.5422 12.9528 21.0269 14.3378 21.0269V19.0269C13.4268 19.0269 12.5926 18.7096 11.9358 18.1787L10.6785 19.734ZM8.37838 21.027C9.73946 21.027 10.9882 20.535 11.9525 19.7202L10.6617 18.1925C10.0448 18.7137 9.24949 19.027 8.37838 19.027V21.027ZM3.4751 18.0683C4.40195 19.8256 6.24906 21.027 8.37838 21.027V19.027C7.01998 19.027 5.83859 18.2623 5.24412 17.1352L3.4751 18.0683ZM0 13.2163C0 15.7792 1.73927 17.9333 4.10019 18.5675L4.61903 16.636C3.10977 16.2306 2 14.8518 2 13.2163H0ZM2.87168 8.35995C1.16204 9.30114 0 11.1223 0 13.2163H2C2 11.8804 2.73949 10.7158 3.83621 10.112L2.87168 8.35995ZM4.33431 9.03878C4.29242 8.83054 4.27028 8.61435 4.27028 8.39198H2.27028C2.27028 8.74753 2.30572 9.09581 2.37358 9.43317L4.33431 9.03878ZM4.27028 8.39198C4.27028 6.59332 5.72838 5.13522 7.52704 5.13522V3.13522C4.62381 3.13522 2.27028 5.48875 2.27028 8.39198H4.27028ZM7.52704 5.13522C8.19136 5.13522 8.80644 5.33307 9.32027 5.67282L10.4234 4.00454C9.59242 3.4551 8.59557 3.13522 7.52704 3.13522V5.13522ZM14.0541 2C12.1073 2 10.354 2.83458 9.13513 4.16245L10.6085 5.51492C11.4645 4.58235 12.6906 4 14.0541 4V2ZM20.7297 8.67567C20.7297 4.9888 17.7409 2 14.0541 2V4C16.6364 4 18.7297 6.09337 18.7297 8.67567H20.7297Z" fill="black" mask="url(#path-1-inside-1_3379_29307)"/>
</g>
<rect x="7" y="7.80005" width="1.6" height="3" rx="0.8" fill="black"/>
<path d="M10.2 8.60005C10.2 8.15822 10.5581 7.80005 11 7.80005C11.4418 7.80005 11.8 8.15822 11.8 8.60005V10C11.8 10.4419 11.4418 10.8 11 10.8C10.5581 10.8 10.2 10.4419 10.2 10V8.60005Z" fill="black"/>
<defs>
<filter id="filter0_d_3379_29307" x="1" y="3" width="21.5" height="17.527" filterUnits="userSpaceOnUse" color-interpolation-filters="sRGB">
<feFlood flood-opacity="0" result="BackgroundImageFix"/>
<feColorMatrix in="SourceAlpha" type="matrix" values="0 0 0 0 0 0 0 0 0 0 0 0 0 0 0 0 0 0 127 0" result="hardAlpha"/>
<feOffset dx="0.5" dy="0.5"/>
<feComposite in2="hardAlpha" operator="out"/>
<feColorMatrix type="matrix" values="0 0 0 0 0 0 0 0 0 0 0 0 0 0 0 0 0 0 1 0"/>
<feBlend mode="normal" in2="BackgroundImageFix" result="effect1_dropShadow_3379_29307"/>
<feBlend mode="normal" in="SourceGraphic" in2="effect1_dropShadow_3379_29307" result="shape"/>
</filter>
</defs>
</svg>
