<svg width="80" height="80" viewBox="0 0 80 80" fill="none" xmlns="http://www.w3.org/2000/svg">
<g clip-path="url(#clip0_3611_35786)">
<mask id="path-1-inside-1_3611_35786" fill="white">
<path fill-rule="evenodd" clip-rule="evenodd" d="M64 25.9349C64 37.7735 56.6597 47.7594 46.6289 50.8679L47.9539 54.58C48.4188 55.8825 47.4532 57.2524 46.0703 57.2524H33.9298C32.5469 57.2524 31.5813 55.8825 32.0462 54.58L33.3712 50.8679C23.3404 47.7595 16 37.7735 16 25.9349C16 11.6115 26.7452 0 40 0C53.2548 0 64 11.6115 64 25.9349ZM41.2848 60.5034C41.2612 59.8492 41.3427 59.2408 41.5022 58.6818L40.0598 58.2701C39.8579 58.9776 39.7564 59.7431 39.7858 60.5575L41.2848 60.5034ZM42.3843 64.1036C42.041 63.49 41.7888 62.9029 41.6129 62.3447L40.1823 62.7954C40.3911 63.4584 40.6856 64.1396 41.0752 64.836L42.3843 64.1036ZM44.1104 66.5036C43.883 66.2443 43.6717 65.9884 43.4756 65.736L42.2909 66.6561C42.5061 66.933 42.7365 67.212 42.9829 67.4928C43.1832 67.7212 43.3629 67.9501 43.5233 68.1789L44.7516 67.3179C44.5588 67.0429 44.3454 66.7713 44.1104 66.5036ZM46.1635 71.2384C46.1198 70.5504 45.9803 69.8578 45.7283 69.1701L44.3199 69.6864C44.5208 70.2346 44.6317 70.785 44.6665 71.3336L46.1635 71.2384ZM45.397 75.2906C45.6673 74.6594 45.8804 74.0028 46.0154 73.3284L44.5446 73.034C44.4324 73.5946 44.2528 74.1521 44.0181 74.7001L45.397 75.2906ZM43.2705 78.6951C43.6911 78.1879 44.0897 77.6468 44.4493 77.0783L43.1817 76.2764C42.8596 76.7856 42.4995 77.275 42.1158 77.7376L43.2705 78.6951ZM41.1791 80.8203C41.4249 80.6093 41.6711 80.3861 41.9151 80.1517L40.8759 79.07C40.6522 79.2849 40.4269 79.4892 40.2023 79.6819L41.1791 80.8203Z"/>
</mask>
<path fill-rule="evenodd" clip-rule="evenodd" d="M64 25.9349C64 37.7735 56.6597 47.7594 46.6289 50.8679L47.9539 54.58C48.4188 55.8825 47.4532 57.2524 46.0703 57.2524H33.9298C32.5469 57.2524 31.5813 55.8825 32.0462 54.58L33.3712 50.8679C23.3404 47.7595 16 37.7735 16 25.9349C16 11.6115 26.7452 0 40 0C53.2548 0 64 11.6115 64 25.9349ZM41.2848 60.5034C41.2612 59.8492 41.3427 59.2408 41.5022 58.6818L40.0598 58.2701C39.8579 58.9776 39.7564 59.7431 39.7858 60.5575L41.2848 60.5034ZM42.3843 64.1036C42.041 63.49 41.7888 62.9029 41.6129 62.3447L40.1823 62.7954C40.3911 63.4584 40.6856 64.1396 41.0752 64.836L42.3843 64.1036ZM44.1104 66.5036C43.883 66.2443 43.6717 65.9884 43.4756 65.736L42.2909 66.6561C42.5061 66.933 42.7365 67.212 42.9829 67.4928C43.1832 67.7212 43.3629 67.9501 43.5233 68.1789L44.7516 67.3179C44.5588 67.0429 44.3454 66.7713 44.1104 66.5036ZM46.1635 71.2384C46.1198 70.5504 45.9803 69.8578 45.7283 69.1701L44.3199 69.6864C44.5208 70.2346 44.6317 70.785 44.6665 71.3336L46.1635 71.2384ZM45.397 75.2906C45.6673 74.6594 45.8804 74.0028 46.0154 73.3284L44.5446 73.034C44.4324 73.5946 44.2528 74.1521 44.0181 74.7001L45.397 75.2906ZM43.2705 78.6951C43.6911 78.1879 44.0897 77.6468 44.4493 77.0783L43.1817 76.2764C42.8596 76.7856 42.4995 77.275 42.1158 77.7376L43.2705 78.6951ZM41.1791 80.8203C41.4249 80.6093 41.6711 80.3861 41.9151 80.1517L40.8759 79.07C40.6522 79.2849 40.4269 79.4892 40.2023 79.6819L41.1791 80.8203Z" fill="currentColor"/>
<path d="M46.6289 50.8679L46.1849 49.4351L44.6902 49.8983L45.2162 51.3721L46.6289 50.8679ZM47.9539 54.58L46.5412 55.0843L47.9539 54.58ZM32.0462 54.58L33.4589 55.0843L32.0462 54.58ZM33.3712 50.8679L34.7839 51.3722L35.31 49.8983L33.8152 49.4351L33.3712 50.8679ZM41.5022 58.6818L42.9446 59.0934L43.3563 57.651L41.9139 57.2394L41.5022 58.6818ZM41.2848 60.5034L41.3389 62.0024L42.8379 61.9483L42.7838 60.4493L41.2848 60.5034ZM40.0598 58.2701L40.4715 56.8277L39.029 56.4161L38.6174 57.8585L40.0598 58.2701ZM39.7858 60.5575L38.2867 60.6116L38.3408 62.1106L39.8398 62.0565L39.7858 60.5575ZM41.6129 62.3447L43.0436 61.8939L42.5929 60.4632L41.1622 60.914L41.6129 62.3447ZM42.3843 64.1036L43.1167 65.4127L44.4257 64.6803L43.6933 63.3712L42.3843 64.1036ZM40.1823 62.7954L39.7315 61.3647L38.3008 61.8155L38.7516 63.2461L40.1823 62.7954ZM41.0752 64.836L39.7662 65.5684L40.4986 66.8775L41.8076 66.1451L41.0752 64.836ZM43.4756 65.736L44.6603 64.8159L43.7402 63.6312L42.5555 64.5513L43.4756 65.736ZM44.1104 66.5036L45.238 65.5143L44.1104 66.5036ZM42.2909 66.6561L41.3709 65.4714L40.1862 66.3915L41.1063 67.5761L42.2909 66.6561ZM42.9829 67.4928L44.1104 66.5035H44.1104L42.9829 67.4928ZM43.5233 68.1789L42.295 69.0399L43.1561 70.2682L44.3843 69.4072L43.5233 68.1789ZM44.7516 67.3179L45.6126 68.5462L46.8409 67.6852L45.9799 66.4569L44.7516 67.3179ZM45.7283 69.1701L47.1366 68.6539L46.6204 67.2455L45.212 67.7618L45.7283 69.1701ZM46.1635 71.2384L46.2587 72.7354L47.7557 72.6403L47.6605 71.1433L46.1635 71.2384ZM44.3199 69.6864L43.8037 68.278L42.3953 68.7943L42.9115 70.2026L44.3199 69.6864ZM44.6665 71.3336L43.1696 71.4287L43.2647 72.9257L44.7617 72.8306L44.6665 71.3336ZM46.0154 73.3284L47.4862 73.6229L47.7807 72.1521L46.3099 71.8576L46.0154 73.3284ZM45.397 75.2906L44.8065 76.6695L46.1854 77.26L46.7759 75.8811L45.397 75.2906ZM44.5446 73.034L44.8391 71.5631L43.3683 71.2687L43.0738 72.7395L44.5446 73.034ZM44.0181 74.7001L42.6392 74.1096L42.0487 75.4885L43.4276 76.079L44.0181 74.7001ZM44.4493 77.0783L45.717 77.8802L46.5189 76.6126L45.2512 75.8107L44.4493 77.0783ZM43.2705 78.6951L42.313 79.8498L43.4677 80.8072L44.4252 79.6526L43.2705 78.6951ZM43.1817 76.2764L43.9836 75.0088L42.716 74.2069L41.914 75.4745L43.1817 76.2764ZM42.1158 77.7376L40.9612 76.7802L40.0037 77.9348L41.1584 78.8923L42.1158 77.7376ZM41.9151 80.1517L42.9544 81.2333L44.036 80.1941L42.9968 79.1125L41.9151 80.1517ZM41.1791 80.8203L40.0407 81.797L41.0175 82.9354L42.1559 81.9586L41.1791 80.8203ZM40.8759 79.07L41.9576 78.0308L40.9183 76.9491L39.8367 77.9883L40.8759 79.07ZM40.2023 79.6819L39.2256 78.5435L38.0872 79.5203L39.064 80.6587L40.2023 79.6819ZM47.0729 52.3006C57.7768 48.9836 65.5 38.3823 65.5 25.9349H62.5C62.5 37.1646 55.5426 46.5352 46.1849 49.4351L47.0729 52.3006ZM49.3666 54.0758L48.0416 50.3636L45.2162 51.3721L46.5412 55.0843L49.3666 54.0758ZM46.0703 58.7524C48.4904 58.7524 50.1802 56.355 49.3666 54.0758L46.5412 55.0843C46.6574 55.4099 46.416 55.7524 46.0703 55.7524V58.7524ZM33.9298 58.7524H46.0703V55.7524H33.9298V58.7524ZM30.6335 54.0758C29.82 56.355 31.5097 58.7524 33.9298 58.7524V55.7524C33.5841 55.7524 33.3427 55.4099 33.4589 55.0843L30.6335 54.0758ZM31.9585 50.3637L30.6335 54.0758L33.4589 55.0843L34.7839 51.3722L31.9585 50.3637ZM14.5 25.9349C14.5 38.3824 22.2233 48.9837 32.9272 52.3007L33.8152 49.4351C24.4575 46.5353 17.5 37.1646 17.5 25.9349H14.5ZM40 -1.5C25.8093 -1.5 14.5 10.8947 14.5 25.9349H17.5C17.5 12.3282 27.681 1.5 40 1.5V-1.5ZM65.5 25.9349C65.5 10.8947 54.1907 -1.5 40 -1.5V1.5C52.319 1.5 62.5 12.3282 62.5 25.9349H65.5ZM40.0598 58.2701C39.8579 58.9776 39.7564 59.7431 39.7858 60.5575L42.7838 60.4493C42.766 59.9553 42.8275 59.5039 42.9446 59.0934L40.0598 58.2701ZM39.6482 59.7125L41.0906 60.1242L41.9139 57.2394L40.4715 56.8277L39.6482 59.7125ZM41.2848 60.5034C41.2612 59.8492 41.3427 59.2408 41.5022 58.6818L38.6174 57.8585C38.3731 58.7145 38.2516 59.637 38.2867 60.6116L41.2848 60.5034ZM41.2307 59.0044L39.7317 59.0585L39.8398 62.0565L41.3389 62.0024L41.2307 59.0044ZM40.1823 62.7954C40.3911 63.4584 40.6856 64.1396 41.0752 64.836L43.6933 63.3712C43.3964 62.8405 43.1865 62.3473 43.0436 61.8939L40.1823 62.7954ZM40.633 64.2261L42.0637 63.7753L41.1622 60.914L39.7315 61.3647L40.633 64.2261ZM42.3843 64.1036C42.041 63.49 41.7888 62.9029 41.6129 62.3447L38.7516 63.2461C38.9935 64.0139 39.3302 64.7891 39.7662 65.5684L42.3843 64.1036ZM41.6519 62.7946L40.3428 63.527L41.8076 66.1451L43.1167 65.4127L41.6519 62.7946ZM42.2909 66.6561C42.5061 66.933 42.7365 67.212 42.9828 67.4928L45.238 65.5143C45.0295 65.2767 44.8373 65.0438 44.6603 64.8159L42.2909 66.6561ZM43.211 67.8407L44.3957 66.9206L42.5555 64.5513L41.3709 65.4714L43.211 67.8407ZM44.1104 66.5035C43.883 66.2443 43.6717 65.9884 43.4756 65.736L41.1063 67.5761C41.3404 67.8776 41.59 68.1796 41.8553 68.482L44.1104 66.5035ZM44.7516 67.3179C44.5588 67.0429 44.3454 66.7713 44.1104 66.5035L41.8553 68.482C42.0211 68.671 42.167 68.8572 42.295 69.0399L44.7516 67.3179ZM43.8906 66.0896L42.6623 66.9506L44.3843 69.4072L45.6126 68.5462L43.8906 66.0896ZM42.9828 67.4928C43.1832 67.7212 43.3629 67.9501 43.5233 68.1789L45.9799 66.4569C45.7548 66.1358 45.5075 65.8215 45.238 65.5143L42.9828 67.4928ZM44.3199 69.6864C44.5208 70.2346 44.6317 70.785 44.6665 71.3336L47.6605 71.1433C47.6079 70.3158 47.4398 69.4811 47.1366 68.6539L44.3199 69.6864ZM44.8361 71.0947L46.2445 70.5785L45.212 67.7618L43.8037 68.278L44.8361 71.0947ZM46.1635 71.2384C46.1198 70.5504 45.9803 69.8578 45.7283 69.1701L42.9115 70.2026C43.0614 70.6113 43.1435 71.0196 43.1696 71.4287L46.1635 71.2384ZM46.0684 69.7415L44.5714 69.8366L44.7617 72.8306L46.2587 72.7354L46.0684 69.7415ZM44.5446 73.0339C44.4324 73.5946 44.2528 74.1521 44.0181 74.7001L46.7759 75.8811C47.0818 75.1668 47.3285 74.411 47.4862 73.6229L44.5446 73.0339ZM44.2502 74.5048L45.721 74.7992L46.3099 71.8576L44.8391 71.5631L44.2502 74.5048ZM45.397 75.2906C45.6673 74.6594 45.8804 74.0028 46.0154 73.3284L43.0738 72.7395C42.9843 73.1864 42.8383 73.6447 42.6392 74.1096L45.397 75.2906ZM45.9875 73.9117L44.6086 73.3212L43.4276 76.079L44.8065 76.6695L45.9875 73.9117ZM43.1817 76.2764C42.8596 76.7856 42.4995 77.275 42.1159 77.7376L44.4252 79.6526C44.8827 79.1009 45.3199 78.508 45.717 77.8802L43.1817 76.2764ZM42.3798 77.5441L43.6474 78.346L45.2512 75.8107L43.9836 75.0088L42.3798 77.5441ZM43.2705 78.6951C43.6911 78.1879 44.0897 77.6468 44.4493 77.0783L41.914 75.4745C41.6294 75.9244 41.3079 76.3621 40.9612 76.7802L43.2705 78.6951ZM44.228 77.5405L43.0733 76.583L41.1584 78.8923L42.313 79.8498L44.228 77.5405ZM40.8759 79.07C40.6522 79.2849 40.4269 79.4892 40.2023 79.6819L42.1559 81.9586C42.4229 81.7295 42.6899 81.4874 42.9544 81.2333L40.8759 79.07ZM39.7942 80.1092L40.8334 81.1909L42.9968 79.1125L41.9576 78.0308L39.7942 80.1092ZM41.1791 80.8203C41.4249 80.6094 41.6711 80.3861 41.9151 80.1517L39.8367 77.9883C39.6334 78.1837 39.4289 78.3691 39.2256 78.5435L41.1791 80.8203ZM42.3175 79.8435L41.3407 78.7051L39.064 80.6587L40.0407 81.797L42.3175 79.8435Z" fill="black" mask="url(#path-1-inside-1_3611_35786)"/>
<path d="M56.0537 57.7712C56.3618 56.8688 57.6382 56.8688 57.9463 57.7712L58.6233 59.7535C58.7233 60.0465 58.9535 60.2767 59.2465 60.3767L61.2288 61.0537C62.1312 61.3618 62.1312 62.6382 61.2288 62.9463L59.2465 63.6233C58.9535 63.7233 58.7233 63.9535 58.6233 64.2465L57.9463 66.2288C57.6382 67.1312 56.3618 67.1312 56.0537 66.2288L55.3767 64.2465C55.2767 63.9535 55.0465 63.7233 54.7535 63.6233L52.7712 62.9463C51.8688 62.6382 51.8688 61.3618 52.7712 61.0537L54.7535 60.3767C55.0465 60.2767 55.2767 60.0465 55.3767 59.7535L56.0537 57.7712Z" fill="black"/>
<path d="M63.3488 50.6511C63.5819 50.0602 64.4181 50.0602 64.6512 50.6511L65.0198 51.5858C65.091 51.7662 65.2338 51.909 65.4142 51.9802L66.3489 52.3488C66.9398 52.5819 66.9398 53.4181 66.3489 53.6512L65.4142 54.0198C65.2338 54.091 65.091 54.2338 65.0198 54.4142L64.6512 55.3489C64.4181 55.9398 63.5819 55.9398 63.3488 55.3489L62.9802 54.4142C62.909 54.2338 62.7662 54.091 62.5858 54.0198L61.6511 53.6512C61.0602 53.4181 61.0602 52.5819 61.6511 52.3488L62.5858 51.9802C62.7662 51.909 62.909 51.7662 62.9802 51.5858L63.3488 50.6511Z" fill="black"/>
</g>
<defs>
<clipPath id="clip0_3611_35786">
<rect width="80" height="80" fill="white"/>
</clipPath>
</defs>
</svg>
