<svg width="81" height="80" viewBox="0 0 81 80" fill="none" xmlns="http://www.w3.org/2000/svg">
<path fill-rule="evenodd" clip-rule="evenodd" d="M46.2564 34.0373C45.9978 34.073 45.7633 34.2085 45.6032 34.4148L39.5 42.2791L69.1471 38.186L74.7474 30.9697C75.0223 30.6156 74.7281 30.1066 74.284 30.1679L46.2564 34.0373ZM69.1471 38.1865L39.5 42.2795V74.0005L68.2838 70.0266C68.7786 69.9583 69.1471 69.5355 69.1471 69.036V38.1865Z" fill="#DBFC3D"/>
<path d="M45.6032 34.4148L45.9982 34.7214L45.6032 34.4148ZM46.2564 34.0373L46.1881 33.542H46.1881L46.2564 34.0373ZM39.5 42.2791L39.105 41.9725C38.9804 42.1331 38.9654 42.3532 39.0671 42.5292C39.1688 42.7053 39.367 42.8022 39.5684 42.7744L39.5 42.2791ZM69.1471 38.186L69.2154 38.6813C69.3448 38.6635 69.462 38.5957 69.5421 38.4926L69.1471 38.186ZM74.7474 30.9697L74.3524 30.6632L74.3524 30.6632L74.7474 30.9697ZM74.284 30.1679L74.2157 29.6726L74.284 30.1679ZM39.5 42.2795L39.4316 41.7842C39.1842 41.8184 39 42.0298 39 42.2795H39.5ZM69.1471 38.1865H69.6471C69.6471 38.042 69.5845 37.9045 69.4755 37.8096C69.3666 37.7146 69.2219 37.6715 69.0787 37.6912L69.1471 38.1865ZM39.5 74.0005H39C39 74.145 39.0625 74.2825 39.1715 74.3774C39.2805 74.4724 39.4252 74.5155 39.5684 74.4958L39.5 74.0005ZM68.2838 70.0266L68.2154 69.5313L68.2154 69.5313L68.2838 70.0266ZM45.9982 34.7214C46.0783 34.6182 46.1955 34.5505 46.3248 34.5326L46.1881 33.542C45.8 33.5956 45.4484 33.7988 45.2082 34.1083L45.9982 34.7214ZM39.895 42.5856L45.9982 34.7214L45.2082 34.1083L39.105 41.9725L39.895 42.5856ZM69.0787 37.6907L39.4316 41.7838L39.5684 42.7744L69.2154 38.6813L69.0787 37.6907ZM74.3524 30.6632L68.7521 37.8795L69.5421 38.4926L75.1424 31.2763L74.3524 30.6632ZM74.3524 30.6632V30.6632L75.1424 31.2763C75.6921 30.568 75.1038 29.55 74.2157 29.6726L74.3524 30.6632ZM46.3248 34.5326L74.3524 30.6632L74.2157 29.6726L46.1881 33.542L46.3248 34.5326ZM39.5684 42.7748L69.2154 38.6818L69.0787 37.6912L39.4316 41.7842L39.5684 42.7748ZM40 74.0005V42.2795H39V74.0005H40ZM68.2154 69.5313L39.4316 73.5052L39.5684 74.4958L68.3522 70.5219L68.2154 69.5313ZM68.6471 69.036C68.6471 69.2857 68.4628 69.4972 68.2154 69.5313L68.3522 70.5219C69.0943 70.4195 69.6471 69.7852 69.6471 69.036H68.6471ZM68.6471 38.1865V69.036H69.6471V38.1865H68.6471Z" fill="currentColor"/>
<path fill-rule="evenodd" clip-rule="evenodd" d="M33.2787 34.0327C33.5514 34.0712 33.7961 34.2204 33.9552 34.4452L39.4997 42.2785L39.5001 42.2786V42.2791V73.9995L11.3603 70.0279C10.8669 69.9583 10.5001 69.536 10.5001 69.0377V38.1861L5.37548 30.9459C5.12218 30.5881 5.41933 30.1007 5.85347 30.162L33.2787 34.0327Z" fill="#DBFC3D"/>
<path d="M33.9552 34.4452L34.3633 34.1563V34.1563L33.9552 34.4452ZM33.2787 34.0327L33.3486 33.5376L33.2787 34.0327ZM39.4997 42.2785L39.0916 42.5674C39.1711 42.6798 39.2936 42.7544 39.43 42.7736L39.4997 42.2785ZM39.5001 42.2786H40.0001C40.0001 42.0294 39.8166 41.8182 39.5698 41.7835L39.5001 42.2786ZM39.5001 73.9995L39.4302 74.4946C39.5736 74.5148 39.7187 74.4719 39.828 74.377C39.9373 74.282 40.0001 74.1443 40.0001 73.9995H39.5001ZM11.3603 70.0279L11.4302 69.5328H11.4302L11.3603 70.0279ZM10.5001 38.1861H11.0001C11.0001 38.0826 10.968 37.9816 10.9082 37.8972L10.5001 38.1861ZM5.37548 30.9459L4.96736 31.2348L5.37548 30.9459ZM5.85347 30.162L5.78359 30.6571L5.85347 30.162ZM34.3633 34.1563C34.1247 33.8192 33.7576 33.5954 33.3486 33.5376L33.2089 34.5278C33.3452 34.5471 33.4676 34.6217 33.5471 34.7341L34.3633 34.1563ZM39.9078 41.9897L34.3633 34.1563L33.5471 34.7341L39.0916 42.5674L39.9078 41.9897ZM39.5698 41.7835L39.5694 41.7834L39.43 42.7736L39.4304 42.7737L39.5698 41.7835ZM40.0001 42.2791V42.2786H39.0001V42.2791H40.0001ZM40.0001 73.9995V42.2791H39.0001V73.9995H40.0001ZM11.2904 70.523L39.4302 74.4946L39.57 73.5044L11.4302 69.5328L11.2904 70.523ZM10.0001 69.0377C10.0001 69.7851 10.5503 70.4185 11.2904 70.523L11.4302 69.5328C11.1835 69.498 11.0001 69.2869 11.0001 69.0377H10.0001ZM10.0001 38.1861V69.0377H11.0001V38.1861H10.0001ZM4.96736 31.2348L10.092 38.4749L10.9082 37.8972L5.78359 30.6571L4.96736 31.2348ZM5.92334 29.6669C5.05508 29.5443 4.46077 30.5191 4.96736 31.2348L5.78359 30.6571L5.78359 30.6571L5.92334 29.6669ZM33.3486 33.5376L5.92334 29.6669L5.78359 30.6571L33.2089 34.5278L33.3486 33.5376Z" fill="currentColor"/>
<mask id="path-5-inside-1_5983_232500" fill="white">
<path fill-rule="evenodd" clip-rule="evenodd" d="M43.8704 27.7637C52.2006 26.5803 58.5 21.0919 58.5 14.5C58.5 7.04416 50.4411 1 40.5 1C30.5589 1 22.5 7.04416 22.5 14.5C22.5 20.9352 28.5034 26.3187 36.5389 27.6721L39.471 31.2275C39.871 31.7126 40.614 31.7126 41.014 31.2275L43.8704 27.7637Z"/>
</mask>
<path fill-rule="evenodd" clip-rule="evenodd" d="M43.8704 27.7637C52.2006 26.5803 58.5 21.0919 58.5 14.5C58.5 7.04416 50.4411 1 40.5 1C30.5589 1 22.5 7.04416 22.5 14.5C22.5 20.9352 28.5034 26.3187 36.5389 27.6721L39.471 31.2275C39.871 31.7126 40.614 31.7126 41.014 31.2275L43.8704 27.7637Z" fill="#DBFC3D"/>
<path d="M43.8704 27.7637L43.7298 26.7737L43.3457 26.8282L43.0989 27.1275L43.8704 27.7637ZM36.5389 27.6721L37.3104 27.0358L37.073 26.7479L36.705 26.686L36.5389 27.6721ZM39.471 31.2275L38.6995 31.8638L38.6995 31.8638L39.471 31.2275ZM41.014 31.2275L40.2425 30.5913V30.5913L41.014 31.2275ZM57.5 14.5C57.5 20.3891 51.8013 25.627 43.7298 26.7737L44.0111 28.7538C52.5999 27.5336 59.5 21.7946 59.5 14.5H57.5ZM40.5 2C45.2751 2 49.5597 3.45288 52.6279 5.75406C55.6959 8.05501 57.5 11.1574 57.5 14.5H59.5C59.5 10.3868 57.2747 6.73915 53.8279 4.15406C50.3814 1.5692 45.666 0 40.5 0V2ZM23.5 14.5C23.5 11.1574 25.3041 8.05501 28.3721 5.75406C31.4403 3.45288 35.7249 2 40.5 2V0C35.334 0 30.6186 1.5692 27.1721 4.15406C23.7253 6.73915 21.5 10.3868 21.5 14.5H23.5ZM36.705 26.686C28.9264 25.3758 23.5 20.2499 23.5 14.5H21.5C21.5 21.6204 28.0805 27.2615 36.3729 28.6582L36.705 26.686ZM40.2425 30.5913L37.3104 27.0358L35.7674 28.3083L38.6995 31.8638L40.2425 30.5913ZM40.2425 30.5913V30.5913L38.6995 31.8638C39.4994 32.8338 40.9855 32.8338 41.7855 31.8638L40.2425 30.5913ZM43.0989 27.1275L40.2425 30.5913L41.7855 31.8638L44.6419 28.4L43.0989 27.1275Z" fill="currentColor" mask="url(#path-5-inside-1_5983_232500)"/>
<circle cx="33.5" cy="15" r="2" fill="currentColor"/>
<circle cx="40.5" cy="15" r="2" fill="currentColor"/>
<circle cx="47.5" cy="15" r="2" fill="currentColor"/>
</svg>
