<svg width="80" height="80" viewBox="0 0 80 80" fill="currentColor" xmlns="http://www.w3.org/2000/svg">
<path d="M74.5 40C74.5 59.0538 59.0538 74.5 40 74.5C20.9462 74.5 5.5 59.0538 5.5 40C5.5 20.9462 20.9462 5.5 40 5.5C59.0538 5.5 74.5 20.9462 74.5 40Z" fill="currentColor" stroke="black"/>
<ellipse cx="28" cy="37" rx="3" ry="4" fill="url(#paint0_radial_2438_32469)"/>
<ellipse cx="28" cy="37" rx="3" ry="4" fill="black"/>
<ellipse cx="52" cy="37" rx="3" ry="4" fill="url(#paint1_radial_2438_32469)"/>
<ellipse cx="52" cy="37" rx="3" ry="4" fill="black"/>
<path d="M63 36.5811L65.2607 43.3634C65.7751 44.9065 64.6266 46.5 63 46.5C61.3734 46.5 60.2249 44.9065 60.7393 43.3634L63 36.5811Z" fill="currentColor" stroke="black"/>
<g clip-path="url(#clip0_2438_32469)">
<path d="M32 52.9998C35 50.6664 41.5 47.9998 48 52.9997" stroke="black" stroke-width="2" stroke-linecap="round"/>
</g>
<defs>
<radialGradient id="paint0_radial_2438_32469" cx="0" cy="0" r="1" gradientUnits="userSpaceOnUse" gradientTransform="translate(28 35.2) scale(3.75 3.21531)">
<stop stop-color="white"/>
<stop offset="1" stop-color="white" stop-opacity="0.6"/>
</radialGradient>
<radialGradient id="paint1_radial_2438_32469" cx="0" cy="0" r="1" gradientUnits="userSpaceOnUse" gradientTransform="translate(52 35.2) scale(3.75 3.21531)">
<stop stop-color="white"/>
<stop offset="1" stop-color="white" stop-opacity="0.6"/>
</radialGradient>
<clipPath id="clip0_2438_32469">
<rect width="18" height="5" fill="white" transform="translate(31 49)"/>
</clipPath>
</defs>
</svg>
