<svg width="34" height="34" viewBox="0 0 34 34" fill="none" xmlns="http://www.w3.org/2000/svg">
<path d="M8.50725 10.4817L8.94055 10.7312C9.02964 10.5764 9.02948 10.386 8.94012 10.2314C8.85077 10.0768 8.68578 9.98165 8.50725 9.98165V10.4817ZM8.50495 10.4817L8.05903 10.2555C7.98041 10.4105 7.98792 10.5952 8.07887 10.7433C8.16982 10.8914 8.33115 10.9817 8.50495 10.9817V10.4817ZM9.08395 22.4014L8.65799 22.6632L9.08395 22.4014ZM8.08015 27.0004L7.9059 26.5317C7.67907 26.616 7.5452 26.8507 7.58805 27.0889C7.63089 27.327 7.83815 27.5004 8.08015 27.5004V27.0004ZM14.1453 27.0004V27.5004C14.4215 27.5004 14.6453 27.2765 14.6453 27.0004H14.1453ZM14.1453 24.0949H14.6453C14.6453 23.9332 14.5671 23.7815 14.4355 23.6877L14.1453 24.0949ZM10.5817 16.2256V15.7256C10.329 15.7256 10.1161 15.9141 10.0854 16.1649L10.5817 16.2256ZM10.6869 16.2256V16.7256C10.867 16.7256 11.0333 16.6287 11.122 16.4719C11.2108 16.3151 11.2083 16.1228 11.1156 15.9683L10.6869 16.2256ZM10.6811 16.2159L10.5843 15.7254C10.4245 15.7569 10.2901 15.8643 10.2241 16.0131C10.158 16.1619 10.1686 16.3336 10.2524 16.4732L10.6811 16.2159ZM14.5231 11.8143L14.9968 11.6543C14.9275 11.449 14.7338 11.3118 14.5172 11.3144C14.3005 11.317 14.1102 11.4588 14.0457 11.6657L14.5231 11.8143ZM22.7175 16.2159L23.0627 16.5776C23.2106 16.4365 23.2577 16.2195 23.1816 16.0298C23.1055 15.8401 22.9215 15.7158 22.7171 15.7159L22.7175 16.2159ZM22.7074 16.2256L22.3622 15.8639C22.2143 16.005 22.1673 16.2218 22.2432 16.4115C22.3192 16.6012 22.503 16.7256 22.7074 16.7256V16.2256ZM22.8862 16.2256L23.3825 16.1649C23.3518 15.9141 23.1388 15.7256 22.8862 15.7256V16.2256ZM19.1015 24.2461L18.8273 23.828C18.6864 23.9204 18.6015 24.0776 18.6015 24.2461H19.1015ZM19.1015 27.0004H18.6015C18.6015 27.2765 18.8253 27.5004 19.1015 27.5004V27.0004ZM25.427 27.0004V27.5004C25.6606 27.5004 25.8631 27.3386 25.9146 27.1108C25.9662 26.8829 25.8532 26.6497 25.6424 26.5491L25.427 27.0004ZM24.4358 22.4014L24.8818 22.6274L24.4358 22.4014ZM24.9582 10.4365L24.514 10.6662C24.518 10.6739 24.5222 10.6814 24.5265 10.6889L24.9582 10.4365ZM8.50725 9.98165H8.50495V10.9817H8.50725V9.98165ZM9.5099 22.1395C7.85331 19.4447 7.40653 17.1446 7.51545 15.2589C7.62473 13.367 8.29584 11.8508 8.94055 10.7312L8.07395 10.2322C7.38428 11.4299 6.6385 13.0996 6.51711 15.2012C6.39536 17.3091 6.90412 19.8102 8.65799 22.6632L9.5099 22.1395ZM8.2544 27.469C9.21188 27.113 9.78812 26.1821 9.99874 25.2031C10.2114 24.2148 10.081 23.0685 9.5099 22.1395L8.65799 22.6632C9.07709 23.345 9.18687 24.2223 9.02111 24.9928C8.85334 25.7726 8.43261 26.3359 7.9059 26.5317L8.2544 27.469ZM14.1453 26.5004H8.08015V27.5004H14.1453V26.5004ZM13.6453 24.0949V27.0004H14.6453V24.0949H13.6453ZM10.0199 17.2558C10.0199 20.2494 11.8177 23.0503 13.8552 24.5021L14.4355 23.6877C12.6172 22.3921 11.0199 19.8754 11.0199 17.2558H10.0199ZM10.0854 16.1649C10.0422 16.5186 10.0199 16.8826 10.0199 17.2558H11.0199C11.0199 16.9224 11.0398 16.599 11.078 16.2863L10.0854 16.1649ZM10.6869 15.7256H10.5817V16.7256H10.6869V15.7256ZM10.2524 16.4732L10.2582 16.4829L11.1156 15.9683L11.1098 15.9586L10.2524 16.4732ZM14.0457 11.6657C13.6257 13.0145 12.9198 14.0034 12.2289 14.6717C11.5225 15.3549 10.8687 15.6693 10.5843 15.7254L10.7779 16.7065C11.3195 16.5996 12.1396 16.1493 12.9241 15.3905C13.7241 14.6167 14.5261 13.4864 15.0005 11.963L14.0457 11.6657ZM22.7171 15.7159C20.5524 15.7177 18.8415 15.3581 17.5674 14.6761C16.3065 14.001 15.4511 12.9992 14.9968 11.6543L14.0494 11.9743C14.5864 13.5639 15.614 14.7646 17.0954 15.5577C18.5637 16.3437 20.4543 16.7178 22.7179 16.7159L22.7171 15.7159ZM23.0526 16.5873L23.0627 16.5776L22.3723 15.8542L22.3622 15.8639L23.0526 16.5873ZM22.8862 15.7256H22.7074V16.7256H22.8862V15.7256ZM23.448 17.2558C23.448 16.8826 23.4257 16.5186 23.3825 16.1649L22.3899 16.2863C22.4281 16.599 22.448 16.9224 22.448 17.2558H23.448ZM19.3756 24.6643C21.5129 23.2629 23.448 20.3614 23.448 17.2558H22.448C22.448 19.9771 20.7247 22.5839 18.8273 23.828L19.3756 24.6643ZM19.6015 27.0004V24.2461H18.6015V27.0004H19.6015ZM25.427 26.5004H19.1015V27.5004H25.427V26.5004ZM23.9898 22.1754C22.8508 24.4233 23.7574 26.7575 25.2116 27.4516L25.6424 26.5491C24.7844 26.1396 23.9494 24.4675 24.8818 22.6274L23.9898 22.1754ZM24.5265 10.6889C27.1204 15.1256 25.3006 19.5884 23.9898 22.1754L24.8818 22.6274C26.2057 20.0145 28.2681 15.1073 25.3898 10.1842L24.5265 10.6889ZM16.7431 6.5C20.2882 6.5 23.2675 8.25513 24.514 10.6662L25.4023 10.2069C23.9539 7.40538 20.5916 5.5 16.7431 5.5V6.5ZM8.95087 10.7078C10.1846 8.27548 13.1773 6.5 16.7431 6.5V5.5C12.8727 5.5 9.49348 7.42732 8.05903 10.2555L8.95087 10.7078Z" fill="currentColor"/>
</svg>
