<svg width="20" height="21" viewBox="0 0 20 21" fill="none" xmlns="http://www.w3.org/2000/svg">
<g clip-path="url(#clip0_4076_33558)">
<path d="M15.9874 7.50581C16.1718 10.366 14.3107 13.2996 11.5949 14.1489L11.956 15.0092C12.0812 15.3088 11.9244 15.6818 11.6739 15.6818H8.32613C8.07565 15.6818 7.91882 15.3073 8.04407 15.0092L8.40515 14.1489C5.68932 13.2997 3.82816 10.366 4.01258 7.50581C4.20635 4.50404 6.65842 1.5 10 1.5C11.3926 1.5 12.6307 2.02176 13.6153 2.84766" stroke="black" stroke-linecap="round"/>
<path d="M9.90881 15.6818C9.3685 16.2633 9.33969 17.0042 10.4527 18.2504C11.5346 19.4618 10.6071 20.8731 9.71177 21.6277" stroke="black"/>
<path d="M16.0035 5.16207C16.0035 5.6223 15.6304 5.9954 15.1701 5.9954C14.7099 5.9954 14.3368 5.6223 14.3368 5.16207C14.3368 4.70183 14.7099 4.32873 15.1701 4.32873C15.6304 4.32873 16.0035 4.70183 16.0035 5.16207Z" fill="#FF2164"/>
<path d="M5.52683 15.8856C5.68092 15.4344 6.31908 15.4344 6.47317 15.8856L6.68436 16.5041C6.73438 16.6506 6.84945 16.7656 6.99595 16.8156L7.61438 17.0268C8.0656 17.1809 8.0656 17.8191 7.61438 17.9732L6.99595 18.1844C6.84945 18.2344 6.73438 18.3494 6.68436 18.4959L6.47317 19.1144C6.31908 19.5656 5.68092 19.5656 5.52683 19.1144L5.31564 18.4959C5.26562 18.3494 5.15055 18.2344 5.00405 18.1844L4.38562 17.9732C3.9344 17.8191 3.9344 17.1809 4.38562 17.0268L5.00405 16.8156C5.15055 16.7656 5.26562 16.6506 5.31564 16.5041L5.52683 15.8856Z" fill="black"/>
<path d="M3.22092 13.2076C3.3208 12.9544 3.6792 12.9544 3.77908 13.2076L3.87646 13.4545C3.90695 13.5318 3.96816 13.593 4.04547 13.6235L4.29239 13.7209C4.54563 13.8208 4.54563 14.1792 4.29239 14.2791L4.04547 14.3765C3.96816 14.407 3.90695 14.4682 3.87646 14.5455L3.77908 14.7924C3.6792 15.0456 3.3208 15.0456 3.22092 14.7924L3.12354 14.5455C3.09305 14.4682 3.03184 14.407 2.95453 14.3765L2.70761 14.2791C2.45437 14.1792 2.45437 13.8208 2.70761 13.7209L2.95453 13.6235C3.03184 13.593 3.09305 13.5318 3.12354 13.4545L3.22092 13.2076Z" fill="black"/>
</g>
<defs>
<clipPath id="clip0_4076_33558">
<rect width="20" height="20" fill="white" transform="translate(0 0.5)"/>
</clipPath>
</defs>
</svg>
