<svg width="20" height="20" viewBox="0 0 20 20" fill="none" xmlns="http://www.w3.org/2000/svg">
<path d="M3.33331 7.5C3.33331 5.14298 3.33331 3.96447 4.06555 3.23223C4.79778 2.5 5.97629 2.5 8.33331 2.5H11.6666C14.0237 2.5 15.2022 2.5 15.9344 3.23223C16.6666 3.96447 16.6666 5.14298 16.6666 7.5V13.1897C16.6666 15.4257 16.6666 16.5438 15.9631 16.8857C15.2595 17.2277 14.3804 16.537 12.6221 15.1555L12.0594 14.7133C11.0707 13.9365 10.5764 13.5482 9.99998 13.5482C9.42354 13.5482 8.92922 13.9365 7.94057 14.7133L7.37787 15.1555C5.6196 16.537 4.74047 17.2277 4.03689 16.8857C3.33331 16.5438 3.33331 15.4257 3.33331 13.1897V7.5Z" stroke="black"/>
</svg>
