<svg width="20" height="20" viewBox="0 0 20 20" fill="none" xmlns="http://www.w3.org/2000/svg">
<path d="M3.33334 7.5C3.33334 5.14298 3.33334 3.96447 4.06558 3.23223C4.79781 2.5 5.97632 2.5 8.33334 2.5H11.6667C14.0237 2.5 15.2022 2.5 15.9344 3.23223C16.6667 3.96447 16.6667 5.14298 16.6667 7.5V13.1897C16.6667 15.4257 16.6667 16.5438 15.9631 16.8857C15.2595 17.2277 14.3804 16.537 12.6221 15.1555L12.0594 14.7133C11.0708 13.9365 10.5764 13.5482 10 13.5482C9.42357 13.5482 8.92925 13.9365 7.9406 14.7133L7.3779 15.1555C5.61963 16.537 4.7405 17.2277 4.03692 16.8857C3.33334 16.5438 3.33334 15.4257 3.33334 13.1897V7.5Z" fill="#FF2164" stroke="black"/>
</svg>
