<svg width="24" height="24" viewBox="0 0 24 24" fill="none" xmlns="http://www.w3.org/2000/svg">
<path d="M18 3.99927C16.3287 2.74389 14.2512 2 12 2C6.47715 2 2 6.47715 2 12C2 17.5228 6.47715 22 12 22C17.5228 22 22 17.5228 22 12C22 11.3151 21.9311 10.6462 21.8 10" stroke="currentColor" stroke-linecap="round"/>
<path d="M15.1176 10.8275C15.0727 10.8072 15.0277 10.7858 14.9851 10.7609L11.7012 8.83853C11.6501 8.80864 11.5969 8.78188 11.5411 8.76225C10.3211 8.33318 9 9.17679 9 10.4147V13.8836C9 15.1215 10.3211 15.9651 11.5411 15.536C11.5969 15.5164 11.6501 15.4896 11.7012 15.4597L14.9851 13.5374C15.0277 13.5125 15.0727 13.4911 15.1176 13.4708C16.2941 12.9397 16.2941 11.3586 15.1176 10.8275Z" stroke="currentColor" stroke-linecap="round" stroke-linejoin="round"/>
<path d="M21.3549 6.84486C21.3549 7.39714 20.9072 7.84486 20.3549 7.84486C19.8027 7.84486 19.3549 7.39714 19.3549 6.84486C19.3549 6.29257 19.8027 5.84486 20.3549 5.84486C20.9072 5.84486 21.3549 6.29257 21.3549 6.84486Z" fill="#FF2164"/>
</svg>
