<svg width="24" height="24" viewBox="0 0 24 24" fill="none" xmlns="http://www.w3.org/2000/svg">
<path d="M16.4 3.79934C14.8958 2.6695 13.0261 2 11 2C6.02944 2 2 6.02944 2 11C2 15.9706 6.02944 20 11 20C15.9706 20 20 15.9706 20 11C20 10.3836 19.938 9.7816 19.82 9.2" stroke="currentColor" stroke-linecap="round"/>
<path d="M21.2929 22.7071C21.6834 23.0976 22.3166 23.0976 22.7071 22.7071C23.0976 22.3166 23.0976 21.6834 22.7071 21.2929L21.2929 22.7071ZM19.7071 18.2929L19 17.5858L17.5858 19L18.2929 19.7071L19.7071 18.2929ZM22.7071 21.2929L19.7071 18.2929L18.2929 19.7071L21.2929 22.7071L22.7071 21.2929Z" fill="currentColor"/>
<path d="M19.5278 6.23523C19.5278 6.78752 19.0801 7.23523 18.5278 7.23523C17.9755 7.23523 17.5278 6.78752 17.5278 6.23523C17.5278 5.68294 17.9755 5.23523 18.5278 5.23523C19.0801 5.23523 19.5278 5.68294 19.5278 6.23523Z" fill="#FF2164"/>
</svg>
