<svg width="20" height="20" viewBox="0 0 20 20" fill="none" xmlns="http://www.w3.org/2000/svg">
<path d="M2 8.19177C2 7.1347 2.85692 6.27778 3.91399 6.27778V6.27778C4.80884 6.27778 5.58426 5.65774 5.7811 4.7848L6.01235 3.75926C6.17838 3.02298 6.83241 2.5 7.58718 2.5H12.4128C13.1676 2.5 13.8216 3.02297 13.9877 3.75926L14.2189 4.78481C14.4157 5.65774 15.1912 6.27778 16.086 6.27778V6.27778C17.1431 6.27778 18 7.1347 18 8.19176V12.2143C18 13.5674 18 14.244 17.7857 14.7801C17.4808 15.543 16.8763 16.1475 16.1134 16.4524C15.5773 16.6667 14.9008 16.6667 13.5476 16.6667H6.45238C5.09925 16.6667 4.42268 16.6667 3.88659 16.4524C3.12367 16.1475 2.51919 15.543 2.21426 14.7801C2 14.244 2 13.5674 2 12.2143V8.19177Z" stroke="currentColor"/>
<circle cx="10" cy="10.8333" r="2" stroke="currentColor"/>
<path d="M14.9999 8.33333C14.9999 8.79357 14.6268 9.16667 14.1666 9.16667C13.7063 9.16667 13.3333 8.79357 13.3333 8.33333C13.3333 7.8731 13.7063 7.5 14.1666 7.5C14.6268 7.5 14.9999 7.8731 14.9999 8.33333Z" fill="#FF2164"/>
</svg>
