<svg width="24" height="24" viewBox="0 0 24 24" fill="none" xmlns="http://www.w3.org/2000/svg">
<path d="M2 9.58653C2 8.45258 2.91925 7.53333 4.05319 7.53333V7.53333C4.83671 7.53333 5.55193 7.08741 5.8968 6.38387L6.81482 4.51111C7.0001 4.13312 7.09275 3.94413 7.21118 3.78856C7.50729 3.39959 7.9356 3.13254 8.4152 3.03787C8.60701 3 8.8175 3 9.23846 3H14.7615C15.1825 3 15.393 3 15.5848 3.03787C16.0644 3.13254 16.4927 3.39959 16.7888 3.78856C16.9073 3.94413 16.9999 4.13312 17.1852 4.51111L18.1032 6.38387C18.4481 7.08741 19.1633 7.53333 19.9468 7.53333V7.53333C21.0808 7.53333 22 8.45258 22 9.58653V14.6571C22 16.8524 22 17.95 21.4532 18.7269C21.2546 19.0089 21.0089 19.2546 20.7269 19.4532C19.95 20 18.8524 20 16.6571 20H7.34286C5.14761 20 4.04999 20 3.27315 19.4532C2.99109 19.2546 2.74539 19.0089 2.54684 18.7269C2 17.95 2 16.8524 2 14.6571V9.58653Z" stroke="currentColor"/>
<circle cx="12" cy="13" r="2.5" stroke="currentColor"/>
<path d="M18 10C18 10.5523 17.5523 11 17 11C16.4477 11 16 10.5523 16 10C16 9.44772 16.4477 9 17 9C17.5523 9 18 9.44772 18 10Z" fill="currentColor"/>
</svg>
