<svg width="34" height="35" viewBox="0 0 34 35" fill="none" xmlns="http://www.w3.org/2000/svg">
<circle cx="9" cy="25.0015" r="4" fill="currentColor"/>
<path d="M13.5 8.50146C13.5 8.22532 13.7239 8.00146 14 8.00146H23.5V12.0015C23.5 12.2776 23.2761 12.5015 23 12.5015H13.5V8.50146Z" stroke="#222222"/>
<path d="M11.5 13.0015C11.5 12.7253 11.7239 12.5015 12 12.5015H21.5V16.5015C21.5 16.7776 21.2761 17.0015 21 17.0015H11.5V13.0015Z" stroke="#222222"/>
<path d="M9.5 17.5015C9.5 17.2253 9.72386 17.0015 10 17.0015H19.5V21.0015C19.5 21.2776 19.2761 21.5015 19 21.5015H9.5V17.5015Z" stroke="#222222"/>
<path d="M7.5 22.0015C7.5 21.7253 7.72386 21.5015 8 21.5015H17.5V25.5015C17.5 25.7776 17.2761 26.0015 17 26.0015H8C7.72386 26.0015 7.5 25.7776 7.5 25.5015V22.0015Z" stroke="#222222"/>
<path d="M16.5 26.0015H20L26.5 11.5015V8.00146H22.5" stroke="#222222" stroke-linecap="round" stroke-linejoin="round"/>
</svg>
