<svg width="24" height="24" viewBox="0 0 24 24" fill="none" xmlns="http://www.w3.org/2000/svg">
<g filter="url(#filter0_i_2438_31874)">
<path d="M0 8.52632C0 5.21261 2.68629 2.52632 6 2.52632H18C21.3137 2.52632 24 5.21261 24 8.52632V15.4737C24 18.7874 21.3137 21.4737 18 21.4737H6C2.68629 21.4737 0 18.7874 0 15.4737V8.52632Z" fill="#EEEEEE"/>
</g>
<circle cx="6.00009" cy="7.89474" r="1.57895" fill="#D9D9D9"/>
<path d="M5.90032 12.0952C6.50054 11.3031 7.69115 11.3031 8.29137 12.0952L11.4213 16.2256C12.1699 17.2135 11.4652 18.6316 10.2258 18.6316H3.96594C2.72645 18.6316 2.02181 17.2135 2.77041 16.2256L5.90032 12.0952Z" fill="#D9D9D9"/>
<path d="M13.9808 8.80822C14.5749 7.92116 15.8793 7.92116 16.4734 8.80822L21.4889 16.2969C22.1564 17.2935 21.4421 18.6316 20.2426 18.6316H10.2116C9.01208 18.6316 8.29779 17.2935 8.96527 16.2969L13.9808 8.80822Z" fill="#D9D9D9"/>
<defs>
<filter id="filter0_i_2438_31874" x="0" y="2.52632" width="24" height="18.9474" filterUnits="userSpaceOnUse" color-interpolation-filters="sRGB">
<feFlood flood-opacity="0" result="BackgroundImageFix"/>
<feBlend mode="normal" in="SourceGraphic" in2="BackgroundImageFix" result="shape"/>
<feColorMatrix in="SourceAlpha" type="matrix" values="0 0 0 0 0 0 0 0 0 0 0 0 0 0 0 0 0 0 127 0" result="hardAlpha"/>
<feOffset/>
<feGaussianBlur stdDeviation="2"/>
<feComposite in2="hardAlpha" operator="arithmetic" k2="-1" k3="1"/>
<feColorMatrix type="matrix" values="0 0 0 0 0 0 0 0 0 0 0 0 0 0 0 0 0 0 0.02 0"/>
<feBlend mode="normal" in2="shape" result="effect1_innerShadow_2438_31874"/>
</filter>
</defs>
</svg>
