<svg width="40" height="40" viewBox="0 0 40 40" fill="none" xmlns="http://www.w3.org/2000/svg">
<g filter="url(#filter0_i_2438_32227)">
<path d="M0 10.2106C0 6.89687 2.68629 4.21057 6 4.21057H34C37.3137 4.21057 40 6.89686 40 10.2106V29.7895C40 33.1032 37.3137 35.7895 34 35.7895H6C2.68629 35.7895 0 33.1032 0 29.7895V10.2106Z" fill="#EEEEEE"/>
</g>
<circle cx="9.99999" cy="13.1579" r="2.63158" fill="#D9D9D9"/>
<path d="M10.631 19.107C11.2312 18.3149 12.4218 18.3149 13.022 19.107L20.251 28.6468C20.9996 29.6347 20.2949 31.0527 19.0555 31.0527H4.59753C3.35804 31.0527 2.6534 29.6347 3.40201 28.6468L10.631 19.107Z" fill="#D9D9D9"/>
<path d="M24.1323 13.4398C24.7264 12.5528 26.0308 12.5528 26.6249 13.4398L36.8574 28.718C37.5249 29.7146 36.8106 31.0527 35.6111 31.0527H15.1461C13.9467 31.0527 13.2324 29.7146 13.8998 28.718L24.1323 13.4398Z" fill="#D9D9D9"/>
<defs>
<filter id="filter0_i_2438_32227" x="0" y="4.21057" width="40" height="31.579" filterUnits="userSpaceOnUse" color-interpolation-filters="sRGB">
<feFlood flood-opacity="0" result="BackgroundImageFix"/>
<feBlend mode="normal" in="SourceGraphic" in2="BackgroundImageFix" result="shape"/>
<feColorMatrix in="SourceAlpha" type="matrix" values="0 0 0 0 0 0 0 0 0 0 0 0 0 0 0 0 0 0 127 0" result="hardAlpha"/>
<feOffset/>
<feGaussianBlur stdDeviation="2"/>
<feComposite in2="hardAlpha" operator="arithmetic" k2="-1" k3="1"/>
<feColorMatrix type="matrix" values="0 0 0 0 0 0 0 0 0 0 0 0 0 0 0 0 0 0 0.02 0"/>
<feBlend mode="normal" in2="shape" result="effect1_innerShadow_2438_32227"/>
</filter>
</defs>
</svg>
