<svg width="34" height="34" viewBox="0 0 34 34" fill="none" xmlns="http://www.w3.org/2000/svg">
<circle cx="9" cy="25" r="4" fill="currentColor"/>
<mask id="path-2-inside-1_1658_42935" fill="white">
<path fill-rule="evenodd" clip-rule="evenodd" d="M18.5 7.29785C18.5 8.12628 17.3294 9.30098 16.501 9.30098C15.6725 9.30098 14.5 8.12628 14.5 7.29785H11.7758C11.3352 7.29785 10.9651 7.62909 10.9165 8.06692C10.6521 10.4469 11.3866 12.8299 12.945 14.648L13.0999 14.8288C10.7965 16.2395 9.22204 18.5979 8.81177 21.2834L8.17575 25.4464C8.08325 26.0519 8.55181 26.5975 9.16427 26.5975H23.8355C24.448 26.5975 24.9165 26.0519 24.824 25.4464L24.188 21.2834C23.7779 18.599 22.2045 16.2413 19.9026 14.8305L20.059 14.648C21.6173 12.8299 22.3518 10.4469 22.0874 8.06692C22.0388 7.62909 21.6687 7.29785 21.2282 7.29785H18.5Z"/>
</mask>
<path d="M18.5 7.29785V6.29785C17.9477 6.29785 17.5 6.74557 17.5 7.29785H18.5ZM14.5 7.29785H15.5C15.5 6.74557 15.0523 6.29785 14.5 6.29785V7.29785ZM10.9165 8.06692L11.9104 8.17735L11.9104 8.17735L10.9165 8.06692ZM12.945 14.648L12.1857 15.2988L12.1857 15.2988L12.945 14.648ZM13.0999 14.8288L13.6222 15.6816C13.872 15.5286 14.0421 15.2738 14.0877 14.9845C14.1333 14.6952 14.0498 14.4004 13.8592 14.178L13.0999 14.8288ZM8.81177 21.2834L7.82324 21.1323L7.82324 21.1323L8.81177 21.2834ZM8.17575 25.4464L9.16427 25.5975L9.16427 25.5975L8.17575 25.4464ZM24.824 25.4464L23.8355 25.5975L23.8355 25.5975L24.824 25.4464ZM24.188 21.2834L25.1765 21.1323L25.1765 21.1323L24.188 21.2834ZM19.9026 14.8305L19.1433 14.1797C18.9527 14.402 18.8692 14.6967 18.9147 14.986C18.9603 15.2753 19.1303 15.5301 19.38 15.6831L19.9026 14.8305ZM20.059 14.648L19.2997 13.9972L19.2997 13.9972L20.059 14.648ZM22.0874 8.06692L21.0935 8.17735L21.0935 8.17735L22.0874 8.06692ZM16.501 10.301C16.9317 10.301 17.3273 10.1534 17.6407 9.98292C17.9634 9.80734 18.2633 9.57276 18.5192 9.31627C18.775 9.05975 19.0087 8.75934 19.1836 8.43641C19.3533 8.12291 19.5 7.72765 19.5 7.29785H17.5C17.5 7.28227 17.5004 7.34451 17.4247 7.48425C17.3542 7.61457 17.2435 7.76317 17.1031 7.90388C16.9628 8.04462 16.8147 8.15549 16.685 8.22605C16.5458 8.30173 16.4845 8.30098 16.501 8.30098V10.301ZM13.5 7.29785C13.5 7.72801 13.6471 8.12348 13.8171 8.43696C13.9921 8.7599 14.2262 9.06027 14.4822 9.3167C14.7383 9.57312 15.0384 9.8076 15.3613 9.98309C15.6747 10.1534 16.0703 10.301 16.501 10.301V8.30098C16.5174 8.30098 16.4558 8.30168 16.3164 8.22589C16.1864 8.15523 16.038 8.04425 15.8974 7.90345C15.7568 7.76265 15.6459 7.61401 15.5753 7.4837C15.4995 7.34394 15.5 7.28191 15.5 7.29785H13.5ZM11.7758 8.29785H14.5V6.29785H11.7758V8.29785ZM11.9104 8.17735C11.9028 8.24595 11.8448 8.29785 11.7758 8.29785V6.29785C10.8257 6.29785 10.0275 7.01222 9.92262 7.95649L11.9104 8.17735ZM13.7042 13.9972C12.3261 12.3894 11.6765 10.282 11.9104 8.17735L9.92262 7.95649C9.62759 10.6117 10.4471 13.2704 12.1857 15.2988L13.7042 13.9972ZM13.8592 14.178L13.7042 13.9972L12.1857 15.2988L12.3407 15.4796L13.8592 14.178ZM9.8003 21.4344C10.166 19.0409 11.5693 16.9389 13.6222 15.6816L12.5777 13.976C10.0238 15.5401 8.27812 18.1549 7.82324 21.1323L9.8003 21.4344ZM9.16427 25.5975L9.8003 21.4344L7.82324 21.1323L7.18722 25.2954L9.16427 25.5975ZM9.16427 25.5975L9.16427 25.5975L7.18722 25.2954C7.00222 26.5063 7.93935 27.5975 9.16427 27.5975V25.5975ZM23.8355 25.5975H9.16427V27.5975H23.8355V25.5975ZM23.8355 25.5975L23.8355 25.5975V27.5975C25.0604 27.5975 25.9976 26.5063 25.8126 25.2954L23.8355 25.5975ZM23.1995 21.4344L23.8355 25.5975L25.8126 25.2954L25.1765 21.1323L23.1995 21.4344ZM19.38 15.6831C21.4316 16.9405 22.834 19.0419 23.1995 21.4344L25.1765 21.1323C24.7218 18.1561 22.9774 15.5421 20.4251 13.9779L19.38 15.6831ZM19.2997 13.9972L19.1433 14.1797L20.6618 15.4813L20.8182 15.2988L19.2997 13.9972ZM21.0935 8.17735C21.3274 10.282 20.6778 12.3894 19.2997 13.9972L20.8182 15.2988C22.5568 13.2704 23.3763 10.6117 23.0813 7.95649L21.0935 8.17735ZM21.2282 8.29785C21.1591 8.29785 21.1011 8.24595 21.0935 8.17735L23.0813 7.95649C22.9764 7.01222 22.1782 6.29785 21.2282 6.29785V8.29785ZM18.5 8.29785H21.2282V6.29785H18.5V8.29785Z" fill="black" mask="url(#path-2-inside-1_1658_42935)"/>
<rect x="13.5" y="14.3989" width="6" height="1" fill="black"/>
<path d="M16.5 9.80078L15 12" stroke="black" stroke-linecap="round" stroke-linejoin="round"/>
<path d="M16.5 9.80078L18 12" stroke="black" stroke-linecap="round" stroke-linejoin="round"/>
</svg>
