<svg width="24" height="24" viewBox="0 0 24 24" fill="none" xmlns="http://www.w3.org/2000/svg">
<path fill-rule="evenodd" clip-rule="evenodd" d="M18.6766 8.75362C18.9977 8.93901 19.1077 9.34959 18.9224 9.67069L17.1266 12.781C17.1142 12.8025 17.1007 12.8232 17.0863 12.8428V15.6913C17.0863 16.0621 16.7857 16.3627 16.415 16.3627H16.2816C15.9108 16.3627 15.6102 16.0621 15.6102 15.6913V12.8118C15.6037 12.8017 15.5974 12.7915 15.5913 12.781L13.7956 9.67069C13.6102 9.34959 13.7203 8.93901 14.0413 8.75362L14.1569 8.68692C14.478 8.50153 14.8886 8.61155 15.074 8.93265L16.359 11.1584L17.644 8.93265C17.8294 8.61155 18.24 8.50153 18.5611 8.68692L18.6766 8.75362Z" fill="currentColor"/>
<path fill-rule="evenodd" clip-rule="evenodd" d="M12.0789 8.63048C11.7832 8.53315 11.45 8.65262 11.2882 8.93283L8.82394 13.201L6.3597 8.93283C6.18493 8.63011 5.81 8.515 5.4986 8.65815C5.20535 8.73011 4.98779 8.99474 4.98779 9.31018V15.5248C4.98779 15.8956 5.28836 16.1962 5.65914 16.1962H5.79254C6.16331 16.1962 6.46388 15.8956 6.46388 15.5248V12.0655L8.1887 15.0529C8.32254 15.2847 8.57376 15.4065 8.82394 15.3866C9.07412 15.4065 9.32534 15.2847 9.45919 15.0529L11.185 12.0638V15.5106C11.185 15.8814 11.4855 16.1819 11.8563 16.1819H11.9897C12.3605 16.1819 12.6611 15.8814 12.6611 15.5106V9.29595C12.6611 8.95541 12.4075 8.67409 12.0789 8.63048Z" fill="currentColor"/>
</svg>
