<svg width="34" height="34" viewBox="0 0 34 34" fill="none" xmlns="http://www.w3.org/2000/svg">
<circle cx="11" cy="23" r="4" fill="currentColor"/>
<path d="M13.1374 8.74275C13.2278 8.59215 13.3906 8.5 13.5662 8.5H20.4338C20.6094 8.5 20.7722 8.59215 20.8626 8.74275L25.6626 16.7428C25.8625 17.076 25.6225 17.5 25.2338 17.5H8.76619C8.37754 17.5 8.13749 17.076 8.33744 16.7428L13.1374 8.74275Z" stroke="#222222"/>
<path d="M13.1818 17.5H20.8182C20.8182 17.5 22.25 18.3889 22.25 21.5C22.25 24.6111 20.8182 25.5 20.8182 25.5H13.1818C13.1818 25.5 11.75 24.6111 11.75 21.5C11.75 18.3889 13.1818 17.5 13.1818 17.5Z" stroke="#222222"/>
<rect x="23.5" y="17" width="1" height="4" rx="0.5" fill="#222222"/>
</svg>
