<svg width="35" height="34" viewBox="0 0 35 34" fill="none" xmlns="http://www.w3.org/2000/svg">
<circle cx="9.96094" cy="25" r="4" fill="currentColor"/>
<rect x="9.46094" y="7.5" width="17" height="19" rx="1.5" stroke="#222222"/>
<mask id="path-3-inside-1_1658_42875" fill="white">
<path d="M11.4609 9.5C11.4609 9.22386 11.6848 9 11.9609 9H13.1609C13.4371 9 13.6609 9.22386 13.6609 9.5C13.6609 9.77614 13.4371 10 13.1609 10H11.9609C11.6848 10 11.4609 9.77614 11.4609 9.5Z"/>
</mask>
<path d="M11.9609 10H13.1609V8H11.9609V10ZM13.1609 9H11.9609V11H13.1609V9ZM11.9609 9C12.2371 9 12.4609 9.22386 12.4609 9.5H10.4609C10.4609 10.3284 11.1325 11 11.9609 11V9ZM12.6609 9.5C12.6609 9.22386 12.8848 9 13.1609 9V11C13.9894 11 14.6609 10.3284 14.6609 9.5H12.6609ZM13.1609 10C12.8848 10 12.6609 9.77614 12.6609 9.5H14.6609C14.6609 8.67157 13.9894 8 13.1609 8V10ZM11.9609 8C11.1325 8 10.4609 8.67157 10.4609 9.5H12.4609C12.4609 9.77614 12.2371 10 11.9609 10V8Z" fill="#222222" mask="url(#path-3-inside-1_1658_42875)"/>
<mask id="path-5-inside-2_1658_42875" fill="white">
<path d="M14.4609 9.5C14.4609 9.22386 14.6848 9 14.9609 9H16.1609C16.4371 9 16.6609 9.22386 16.6609 9.5C16.6609 9.77614 16.4371 10 16.1609 10H14.9609C14.6848 10 14.4609 9.77614 14.4609 9.5Z"/>
</mask>
<path d="M14.9609 10H16.1609V8H14.9609V10ZM16.1609 9H14.9609V11H16.1609V9ZM14.9609 9C15.2371 9 15.4609 9.22386 15.4609 9.5H13.4609C13.4609 10.3284 14.1325 11 14.9609 11V9ZM15.6609 9.5C15.6609 9.22386 15.8848 9 16.1609 9V11C16.9894 11 17.6609 10.3284 17.6609 9.5H15.6609ZM16.1609 10C15.8848 10 15.6609 9.77614 15.6609 9.5H17.6609C17.6609 8.67157 16.9894 8 16.1609 8V10ZM14.9609 8C14.1325 8 13.4609 8.67157 13.4609 9.5H15.4609C15.4609 9.77614 15.2371 10 14.9609 10V8Z" fill="#222222" mask="url(#path-5-inside-2_1658_42875)"/>
<mask id="path-7-inside-3_1658_42875" fill="white">
<path d="M26.9609 11.5C26.9609 11.7761 26.7371 12 26.4609 12L9.46094 12C9.1848 12 8.96094 11.7761 8.96094 11.5C8.96094 11.2239 9.1848 11 9.46094 11L26.4609 11C26.7371 11 26.9609 11.2239 26.9609 11.5Z"/>
</mask>
<path d="M26.4609 11L9.46094 11L9.46094 13L26.4609 13L26.4609 11ZM9.46094 12L26.4609 12L26.4609 10L9.46094 10L9.46094 12ZM26.4609 12C26.1848 12 25.9609 11.7761 25.9609 11.5L27.9609 11.5C27.9609 10.6716 27.2894 10 26.4609 10L26.4609 12ZM9.96094 11.5C9.96094 11.7761 9.73708 12 9.46094 12L9.46094 10C8.63251 10 7.96094 10.6716 7.96094 11.5L9.96094 11.5ZM9.46094 11C9.73708 11 9.96094 11.2239 9.96094 11.5L7.96094 11.5C7.96094 12.3284 8.63251 13 9.46094 13L9.46094 11ZM26.4609 13C27.2894 13 27.9609 12.3284 27.9609 11.5L25.9609 11.5C25.9609 11.2239 26.1848 11 26.4609 11L26.4609 13Z" fill="#222222" mask="url(#path-7-inside-3_1658_42875)"/>
<mask id="path-9-inside-4_1658_42875" fill="white">
<path d="M22.4609 12C22.1848 12 21.9609 11.7761 21.9609 11.5L21.9609 7.5C21.9609 7.22386 22.1848 7 22.4609 7C22.7371 7 22.9609 7.22386 22.9609 7.5L22.9609 11.5C22.9609 11.7761 22.7371 12 22.4609 12Z"/>
</mask>
<path d="M22.9609 11.5L22.9609 7.5L20.9609 7.5L20.9609 11.5L22.9609 11.5ZM21.9609 7.5L21.9609 11.5L23.9609 11.5L23.9609 7.5L21.9609 7.5ZM21.9609 11.5C21.9609 11.2239 22.1848 11 22.4609 11L22.4609 13C23.2894 13 23.9609 12.3284 23.9609 11.5L21.9609 11.5ZM22.4609 8C22.1848 8 21.9609 7.77614 21.9609 7.5L23.9609 7.5C23.9609 6.67157 23.2894 6 22.4609 6L22.4609 8ZM22.9609 7.5C22.9609 7.77614 22.7371 8 22.4609 8L22.4609 6C21.6325 6 20.9609 6.67157 20.9609 7.5L22.9609 7.5ZM20.9609 11.5C20.9609 12.3284 21.6325 13 22.4609 13L22.4609 11C22.7371 11 22.9609 11.2239 22.9609 11.5L20.9609 11.5Z" fill="#222222" mask="url(#path-9-inside-4_1658_42875)"/>
<circle cx="17.9609" cy="19" r="4.5" stroke="#222222"/>
<path d="M13.5605 18.2001C14.0605 17.5789 15.8534 16.4343 18.105 17.8067C19.0517 18.3838 20.4605 19.0001 22.1605 17.7001" stroke="#222222" stroke-linecap="round"/>
</svg>
