<svg width="24" height="24" viewBox="0 0 24 24" fill="none" xmlns="http://www.w3.org/2000/svg">
<g clip-path="url(#clip0_2438_31930)">
<path d="M10.0198 9.89616V6.78173C10.0198 5.70654 11.0894 4.83417 12.4063 4.83417H13.1314C14.4511 4.83417 15.518 5.70654 15.518 6.78173V9.89616" stroke="currentColor" stroke-linecap="round" stroke-linejoin="round"/>
<path fill-rule="evenodd" clip-rule="evenodd" d="M16.4825 7.39581H7.58599C7.32678 7.39581 7.11056 7.5939 7.0879 7.85211L6.09884 19.1235C6.08658 19.2632 6.13353 19.4016 6.22824 19.505C6.32295 19.6083 6.45672 19.6672 6.59693 19.6672H19.0185C19.1587 19.6672 19.2925 19.6083 19.3872 19.505C19.4819 19.4016 19.5289 19.2632 19.5166 19.1235L18.6876 9.67553H17.6837L18.4727 18.6672H7.14272L8.04403 8.39581H16.4825V7.39581Z" fill="currentColor"/>
<path d="M18.8442 8.34024C18.8442 8.83116 18.4462 9.22913 17.9553 9.22913C17.4644 9.22913 17.0664 8.83116 17.0664 8.34024C17.0664 7.84932 17.4644 7.45135 17.9553 7.45135C18.4462 7.45135 18.8442 7.84932 18.8442 8.34024Z" fill="#FF2164"/>
</g>
<defs>
<clipPath id="clip0_2438_31930">
<rect width="14.0886" height="16" fill="white" transform="translate(5.76343 4.00073)"/>
</clipPath>
</defs>
</svg>
