<svg width="14" height="14" viewBox="0 0 14 14" fill="none" xmlns="http://www.w3.org/2000/svg">
<g clip-path="url(#clip0_4168_54913)">
<path d="M6.1209 0.436665C6.56237 -0.145555 7.43763 -0.145555 7.8791 0.436665L8.67878 1.4913C8.91966 1.80898 9.3132 1.97199 9.70816 1.91768L11.0194 1.7374C11.7432 1.63788 12.3621 2.25678 12.2626 2.98064L12.0823 4.29184C12.028 4.6868 12.191 5.08034 12.5087 5.32122L13.5633 6.1209C14.1456 6.56237 14.1456 7.43763 13.5633 7.8791L12.5087 8.67878C12.191 8.91966 12.028 9.3132 12.0823 9.70816L12.2626 11.0194C12.3621 11.7432 11.7432 12.3621 11.0194 12.2626L9.70816 12.0823C9.3132 12.028 8.91966 12.191 8.67878 12.5087L7.8791 13.5633C7.43763 14.1456 6.56237 14.1456 6.1209 13.5633L5.32122 12.5087C5.08034 12.191 4.6868 12.028 4.29184 12.0823L2.98064 12.2626C2.25678 12.3621 1.63788 11.7432 1.7374 11.0194L1.91768 9.70816C1.97199 9.3132 1.80898 8.91966 1.4913 8.67878L0.436665 7.8791C-0.145555 7.43763 -0.145555 6.56237 0.436665 6.1209L1.4913 5.32122C1.80898 5.08034 1.97199 4.6868 1.91768 4.29184L1.7374 2.98064C1.63788 2.25678 2.25678 1.63788 2.98064 1.7374L4.29184 1.91768C4.6868 1.97199 5.08034 1.80898 5.32122 1.4913L6.1209 0.436665Z" fill="#FF2164"/>
<path d="M6.51931 0.738765C6.76071 0.420412 7.23929 0.420412 7.48069 0.738764L8.28036 1.7934C8.63041 2.25506 9.2023 2.49194 9.77627 2.41302L11.0875 2.23274C11.4833 2.17832 11.8217 2.51674 11.7673 2.91253L11.587 4.22373C11.5081 4.7977 11.7449 5.36958 12.2066 5.71963L13.2612 6.51931C13.5796 6.76071 13.5796 7.23929 13.2612 7.48068L12.2066 8.28036C11.7449 8.63041 11.5081 9.2023 11.587 9.77627L11.7673 11.0875C11.8217 11.4833 11.4833 11.8217 11.0875 11.7673L9.77627 11.587C9.2023 11.5081 8.63042 11.7449 8.28037 12.2066L7.48069 13.2612C7.23929 13.5796 6.76071 13.5796 6.51931 13.2612L5.71963 12.2066C5.36958 11.7449 4.7977 11.5081 4.22373 11.587L2.91253 11.7673C2.51674 11.8217 2.17832 11.4833 2.23274 11.0875L2.41302 9.77627C2.49194 9.2023 2.25506 8.63041 1.7934 8.28036L0.738765 7.48069C0.420412 7.23929 0.420412 6.76071 0.738765 6.51931L1.7934 5.71963C2.25506 5.36958 2.49194 4.7977 2.41302 4.22373L2.23274 2.91253C2.17832 2.51674 2.51674 2.17832 2.91253 2.23274L4.22373 2.41302C4.7977 2.49194 5.36958 2.25506 5.71963 1.7934L6.51931 0.738765Z" stroke="black" stroke-opacity="0.08"/>
<path d="M5 7.5L6.5 9L9.5 5" stroke="#DBFC3D" stroke-linecap="round" stroke-linejoin="round"/>
</g>
<defs>
<clipPath id="clip0_4168_54913">
<rect width="14" height="14" fill="white"/>
</clipPath>
</defs>
</svg>
