<svg width="24" height="24" viewBox="0 0 24 24" fill="none" xmlns="http://www.w3.org/2000/svg">
<g clip-path="url(#clip0_2438_31870)">
<path d="M11.0795 3.5755C11.3244 2.6241 12.6756 2.6241 12.9205 3.5755C13.1163 4.33595 14.0975 4.5445 14.5856 3.92942C15.1963 3.1599 16.4307 3.70947 16.2675 4.67825C16.1371 5.45258 16.9485 6.04217 17.6447 5.67882C18.5156 5.22424 19.4197 6.22835 18.8766 7.047C18.4425 7.70133 18.944 8.57 19.7277 8.52121C20.7082 8.46017 21.1258 9.74521 20.2966 10.2722C19.6339 10.6933 19.7388 11.6909 20.4746 11.9651C21.3952 12.3082 21.2539 13.6519 20.2821 13.7961C19.5054 13.9113 19.1954 14.8653 19.7561 15.415C20.4576 16.1029 19.782 17.273 18.8356 17.0095C18.0791 16.7988 17.4079 17.5442 17.6965 18.2745C18.0576 19.1882 16.9645 19.9824 16.2071 19.3566C15.6017 18.8565 14.6854 19.2645 14.652 20.049C14.6102 21.0306 13.2885 21.3115 12.8511 20.4318C12.5015 19.7287 11.4985 19.7287 11.1489 20.4318C10.7115 21.3115 9.38982 21.0306 9.34803 20.049C9.31464 19.2645 8.3983 18.8565 7.79293 19.3566C7.03554 19.9824 5.94242 19.1882 6.30348 18.2745C6.59207 17.5442 5.92089 16.7988 5.16443 17.0095C4.21802 17.273 3.54244 16.1029 4.24391 15.415C4.80458 14.8653 4.49462 13.9113 3.71787 13.7961C2.74608 13.6519 2.60484 12.3082 3.52543 11.9651C4.26125 11.6909 4.36609 10.6933 3.70337 10.2722C2.87422 9.74521 3.29175 8.46017 4.27228 8.52121C5.05601 8.57 5.55754 7.70133 5.12342 7.047C4.58029 6.22835 5.4844 5.22424 6.35533 5.67882C7.05146 6.04217 7.86295 5.45258 7.7325 4.67825C7.5693 3.70947 8.80365 3.1599 9.41439 3.92942C9.90255 4.5445 10.8837 4.33595 11.0795 3.5755Z" fill="#FF2164"/>
<path d="M11.0127 9.10307C11.3872 8.16933 11.5745 7.70247 11.8788 7.63776C11.9588 7.62075 12.0415 7.62075 12.1215 7.63776C12.4257 7.70247 12.613 8.16933 12.9875 9.10307C13.2005 9.63406 13.307 9.89956 13.5063 10.0801C13.5622 10.1308 13.6229 10.1759 13.6875 10.2148C13.9178 10.3537 14.2053 10.3794 14.7803 10.4309C15.7538 10.5181 16.2405 10.5617 16.3891 10.8392C16.4199 10.8967 16.4409 10.9589 16.4511 11.0233C16.5003 11.3342 16.1425 11.6598 15.4269 12.3108L15.2282 12.4916C14.8936 12.796 14.7263 12.9482 14.6296 13.1382C14.5715 13.2521 14.5326 13.3748 14.5144 13.5014C14.484 13.7123 14.533 13.9331 14.6309 14.3747L14.6659 14.5325C14.8416 15.3244 14.9295 15.7203 14.8198 15.9149C14.7213 16.0897 14.5399 16.2017 14.3394 16.2112C14.1163 16.2219 13.8019 15.9657 13.1731 15.4533C12.7588 15.1157 12.5516 14.9469 12.3217 14.881C12.1115 14.8207 11.8887 14.8207 11.6785 14.881C11.4486 14.9469 11.2414 15.1157 10.8272 15.4533C10.1983 15.9657 9.88393 16.2219 9.66079 16.2112C9.46036 16.2017 9.27892 16.0897 9.18041 15.9149C9.07075 15.7203 9.1586 15.3244 9.33429 14.5325L9.3693 14.3747C9.46727 13.9331 9.51626 13.7123 9.48586 13.5014C9.46762 13.3748 9.42871 13.2521 9.37066 13.1382C9.2739 12.9482 9.10662 12.796 8.77205 12.4916L8.57333 12.3108C7.8577 11.6598 7.49989 11.3342 7.54916 11.0233C7.55937 10.9589 7.5803 10.8967 7.61108 10.8392C7.75971 10.5617 8.24644 10.5181 9.21988 10.4309C9.79492 10.3794 10.0824 10.3537 10.3128 10.2148C10.3774 10.1759 10.438 10.1308 10.4939 10.0801C10.6932 9.89956 10.7997 9.63406 11.0127 9.10307Z" fill="#DBFC3D"/>
</g>
<defs>
<clipPath id="clip0_2438_31870">
<rect width="24" height="24" fill="white"/>
</clipPath>
</defs>
</svg>
