<svg width="20" height="20" viewBox="0 0 20 20" fill="none" xmlns="http://www.w3.org/2000/svg">
<rect width="20" height="20" fill="#1E1E1E"/>
<g id="&#234;&#176;&#128;&#236;&#157;&#180;&#235;&#147;&#156;_&#236;&#138;&#164;&#237;&#131;&#128;&#236;&#157;&#188;">
<path d="M-1566 -949C-1566 -950.104 -1565.1 -951 -1564 -951H8964C8965.1 -951 8966 -950.105 8966 -949V4956C8966 4957.1 8965.1 4958 8964 4958H-1564C-1565.1 4958 -1566 4957.1 -1566 4956V-949Z" fill="#404040"/>
<g id="icon_&#236;&#138;&#164;&#237;&#131;&#128;&#236;&#157;&#188;_&#236;&#187;&#180;&#237;&#143;&#172;&#235;&#132;&#140;&#237;&#138;&#184;(&#236;&#155;&#144;&#235;&#179;&#184;)">
<g id="icon">
<g id="@Body/icon/20px">
<g id="icon/20px/Chat_S">
<path id="Rectangle 2" d="M13.4999 3.33331H11.3333C7.56202 3.33331 5.6764 3.33331 4.50482 4.50489C3.33325 5.67646 3.33325 7.56208 3.33325 11.3333V14.6666C3.33325 15.6095 3.33325 16.0809 3.62615 16.3738C3.91904 16.6666 4.39044 16.6666 5.33325 16.6666H8.66659C12.4378 16.6666 14.3234 16.6666 15.495 15.4951C16.6666 14.3235 16.6666 12.4379 16.6666 8.66664V6.5" stroke="currentColor" stroke-linecap="round"/>
<path id="Ellipse 516" d="M16.3 4.5C16.3 4.94183 15.9418 5.3 15.5 5.3C15.0581 5.3 14.7 4.94183 14.7 4.5C14.7 4.05817 15.0581 3.7 15.5 3.7C15.9418 3.7 16.3 4.05817 16.3 4.5Z" fill="#FF2164"/>
<path id="Vector 7" d="M7.5 8.33331L12.5 8.33331" stroke="currentColor" stroke-linecap="round" stroke-linejoin="round"/>
<path id="Vector 8" d="M7.5 11.6667H10" stroke="currentColor" stroke-linecap="round" stroke-linejoin="round"/>
</g>
</g>
</g>
</g>
<path d="M-1564 -950H8964V-952H-1564V-950ZM8965 -949V4956H8967V-949H8965ZM8964 4957H-1564V4959H8964V4957ZM-1565 4956V-949H-1567V4956H-1565ZM-1564 4957C-1564.55 4957 -1565 4956.55 -1565 4956H-1567C-1567 4957.66 -1565.66 4959 -1564 4959V4957ZM8965 4956C8965 4956.55 8964.55 4957 8964 4957V4959C8965.66 4959 8967 4957.66 8967 4956H8965ZM8964 -950C8964.55 -950 8965 -949.552 8965 -949H8967C8967 -950.657 8965.66 -952 8964 -952V-950ZM-1564 -952C-1565.66 -952 -1567 -950.657 -1567 -949H-1565C-1565 -949.552 -1564.55 -950 -1564 -950V-952Z" fill="white" fill-opacity="0.1"/>
</g>
</svg>
