<svg width="16" height="16" viewBox="0 0 16 16" fill="none" xmlns="http://www.w3.org/2000/svg">
<path d="M8 14C9.38813 14 10.7333 13.5187 11.8064 12.6381C12.8794 11.7574 13.6139 10.532 13.8847 9.17054C14.1555 7.80908 13.9459 6.39584 13.2915 5.17162C12.6372 3.9474 11.5786 2.98794 10.2961 2.45672C9.01364 1.92551 7.58665 1.8554 6.25829 2.25836C4.92993 2.66131 3.78239 3.51239 3.01118 4.66658C2.23998 5.82077 1.89283 7.20665 2.02889 8.5881C2.16495 9.96955 2.7758 11.2611 3.75736 12.2426" stroke="black" stroke-linecap="round"/>
<path d="M6.1888 13.6075C6.1888 13.9757 5.89032 14.2742 5.52213 14.2742C5.15394 14.2742 4.85547 13.9757 4.85547 13.6075C4.85547 13.2393 5.15394 12.9409 5.52213 12.9409C5.89032 12.9409 6.1888 13.2393 6.1888 13.6075Z" fill="black"/>
<path d="M10.668 6.66669L8.73668 8.98423C8.08111 9.77092 7.75332 10.1643 7.31275 10.1842C6.87218 10.2042 6.51013 9.84218 5.78603 9.11808L5.33464 8.66669" stroke="black" stroke-linecap="round"/>
</svg>
