<svg width="34" height="34" viewBox="0 0 34 34" fill="none" xmlns="http://www.w3.org/2000/svg">
<mask id="path-2-inside-1_2653_21930" fill="white">
<path fill-rule="evenodd" clip-rule="evenodd" d="M18.4995 7.29767C18.4995 8.1261 17.3289 9.30079 16.5005 9.30079C15.6721 9.30079 14.4995 8.1261 14.4995 7.29767H11.7753C11.3348 7.29767 10.9647 7.62891 10.916 8.06674C10.6516 10.4467 11.3861 12.8297 12.9445 14.6478L13.0995 14.8287C10.7961 16.2393 9.22167 18.5978 8.8114 21.2832L8.17538 25.4463C8.08288 26.0517 8.55144 26.5973 9.16391 26.5973H23.8351C24.4476 26.5973 24.9162 26.0517 24.8237 25.4463L24.1877 21.2832C23.7775 18.5988 22.2041 16.2411 19.9021 14.8302L20.0585 14.6478C21.6169 12.8297 22.3514 10.4467 22.0869 8.06674C22.0383 7.62891 21.6682 7.29767 21.2277 7.29767H18.4995Z"/>
</mask>
<path d="M18.4995 7.29767V6.29767C17.9472 6.29767 17.4995 6.74538 17.4995 7.29767H18.4995ZM14.4995 7.29767H15.4995C15.4995 6.74538 15.0518 6.29767 14.4995 6.29767V7.29767ZM10.916 8.06674L11.9099 8.17717V8.17717L10.916 8.06674ZM12.9445 14.6478L12.1852 15.2986L12.1852 15.2986L12.9445 14.6478ZM13.0995 14.8287L13.6218 15.6815C13.8715 15.5285 14.0417 15.2737 14.0873 14.9844C14.1329 14.695 14.0494 14.4003 13.8587 14.1779L13.0995 14.8287ZM8.8114 21.2832L7.82287 21.1322H7.82287L8.8114 21.2832ZM8.17538 25.4463L7.18685 25.2952H7.18685L8.17538 25.4463ZM24.8237 25.4463L23.8351 25.5973V25.5973L24.8237 25.4463ZM24.1877 21.2832L25.1762 21.1322L25.1762 21.1322L24.1877 21.2832ZM19.9021 14.8302L19.1429 14.1795C18.9523 14.4018 18.8687 14.6965 18.9143 14.9858C18.9598 15.2751 19.1299 15.5298 19.3796 15.6829L19.9021 14.8302ZM20.0585 14.6478L20.8177 15.2986L20.8177 15.2986L20.0585 14.6478ZM22.0869 8.06674L21.093 8.17717V8.17717L22.0869 8.06674ZM16.5005 10.3008C16.9312 10.3008 17.3268 10.1532 17.6402 9.98274C17.963 9.80716 18.2629 9.57258 18.5187 9.31608C18.7745 9.05957 19.0083 8.75916 19.1831 8.43623C19.3528 8.12272 19.4995 7.72746 19.4995 7.29767H17.4995C17.4995 7.28209 17.4999 7.34433 17.4243 7.48407C17.3537 7.61439 17.243 7.76298 17.1027 7.9037C16.9623 8.04443 16.8142 8.15531 16.6845 8.22587C16.5454 8.30154 16.484 8.30079 16.5005 8.30079V10.3008ZM13.4995 7.29767C13.4995 7.72783 13.6466 8.12329 13.8166 8.43678C13.9917 8.75972 14.2257 9.06009 14.4818 9.31652C14.7378 9.57294 15.0379 9.80741 15.3608 9.9829C15.6742 10.1533 16.0699 10.3008 16.5005 10.3008V8.30079C16.5169 8.30079 16.4554 8.3015 16.3159 8.2257C16.1859 8.15505 16.0376 8.04407 15.8969 7.90326C15.7563 7.76247 15.6454 7.61383 15.5748 7.48352C15.499 7.34375 15.4995 7.28172 15.4995 7.29767H13.4995ZM11.7753 8.29767H14.4995V6.29767H11.7753V8.29767ZM11.9099 8.17717C11.9023 8.24577 11.8443 8.29767 11.7753 8.29767V6.29767C10.8252 6.29767 10.0271 7.01204 9.92214 7.95631L11.9099 8.17717ZM13.7037 13.997C12.3256 12.3892 11.6761 10.2818 11.9099 8.17717L9.92214 7.95631C9.62712 10.6115 10.4466 13.2702 12.1852 15.2986L13.7037 13.997ZM13.8587 14.1779L13.7037 13.997L12.1852 15.2986L12.3402 15.4795L13.8587 14.1779ZM9.79993 21.4342C10.1656 19.0408 11.5689 16.9387 13.6218 15.6815L12.5772 13.9759C10.0234 15.54 8.27775 18.1548 7.82287 21.1322L9.79993 21.4342ZM9.16391 25.5973L9.79993 21.4342L7.82287 21.1322L7.18685 25.2952L9.16391 25.5973ZM9.16391 25.5973H9.16391L7.18685 25.2952C7.00185 26.5061 7.93898 27.5973 9.16391 27.5973V25.5973ZM23.8351 25.5973H9.16391V27.5973H23.8351V25.5973ZM23.8351 25.5973V25.5973V27.5973C25.0601 27.5973 25.9972 26.5061 25.8122 25.2952L23.8351 25.5973ZM23.1991 21.4342L23.8351 25.5973L25.8122 25.2952L25.1762 21.1322L23.1991 21.4342ZM19.3796 15.6829C21.4312 16.9403 22.8336 19.0417 23.1991 21.4342L25.1762 21.1322C24.7215 18.1559 22.977 15.5419 20.4247 13.9776L19.3796 15.6829ZM19.2992 13.997L19.1429 14.1795L20.6614 15.481L20.8177 15.2986L19.2992 13.997ZM21.093 8.17717C21.3269 10.2818 20.6774 12.3892 19.2992 13.997L20.8177 15.2986C22.5564 13.2702 23.3758 10.6115 23.0808 7.95631L21.093 8.17717ZM21.2277 8.29767C21.1587 8.29767 21.1007 8.24577 21.093 8.17717L23.0808 7.95631C22.9759 7.01204 22.1778 6.29767 21.2277 6.29767V8.29767ZM18.4995 8.29767H21.2277V6.29767H18.4995V8.29767Z" fill="black" mask="url(#path-2-inside-1_2653_21930)"/>
<rect x="13.5" y="14.3989" width="6" height="1" fill="black"/>
<path d="M16.4996 9.80078L14.9996 12" stroke="black" stroke-linecap="round" stroke-linejoin="round"/>
<path d="M16.4996 9.80078L17.9996 12" stroke="black" stroke-linecap="round" stroke-linejoin="round"/>
</svg>
