<svg width="24" height="24" viewBox="0 0 24 24" fill="none" xmlns="http://www.w3.org/2000/svg">
<g clip-path="url(#clip0_5334_165579)">
<g clip-path="url(#clip1_5334_165579)">
<path d="M20.3521 3.14758C19.5985 2.39384 18.3803 2.39384 17.6267 3.14758C16.5806 4.33499 15.5964 5.57057 14.6742 6.85779C14.4264 7.2054 13.9275 7.25015 13.6281 6.94727L11.5359 4.85469C11.0438 4.36252 10.242 4.36252 9.7499 4.85469L8.50076 6.10404C8.27709 6.32776 8.27709 6.69258 8.50076 6.9163L16.092 14.5088C16.584 15.001 17.3858 15.001 17.8779 14.5088L18.6384 13.7482C19.1305 13.256 19.1305 12.4541 18.6384 11.9619L16.5462 9.86932C16.2434 9.56644 16.2881 9.07083 16.6357 8.82303C17.9192 7.90064 19.158 6.9163 20.3452 5.87345C21.0988 5.1197 21.0988 3.90133 20.3452 3.14758H20.3521Z" stroke="black" stroke-miterlimit="10" stroke-linejoin="round"/>
<path d="M16.5773 15.001L8.6489 7.06775C8.34264 6.76143 7.84711 6.76143 7.54085 7.06775L2.4617 12.1478C2.23803 12.3715 2.23803 12.7363 2.4617 12.96L3.62481 14.1233C3.69708 14.1956 3.80719 14.2059 3.88978 14.1474L5.52777 13.0426C5.72048 12.9153 5.94759 13.1424 5.82027 13.3352L4.71566 14.9734C4.6606 15.056 4.67092 15.1696 4.73975 15.2385L10.5381 21.0378C10.7618 21.2615 11.1265 21.2615 11.3502 21.0378L16.5739 15.8132C16.7976 15.5895 16.7976 15.2247 16.5739 15.001H16.5773Z" stroke="black" stroke-miterlimit="10" stroke-linejoin="round"/>
<path d="M8.54245 5.36022L6.19922 7.70386L6.44235 7.94703L8.78559 5.60339L8.54245 5.36022Z" fill="black"/>
<path d="M18.5425 14.0576L16.1992 16.4013L16.4425 16.6446L18.7858 14.301L18.5425 14.0576Z" fill="black"/>
</g>
</g>
<defs>
<clipPath id="clip0_5334_165579">
<rect width="24" height="24" fill="white"/>
</clipPath>
<clipPath id="clip1_5334_165579">
<rect width="20" height="20" fill="white" transform="translate(1.60449 1.89478)"/>
</clipPath>
</defs>
</svg>
