<svg width="20" height="21" viewBox="0 0 20 21" fill="none" xmlns="http://www.w3.org/2000/svg">
<path d="M15.0003 3.83271C13.6076 2.78656 11.8763 2.16666 10.0003 2.16666C5.39795 2.16666 1.66699 5.89762 1.66699 10.5C1.66699 15.1024 5.39795 18.8333 10.0003 18.8333C10.8237 18.8333 11.6193 18.7139 12.3705 18.4914M18.167 8.83332C18.2763 9.37184 18.3337 9.92921 18.3337 10.5C18.3337 12.1932 17.8287 13.7684 16.9611 15.0833" stroke="currentColor" stroke-linecap="round"/>
<path d="M17.6092 15.6537C17.5644 15.6331 17.5195 15.6118 17.477 15.5869L14.7638 13.9987C14.7127 13.9688 14.6596 13.9419 14.6037 13.9228C13.5909 13.5765 12.5 14.2778 12.5 15.3046V18.1954C12.5 19.2223 13.5909 19.9235 14.6037 19.5772C14.6596 19.5581 14.7127 19.5313 14.7638 19.5014L17.477 17.9131C17.5195 17.8882 17.5644 17.8669 17.6092 17.8463C18.5747 17.4005 18.5747 16.0996 17.6092 15.6537Z" stroke="currentColor" stroke-linecap="round" stroke-linejoin="round"/>
<path d="M7.5 7.99999C7.5 7.53975 7.8731 7.16666 8.33333 7.16666V7.16666C8.79357 7.16666 9.16667 7.53975 9.16667 7.99999V10.5H7.5V7.99999Z" fill="currentColor"/>
<path d="M10.833 7.99999C10.833 7.53975 11.2061 7.16666 11.6663 7.16666V7.16666C12.1266 7.16666 12.4997 7.53975 12.4997 7.99999V10.5H10.833V7.99999Z" fill="currentColor"/>
<path d="M17.7955 6.20402C17.7955 6.66425 17.4224 7.03735 16.9622 7.03735C16.502 7.03735 16.1289 6.66425 16.1289 6.20402C16.1289 5.74378 16.502 5.37068 16.9622 5.37068C17.4224 5.37068 17.7955 5.74378 17.7955 6.20402Z" fill="#FF2164"/>
</svg>
