<svg width="24" height="24" viewBox="0 0 24 24" fill="none" xmlns="http://www.w3.org/2000/svg">
<path d="M15.3333 2H6.8074C5.75947 2 5.2355 2 4.79332 2.23665C4.35113 2.4733 4.06049 2.90927 3.4792 3.7812L2.6718 4.9923C2.33835 5.49247 2.17163 5.74255 2.08582 6.02598C2 6.30941 2 6.60998 2 7.2111V18C2 19.8856 2 20.8284 2.58579 21.4142C3.17157 22 4.11438 22 6 22H18C19.8856 22 20.8284 22 21.4142 21.4142C22 20.8284 22 19.8856 22 18V7.2111C22 6.60998 22 6.30941 21.9142 6.02598C21.8284 5.74255 21.6616 5.49247 21.3282 4.9923L21.1852 4.77778" stroke="currentColor" stroke-linecap="round"/>
<path d="M2 9L22 9" stroke="currentColor" stroke-linecap="round"/>
<path d="M9 15C9 14.4477 9.44772 14 10 14H15V16H10C9.44772 16 9 15.5523 9 15Z" fill="currentColor"/>
<path d="M19.77 2.72629C19.77 3.27857 19.3223 3.72629 18.77 3.72629C18.2177 3.72629 17.77 3.27857 17.77 2.72629C17.77 2.174 18.2177 1.72629 18.77 1.72629C19.3223 1.72629 19.77 2.174 19.77 2.72629Z" fill="#FF2164"/>
</svg>
