<svg width="20" height="20" viewBox="0 0 20 20" fill="none" xmlns="http://www.w3.org/2000/svg">
<path d="M7.50195 8.33336C7.50195 7.87313 7.87505 7.50003 8.33529 7.50003V7.50003C8.79552 7.50003 9.16862 7.87313 9.16862 8.33336V10.8334H7.50195V8.33336Z" fill="currentColor"/>
<path d="M10.835 8.33336C10.835 7.87313 11.2081 7.50003 11.6683 7.50003V7.50003C12.1285 7.50003 12.5016 7.87313 12.5016 8.33336V10.8334H10.835V8.33336Z" fill="currentColor"/>
<path d="M15.0003 3.33274C13.6076 2.2866 11.8763 1.66669 10.0003 1.66669C5.39795 1.66669 1.66699 5.39765 1.66699 10C1.66699 14.6024 5.39795 18.3334 10.0003 18.3334C14.6027 18.3334 18.3337 14.6024 18.3337 10C18.3337 9.42924 18.2763 8.87187 18.167 8.33335" stroke="currentColor" stroke-linecap="round"/>
<path d="M15.002 12.5C15.002 13.8807 13.8827 15 12.502 15" stroke="currentColor" stroke-linecap="round"/>
<path d="M17.7965 5.70411C17.7965 6.16434 17.4234 6.53744 16.9632 6.53744C16.5029 6.53744 16.1298 6.16434 16.1298 5.70411C16.1298 5.24387 16.5029 4.87077 16.9632 4.87077C17.4234 4.87077 17.7965 5.24387 17.7965 5.70411Z" fill="#FF2164"/>
</svg>

