<svg xmlns="http://www.w3.org/2000/svg" width="21" height="21" viewBox="0 0 21 21" fill="none">
  <ellipse cx="3.83333" cy="17.1663" rx="3.33333" ry="3.33333" fill="#FF2164"/>
  <path d="M16.3333 6.99969V13.9997C16.3333 15.8853 16.3333 16.8281 15.7475 17.4139C15.1618 17.9997 14.219 17.9997 12.3333 17.9997H9.5C7.61438 17.9997 6.67157 17.9997 6.08579 17.4139C5.5 16.8281 5.5 15.8853 5.5 13.9997V7.83301C5.5 5.94739 5.5 5.00458 6.08579 4.41879C6.67157 3.83301 7.61433 3.83301 9.49984 3.83301C10.7667 3.83301 12.0762 3.83301 13 3.83301" stroke="black" stroke-linecap="round"/>
  <path d="M13 8.83301V7.16634" stroke="black" stroke-linecap="round"/>
  <path d="M3.83325 8H7.16659" stroke="black" stroke-linecap="round"/>
  <path d="M3.83325 11.333H7.16659" stroke="black" stroke-linecap="round"/>
  <path d="M3.83325 14.667H7.16659" stroke="black" stroke-linecap="round"/>
  <path d="M16.6667 4.33331C16.6667 4.79355 16.2936 5.16665 15.8333 5.16665C15.3731 5.16665 15 4.79355 15 4.33331C15 3.87308 15.3731 3.49998 15.8333 3.49998C16.2936 3.49998 16.6667 3.87308 16.6667 4.33331Z" fill="#FF2164"/>
</svg>