<svg width="34" height="34" viewBox="0 0 34 34" fill="none" xmlns="http://www.w3.org/2000/svg">
<path d="M13.5 8.5C13.5 8.22386 13.7239 8 14 8H23.5V12C23.5 12.2761 23.2761 12.5 23 12.5H13.5V8.5Z" stroke="black"/>
<path d="M11.5 13C11.5 12.7239 11.7239 12.5 12 12.5H21.5V16.5C21.5 16.7761 21.2761 17 21 17H11.5V13Z" stroke="black"/>
<path d="M9.5 17.5C9.5 17.2239 9.72386 17 10 17H19.5V21C19.5 21.2761 19.2761 21.5 19 21.5H9.5V17.5Z" stroke="black"/>
<path d="M7.5 22C7.5 21.7239 7.72386 21.5 8 21.5H17.5V25.5C17.5 25.7761 17.2761 26 17 26H8C7.72386 26 7.5 25.7761 7.5 25.5V22Z" stroke="black"/>
<path d="M16.5 26H20L26.5 11.5V8H22.5" stroke="black" stroke-linecap="round" stroke-linejoin="round"/>
</svg>
