<svg width="20" height="20" viewBox="0 0 20 20" fill="none" xmlns="http://www.w3.org/2000/svg">
<path d="M14 5V5C13.6469 4.66854 13.4704 4.50281 13.2725 4.43281C13.0547 4.35579 12.817 4.35652 12.5998 4.43488C12.4023 4.5061 12.2268 4.67291 11.8757 5.00653L5.45692 11.107C5.25155 11.3022 5.14886 11.3998 5.07782 11.5202C5.00678 11.6406 4.97102 11.7777 4.8995 12.0519L4.21044 14.6933C4.11647 15.0535 4.06948 15.2336 4.16859 15.3347C4.26769 15.4358 4.44871 15.3925 4.81074 15.3057L7.65499 14.6243C7.91297 14.5625 8.04195 14.5316 8.15727 14.4692C8.27259 14.4068 8.36904 14.3158 8.56193 14.1337L14 9" stroke="currentColor" stroke-linecap="round"/>
<path d="M16.1403 7.00001C16.1403 7.44184 15.7821 7.80001 15.3403 7.80001C14.8985 7.80001 14.5403 7.44184 14.5403 7.00001C14.5403 6.55818 14.8985 6.20001 15.3403 6.20001C15.7821 6.20001 16.1403 6.55818 16.1403 7.00001Z" fill="#FF2164"/>
</svg>
