<svg width="24" height="24" viewBox="0 0 24 24" fill="none" xmlns="http://www.w3.org/2000/svg">
<path d="M19 4.47827L18.6142 4.14364C17.9858 3.59862 17.6716 3.32612 17.2967 3.32726C16.9217 3.3284 16.6091 3.60282 15.9841 4.15167L5.11397 13.6967C4.89332 13.8905 4.78299 13.9873 4.70577 14.1098C4.62855 14.2322 4.58865 14.3735 4.50886 14.6561L3.22723 19.1952C3.1258 19.5545 3.07508 19.7341 3.17244 19.8372C3.26979 19.9403 3.45202 19.8999 3.81648 19.8193L9.18027 18.632C9.42796 18.5771 9.5518 18.5497 9.66384 18.4932C9.77587 18.4366 9.87146 18.3532 10.0626 18.1865L19 10.3913" stroke="currentColor" stroke-linecap="round"/>
<path d="M21 7.5C21 8.05228 20.5523 8.5 20 8.5C19.4477 8.5 19 8.05228 19 7.5C19 6.94772 19.4477 6.5 20 6.5C20.5523 6.5 21 6.94772 21 7.5Z" fill="#FF2164"/>
</svg>
