<svg width="20" height="20" viewBox="0 0 20 20" fill="none" xmlns="http://www.w3.org/2000/svg">
<path d="M4 17.1616L16 17.1616" stroke="black" stroke-linecap="round"/>
<path d="M10.7453 17.0265L16.1367 9.82013" stroke="black" stroke-linecap="round"/>
<path d="M16.1305 5.70779L11.2731 2.17926C10.6045 1.69358 9.65918 1.83896 9.16166 2.50396L2.27711 11.7061C1.77958 12.3711 1.91826 13.3039 2.58684 13.7896L7.12486 17.0861" stroke="black" stroke-linecap="round"/>
<path d="M4.23047 9.1842L12.2168 15.2024" stroke="black"/>
<path d="M18.5191 8.47628C18.1882 8.9185 17.5578 9.01386 17.1109 8.68927C16.6641 8.36468 16.5701 7.74305 16.9009 7.30083C17.2318 6.85861 17.8622 6.76325 18.309 7.08784C18.7559 7.41243 18.8499 8.03406 18.5191 8.47628Z" fill="#FF2164"/>
</svg>
