<svg width="20" height="20" viewBox="0 0 20 20" fill="none" xmlns="http://www.w3.org/2000/svg">
<rect x="10" width="14.1411" height="14.1432" rx="1.95" transform="rotate(45 10 0)" fill="white"/>
<path d="M5.56313 4.43195C6.31404 3.68104 7.53151 3.68104 8.28242 4.43195L12.4855 8.63502C13.2364 9.38593 13.2364 10.6034 12.4855 11.3543L8.28242 15.5574C7.53151 16.3083 6.31404 16.3083 5.56313 15.5574L1.36006 11.3543C0.609148 10.6034 0.609147 9.38593 1.36006 8.63502L5.56313 4.43195Z" fill="#FFC93F" fill-opacity="0.4"/>
<path d="M11.7162 4.43195C12.4671 3.68104 13.6846 3.68104 14.4355 4.43195L18.6386 8.63502C19.3895 9.38593 19.3895 10.6034 18.6386 11.3543L14.4355 15.5574C13.6846 16.3083 12.4671 16.3083 11.7162 15.5574L7.51312 11.3543C6.7622 10.6034 6.7622 9.38593 7.51311 8.63502L11.7162 4.43195Z" fill="#3EC5FF" fill-opacity="0.4"/>
<path d="M8.63966 1.35542C9.39057 0.604509 10.608 0.604508 11.359 1.35542L15.562 5.55849C16.3129 6.3094 16.3129 7.52687 15.562 8.27779L11.359 12.4809C10.608 13.2318 9.39057 13.2318 8.63966 12.4809L4.43659 8.27779C3.68568 7.52687 3.68567 6.3094 4.43659 5.55849L8.63966 1.35542Z" fill="#FF67AD" fill-opacity="0.4"/>
<path d="M8.63966 7.50848C9.39057 6.75757 10.608 6.75756 11.359 7.50848L15.562 11.7115C16.3129 12.4625 16.3129 13.6799 15.562 14.4308L11.359 18.6339C10.608 19.3848 9.39057 19.3848 8.63966 18.6339L4.43659 14.4308C3.68568 13.6799 3.68567 12.4625 4.43659 11.7115L8.63966 7.50848Z" fill="#2BFF26" fill-opacity="0.4"/>
<path d="M12.4848 8.63504C13.2357 9.38595 13.2357 10.6034 12.4848 11.3543L11.3582 12.4809C10.6073 13.2318 9.38986 13.2318 8.63895 12.4809L7.5124 11.3543C6.76149 10.6034 6.76149 9.38595 7.5124 8.63504L8.63895 7.5085C9.38986 6.75759 10.6073 6.75758 11.3582 7.5085L12.4848 8.63504Z" fill="white"/>
</svg>
