<svg width="24" height="24" viewBox="0 0 24 24" fill="none" xmlns="http://www.w3.org/2000/svg">
<rect x="12" width="16.9693" height="16.9718" rx="2.5" transform="rotate(45 12 0)" fill="white"/>
<path d="M6.67654 5.31834C7.57763 4.41724 9.0386 4.41724 9.93969 5.31834L14.9834 10.362C15.8845 11.2631 15.8845 12.7241 14.9834 13.6252L9.93969 18.6689C9.0386 19.57 7.57763 19.57 6.67654 18.6689L1.63285 13.6252C0.731758 12.7241 0.731757 11.2631 1.63285 10.362L6.67654 5.31834Z" fill="#FFC93F" fill-opacity="0.4"/>
<path d="M14.0602 5.31834C14.9613 4.41724 16.4223 4.41724 17.3234 5.31834L22.367 10.362C23.2681 11.2631 23.2681 12.7241 22.367 13.6252L17.3234 18.6689C16.4223 19.57 14.9613 19.57 14.0602 18.6689L9.01652 13.6252C8.11543 12.7241 8.11542 11.2631 9.01652 10.362L14.0602 5.31834Z" fill="#3EC5FF" fill-opacity="0.4"/>
<path d="M10.3684 1.6265C11.2695 0.725411 12.7304 0.725409 13.6315 1.6265L18.6752 6.67019C19.5763 7.57129 19.5763 9.03225 18.6752 9.93334L13.6315 14.977C12.7304 15.8781 11.2695 15.8781 10.3684 14.977L5.32469 9.93334C4.42359 9.03225 4.42359 7.57129 5.32469 6.67019L10.3684 1.6265Z" fill="#FF67AD" fill-opacity="0.4"/>
<path d="M10.3684 9.01017C11.2695 8.10908 12.7304 8.10908 13.6315 9.01017L18.6752 14.0539C19.5763 14.955 19.5763 16.4159 18.6752 17.317L13.6315 22.3607C12.7304 23.2618 11.2695 23.2618 10.3684 22.3607L5.32469 17.317C4.42359 16.4159 4.42359 14.955 5.32469 14.0539L10.3684 9.01017Z" fill="#2BFF26" fill-opacity="0.4"/>
<path d="M14.9833 10.362C15.8843 11.2631 15.8844 12.7241 14.9833 13.6252L13.6314 14.977C12.7303 15.8781 11.2693 15.8781 10.3683 14.977L9.0164 13.6252C8.1153 12.7241 8.1153 11.2631 9.0164 10.362L10.3683 9.01017C11.2693 8.10908 12.7303 8.10908 13.6314 9.01017L14.9833 10.362Z" fill="white"/>
</svg>
