<svg xmlns="http://www.w3.org/2000/svg" width="24" height="24" viewBox="0 0 24 24" fill="none">
  <path d="M12 19L4 19" stroke="currentColor" stroke-linecap="round"/>
  <path d="M20 5L17 5" stroke="currentColor" stroke-linecap="round"/>
  <path d="M20 19L16 19" stroke="currentColor" stroke-linecap="round"/>
  <path d="M13 5L4 5" stroke="currentColor" stroke-linecap="round"/>
  <path d="M7 12L4 12" stroke="currentColor" stroke-linecap="round"/>
  <path d="M17 12H11" stroke="currentColor" stroke-linecap="round"/>
  <circle cx="14" cy="19" r="2" transform="rotate(-90 14 19)" stroke="currentColor" stroke-linecap="round"/>
  <circle cx="9" cy="12" r="2" transform="rotate(-90 9 12)" stroke="currentColor" stroke-linecap="round"/>
  <circle cx="15" cy="5" r="2" transform="rotate(-90 15 5)" stroke="currentColor" stroke-linecap="round"/>
  <path d="M20.5 12C20.5 12.5523 20.0523 13 19.5 13C18.9477 13 18.5 12.5523 18.5 12C18.5 11.4477 18.9477 11 19.5 11C20.0523 11 20.5 11.4477 20.5 12Z" fill="#FF2164"/>
</svg>