<svg width="24" height="24" viewBox="0 0 24 24" fill="none" xmlns="http://www.w3.org/2000/svg">
<path d="M4.65382 12.636H8.64982L8.01982 10.62C7.53382 9.126 7.11982 7.686 6.68782 6.156H6.61582C6.20182 7.704 5.76982 9.126 5.30182 10.62L4.65382 12.636ZM10.3238 18L9.06382 13.968H4.23982L2.96182 18H1.26982L5.75182 4.806H7.60582L12.0878 18H10.3238ZM15.53 18.234C13.892 18.234 12.668 17.226 12.668 15.462C12.668 13.338 14.522 12.276 18.68 11.808C18.68 10.548 18.266 9.342 16.664 9.342C15.53 9.342 14.504 9.864 13.73 10.386L13.082 9.252C13.982 8.676 15.368 7.974 16.934 7.974C19.31 7.974 20.318 9.576 20.318 11.988V18H18.968L18.824 16.83H18.77C17.834 17.604 16.736 18.234 15.53 18.234ZM15.998 16.92C16.952 16.92 17.726 16.47 18.68 15.624V12.888C15.386 13.284 14.27 14.094 14.27 15.354C14.27 16.47 15.026 16.92 15.998 16.92Z" fill="currentColor"/>
<path d="M18 5C18 5.55228 17.5523 6 17 6C16.4477 6 16 5.55228 16 5C16 4.44772 16.4477 4 17 4C17.5523 4 18 4.44772 18 5Z" fill="#FF2164"/>
</svg>
