<svg width="34" height="34" viewBox="0 0 34 34" fill="none" xmlns="http://www.w3.org/2000/svg">
<path d="M16.2 10.2012C16.2 10.5326 15.9314 10.8012 15.6 10.8012C15.2686 10.8012 15 10.5326 15 10.2012C15 9.86983 15.2686 9.6012 15.6 9.6012C15.9314 9.6012 16.2 9.86983 16.2 10.2012Z" fill="black"/>
<path d="M19.2 10.2012C19.2 10.5326 18.9314 10.8012 18.6 10.8012C18.2686 10.8012 18 10.5326 18 10.2012C18 9.86983 18.2686 9.6012 18.6 9.6012C18.9314 9.6012 19.2 9.86983 19.2 10.2012Z" fill="black"/>
<path d="M22.2 10.2012C22.2 10.5326 21.9314 10.8012 21.6 10.8012C21.2686 10.8012 21 10.5326 21 10.2012C21 9.86983 21.2686 9.6012 21.6 9.6012C21.9314 9.6012 22.2 9.86983 22.2 10.2012Z" fill="black"/>
<path d="M25.2 10.2012C25.2 10.5326 24.9314 10.8012 24.6 10.8012C24.2686 10.8012 24 10.5326 24 10.2012C24 9.86983 24.2686 9.6012 24.6 9.6012C24.9314 9.6012 25.2 9.86983 25.2 10.2012Z" fill="black"/>
<path d="M16.2 15.2012C16.2 15.5326 15.9314 15.8012 15.6 15.8012C15.2686 15.8012 15 15.5326 15 15.2012C15 14.8698 15.2686 14.6012 15.6 14.6012C15.9314 14.6012 16.2 14.8698 16.2 15.2012Z" fill="black"/>
<path d="M19.2 15.2012C19.2 15.5326 18.9314 15.8012 18.6 15.8012C18.2686 15.8012 18 15.5326 18 15.2012C18 14.8698 18.2686 14.6012 18.6 14.6012C18.9314 14.6012 19.2 14.8698 19.2 15.2012Z" fill="black"/>
<path d="M22.2 15.2012C22.2 15.5326 21.9314 15.8012 21.6 15.8012C21.2686 15.8012 21 15.5326 21 15.2012C21 14.8698 21.2686 14.6012 21.6 14.6012C21.9314 14.6012 22.2 14.8698 22.2 15.2012Z" fill="black"/>
<path d="M25.2 15.2012C25.2 15.5326 24.9314 15.8012 24.6 15.8012C24.2686 15.8012 24 15.5326 24 15.2012C24 14.8698 24.2686 14.6012 24.6 14.6012C24.9314 14.6012 25.2 14.8698 25.2 15.2012Z" fill="black"/>
<path d="M17.7 12.7012C17.7 13.0326 17.4314 13.3012 17.1 13.3012C16.7686 13.3012 16.5 13.0326 16.5 12.7012C16.5 12.3698 16.7686 12.1012 17.1 12.1012C17.4314 12.1012 17.7 12.3698 17.7 12.7012Z" fill="black"/>
<path d="M20.7 12.7012C20.7 13.0326 20.4314 13.3012 20.1 13.3012C19.7686 13.3012 19.5 13.0326 19.5 12.7012C19.5 12.3698 19.7686 12.1012 20.1 12.1012C20.4314 12.1012 20.7 12.3698 20.7 12.7012Z" fill="black"/>
<path d="M23.7 12.7012C23.7 13.0326 23.4314 13.3012 23.1 13.3012C22.7686 13.3012 22.5 13.0326 22.5 12.7012C22.5 12.3698 22.7686 12.1012 23.1 12.1012C23.4314 12.1012 23.7 12.3698 23.7 12.7012Z" fill="black"/>
<path d="M17.7 17.7012C17.7 18.0326 17.4314 18.3012 17.1 18.3012C16.7686 18.3012 16.5 18.0326 16.5 17.7012C16.5 17.3698 16.7686 17.1012 17.1 17.1012C17.4314 17.1012 17.7 17.3698 17.7 17.7012Z" fill="black"/>
<path d="M20.7 17.7012C20.7 18.0326 20.4314 18.3012 20.1 18.3012C19.7686 18.3012 19.5 18.0326 19.5 17.7012C19.5 17.3698 19.7686 17.1012 20.1 17.1012C20.4314 17.1012 20.7 17.3698 20.7 17.7012Z" fill="black"/>
<path d="M23.7 17.7012C23.7 18.0326 23.4314 18.3012 23.1 18.3012C22.7686 18.3012 22.5 18.0326 22.5 17.7012C22.5 17.3698 22.7686 17.1012 23.1 17.1012C23.4314 17.1012 23.7 17.3698 23.7 17.7012Z" fill="black"/>
<path d="M7.5 26V13L13.5 8H26.5V20L20.5 26H7.5Z" stroke="black" stroke-linecap="round" stroke-linejoin="round"/>
<path d="M26.5 20H13.5M13.5 20L7.5 25.5M13.5 20V8" stroke="black" stroke-linecap="round" stroke-linejoin="round"/>
</svg>
