<svg width="34" height="34" viewBox="0 0 34 34" fill="none" xmlns="http://www.w3.org/2000/svg">
<path d="M9.61366 11.5547L10.047 11.8042C10.136 11.6495 10.1359 11.459 10.0465 11.3044C9.95717 11.1499 9.79219 11.0547 9.61366 11.0547V11.5547ZM9.61157 11.5547L9.16564 11.3285C9.08703 11.4835 9.09454 11.6682 9.18549 11.8163C9.27643 11.9644 9.43777 12.0547 9.61157 12.0547V11.5547ZM10.1354 22.3388L9.70946 22.6007L10.1354 22.3388ZM9.22724 26.4996L9.05299 26.031C8.82617 26.1153 8.6923 26.35 8.73514 26.5882C8.77798 26.8263 8.98525 26.9996 9.22724 26.9996V26.4996ZM14.7146 26.4996V26.9996C14.9907 26.9996 15.2146 26.7758 15.2146 26.4996H14.7146ZM14.7146 23.8711H15.2146C15.2146 23.7094 15.1364 23.5577 15.0047 23.4639L14.7146 23.8711ZM11.4905 16.7515V16.2515C11.2378 16.2515 11.0248 16.44 10.9942 16.6908L11.4905 16.7515ZM11.5857 16.7515V17.2515C11.7658 17.2515 11.932 17.1545 12.0208 16.9978C12.1095 16.841 12.1071 16.6486 12.0144 16.4942L11.5857 16.7515ZM11.5804 16.7427L11.4836 16.2521C11.3238 16.2837 11.1895 16.391 11.1234 16.5398C11.0573 16.6887 11.0679 16.8603 11.1517 17L11.5804 16.7427ZM15.0564 12.7604L15.5301 12.6004C15.4608 12.3951 15.2671 12.2578 15.0504 12.2604C14.8338 12.263 14.6434 12.4049 14.579 12.6117L15.0564 12.7604ZM22.4701 16.7427L22.8153 17.1044C22.9632 16.9632 23.0103 16.7463 22.9342 16.5565C22.8581 16.3668 22.6741 16.2425 22.4697 16.2427L22.4701 16.7427ZM22.4609 16.7515L22.1157 16.3898C21.9678 16.5309 21.9207 16.7477 21.9967 16.9374C22.0727 17.1271 22.2565 17.2515 22.4609 17.2515V16.7515ZM22.6227 16.7515L23.119 16.6908C23.0883 16.44 22.8754 16.2515 22.6227 16.2515V16.7515ZM19.1986 24.0079L18.9244 23.5897C18.7835 23.6822 18.6986 23.8393 18.6986 24.0079H19.1986ZM19.1986 26.4996H18.6986C18.6986 26.7758 18.9224 26.9996 19.1986 26.9996V26.4996ZM24.9215 26.4996V26.9996C25.1551 26.9996 25.3575 26.8379 25.4091 26.6101C25.4607 26.3822 25.3477 26.149 25.1368 26.0484L24.9215 26.4996ZM24.0247 22.3388L23.5786 22.1128V22.1128L24.0247 22.3388ZM24.4973 11.5138L24.0531 11.7434C24.0571 11.7511 24.0612 11.7587 24.0656 11.7662L24.4973 11.5138ZM9.61366 11.0547H9.61157V12.0547H9.61366V11.0547ZM10.5614 22.077C9.06723 19.6464 8.66597 17.575 8.7639 15.8796C8.86219 14.1779 9.46581 12.8134 10.047 11.8042L9.18036 11.3052C8.55424 12.3925 7.87596 13.9105 7.76556 15.8219C7.6548 17.7395 8.11804 20.0119 9.70946 22.6007L10.5614 22.077ZM9.40149 26.9683C10.2883 26.6386 10.817 25.7789 11.0096 24.8836C11.2042 23.9791 11.0853 22.9292 10.5614 22.077L9.70946 22.6007C10.0814 23.2057 10.1797 23.9866 10.032 24.6733C9.88225 25.3694 9.509 25.8614 9.05299 26.031L9.40149 26.9683ZM14.7146 25.9996H9.22724V26.9996H14.7146V25.9996ZM14.2146 23.8711V26.4996H15.2146V23.8711H14.2146ZM10.9346 17.6835C10.9346 20.4098 12.5706 22.9574 14.4245 24.2783L15.0047 23.4639C13.3701 22.2991 11.9346 20.0357 11.9346 17.6835H10.9346ZM10.9942 16.6908C10.9548 17.0128 10.9346 17.344 10.9346 17.6835H11.9346C11.9346 17.3838 11.9524 17.0931 11.9868 16.8121L10.9942 16.6908ZM11.5857 16.2515H11.4905V17.2515H11.5857V16.2515ZM11.1517 17L11.157 17.0088L12.0144 16.4942L12.0091 16.4854L11.1517 17ZM14.579 12.6117C14.2016 13.8238 13.5675 14.7117 12.9476 15.3113C12.3122 15.9258 11.7287 16.2038 11.4836 16.2521L11.6772 17.2332C12.1795 17.1341 12.9293 16.7202 13.6428 16.0301C14.3718 15.325 15.102 14.2956 15.5338 12.9091L14.579 12.6117ZM22.4697 16.2427C20.516 16.2442 18.9766 15.9196 17.8331 15.3075C16.7029 14.7024 15.9372 13.8055 15.5301 12.6004L14.5827 12.9204C15.0724 14.3702 16.0104 15.466 17.3612 16.1891C18.6988 16.9052 20.4178 17.2443 22.4705 17.2427L22.4697 16.2427ZM22.8061 17.1131L22.8153 17.1044L22.1249 16.381L22.1157 16.3898L22.8061 17.1131ZM22.6227 16.2515H22.4609V17.2515H22.6227V16.2515ZM23.1786 17.6835C23.1786 17.344 23.1584 17.0128 23.119 16.6908L22.1264 16.8121C22.1607 17.0931 22.1786 17.3838 22.1786 17.6835H23.1786ZM19.4727 24.426C21.4178 23.1507 23.1786 20.5116 23.1786 17.6835H22.1786C22.1786 20.1272 20.6296 22.4717 18.9244 23.5897L19.4727 24.426ZM19.6986 26.4996V24.0079H18.6986V26.4996H19.6986ZM24.9215 25.9996H19.1986V26.9996H24.9215V25.9996ZM23.5786 22.1128C22.5383 24.166 23.362 26.3093 24.7061 26.9509L25.1368 26.0484C24.389 25.6914 23.637 24.2102 24.4707 22.5648L23.5786 22.1128ZM24.0656 11.7662C26.3988 15.757 24.764 19.7735 23.5786 22.1128L24.4707 22.5648C25.6691 20.1996 27.5465 15.7388 24.9289 11.2615L24.0656 11.7662ZM17.0649 8C20.2578 8 22.9349 9.58074 24.0531 11.7434L24.9414 11.2842C23.6213 8.73098 20.5611 7 17.0649 7V8ZM10.0575 11.7809C11.1641 9.59909 13.8533 8 17.0649 8V7C13.5487 7 10.473 8.75094 9.16564 11.3285L10.0575 11.7809Z" fill="black"/>
</svg>
