<svg width="20" height="20" viewBox="0 0 20 20" fill="none" xmlns="http://www.w3.org/2000/svg">
<path d="M12.8755 18.0006C13.2852 18.1289 13.6893 17.9882 15.1016 17.0107C17.2438 15.5284 18.0188 14.6724 18.5648 13.7943C18.9295 13.2086 19.088 12.7803 18.9523 12.3626C18.7709 11.8047 18.157 11.5566 17.9577 11.485C18.004 11.0049 18.0472 10.3186 18.0163 9.49541C17.9725 8.33215 17.9423 7.53914 17.6066 6.62828C16.9687 4.89663 15.6563 3.90677 14.6815 3.52662C14.194 3.33655 13.9004 3.34148 13.6869 3.468C13.155 3.78212 13.1225 3.55161 13.36 4.87163C13.3217 4.66119 13.1495 4.11968 12.7509 3.76051C12.0957 3.17178 10.9456 3.19832 10.352 3.81914C10.0349 4.15053 10.1836 4.89663 10.1626 5.0904C10.0892 5.03117 9.23838 4.20423 8.47947 4.40417C7.76747 4.5924 7.44229 5.55695 7.45157 6.40487C7.23191 5.93216 6.64081 4.99969 5.96397 4.34554C5.38892 3.79014 4.55538 2.98479 3.38989 3.00022C3.20789 3.00207 2.17566 3.01626 1.63456 3.76051C1.11569 4.47452 1.37481 5.41008 1.51735 5.92599C1.63267 6.34131 1.96339 7.30895 3.79899 9.02702C4.48074 9.66513 5.48768 10.5167 6.84135 11.3678C6.68342 11.2814 5.69435 10.7531 5.20326 11.1339C4.55727 11.6356 5.26861 13.3296 5.37909 13.5919C5.55495 14.0115 6.49583 16.0974 8.83054 16.7515C10.1355 17.1175 11.2596 16.8638 11.8143 16.6929C11.939 17.0681 12.2431 17.8019 12.8755 18.0006Z" fill="#DBFC3D"/>
<path d="M12.5503 18.3034C12.96 18.4318 13.3641 18.2904 14.7764 17.3135C16.9186 15.8312 17.6936 14.9753 18.2396 14.0971C18.6043 13.5114 18.7628 13.0832 18.6271 12.6654C18.4457 12.1075 17.8318 11.8594 17.6325 11.7878C17.6788 11.3077 17.722 10.6215 17.6911 9.79823C17.6473 8.63434 17.6171 7.84195 17.2814 6.93046C16.6435 5.19944 15.3311 4.20958 14.3563 3.82943C13.8688 3.63936 13.5752 3.6443 13.3617 3.7708C12.8298 4.08492 12.944 5.05441 12.952 5.11675C12.923 4.90446 12.8243 4.42188 12.4257 4.06332C11.7705 3.47459 10.6204 3.5005 10.0268 4.12194C9.70971 4.45334 9.63751 4.86434 9.61717 5.05811C9.54375 4.99888 8.91319 4.50703 8.15428 4.70697C7.44227 4.89521 6.91656 5.61477 6.92584 6.46268C6.70555 5.98998 6.31562 5.30249 5.63878 4.64835C5.06373 4.09232 4.23018 3.28699 3.0647 3.3024C2.88269 3.30487 1.85046 3.31845 1.30936 4.06332C0.790493 4.77733 1.04961 5.71227 1.19216 6.2288C1.30747 6.64413 1.6382 7.61177 3.4738 9.32983C4.15555 9.96794 5.16248 10.8196 6.51615 11.6706C6.35822 11.5842 5.36915 11.0553 4.87806 11.4367C4.23207 11.9384 4.94341 13.6324 5.05389 13.8947C5.22976 14.3143 6.17063 16.4002 8.50535 17.0543C9.81027 17.4197 10.9344 17.166 11.4891 16.9957C11.6138 17.3709 11.9179 18.1047 12.5503 18.3034Z" stroke="black" stroke-linecap="round" stroke-linejoin="round"/>
</svg>
