<svg width="48" height="48" viewBox="0 0 48 48" fill="none" xmlns="http://www.w3.org/2000/svg">
<circle cx="24" cy="24" r="23.5" fill="white" stroke="black"/>
<path d="M17.333 21.5C17.333 19.143 17.333 17.9645 18.0652 17.2322C18.7975 16.5 19.976 16.5 22.333 16.5H25.6663C28.0234 16.5 29.2019 16.5 29.9341 17.2322C30.6663 17.9645 30.6663 19.143 30.6663 21.5V27.1897C30.6663 29.4257 30.6663 30.5438 29.9628 30.8857C29.2592 31.2277 28.3801 30.537 26.6218 29.1555L26.0591 28.7133C25.0704 27.9365 24.5761 27.5482 23.9997 27.5482C23.4232 27.5482 22.9289 27.9365 21.9403 28.7133L21.3776 29.1555C19.6193 30.537 18.7402 31.2277 18.0366 30.8857C17.333 30.5438 17.333 29.4257 17.333 27.1897V21.5Z" fill="#FF2164" stroke="black"/>
</svg>
