<svg width="14" height="14" viewBox="0 0 14 14" fill="none" xmlns="http://www.w3.org/2000/svg">
<g clip-path="url(#clip0_3975_58499)">
<path d="M7.5133 11.9019L7.5117 11.9034C7.2245 12.1661 6.78249 12.166 6.49533 11.8994L6.49294 11.8972L6.42367 11.8338L6.42279 11.833C4.75927 10.3161 3.42661 9.09809 2.51349 7.95739C1.60775 6.82591 1.16596 5.83176 1.20118 4.76846C1.23377 3.84173 1.7062 2.95677 2.45799 2.44092L2.45826 2.44073C3.8773 1.46566 5.64879 1.90725 6.61765 3.05011L6.99905 3.49999L7.38044 3.05011C8.35034 1.90602 10.1213 1.46058 11.5388 2.44L11.5401 2.44092C12.292 2.95685 12.7645 3.842 12.7969 4.76889L12.7969 4.76928C12.835 5.83186 12.3938 6.82559 11.4869 7.95907C10.5746 9.09935 9.24383 10.3179 7.58457 11.8372L7.57628 11.8448L7.57453 11.8464L7.5133 11.9019Z" fill="#FF2164" stroke="currentColor"/>
</g>
<defs>
<clipPath id="clip0_3975_58499">
<rect width="14" height="14" fill="white"/>
</clipPath>
</defs>
</svg>
