<svg width="20" height="20" viewBox="0 0 20 20" fill="none" xmlns="http://www.w3.org/2000/svg">
<g clip-path="url(#clip0_2438_31495)">
<path d="M10.8784 17.1616L10.8768 17.163C10.3845 17.6135 9.62666 17.6133 9.13438 17.1564L9.13198 17.1542L9.03302 17.0635L9.03214 17.0627C6.66015 14.8999 4.74181 13.1474 3.42452 11.5017C2.11462 9.86536 1.45017 8.3959 1.50292 6.80491C1.5517 5.41578 2.25895 4.08745 3.39129 3.31048L3.39157 3.31029C5.52313 1.84562 8.17448 2.51569 9.61836 4.21887L9.99975 4.66875L10.3811 4.21887C11.8261 2.51446 14.4769 1.83781 16.6069 3.30956L16.6082 3.31048C17.7407 4.08753 18.4479 5.41604 18.4966 6.80533L18.4966 6.80572C18.5536 8.39599 17.8897 9.86505 16.5783 11.5041C15.2646 13.1461 13.3535 14.896 10.9934 17.057L10.9683 17.08L10.9666 17.0816L10.8784 17.1616Z" stroke="currentColor"/>
</g>
<defs>
<clipPath id="clip0_2438_31495">
<rect width="20" height="20" fill="white"/>
</clipPath>
</defs>
</svg>
