<svg width="25" height="24" viewBox="0 0 25 24" fill="none" xmlns="http://www.w3.org/2000/svg">
<path d="M17.5998 3C16.7777 3 10.6049 3 6.7988 3C5.14194 3 3.7998 4.34315 3.7998 6V18C3.7998 19.6569 5.14295 21 6.79981 21H18.7998C20.4567 21 21.7998 19.6569 21.7998 18V8.4" stroke="currentColor" stroke-linecap="round"/>
<path d="M8.04004 20.6704L14.9724 11.6788C15.7623 10.6542 17.3026 10.6379 18.114 11.6456L21.7999 16.2229" stroke="currentColor" stroke-linecap="round"/>
<path d="M3.90112 16.6812L6.75235 13.8299C7.33813 13.2442 8.28788 13.2442 8.87367 13.8299L11.368 16.3243" stroke="currentColor" stroke-linecap="round"/>
<path d="M21.9998 4.59998C21.9998 5.15226 21.552 5.59998 20.9998 5.59998C20.4475 5.59998 19.9998 5.15226 19.9998 4.59998C19.9998 4.04769 20.4475 3.59998 20.9998 3.59998C21.552 3.59998 21.9998 4.04769 21.9998 4.59998Z" fill="#FF2164"/>
<circle cx="10.3997" cy="8.39995" r="1.2" fill="currentColor"/>
</svg>
