<svg xmlns="http://www.w3.org/2000/svg" width="20" height="20" viewBox="0 0 20 20" fill="none">
  <path d="M14 2.5C13.3498 2.5 8.68352 2.5 5.49845 2.5C3.8416 2.5 2.5 3.84315 2.5 5.5V14.5C2.5 16.1569 3.84315 17.5 5.5 17.5H14.5C16.1569 17.5 17.5 16.1569 17.5 14.5V7" stroke="black" stroke-linecap="round"/>
  <path d="M6.03345 17.2252L11.5521 10.0672C12.3421 9.04261 13.8823 9.02633 14.6938 10.034L17.5 13.519" stroke="black" stroke-linecap="round"/>
  <path d="M2.58447 13.901L4.78371 11.7018C5.3695 11.116 6.31925 11.116 6.90503 11.7018L8.80688 13.6036" stroke="black" stroke-linecap="round"/>
  <path d="M17.6667 3.83333C17.6667 4.29357 17.2936 4.66667 16.8333 4.66667C16.3731 4.66667 16 4.29357 16 3.83333C16 3.3731 16.3731 3 16.8333 3C17.2936 3 17.6667 3.3731 17.6667 3.83333Z" fill="#FF2164"/>
  <circle cx="8" cy="7" r="1" fill="black"/>
</svg>