<svg width="24" height="24" viewBox="0 0 24 24" fill="none" xmlns="http://www.w3.org/2000/svg">
<path d="M16.8 3C15.9779 3 9.80514 3 5.99899 3C4.34214 3 3 4.34315 3 6V18C3 19.6569 4.34315 21 6 21H18C19.6569 21 21 19.6569 21 18V8.4" stroke="currentColor" stroke-linecap="round"/>
<path d="M7.24023 20.6704L14.1726 11.6788C14.9625 10.6542 16.5028 10.6379 17.3142 11.6456L21.0001 16.2229" stroke="currentColor" stroke-linecap="round"/>
<path d="M3.10132 16.6812L5.95254 13.83C6.53833 13.2442 7.48807 13.2442 8.07386 13.83L10.5682 16.3243" stroke="currentColor" stroke-linecap="round"/>
<path d="M21.2 4.60001C21.2 5.15229 20.7522 5.60001 20.2 5.60001C19.6477 5.60001 19.2 5.15229 19.2 4.60001C19.2 4.04772 19.6477 3.60001 20.2 3.60001C20.7522 3.60001 21.2 4.04772 21.2 4.60001Z" fill="#FF2164"/>
<circle cx="9.5999" cy="8.40001" r="1.2" fill="currentColor"/>
</svg>
