<svg width="20" height="20" viewBox="0 0 20 20" fill="none" xmlns="http://www.w3.org/2000/svg">
<path d="M12.6516 4.83167H7.84228C5.63315 4.83167 3.84229 6.62252 3.84229 8.83166V15.0422C3.84229 17.2513 5.63314 19.0422 7.84228 19.0422H12.1581C14.3672 19.0422 16.1581 17.2513 16.1581 15.0422V8.73521" stroke="currentColor" stroke-linecap="round" stroke-linejoin="round"/>
<path d="M6.68439 10.5159H5.73702C4.69059 10.5159 3.84229 9.66757 3.84229 8.62114V8.62114C3.84229 6.52827 5.53889 4.83167 7.63176 4.83167H12.6516M13.316 10.5159H14.3437C15.3458 10.5159 16.1581 9.70355 16.1581 8.7015V8.7015M8.57913 10.5159H11.4212" stroke="currentColor" stroke-linecap="round" stroke-linejoin="round"/>
<path d="M8.57882 11.4632V9.56846C8.57882 9.04525 8.15467 8.62109 7.63145 8.62109C7.10823 8.62109 6.68408 9.04525 6.68408 9.56846V11.4632C6.68408 11.9864 7.10823 12.4106 7.63145 12.4106C8.15467 12.4106 8.57882 11.9864 8.57882 11.4632Z" stroke="white" stroke-linecap="round" stroke-linejoin="round"/>
<path d="M13.3156 11.4632V9.56846C13.3156 9.04525 12.8915 8.62109 12.3683 8.62109C11.845 8.62109 11.4209 9.04525 11.4209 9.56846V11.4632C11.4209 11.9864 11.845 12.4106 12.3683 12.4106C12.8915 12.4106 13.3156 11.9864 13.3156 11.4632Z" stroke="white" stroke-linecap="round" stroke-linejoin="round"/>
<path d="M16.1581 12.4105H17.0002C18.1048 12.4105 19.0002 13.306 19.0002 14.4105V15.1474C19.0002 16.2519 18.1048 17.1474 17.0002 17.1474H15.7886" stroke="currentColor" stroke-linecap="round" stroke-linejoin="round"/>
<path d="M3.84223 12.4105H3.00012C1.89555 12.4105 1.00012 13.306 1.00012 14.4105V15.1474C1.00012 16.2519 1.89555 17.1474 3.00012 17.1474H4.22998" stroke="currentColor" stroke-linecap="round" stroke-linejoin="round"/>
<path d="M7.63135 4.83167V3.98956C7.63135 2.88499 8.52678 1.98956 9.63135 1.98956H10.3682C11.4728 1.98956 12.3682 2.88499 12.3682 3.98956V4.83167" stroke="currentColor" stroke-linecap="round" stroke-linejoin="round"/>
<path d="M15.8332 6.33333C15.8332 6.79357 15.4601 7.16667 14.9998 7.16667C14.5396 7.16667 14.1665 6.79357 14.1665 6.33333C14.1665 5.8731 14.5396 5.5 14.9998 5.5C15.4601 5.5 15.8332 5.8731 15.8332 6.33333Z" fill="#FF2164"/>
</svg>
