<svg width="20" height="20" viewBox="0 0 20 20" fill="none" xmlns="http://www.w3.org/2000/svg">
<path d="M12.7779 1.66669H6.02971C4.98177 1.66669 4.45781 1.66669 4.01562 1.90334C3.57344 2.13999 3.28279 2.57595 2.70151 3.44788L2.33855 3.99232C2.0051 4.49249 1.83838 4.74257 1.75256 5.026C1.66675 5.30943 1.66675 5.61 1.66675 6.21112V14.3334C1.66675 16.219 1.66675 17.1618 2.25253 17.7476C2.83832 18.3334 3.78113 18.3334 5.66675 18.3334H14.3334C16.219 18.3334 17.1618 18.3334 17.7476 17.7476C18.3334 17.1618 18.3334 16.219 18.3334 14.3334V6.21112C18.3334 5.61 18.3334 5.30943 18.2476 5.026C18.1618 4.74257 17.9951 4.49249 17.6616 3.99232L17.6544 3.9815" stroke="currentColor" stroke-linecap="round"/>
<path d="M1.66675 7.5L18.3334 7.5" stroke="currentColor" stroke-linecap="round"/>
<path d="M7.5 12.5C7.5 12.0398 7.8731 11.6667 8.33333 11.6667H12.5V13.3334H8.33333C7.8731 13.3334 7.5 12.9603 7.5 12.5Z" fill="currentColor"/>
<path d="M16.475 2.27193C16.475 2.73217 16.1019 3.10527 15.6417 3.10527C15.1814 3.10527 14.8083 2.73217 14.8083 2.27193C14.8083 1.81169 15.1814 1.4386 15.6417 1.4386C16.1019 1.4386 16.475 1.81169 16.475 2.27193Z" fill="#FF2164"/>
</svg>
