<svg xmlns="http://www.w3.org/2000/svg" width="22" height="22" viewBox="0 0 22 22" fill="none">
  <path d="M14.1999 1.40002H6.10064C5.05271 1.40002 4.52874 1.40002 4.08655 1.63668C3.64437 1.87333 3.35372 2.30929 2.77244 3.18122L2.0717 4.23233C1.73826 4.73249 1.57153 4.98258 1.48572 5.26601C1.3999 5.54944 1.3999 5.85 1.3999 6.45113V16.6C1.3999 18.4856 1.3999 19.4285 1.98569 20.0142C2.57148 20.6 3.51428 20.6 5.3999 20.6H16.5999C18.4855 20.6 19.4283 20.6 20.0141 20.0142C20.5999 19.4285 20.5999 18.4856 20.5999 16.6V6.45113C20.5999 5.85 20.5999 5.54944 20.5141 5.26601C20.4283 4.98258 20.2615 4.73249 19.9281 4.23233L19.8177 4.06669" stroke="black" stroke-linecap="round"/>
  <path d="M1.3999 8.59998L20.5999 8.59998" stroke="black" stroke-linecap="round"/>
  <path d="M8 14.402C8 13.8486 8.44861 13.4 9.002 13.4H14V15.404H9.002C8.44861 15.404 8 14.9554 8 14.402Z" fill="black"/>
  <path d="M18.5999 2.20002C18.5999 2.75231 18.1521 3.20002 17.5999 3.20002C17.0476 3.20002 16.5999 2.75231 16.5999 2.20002C16.5999 1.64774 17.0476 1.20002 17.5999 1.20002C18.1521 1.20002 18.5999 1.64774 18.5999 2.20002Z" fill="#FF2164"/>
</svg>