<svg width="20" height="20" viewBox="0 0 20 20" fill="none" xmlns="http://www.w3.org/2000/svg">
<ellipse cx="3.33333" cy="16.6666" rx="3.33333" ry="3.33333" fill="#FF2164"/>
<path d="M12.6667 2H6.27407C5.22614 2 4.70217 2 4.25999 2.23665C3.8178 2.4733 3.52716 2.90927 2.94587 3.7812L2.6718 4.1923C2.33835 4.69247 2.17163 4.94255 2.08582 5.22598C2 5.50941 2 5.80998 2 6.4111V14C2 15.8856 2 16.8284 2.58579 17.4142C3.17157 18 4.11438 18 6 18H14C15.8856 18 16.8284 18 17.4142 17.4142C18 16.8284 18 15.8856 18 14V6.37514C18 5.80987 18 5.52723 17.924 5.25949C17.9177 5.23709 17.9109 5.21481 17.9038 5.19265C17.8185 4.92773 17.6617 4.69256 17.3481 4.22222V4.22222" stroke="black" stroke-linecap="round"/>
<path d="M2 8L18 8" stroke="black" stroke-linecap="round"/>
<path d="M7.5 12.835C7.5 12.3738 7.87384 12 8.335 12H12.5V13.67H8.335C7.87384 13.67 7.5 13.2962 7.5 12.835Z" fill="black"/>
<path d="M16.3337 2.66666C16.3337 3.1269 15.9606 3.49999 15.5003 3.49999C15.0401 3.49999 14.667 3.1269 14.667 2.66666C14.667 2.20642 15.0401 1.83333 15.5003 1.83333C15.9606 1.83333 16.3337 2.20642 16.3337 2.66666Z" fill="#FF2164"/>
</svg>
