<svg width="24" height="24" viewBox="0 0 24 24" fill="none" xmlns="http://www.w3.org/2000/svg">
<g filter="url(#filter0_d_3830_70951)">
<circle cx="11.2026" cy="11.3137" r="8.81373" fill="#63FFF6" stroke="black"/>
</g>
<path d="M21.75 19.75C21.75 20.4404 21.1904 21 20.5 21C19.8096 21 19.25 20.4404 19.25 19.75C19.25 19.0596 19.8096 18.5 20.5 18.5C21.1904 18.5 21.75 19.0596 21.75 19.75Z" fill="black"/>
<circle cx="22.6389" cy="21.6389" r="0.75" fill="black"/>
<rect x="6" y="7.80005" width="1.6" height="3" rx="0.8" fill="black"/>
<path d="M9.19995 8.60005C9.19995 8.15822 9.55812 7.80005 9.99995 7.80005C10.4418 7.80005 10.8 8.15822 10.8 8.60005V10C10.8 10.4419 10.4418 10.8 9.99995 10.8C9.55812 10.8 9.19995 10.4419 9.19995 10V8.60005Z" fill="black"/>
<defs>
<filter id="filter0_d_3830_70951" x="1.88892" y="2" width="19.1274" height="19.1274" filterUnits="userSpaceOnUse" color-interpolation-filters="sRGB">
<feFlood flood-opacity="0" result="BackgroundImageFix"/>
<feColorMatrix in="SourceAlpha" type="matrix" values="0 0 0 0 0 0 0 0 0 0 0 0 0 0 0 0 0 0 127 0" result="hardAlpha"/>
<feOffset dx="0.5" dy="0.5"/>
<feComposite in2="hardAlpha" operator="out"/>
<feColorMatrix type="matrix" values="0 0 0 0 0 0 0 0 0 0 0 0 0 0 0 0 0 0 1 0"/>
<feBlend mode="normal" in2="BackgroundImageFix" result="effect1_dropShadow_3830_70951"/>
<feBlend mode="normal" in="SourceGraphic" in2="effect1_dropShadow_3830_70951" result="shape"/>
</filter>
</defs>
</svg>
