<svg width="24" height="24" viewBox="0 0 24 24" fill="none" xmlns="http://www.w3.org/2000/svg">
<path d="M17.8235 12.6471L19.7647 10.7059C21.5515 8.91908 21.5515 6.0221 19.7647 4.23529V4.23529C17.9779 2.44849 15.0809 2.44849 13.2941 4.23529L10.7059 6.82353M6.82353 10.7059L4.23529 13.2941C2.44849 15.0809 2.44849 17.9779 4.23529 19.7647V19.7647C6.0221 21.5515 8.91908 21.5515 10.7059 19.7647L12.6471 17.8235" stroke="black" stroke-linecap="round"/>
<path d="M14.0012 11.413L14.7083 10.7059L13.2941 9.29165L12.587 9.99876L14.0012 11.413ZM9.35173 13.2341C8.96121 13.6246 8.96121 14.2577 9.35173 14.6483C9.74226 15.0388 10.3754 15.0388 10.7659 14.6483L9.35173 13.2341ZM12.587 9.99876L9.35173 13.2341L10.7659 14.6483L14.0012 11.413L12.587 9.99876Z" fill="black"/>
<path d="M16.2891 15.4445C16.2891 15.9968 15.8414 16.4445 15.2891 16.4445C14.7368 16.4445 14.2891 15.9968 14.2891 15.4445C14.2891 14.8923 14.7368 14.4445 15.2891 14.4445C15.8414 14.4445 16.2891 14.8923 16.2891 15.4445Z" fill="#FF2164"/>
</svg>
