<svg width="20" height="20" viewBox="0 0 20 20" fill="none" xmlns="http://www.w3.org/2000/svg">
<path d="M13 17.0837H9.25C6.90442 17.0837 5.73164 17.0837 4.92372 16.4637C4.71572 16.3041 4.52954 16.1179 4.36994 15.9099C3.75 15.102 3.75 13.9292 3.75 11.5837V11.5837C3.75 10.0199 3.75 9.23808 4.16329 8.69947C4.26969 8.5608 4.39381 8.43669 4.53248 8.33029C5.07109 7.91699 5.85295 7.91699 7.41667 7.91699H12.25C14.1356 7.91699 15.0784 7.91699 15.6642 8.50278C16.25 9.08857 16.25 10.0314 16.25 11.917V14.0004" stroke="black" stroke-linecap="round"/>
<path d="M9.17092 11.6497C9.17092 11.1895 9.54401 10.8164 10.0043 10.8164C10.4645 10.8164 10.8376 11.1895 10.8376 11.6497V14.1497H9.17092V11.6497Z" fill="black"/>
<path d="M13.75 7.91699V6.66699C13.75 4.59592 12.0711 2.91699 10 2.91699V2.91699C7.92893 2.91699 6.25 4.59592 6.25 6.66699V7.91699" stroke="black" stroke-linecap="round"/>
<path d="M16.57 16.5351C16.57 16.9963 16.1962 17.3701 15.735 17.3701C15.2738 17.3701 14.9 16.9963 14.9 16.5351C14.9 16.074 15.2738 15.7001 15.735 15.7001C16.1962 15.7001 16.57 16.074 16.57 16.5351Z" fill="#FF2164"/>
</svg>
