<svg width="14" height="14" viewBox="0 0 14 14" fill="none" xmlns="http://www.w3.org/2000/svg">
<path d="M2 8.26683C2 7.39749 2 6.96282 2.13284 6.61676C2.33597 6.08759 2.75409 5.66946 3.28326 5.46634C3.62932 5.3335 4.06399 5.3335 4.93333 5.3335H9.06667C9.93601 5.3335 10.3707 5.3335 10.7167 5.46634C11.2459 5.66946 11.664 6.08759 11.8672 6.61676C12 6.96282 12 7.39749 12 8.26683V8.26683C12 9.57084 12 10.2228 11.8007 10.7419C11.496 11.5357 10.8689 12.1629 10.0751 12.4676C9.55602 12.6668 8.90401 12.6668 7.6 12.6668H6.4C5.09599 12.6668 4.44398 12.6668 3.9249 12.4676C3.13114 12.1629 2.50395 11.5357 2.19926 10.7419C2 10.2228 2 9.57084 2 8.26683V8.26683Z" stroke="currentColor"/>
<path d="M10 5.3335V4.3335C10 2.67664 8.65685 1.3335 7 1.3335V1.3335C5.34315 1.3335 4 2.67664 4 4.3335V5.3335" stroke="currentColor" stroke-linecap="round"/>
<circle cx="7" cy="9" r="1" fill="currentColor"/>
</svg>
