<svg width="20" height="20" viewBox="0 0 20 20" fill="none" xmlns="http://www.w3.org/2000/svg">
<path d="M17.5 8.12568V7.10004C17.5 5.21442 17.5 4.27161 16.9142 3.68582C16.3284 3.10004 15.3856 3.10004 13.5 3.10004H7.5C5.61438 3.10004 4.67157 3.10004 4.08579 3.68582C3.5 4.27161 3.5 5.21442 3.5 7.10003V14.177C3.5 16.0626 3.5 17.0054 4.08579 17.5912C4.67157 18.177 5.61438 18.177 7.5 18.177H13.5C15.3856 18.177 16.3284 18.177 16.9142 17.5912C17.5 17.0054 17.5 16.0557 17.5 14.1564V14.1564" stroke="black" stroke-linecap="round"/>
<path d="M8.02307 1.59235C8.02307 1.31479 8.24808 1.08978 8.52564 1.08978C8.80319 1.08978 9.0282 1.31479 9.0282 1.59235V4.60773C9.0282 4.88529 8.80319 5.1103 8.52564 5.1103C8.24808 5.1103 8.02307 4.88529 8.02307 4.60773V1.59235Z" fill="black"/>
<path d="M12.0436 1.59235C12.0436 1.31479 12.2686 1.08978 12.5461 1.08978C12.8237 1.08978 13.0487 1.31479 13.0487 1.59235V4.60773C13.0487 4.88529 12.8237 5.1103 12.5461 5.1103C12.2686 5.1103 12.0436 4.88529 12.0436 4.60773V1.59235Z" fill="black"/>
<path d="M7.52051 8.12567H13.5513" stroke="black" stroke-linecap="round"/>
<path d="M7.52051 11.1411H13.5513" stroke="black" stroke-linecap="round"/>
<path d="M7.52051 14.1565H11.541" stroke="black" stroke-linecap="round"/>
<path d="M18.335 10.935C18.335 11.3962 17.9612 11.77 17.5 11.77C17.0389 11.77 16.665 11.3962 16.665 10.935C16.665 10.4739 17.0389 10.1 17.5 10.1C17.9612 10.1 18.335 10.4739 18.335 10.935Z" fill="#FF2164"/>
</svg>
