<svg width="20" height="20" viewBox="0 0 20 20" fill="none" xmlns="http://www.w3.org/2000/svg">
<path d="M17.5579 5.8046C17.6667 6.60169 17.6667 7.64035 17.6667 9.08335C17.6667 11.6582 17.6667 12.9456 17.0487 13.8704C16.7812 14.2708 16.4375 14.6146 16.0371 14.8821C15.2292 15.4219 14.1446 15.4901 12.1667 15.4988V15.5L11.2278 17.3778C10.8592 18.1149 9.80743 18.1149 9.43891 17.3778L8.5 15.5V15.4988C6.52211 15.4901 5.43748 15.4219 4.62958 14.8821C4.22921 14.6146 3.88546 14.2708 3.61794 13.8704C3 12.9456 3 11.6582 3 9.08335C3 6.50851 3 5.22108 3.61794 4.29626C3.88546 3.8959 4.22921 3.55215 4.62958 3.28463C5.5544 2.66669 6.84182 2.66669 9.41667 2.66669H11.25C12.4338 2.66669 13.3455 2.66669 14.0749 2.72674" stroke="currentColor" stroke-linecap="round" stroke-linejoin="round"/>
<path d="M17.3334 3.51662C17.3334 3.97686 16.9603 4.34996 16.5001 4.34996C16.0398 4.34996 15.6667 3.97686 15.6667 3.51662C15.6667 3.05638 16.0398 2.68329 16.5001 2.68329C16.9603 2.68329 17.3334 3.05638 17.3334 3.51662Z" fill="#FF2164"/>
<circle cx="13.9999" cy="9.08335" r="0.916667" fill="currentColor"/>
<circle cx="10.3334" cy="9.08335" r="0.916667" fill="currentColor"/>
<circle cx="6.66667" cy="9.08335" r="0.916667" fill="currentColor"/>
</svg>
