<svg width="11" height="11" viewBox="0 0 11 11" fill="none" xmlns="http://www.w3.org/2000/svg">
<circle cx="5.5" cy="5.5" r="5" fill="#FFD233" stroke="#FEB643"/>
<path d="M8.77786 4.43958H8.073L8.37203 3.2998H7.41087L7.1332 4.43958H6.27883L5.95844 3.2998H5.01864L4.69825 4.43958H3.84388L3.56621 3.2998H2.58368L2.88271 4.43958H2.19922V5.24846H3.09631L3.73708 7.69346H4.67689L5.33902 5.24846H5.63805L6.27883 7.69346H7.21864L7.88077 5.24846H8.79922V4.43958H8.77786ZM4.27106 5.92865C4.27106 5.94703 4.27106 5.96541 4.2497 5.9838C4.2497 6.00218 4.2497 6.02057 4.2497 6.02057C4.2497 6.03895 4.2497 6.05733 4.22834 6.05733C4.22834 6.07572 4.22834 6.07572 4.22834 6.0941C4.22834 6.07572 4.22834 6.07572 4.22834 6.05733C4.22834 6.03895 4.22834 6.03895 4.22834 6.02057C4.22834 6.00218 4.22834 6.00218 4.22834 5.9838C4.22834 5.96541 4.22834 5.96541 4.22834 5.94703L4.05747 5.23007H4.48466L4.27106 5.92865ZM6.74873 6.02057L6.72737 6.07572L6.70602 6.02057L6.49242 5.26684H6.91961L6.74873 6.02057Z" fill="white"/>
</svg>
