<svg width="24" height="24" viewBox="0 0 24 24" fill="none" xmlns="http://www.w3.org/2000/svg">
<path d="M16.95 3H6C4.34315 3 3 4.34315 3 6V18C3 19.6569 4.34315 21 6 21H18C19.6569 21 21 19.6563 21 17.9995C21 14.3026 21 11.0797 21 7.05" stroke="black" stroke-linecap="round"/>
<path d="M21 4C21 4.55228 20.5523 5 20 5C19.4477 5 19 4.55228 19 4C19 3.44772 19.4477 3 20 3C20.5523 3 21 3.44772 21 4Z" fill="#FF2164"/>
<path d="M9 9C9 8.44772 9.44772 8 10 8V8C10.5523 8 11 8.44772 11 9V12H9V9Z" fill="black"/>
<path d="M13 9C13 8.44772 13.4477 8 14 8V8C14.5523 8 15 8.44772 15 9V12H13V9Z" fill="black"/>
</svg>
