<svg width="34" height="34" viewBox="0 0 34 34" fill="none" xmlns="http://www.w3.org/2000/svg">
<path d="M8.92269 19.6104C6.73025 20.5335 5.46094 21.9182 5.46094 23.3029C5.46094 26.1877 10.6536 28.4955 17.0001 28.4955C23.3467 28.4955 28.5393 26.1877 28.5393 23.3029C28.5393 21.8028 27.27 20.5335 25.0775 19.6104" stroke="currentColor" stroke-linecap="round" stroke-linejoin="round"/>
<path d="M24.1542 21.1109C24.1542 21.8032 23.5772 22.3802 22.8849 22.3802H18.1538C17.4615 22.3802 16.4229 22.3802 15.7306 22.3802H10.9995C10.3072 22.3802 9.73022 21.8032 9.73022 21.1109V18.8031C9.73022 18.1107 9.73022 17.0722 9.73022 16.3798V11.5334C9.73022 10.841 10.1918 10.0333 10.7688 9.57171L15.9614 5.76378C16.5383 5.41761 17.3461 5.41761 17.923 5.76378L23.1157 9.57171C23.6926 9.91789 24.1542 10.841 24.1542 11.5334V16.2644C24.1542 16.9568 24.1542 17.9953 24.1542 18.6877V21.1109V21.1109Z" stroke="currentColor" stroke-linecap="round" stroke-linejoin="round"/>
<path d="M19.3078 18.341C19.3078 17.0717 18.2693 16.0332 17 16.0332C15.7307 16.0332 14.6921 17.0717 14.6921 18.341V22.2644H19.3078V18.341Z" fill="currentColor"/>
</svg>
