<svg width="20" height="20" viewBox="0 0 20 20" fill="none" xmlns="http://www.w3.org/2000/svg">
<path d="M12 2.95001L10.8944 2.39723C10.3314 2.1157 9.66863 2.1157 9.10558 2.39723L6 3.95001L2.97101 5.76741C2.3686 6.12885 2 6.77987 2 7.48239V13.1675C2 13.8969 2.39706 14.5684 3.03616 14.9199L9.03617 18.2199C9.63633 18.55 10.3637 18.55 10.9638 18.2199L16.9638 14.9199C17.6029 14.5684 18 13.8969 18 13.1675V7.48239C18 6.77987 17.6314 6.12885 17.029 5.76741L16.1579 5.24472" stroke="currentColor" stroke-linecap="round"/>
<path d="M17.2 14.3501L10.8123 11.5111C10.2952 11.2813 9.70491 11.2813 9.18778 11.5111L2.80005 14.3501" stroke="currentColor" stroke-linecap="round"/>
<path d="M10.9883 4.74634C10.9863 4.19406 10.537 3.74796 9.98468 3.74995C9.4324 3.75193 8.9863 4.20126 8.98829 4.75354L10.9883 4.74634ZM8.99981 7.95354L9.00341 8.95353L11.0034 8.94633L10.9998 7.94634L8.99981 7.95354ZM8.98829 4.75354C8.9883 4.75609 8.98831 4.75864 8.98832 4.76119C8.98832 4.76373 8.98833 4.76628 8.98834 4.76882C8.98835 4.77136 8.98836 4.7739 8.98837 4.77643C8.98838 4.77897 8.98839 4.7815 8.9884 4.78403C8.98841 4.78656 8.98842 4.78909 8.98842 4.79161C8.98843 4.79414 8.98844 4.79666 8.98845 4.79918C8.98846 4.8017 8.98847 4.80421 8.98848 4.80673C8.98849 4.80924 8.9885 4.81175 8.98851 4.81426C8.98852 4.81677 8.98852 4.81927 8.98853 4.82178C8.98854 4.82428 8.98855 4.82678 8.98856 4.82928C8.98857 4.83178 8.98858 4.83427 8.98859 4.83676C8.9886 4.83926 8.98861 4.84175 8.98861 4.84423C8.98862 4.84672 8.98863 4.84921 8.98864 4.85169C8.98865 4.85417 8.98866 4.85665 8.98867 4.85913C8.98868 4.8616 8.98869 4.86408 8.98869 4.86655C8.9887 4.86902 8.98871 4.87149 8.98872 4.87396C8.98873 4.87643 8.98874 4.87889 8.98875 4.88135C8.98876 4.88381 8.98877 4.88627 8.98877 4.88873C8.98878 4.89118 8.98879 4.89364 8.9888 4.89609C8.98881 4.89854 8.98882 4.90099 8.98883 4.90344C8.98884 4.90588 8.98885 4.90833 8.98885 4.91077C8.98886 4.91321 8.98887 4.91565 8.98888 4.91808C8.98889 4.92052 8.9889 4.92295 8.98891 4.92538C8.98892 4.92781 8.98892 4.93024 8.98893 4.93267C8.98894 4.9351 8.98895 4.93752 8.98896 4.93994C8.98897 4.94236 8.98898 4.94478 8.98899 4.9472C8.98899 4.94961 8.989 4.95203 8.98901 4.95444C8.98902 4.95685 8.98903 4.95926 8.98904 4.96166C8.98905 4.96407 8.98905 4.96648 8.98906 4.96888C8.98907 4.97128 8.98908 4.97368 8.98909 4.97607C8.9891 4.97847 8.98911 4.98087 8.98911 4.98326C8.98912 4.98565 8.98913 4.98804 8.98914 4.99043C8.98915 4.99281 8.98916 4.9952 8.98917 4.99758C8.98918 4.99996 8.98918 5.00234 8.98919 5.00472C8.9892 5.0071 8.98921 5.00947 8.98922 5.01184C8.98923 5.01422 8.98923 5.01659 8.98924 5.01896C8.98925 5.02132 8.98926 5.02369 8.98927 5.02605C8.98928 5.02842 8.98929 5.03078 8.98929 5.03314C8.9893 5.03549 8.98931 5.03785 8.98932 5.0402C8.98933 5.04256 8.98934 5.04491 8.98935 5.04726C8.98935 5.04961 8.98936 5.05196 8.98937 5.0543C8.98938 5.05664 8.98939 5.05899 8.9894 5.06133C8.9894 5.06367 8.98941 5.06601 8.98942 5.06834C8.98943 5.07068 8.98944 5.07301 8.98945 5.07534C8.98945 5.07767 8.98946 5.08 8.98947 5.08233C8.98948 5.08465 8.98949 5.08698 8.9895 5.0893C8.98951 5.09162 8.98951 5.09394 8.98952 5.09626C8.98953 5.09858 8.98954 5.10089 8.98955 5.1032C8.98956 5.10552 8.98956 5.10783 8.98957 5.11014C8.98958 5.11244 8.98959 5.11475 8.9896 5.11705C8.98961 5.11936 8.98961 5.12166 8.98962 5.12396C8.98963 5.12626 8.98964 5.12856 8.98965 5.13085C8.98965 5.13315 8.98966 5.13544 8.98967 5.13773C8.98968 5.14002 8.98969 5.14231 8.9897 5.1446C8.9897 5.14688 8.98971 5.14917 8.98972 5.15145C8.98973 5.15373 8.98974 5.15601 8.98975 5.15829C8.98975 5.16057 8.98976 5.16285 8.98977 5.16512C8.98978 5.16739 8.98979 5.16966 8.98979 5.17193C8.9898 5.1742 8.98981 5.17647 8.98982 5.17874C8.98983 5.181 8.98984 5.18326 8.98984 5.18553C8.98985 5.18779 8.98986 5.19005 8.98987 5.1923C8.98988 5.19456 8.98988 5.19681 8.98989 5.19907C8.9899 5.20132 8.98991 5.20357 8.98992 5.20582C8.98992 5.20807 8.98993 5.21031 8.98994 5.21256C8.98995 5.2148 8.98996 5.21704 8.98996 5.21928C8.98997 5.22152 8.98998 5.22376 8.98999 5.226C8.99 5.22823 8.99001 5.23047 8.99001 5.2327C8.99002 5.23493 8.99003 5.23716 8.99004 5.23939C8.99005 5.24162 8.99005 5.24384 8.99006 5.24607C8.99007 5.24829 8.99008 5.25052 8.99009 5.25274C8.99009 5.25496 8.9901 5.25717 8.99011 5.25939C8.99012 5.26161 8.99013 5.26382 8.99013 5.26603C8.99014 5.26824 8.99015 5.27045 8.99016 5.27266C8.99017 5.27487 8.99017 5.27708 8.99018 5.27928C8.99019 5.28148 8.9902 5.28369 8.9902 5.28589C8.99021 5.28809 8.99022 5.29029 8.99023 5.29248C8.99024 5.29468 8.99024 5.29687 8.99025 5.29907C8.99026 5.30126 8.99027 5.30345 8.99028 5.30564C8.99028 5.30783 8.99029 5.31001 8.9903 5.3122C8.99031 5.31438 8.99032 5.31657 8.99032 5.31875C8.99033 5.32093 8.99034 5.32311 8.99035 5.32529C8.99035 5.32746 8.99036 5.32964 8.99037 5.33181C8.99038 5.33399 8.99039 5.33616 8.99039 5.33833C8.9904 5.3405 8.99041 5.34267 8.99042 5.34483C8.99042 5.347 8.99043 5.34916 8.99044 5.35133C8.99045 5.35349 8.99046 5.35565 8.99046 5.35781C8.99047 5.35997 8.99048 5.36212 8.99049 5.36428C8.99049 5.36644 8.9905 5.36859 8.99051 5.37074C8.99052 5.37289 8.99053 5.37504 8.99053 5.37719C8.99054 5.37934 8.99055 5.38149 8.99056 5.38363C8.99056 5.38577 8.99057 5.38792 8.99058 5.39006C8.99059 5.3922 8.9906 5.39434 8.9906 5.39648C8.99061 5.39861 8.99062 5.40075 8.99063 5.40288C8.99063 5.40502 8.99064 5.40715 8.99065 5.40928C8.99066 5.41141 8.99066 5.41354 8.99067 5.41567C8.99068 5.41779 8.99069 5.41992 8.9907 5.42204C8.9907 5.42417 8.99071 5.42629 8.99072 5.42841C8.99073 5.43053 8.99073 5.43265 8.99074 5.43476C8.99075 5.43688 8.99076 5.43899 8.99076 5.44111C8.99077 5.44322 8.99078 5.44533 8.99079 5.44744C8.99079 5.44955 8.9908 5.45166 8.99081 5.45377C8.99082 5.45587 8.99082 5.45798 8.99083 5.46008C8.99084 5.46219 8.99085 5.46429 8.99085 5.46639C8.99086 5.46849 8.99087 5.47059 8.99088 5.47268C8.99088 5.47478 8.99089 5.47688 8.9909 5.47897C8.99091 5.48106 8.99092 5.48316 8.99092 5.48525C8.99093 5.48734 8.99094 5.48942 8.99095 5.49151C8.99095 5.4936 8.99096 5.49568 8.99097 5.49777C8.99098 5.49985 8.99098 5.50193 8.99099 5.50402C8.991 5.5061 8.99101 5.50818 8.99101 5.51025C8.99102 5.51233 8.99103 5.51441 8.99104 5.51648C8.99104 5.51856 8.99105 5.52063 8.99106 5.5227C8.99106 5.52477 8.99107 5.52684 8.99108 5.52891C8.99109 5.53098 8.99109 5.53305 8.9911 5.53511C8.99111 5.53718 8.99112 5.53924 8.99112 5.5413C8.99113 5.54336 8.99114 5.54543 8.99115 5.54748C8.99115 5.54954 8.99116 5.5516 8.99117 5.55366C8.99118 5.55571 8.99118 5.55777 8.99119 5.55982C8.9912 5.56188 8.99121 5.56393 8.99121 5.56598C8.99122 5.56803 8.99123 5.57008 8.99124 5.57212C8.99124 5.57417 8.99125 5.57622 8.99126 5.57826C8.99126 5.58031 8.99127 5.58235 8.99128 5.58439C8.99129 5.58643 8.99129 5.58847 8.9913 5.59051C8.99131 5.59255 8.99132 5.59459 8.99132 5.59662C8.99133 5.59866 8.99134 5.60069 8.99135 5.60273C8.99135 5.60476 8.99136 5.60679 8.99137 5.60882C8.99137 5.61085 8.99138 5.61288 8.99139 5.61491C8.9914 5.61694 8.9914 5.61896 8.99141 5.62099C8.99142 5.62301 8.99143 5.62504 8.99143 5.62706C8.99144 5.62908 8.99145 5.6311 8.99146 5.63312C8.99146 5.63514 8.99147 5.63716 8.99148 5.63917C8.99148 5.64119 8.99149 5.64321 8.9915 5.64522C8.99151 5.64723 8.99151 5.64925 8.99152 5.65126C8.99153 5.65327 8.99153 5.65528 8.99154 5.65729C8.99155 5.6593 8.99156 5.6613 8.99156 5.66331C8.99157 5.66532 8.99158 5.66732 8.99159 5.66932C8.99159 5.67133 8.9916 5.67333 8.99161 5.67533C8.99161 5.67733 8.99162 5.67933 8.99163 5.68133C8.99164 5.68333 8.99164 5.68533 8.99165 5.68732C8.99166 5.68932 8.99166 5.69131 8.99167 5.69331C8.99168 5.6953 8.99169 5.69729 8.99169 5.69928C8.9917 5.70127 8.99171 5.70326 8.99171 5.70525C8.99172 5.70724 8.99173 5.70923 8.99174 5.71121C8.99174 5.7132 8.99175 5.71518 8.99176 5.71717C8.99176 5.71915 8.99177 5.72113 8.99178 5.72311C8.99179 5.7251 8.99179 5.72708 8.9918 5.72905C8.99181 5.73103 8.99181 5.73301 8.99182 5.73499C8.99183 5.73696 8.99184 5.73894 8.99184 5.74091C8.99185 5.74289 8.99186 5.74486 8.99186 5.74683C8.99187 5.7488 8.99188 5.75078 8.99189 5.75275C8.99189 5.75471 8.9919 5.75668 8.99191 5.75865C8.99191 5.76062 8.99192 5.76258 8.99193 5.76455C8.99194 5.76651 8.99194 5.76848 8.99195 5.77044C8.99196 5.7724 8.99196 5.77437 8.99197 5.77633C8.99198 5.77829 8.99198 5.78025 8.99199 5.78221C8.992 5.78416 8.99201 5.78612 8.99201 5.78808C8.99202 5.79003 8.99203 5.79199 8.99203 5.79394C8.99204 5.7959 8.99205 5.79785 8.99206 5.7998C8.99206 5.80175 8.99207 5.80371 8.99208 5.80566C8.99208 5.80761 8.99209 5.80956 8.9921 5.8115C8.9921 5.81345 8.99211 5.8154 8.99212 5.81734C8.99213 5.81929 8.99213 5.82123 8.99214 5.82318C8.99215 5.82512 8.99215 5.82707 8.99216 5.82901C8.99217 5.83095 8.99217 5.83289 8.99218 5.83483C8.99219 5.83677 8.9922 5.83871 8.9922 5.84065C8.99221 5.84258 8.99222 5.84452 8.99222 5.84646C8.99223 5.84839 8.99224 5.85033 8.99224 5.85226C8.99225 5.8542 8.99226 5.85613 8.99227 5.85806C8.99227 5.85999 8.99228 5.86192 8.99229 5.86386C8.99229 5.86579 8.9923 5.86771 8.99231 5.86964C8.99231 5.87157 8.99232 5.8735 8.99233 5.87543C8.99233 5.87735 8.99234 5.87928 8.99235 5.8812C8.99236 5.88313 8.99236 5.88505 8.99237 5.88697C8.99238 5.8889 8.99238 5.89082 8.99239 5.89274C8.9924 5.89466 8.9924 5.89658 8.99241 5.8985C8.99242 5.90042 8.99242 5.90234 8.99243 5.90426C8.99244 5.90618 8.99245 5.90809 8.99245 5.91001C8.99246 5.91192 8.99247 5.91384 8.99247 5.91575C8.99248 5.91767 8.99249 5.91958 8.99249 5.92149C8.9925 5.92341 8.99251 5.92532 8.99251 5.92723C8.99252 5.92914 8.99253 5.93105 8.99253 5.93296C8.99254 5.93487 8.99255 5.93678 8.99256 5.93869C8.99256 5.94059 8.99257 5.9425 8.99258 5.94441C8.99258 5.94631 8.99259 5.94822 8.9926 5.95012C8.9926 5.95203 8.99261 5.95393 8.99262 5.95584C8.99262 5.95774 8.99263 5.95964 8.99264 5.96154C8.99264 5.96345 8.99265 5.96535 8.99266 5.96725C8.99267 5.96915 8.99267 5.97105 8.99268 5.97294C8.99269 5.97484 8.99269 5.97674 8.9927 5.97864C8.99271 5.98054 8.99271 5.98243 8.99272 5.98433C8.99273 5.98622 8.99273 5.98812 8.99274 5.99001C8.99275 5.99191 8.99275 5.9938 8.99276 5.99569C8.99277 5.99759 8.99277 5.99948 8.99278 6.00137C8.99279 6.00326 8.99279 6.00515 8.9928 6.00705C8.99281 6.00894 8.99282 6.01083 8.99282 6.01271C8.99283 6.0146 8.99284 6.01649 8.99284 6.01838C8.99285 6.02027 8.99286 6.02215 8.99286 6.02404C8.99287 6.02593 8.99288 6.02781 8.99288 6.0297C8.99289 6.03158 8.9929 6.03347 8.9929 6.03535C8.99291 6.03724 8.99292 6.03912 8.99292 6.041C8.99293 6.04288 8.99294 6.04477 8.99294 6.04665C8.99295 6.04853 8.99296 6.05041 8.99296 6.05229C8.99297 6.05417 8.99298 6.05605 8.99298 6.05793C8.99299 6.05981 8.993 6.06169 8.99301 6.06357C8.99301 6.06544 8.99302 6.06732 8.99303 6.0692C8.99303 6.07108 8.99304 6.07295 8.99305 6.07483C8.99305 6.0767 8.99306 6.07858 8.99307 6.08046C8.99307 6.08233 8.99308 6.0842 8.99309 6.08608C8.99309 6.08795 8.9931 6.08983 8.99311 6.0917C8.99311 6.09357 8.99312 6.09544 8.99313 6.09732C8.99313 6.09919 8.99314 6.10106 8.99315 6.10293C8.99315 6.1048 8.99316 6.10667 8.99317 6.10854C8.99317 6.11041 8.99318 6.11228 8.99319 6.11415C8.99319 6.11602 8.9932 6.11789 8.99321 6.11975C8.99321 6.12162 8.99322 6.12349 8.99323 6.12536C8.99323 6.12722 8.99324 6.12909 8.99325 6.13096C8.99325 6.13282 8.99326 6.13469 8.99327 6.13655C8.99327 6.13842 8.99328 6.14029 8.99329 6.14215C8.99329 6.14401 8.9933 6.14588 8.99331 6.14774C8.99332 6.14961 8.99332 6.15147 8.99333 6.15333C8.99334 6.1552 8.99334 6.15706 8.99335 6.15892C8.99336 6.16078 8.99336 6.16264 8.99337 6.16451C8.99338 6.16637 8.99338 6.16823 8.99339 6.17009C8.9934 6.17195 8.9934 6.17381 8.99341 6.17567C8.99342 6.17753 8.99342 6.17939 8.99343 6.18125C8.99344 6.18311 8.99344 6.18497 8.99345 6.18683C8.99346 6.18869 8.99346 6.19055 8.99347 6.1924C8.99348 6.19426 8.99348 6.19612 8.99349 6.19798C8.9935 6.19983 8.9935 6.20169 8.99351 6.20355C8.99352 6.20541 8.99352 6.20726 8.99353 6.20912C8.99354 6.21098 8.99354 6.21283 8.99355 6.21469C8.99356 6.21654 8.99356 6.2184 8.99357 6.22025C8.99358 6.22211 8.99358 6.22396 8.99359 6.22582C8.9936 6.22767 8.9936 6.22953 8.99361 6.23138C8.99362 6.23324 8.99362 6.23509 8.99363 6.23694C8.99364 6.2388 8.99364 6.24065 8.99365 6.24251C8.99366 6.24436 8.99366 6.24621 8.99367 6.24807C8.99368 6.24992 8.99368 6.25177 8.99369 6.25362C8.9937 6.25548 8.9937 6.25733 8.99371 6.25918C8.99372 6.26103 8.99372 6.26289 8.99373 6.26474C8.99374 6.26659 8.99374 6.26844 8.99375 6.27029C8.99376 6.27214 8.99376 6.274 8.99377 6.27585C8.99378 6.2777 8.99378 6.27955 8.99379 6.2814C8.9938 6.28325 8.9938 6.2851 8.99381 6.28695C8.99382 6.2888 8.99382 6.29065 8.99383 6.2925C8.99384 6.29435 8.99384 6.2962 8.99385 6.29806C8.99386 6.29991 8.99386 6.30176 8.99387 6.30361C8.99388 6.30546 8.99388 6.30731 8.99389 6.30916C8.9939 6.311 8.9939 6.31285 8.99391 6.3147C8.99392 6.31655 8.99392 6.3184 8.99393 6.32025C8.99394 6.3221 8.99394 6.32395 8.99395 6.3258C8.99396 6.32765 8.99396 6.3295 8.99397 6.33135C8.99398 6.3332 8.99398 6.33505 8.99399 6.3369C8.994 6.33875 8.994 6.3406 8.99401 6.34245C8.99402 6.34429 8.99402 6.34614 8.99403 6.34799C8.99404 6.34984 8.99404 6.35169 8.99405 6.35354C8.99406 6.35539 8.99406 6.35724 8.99407 6.35909C8.99408 6.36094 8.99408 6.36279 8.99409 6.36463C8.9941 6.36648 8.9941 6.36833 8.99411 6.37018C8.99412 6.37203 8.99412 6.37388 8.99413 6.37573C8.99414 6.37758 8.99414 6.37943 8.99415 6.38128C8.99416 6.38313 8.99416 6.38498 8.99417 6.38683C8.99418 6.38868 8.99418 6.39053 8.99419 6.39238C8.9942 6.39423 8.9942 6.39608 8.99421 6.39792C8.99422 6.39977 8.99422 6.40162 8.99423 6.40347C8.99424 6.40532 8.99424 6.40717 8.99425 6.40902C8.99426 6.41088 8.99426 6.41273 8.99427 6.41458C8.99428 6.41643 8.99428 6.41828 8.99429 6.42013C8.9943 6.42198 8.9943 6.42383 8.99431 6.42568C8.99432 6.42753 8.99432 6.42938 8.99433 6.43123C8.99434 6.43308 8.99434 6.43494 8.99435 6.43679C8.99436 6.43864 8.99436 6.44049 8.99437 6.44234C8.99438 6.44419 8.99438 6.44605 8.99439 6.4479C8.9944 6.44975 8.9944 6.4516 8.99441 6.45346C8.99442 6.45531 8.99442 6.45716 8.99443 6.45901C8.99444 6.46087 8.99444 6.46272 8.99445 6.46457C8.99446 6.46643 8.99446 6.46828 8.99447 6.47013C8.99448 6.47199 8.99448 6.47384 8.99449 6.4757C8.9945 6.47755 8.9945 6.47941 8.99451 6.48126C8.99452 6.48312 8.99452 6.48497 8.99453 6.48683C8.99454 6.48868 8.99454 6.49054 8.99455 6.49239C8.99456 6.49425 8.99456 6.4961 8.99457 6.49796C8.99458 6.49982 8.99458 6.50167 8.99459 6.50353C8.9946 6.50539 8.9946 6.50725 8.99461 6.5091C8.99462 6.51096 8.99462 6.51282 8.99463 6.51468C8.99464 6.51653 8.99464 6.51839 8.99465 6.52025C8.99466 6.52211 8.99466 6.52397 8.99467 6.52583C8.99468 6.52769 8.99468 6.52955 8.99469 6.53141C8.9947 6.53327 8.9947 6.53513 8.99471 6.53699C8.99472 6.53885 8.99472 6.54071 8.99473 6.54257C8.99474 6.54444 8.99474 6.5463 8.99475 6.54816C8.99476 6.55002 8.99476 6.55188 8.99477 6.55375C8.99478 6.55561 8.99478 6.55747 8.99479 6.55934C8.9948 6.5612 8.9948 6.56307 8.99481 6.56493C8.99482 6.56679 8.99482 6.56866 8.99483 6.57053C8.99484 6.57239 8.99484 6.57426 8.99485 6.57612C8.99486 6.57799 8.99486 6.57986 8.99487 6.58172C8.99488 6.58359 8.99488 6.58546 8.99489 6.58733C8.9949 6.58919 8.9949 6.59106 8.99491 6.59293C8.99492 6.5948 8.99492 6.59667 8.99493 6.59854C8.99494 6.60041 8.99495 6.60228 8.99495 6.60415C8.99496 6.60602 8.99497 6.60789 8.99497 6.60976C8.99498 6.61164 8.99499 6.61351 8.99499 6.61538C8.995 6.61725 8.99501 6.61913 8.99501 6.621C8.99502 6.62288 8.99503 6.62475 8.99503 6.62662C8.99504 6.6285 8.99505 6.63037 8.99505 6.63225C8.99506 6.63413 8.99507 6.636 8.99507 6.63788C8.99508 6.63976 8.99509 6.64163 8.99509 6.64351C8.9951 6.64539 8.99511 6.64727 8.99511 6.64915C8.99512 6.65103 8.99513 6.65291 8.99513 6.65479C8.99514 6.65667 8.99515 6.65855 8.99515 6.66043C8.99516 6.66231 8.99517 6.6642 8.99517 6.66608C8.99518 6.66796 8.99519 6.66984 8.9952 6.67173C8.9952 6.67361 8.99521 6.6755 8.99522 6.67738C8.99522 6.67927 8.99523 6.68115 8.99524 6.68304C8.99524 6.68493 8.99525 6.68681 8.99526 6.6887C8.99526 6.69059 8.99527 6.69248 8.99528 6.69437C8.99528 6.69625 8.99529 6.69814 8.9953 6.70003C8.9953 6.70193 8.99531 6.70382 8.99532 6.70571C8.99532 6.7076 8.99533 6.70949 8.99534 6.71139C8.99534 6.71328 8.99535 6.71517 8.99536 6.71707C8.99537 6.71896 8.99537 6.72086 8.99538 6.72275C8.99539 6.72465 8.99539 6.72654 8.9954 6.72844C8.99541 6.73034 8.99541 6.73224 8.99542 6.73414C8.99543 6.73603 8.99543 6.73793 8.99544 6.73983C8.99545 6.74173 8.99545 6.74363 8.99546 6.74554C8.99547 6.74744 8.99547 6.74934 8.99548 6.75124C8.99549 6.75315 8.9955 6.75505 8.9955 6.75696C8.99551 6.75886 8.99552 6.76077 8.99552 6.76267C8.99553 6.76458 8.99554 6.76649 8.99554 6.76839C8.99555 6.7703 8.99556 6.77221 8.99556 6.77412C8.99557 6.77603 8.99558 6.77794 8.99558 6.77985C8.99559 6.78176 8.9956 6.78367 8.99561 6.78559C8.99561 6.7875 8.99562 6.78941 8.99563 6.79133C8.99563 6.79324 8.99564 6.79516 8.99565 6.79707C8.99565 6.79899 8.99566 6.8009 8.99567 6.80282C8.99567 6.80474 8.99568 6.80666 8.99569 6.80858C8.99569 6.8105 8.9957 6.81242 8.99571 6.81434C8.99572 6.81626 8.99572 6.81818 8.99573 6.82011C8.99574 6.82203 8.99574 6.82395 8.99575 6.82588C8.99576 6.8278 8.99576 6.82973 8.99577 6.83165C8.99578 6.83358 8.99579 6.83551 8.99579 6.83744C8.9958 6.83937 8.99581 6.84129 8.99581 6.84322C8.99582 6.84516 8.99583 6.84709 8.99583 6.84902C8.99584 6.85095 8.99585 6.85288 8.99585 6.85482C8.99586 6.85675 8.99587 6.85869 8.99588 6.86062C8.99588 6.86256 8.99589 6.8645 8.9959 6.86643C8.9959 6.86837 8.99591 6.87031 8.99592 6.87225C8.99592 6.87419 8.99593 6.87613 8.99594 6.87807C8.99595 6.88001 8.99595 6.88196 8.99596 6.8839C8.99597 6.88585 8.99597 6.88779 8.99598 6.88974C8.99599 6.89168 8.99599 6.89363 8.996 6.89558C8.99601 6.89752 8.99602 6.89947 8.99602 6.90142C8.99603 6.90337 8.99604 6.90532 8.99604 6.90728C8.99605 6.90923 8.99606 6.91118 8.99606 6.91314C8.99607 6.91509 8.99608 6.91705 8.99609 6.919C8.99609 6.92096 8.9961 6.92292 8.99611 6.92487C8.99611 6.92683 8.99612 6.92879 8.99613 6.93075C8.99614 6.93271 8.99614 6.93468 8.99615 6.93664C8.99616 6.9386 8.99616 6.94057 8.99617 6.94253C8.99618 6.9445 8.99618 6.94646 8.99619 6.94843C8.9962 6.9504 8.99621 6.95237 8.99621 6.95433C8.99622 6.9563 8.99623 6.95827 8.99623 6.96025C8.99624 6.96222 8.99625 6.96419 8.99626 6.96617C8.99626 6.96814 8.99627 6.97012 8.99628 6.97209C8.99628 6.97407 8.99629 6.97605 8.9963 6.97802C8.99631 6.98 8.99631 6.98198 8.99632 6.98397C8.99633 6.98595 8.99633 6.98793 8.99634 6.98991C8.99635 6.9919 8.99636 6.99388 8.99636 6.99587C8.99637 6.99785 8.99638 6.99984 8.99638 7.00183C8.99639 7.00382 8.9964 7.00581 8.99641 7.0078C8.99641 7.00979 8.99642 7.01178 8.99643 7.01377C8.99643 7.01577 8.99644 7.01776 8.99645 7.01976C8.99646 7.02175 8.99646 7.02375 8.99647 7.02575C8.99648 7.02775 8.99648 7.02975 8.99649 7.03175C8.9965 7.03375 8.99651 7.03575 8.99651 7.03776C8.99652 7.03976 8.99653 7.04176 8.99653 7.04377C8.99654 7.04578 8.99655 7.04778 8.99656 7.04979C8.99656 7.0518 8.99657 7.05381 8.99658 7.05582C8.99659 7.05783 8.99659 7.05985 8.9966 7.06186C8.99661 7.06387 8.99661 7.06589 8.99662 7.06791C8.99663 7.06992 8.99664 7.07194 8.99664 7.07396C8.99665 7.07598 8.99666 7.078 8.99667 7.08002C8.99667 7.08204 8.99668 7.08407 8.99669 7.08609C8.99669 7.08812 8.9967 7.09014 8.99671 7.09217C8.99672 7.0942 8.99672 7.09623 8.99673 7.09826C8.99674 7.10029 8.99675 7.10232 8.99675 7.10435C8.99676 7.10639 8.99677 7.10842 8.99678 7.11046C8.99678 7.11249 8.99679 7.11453 8.9968 7.11657C8.9968 7.11861 8.99681 7.12065 8.99682 7.12269C8.99683 7.12473 8.99683 7.12677 8.99684 7.12882C8.99685 7.13086 8.99686 7.13291 8.99686 7.13496C8.99687 7.137 8.99688 7.13905 8.99689 7.1411C8.99689 7.14315 8.9969 7.1452 8.99691 7.14726C8.99692 7.14931 8.99692 7.15137 8.99693 7.15342C8.99694 7.15548 8.99694 7.15754 8.99695 7.1596C8.99696 7.16165 8.99697 7.16372 8.99697 7.16578C8.99698 7.16784 8.99699 7.1699 8.997 7.17197C8.997 7.17403 8.99701 7.1761 8.99702 7.17817C8.99703 7.18024 8.99703 7.18231 8.99704 7.18438C8.99705 7.18645 8.99706 7.18852 8.99706 7.1906C8.99707 7.19267 8.99708 7.19475 8.99709 7.19683C8.99709 7.1989 8.9971 7.20098 8.99711 7.20306C8.99712 7.20515 8.99712 7.20723 8.99713 7.20931C8.99714 7.2114 8.99715 7.21348 8.99715 7.21557C8.99716 7.21766 8.99717 7.21974 8.99718 7.22183C8.99718 7.22392 8.99719 7.22602 8.9972 7.22811C8.99721 7.2302 8.99721 7.2323 8.99722 7.2344C8.99723 7.23649 8.99724 7.23859 8.99724 7.24069C8.99725 7.24279 8.99726 7.24489 8.99727 7.247C8.99727 7.2491 8.99728 7.25121 8.99729 7.25331C8.9973 7.25542 8.9973 7.25753 8.99731 7.25964C8.99732 7.26175 8.99733 7.26386 8.99734 7.26597C8.99734 7.26809 8.99735 7.2702 8.99736 7.27232C8.99737 7.27443 8.99737 7.27655 8.99738 7.27867C8.99739 7.28079 8.9974 7.28291 8.9974 7.28504C8.99741 7.28716 8.99742 7.28929 8.99743 7.29141C8.99743 7.29354 8.99744 7.29567 8.99745 7.2978C8.99746 7.29993 8.99747 7.30206 8.99747 7.3042C8.99748 7.30633 8.99749 7.30847 8.9975 7.3106C8.9975 7.31274 8.99751 7.31488 8.99752 7.31702C8.99753 7.31916 8.99753 7.32131 8.99754 7.32345C8.99755 7.32559 8.99756 7.32774 8.99757 7.32989C8.99757 7.33204 8.99758 7.33419 8.99759 7.33634C8.9976 7.33849 8.9976 7.34064 8.99761 7.3428C8.99762 7.34495 8.99763 7.34711 8.99764 7.34927C8.99764 7.35143 8.99765 7.35359 8.99766 7.35575C8.99767 7.35792 8.99767 7.36008 8.99768 7.36225C8.99769 7.36441 8.9977 7.36658 8.99771 7.36875C8.99771 7.37092 8.99772 7.37309 8.99773 7.37527C8.99774 7.37744 8.99774 7.37962 8.99775 7.38179C8.99776 7.38397 8.99777 7.38615 8.99778 7.38833C8.99778 7.39051 8.99779 7.3927 8.9978 7.39488C8.99781 7.39707 8.99782 7.39925 8.99782 7.40144C8.99783 7.40363 8.99784 7.40582 8.99785 7.40801C8.99785 7.41021 8.99786 7.4124 8.99787 7.4146C8.99788 7.41679 8.99789 7.41899 8.99789 7.42119C8.9979 7.42339 8.99791 7.4256 8.99792 7.4278C8.99793 7.43 8.99793 7.43221 8.99794 7.43442C8.99795 7.43663 8.99796 7.43884 8.99797 7.44105C8.99797 7.44326 8.99798 7.44547 8.99799 7.44769C8.998 7.44991 8.99801 7.45212 8.99801 7.45434C8.99802 7.45656 8.99803 7.45879 8.99804 7.46101C8.99805 7.46324 8.99805 7.46546 8.99806 7.46769C8.99807 7.46992 8.99808 7.47215 8.99809 7.47438C8.99809 7.47661 8.9981 7.47885 8.99811 7.48108C8.99812 7.48332 8.99813 7.48556 8.99813 7.4878C8.99814 7.49004 8.99815 7.49228 8.99816 7.49452C8.99817 7.49677 8.99817 7.49901 8.99818 7.50126C8.99819 7.50351 8.9982 7.50576 8.99821 7.50801C8.99821 7.51027 8.99822 7.51252 8.99823 7.51478C8.99824 7.51703 8.99825 7.51929 8.99826 7.52155C8.99826 7.52382 8.99827 7.52608 8.99828 7.52834C8.99829 7.53061 8.9983 7.53288 8.9983 7.53515C8.99831 7.53742 8.99832 7.53969 8.99833 7.54196C8.99834 7.54423 8.99835 7.54651 8.99835 7.54879C8.99836 7.55107 8.99837 7.55335 8.99838 7.55563C8.99839 7.55791 8.99839 7.56019 8.9984 7.56248C8.99841 7.56477 8.99842 7.56706 8.99843 7.56935C8.99844 7.57164 8.99844 7.57393 8.99845 7.57623C8.99846 7.57852 8.99847 7.58082 8.99848 7.58312C8.99849 7.58542 8.99849 7.58772 8.9985 7.59003C8.99851 7.59233 8.99852 7.59464 8.99853 7.59694C8.99854 7.59925 8.99854 7.60156 8.99855 7.60388C8.99856 7.60619 8.99857 7.6085 8.99858 7.61082C8.99859 7.61314 8.99859 7.61546 8.9986 7.61778C8.99861 7.6201 8.99862 7.62243 8.99863 7.62475C8.99864 7.62708 8.99864 7.62941 8.99865 7.63174C8.99866 7.63407 8.99867 7.6364 8.99868 7.63874C8.99869 7.64107 8.99869 7.64341 8.9987 7.64575C8.99871 7.64809 8.99872 7.65043 8.99873 7.65278C8.99874 7.65512 8.99874 7.65747 8.99875 7.65982C8.99876 7.66217 8.99877 7.66452 8.99878 7.66688C8.99879 7.66923 8.9988 7.67159 8.9988 7.67394C8.99881 7.6763 8.99882 7.67866 8.99883 7.68103C8.99884 7.68339 8.99885 7.68576 8.99886 7.68812C8.99886 7.69049 8.99887 7.69286 8.99888 7.69524C8.99889 7.69761 8.9989 7.69998 8.99891 7.70236C8.99892 7.70474 8.99892 7.70712 8.99893 7.7095C8.99894 7.71188 8.99895 7.71427 8.99896 7.71665C8.99897 7.71904 8.99898 7.72143 8.99898 7.72382C8.99899 7.72621 8.999 7.72861 8.99901 7.73101C8.99902 7.7334 8.99903 7.7358 8.99904 7.7382C8.99904 7.7406 8.99905 7.74301 8.99906 7.74542C8.99907 7.74782 8.99908 7.75023 8.99909 7.75264C8.9991 7.75505 8.99911 7.75747 8.99911 7.75988C8.99912 7.7623 8.99913 7.76472 8.99914 7.76714C8.99915 7.76956 8.99916 7.77198 8.99917 7.77441C8.99917 7.77684 8.99918 7.77926 8.99919 7.7817C8.9992 7.78413 8.99921 7.78656 8.99922 7.789C8.99923 7.79143 8.99924 7.79387 8.99924 7.79631C8.99925 7.79875 8.99926 7.8012 8.99927 7.80364C8.99928 7.80609 8.99929 7.80854 8.9993 7.81099C8.99931 7.81344 8.99932 7.8159 8.99932 7.81835C8.99933 7.82081 8.99934 7.82327 8.99935 7.82573C8.99936 7.82819 8.99937 7.83065 8.99938 7.83312C8.99939 7.83559 8.9994 7.83806 8.9994 7.84053C8.99941 7.843 8.99942 7.84548 8.99943 7.84795C8.99944 7.85043 8.99945 7.85291 8.99946 7.85539C8.99947 7.85787 8.99948 7.86036 8.99948 7.86284C8.99949 7.86533 8.9995 7.86782 8.99951 7.87032C8.99952 7.87281 8.99953 7.8753 8.99954 7.8778C8.99955 7.8803 8.99956 7.8828 8.99957 7.8853C8.99957 7.88781 8.99958 7.89031 8.99959 7.89282C8.9996 7.89533 8.99961 7.89784 8.99962 7.90035C8.99963 7.90287 8.99964 7.90538 8.99965 7.9079C8.99966 7.91042 8.99966 7.91294 8.99967 7.91547C8.99968 7.91799 8.99969 7.92052 8.9997 7.92305C8.99971 7.92558 8.99972 7.92811 8.99973 7.93065C8.99974 7.93318 8.99975 7.93572 8.99976 7.93826C8.99977 7.9408 8.99977 7.94335 8.99978 7.94589C8.99979 7.94844 8.9998 7.95099 8.99981 7.95354L10.9998 7.94634C10.9998 7.94379 10.9998 7.94124 10.9998 7.93869C10.9998 7.93614 10.9998 7.9336 10.9997 7.93106C10.9997 7.92852 10.9997 7.92598 10.9997 7.92345C10.9997 7.92091 10.9997 7.91838 10.9997 7.91585C10.9997 7.91332 10.9997 7.91079 10.9997 7.90827C10.9997 7.90574 10.9996 7.90322 10.9996 7.9007C10.9996 7.89818 10.9996 7.89567 10.9996 7.89315C10.9996 7.89064 10.9996 7.88813 10.9996 7.88562C10.9996 7.88311 10.9996 7.8806 10.9996 7.8781C10.9995 7.8756 10.9995 7.8731 10.9995 7.8706C10.9995 7.8681 10.9995 7.86561 10.9995 7.86311C10.9995 7.86062 10.9995 7.85813 10.9995 7.85564C10.9995 7.85316 10.9995 7.85067 10.9994 7.84819C10.9994 7.84571 10.9994 7.84323 10.9994 7.84075C10.9994 7.83827 10.9994 7.8358 10.9994 7.83333C10.9994 7.83085 10.9994 7.82839 10.9994 7.82592C10.9994 7.82345 10.9993 7.82099 10.9993 7.81853C10.9993 7.81607 10.9993 7.81361 10.9993 7.81115C10.9993 7.80869 10.9993 7.80624 10.9993 7.80379C10.9993 7.80134 10.9993 7.79889 10.9993 7.79644C10.9992 7.794 10.9992 7.79155 10.9992 7.78911C10.9992 7.78667 10.9992 7.78423 10.9992 7.7818C10.9992 7.77936 10.9992 7.77693 10.9992 7.77449C10.9992 7.77206 10.9992 7.76963 10.9992 7.76721C10.9991 7.76478 10.9991 7.76236 10.9991 7.75994C10.9991 7.75752 10.9991 7.7551 10.9991 7.75268C10.9991 7.75026 10.9991 7.74785 10.9991 7.74544C10.9991 7.74303 10.9991 7.74062 10.999 7.73821C10.999 7.73581 10.999 7.7334 10.999 7.731C10.999 7.7286 10.999 7.7262 10.999 7.7238C10.999 7.72141 10.999 7.71901 10.999 7.71662C10.999 7.71423 10.999 7.71184 10.9989 7.70945C10.9989 7.70707 10.9989 7.70468 10.9989 7.7023C10.9989 7.69992 10.9989 7.69754 10.9989 7.69516C10.9989 7.69278 10.9989 7.69041 10.9989 7.68803C10.9989 7.68566 10.9989 7.68329 10.9988 7.68092C10.9988 7.67855 10.9988 7.67619 10.9988 7.67383C10.9988 7.67146 10.9988 7.6691 10.9988 7.66674C10.9988 7.66438 10.9988 7.66203 10.9988 7.65967C10.9988 7.65732 10.9987 7.65497 10.9987 7.65262C10.9987 7.65027 10.9987 7.64792 10.9987 7.64558C10.9987 7.64323 10.9987 7.64089 10.9987 7.63855C10.9987 7.63621 10.9987 7.63387 10.9987 7.63154C10.9987 7.6292 10.9986 7.62687 10.9986 7.62454C10.9986 7.62221 10.9986 7.61988 10.9986 7.61755C10.9986 7.61522 10.9986 7.6129 10.9986 7.61058C10.9986 7.60826 10.9986 7.60594 10.9986 7.60362C10.9986 7.6013 10.9985 7.59899 10.9985 7.59667C10.9985 7.59436 10.9985 7.59205 10.9985 7.58974C10.9985 7.58743 10.9985 7.58513 10.9985 7.58282C10.9985 7.58052 10.9985 7.57822 10.9985 7.57592C10.9985 7.57362 10.9984 7.57132 10.9984 7.56903C10.9984 7.56673 10.9984 7.56444 10.9984 7.56215C10.9984 7.55985 10.9984 7.55757 10.9984 7.55528C10.9984 7.55299 10.9984 7.55071 10.9984 7.54843C10.9984 7.54614 10.9983 7.54386 10.9983 7.54159C10.9983 7.53931 10.9983 7.53703 10.9983 7.53476C10.9983 7.53248 10.9983 7.53021 10.9983 7.52794C10.9983 7.52567 10.9983 7.52341 10.9983 7.52114C10.9983 7.51888 10.9983 7.51661 10.9982 7.51435C10.9982 7.51209 10.9982 7.50983 10.9982 7.50758C10.9982 7.50532 10.9982 7.50306 10.9982 7.50081C10.9982 7.49856 10.9982 7.49631 10.9982 7.49406C10.9982 7.49181 10.9982 7.48957 10.9981 7.48732C10.9981 7.48508 10.9981 7.48283 10.9981 7.48059C10.9981 7.47835 10.9981 7.47612 10.9981 7.47388C10.9981 7.47164 10.9981 7.46941 10.9981 7.46718C10.9981 7.46495 10.9981 7.46272 10.998 7.46049C10.998 7.45826 10.998 7.45603 10.998 7.45381C10.998 7.45158 10.998 7.44936 10.998 7.44714C10.998 7.44492 10.998 7.4427 10.998 7.44049C10.998 7.43827 10.998 7.43606 10.998 7.43385C10.9979 7.43163 10.9979 7.42942 10.9979 7.42722C10.9979 7.42501 10.9979 7.4228 10.9979 7.4206C10.9979 7.41839 10.9979 7.41619 10.9979 7.41399C10.9979 7.41179 10.9979 7.40959 10.9979 7.4074C10.9978 7.4052 10.9978 7.403 10.9978 7.40081C10.9978 7.39862 10.9978 7.39643 10.9978 7.39424C10.9978 7.39205 10.9978 7.38986 10.9978 7.38768C10.9978 7.38549 10.9978 7.38331 10.9978 7.38113C10.9978 7.37895 10.9977 7.37677 10.9977 7.37459C10.9977 7.37241 10.9977 7.37024 10.9977 7.36806C10.9977 7.36589 10.9977 7.36372 10.9977 7.36155C10.9977 7.35938 10.9977 7.35721 10.9977 7.35504C10.9977 7.35288 10.9977 7.35071 10.9976 7.34855C10.9976 7.34639 10.9976 7.34423 10.9976 7.34207C10.9976 7.33991 10.9976 7.33775 10.9976 7.3356C10.9976 7.33344 10.9976 7.33129 10.9976 7.32914C10.9976 7.32699 10.9976 7.32484 10.9976 7.32269C10.9975 7.32054 10.9975 7.31839 10.9975 7.31625C10.9975 7.3141 10.9975 7.31196 10.9975 7.30982C10.9975 7.30768 10.9975 7.30554 10.9975 7.3034C10.9975 7.30126 10.9975 7.29913 10.9975 7.29699C10.9975 7.29486 10.9974 7.29273 10.9974 7.2906C10.9974 7.28847 10.9974 7.28634 10.9974 7.28421C10.9974 7.28208 10.9974 7.27996 10.9974 7.27784C10.9974 7.27571 10.9974 7.27359 10.9974 7.27147C10.9974 7.26935 10.9974 7.26723 10.9973 7.26512C10.9973 7.263 10.9973 7.26088 10.9973 7.25877C10.9973 7.25666 10.9973 7.25454 10.9973 7.25243C10.9973 7.25032 10.9973 7.24822 10.9973 7.24611C10.9973 7.244 10.9973 7.2419 10.9973 7.23979C10.9972 7.23769 10.9972 7.23559 10.9972 7.23349C10.9972 7.23139 10.9972 7.22929 10.9972 7.22719C10.9972 7.2251 10.9972 7.223 10.9972 7.22091C10.9972 7.21881 10.9972 7.21672 10.9972 7.21463C10.9972 7.21254 10.9971 7.21045 10.9971 7.20837C10.9971 7.20628 10.9971 7.20419 10.9971 7.20211C10.9971 7.20003 10.9971 7.19794 10.9971 7.19586C10.9971 7.19378 10.9971 7.1917 10.9971 7.18962C10.9971 7.18755 10.9971 7.18547 10.9971 7.1834C10.997 7.18132 10.997 7.17925 10.997 7.17718C10.997 7.17511 10.997 7.17304 10.997 7.17097C10.997 7.1689 10.997 7.16683 10.997 7.16477C10.997 7.1627 10.997 7.16064 10.997 7.15858C10.997 7.15651 10.9969 7.15445 10.9969 7.15239C10.9969 7.15033 10.9969 7.14828 10.9969 7.14622C10.9969 7.14416 10.9969 7.14211 10.9969 7.14006C10.9969 7.138 10.9969 7.13595 10.9969 7.1339C10.9969 7.13185 10.9969 7.1298 10.9969 7.12775C10.9968 7.12571 10.9968 7.12366 10.9968 7.12162C10.9968 7.11957 10.9968 7.11753 10.9968 7.11549C10.9968 7.11344 10.9968 7.1114 10.9968 7.10937C10.9968 7.10733 10.9968 7.10529 10.9968 7.10325C10.9968 7.10122 10.9967 7.09918 10.9967 7.09715C10.9967 7.09512 10.9967 7.09309 10.9967 7.09106C10.9967 7.08902 10.9967 7.087 10.9967 7.08497C10.9967 7.08294 10.9967 7.08091 10.9967 7.07889C10.9967 7.07687 10.9967 7.07484 10.9967 7.07282C10.9966 7.0708 10.9966 7.06878 10.9966 7.06676C10.9966 7.06474 10.9966 7.06272 10.9966 7.0607C10.9966 7.05869 10.9966 7.05667 10.9966 7.05466C10.9966 7.05264 10.9966 7.05063 10.9966 7.04862C10.9966 7.04661 10.9966 7.0446 10.9965 7.04259C10.9965 7.04058 10.9965 7.03857 10.9965 7.03657C10.9965 7.03456 10.9965 7.03256 10.9965 7.03055C10.9965 7.02855 10.9965 7.02655 10.9965 7.02455C10.9965 7.02255 10.9965 7.02055 10.9965 7.01855C10.9965 7.01655 10.9964 7.01455 10.9964 7.01256C10.9964 7.01056 10.9964 7.00857 10.9964 7.00657C10.9964 7.00458 10.9964 7.00259 10.9964 7.0006C10.9964 6.9986 10.9964 6.99662 10.9964 6.99463C10.9964 6.99264 10.9964 6.99065 10.9963 6.98866C10.9963 6.98668 10.9963 6.98469 10.9963 6.98271C10.9963 6.98073 10.9963 6.97874 10.9963 6.97676C10.9963 6.97478 10.9963 6.9728 10.9963 6.97082C10.9963 6.96884 10.9963 6.96687 10.9963 6.96489C10.9963 6.96291 10.9962 6.96094 10.9962 6.95896C10.9962 6.95699 10.9962 6.95502 10.9962 6.95304C10.9962 6.95107 10.9962 6.9491 10.9962 6.94713C10.9962 6.94516 10.9962 6.94319 10.9962 6.94123C10.9962 6.93926 10.9962 6.93729 10.9962 6.93533C10.9962 6.93336 10.9961 6.9314 10.9961 6.92944C10.9961 6.92747 10.9961 6.92551 10.9961 6.92355C10.9961 6.92159 10.9961 6.91963 10.9961 6.91767C10.9961 6.91571 10.9961 6.91376 10.9961 6.9118C10.9961 6.90984 10.9961 6.90789 10.9961 6.90593C10.996 6.90398 10.996 6.90203 10.996 6.90007C10.996 6.89812 10.996 6.89617 10.996 6.89422C10.996 6.89227 10.996 6.89032 10.996 6.88837C10.996 6.88643 10.996 6.88448 10.996 6.88253C10.996 6.88059 10.996 6.87864 10.9959 6.8767C10.9959 6.87476 10.9959 6.87281 10.9959 6.87087C10.9959 6.86893 10.9959 6.86699 10.9959 6.86505C10.9959 6.86311 10.9959 6.86117 10.9959 6.85923C10.9959 6.85729 10.9959 6.85536 10.9959 6.85342C10.9959 6.85148 10.9958 6.84955 10.9958 6.84762C10.9958 6.84568 10.9958 6.84375 10.9958 6.84182C10.9958 6.83988 10.9958 6.83795 10.9958 6.83602C10.9958 6.83409 10.9958 6.83216 10.9958 6.83023C10.9958 6.82831 10.9958 6.82638 10.9958 6.82445C10.9958 6.82253 10.9957 6.8206 10.9957 6.81868C10.9957 6.81675 10.9957 6.81483 10.9957 6.8129C10.9957 6.81098 10.9957 6.80906 10.9957 6.80714C10.9957 6.80522 10.9957 6.8033 10.9957 6.80138C10.9957 6.79946 10.9957 6.79754 10.9957 6.79562C10.9956 6.7937 10.9956 6.79179 10.9956 6.78987C10.9956 6.78795 10.9956 6.78604 10.9956 6.78412C10.9956 6.78221 10.9956 6.7803 10.9956 6.77838C10.9956 6.77647 10.9956 6.77456 10.9956 6.77265C10.9956 6.77074 10.9956 6.76883 10.9956 6.76692C10.9955 6.76501 10.9955 6.7631 10.9955 6.76119C10.9955 6.75928 10.9955 6.75738 10.9955 6.75547C10.9955 6.75356 10.9955 6.75166 10.9955 6.74975C10.9955 6.74785 10.9955 6.74594 10.9955 6.74404C10.9955 6.74214 10.9955 6.74024 10.9954 6.73833C10.9954 6.73643 10.9954 6.73453 10.9954 6.73263C10.9954 6.73073 10.9954 6.72883 10.9954 6.72693C10.9954 6.72503 10.9954 6.72314 10.9954 6.72124C10.9954 6.71934 10.9954 6.71745 10.9954 6.71555C10.9954 6.71365 10.9954 6.71176 10.9953 6.70986C10.9953 6.70797 10.9953 6.70608 10.9953 6.70418C10.9953 6.70229 10.9953 6.7004 10.9953 6.69851C10.9953 6.69661 10.9953 6.69472 10.9953 6.69283C10.9953 6.69094 10.9953 6.68905 10.9953 6.68716C10.9953 6.68527 10.9953 6.68339 10.9952 6.6815C10.9952 6.67961 10.9952 6.67772 10.9952 6.67584C10.9952 6.67395 10.9952 6.67207 10.9952 6.67018C10.9952 6.66829 10.9952 6.66641 10.9952 6.66453C10.9952 6.66264 10.9952 6.66076 10.9952 6.65888C10.9952 6.65699 10.9951 6.65511 10.9951 6.65323C10.9951 6.65135 10.9951 6.64947 10.9951 6.64759C10.9951 6.64571 10.9951 6.64383 10.9951 6.64195C10.9951 6.64007 10.9951 6.63819 10.9951 6.63631C10.9951 6.63443 10.9951 6.63256 10.9951 6.63068C10.9951 6.6288 10.995 6.62692 10.995 6.62505C10.995 6.62317 10.995 6.6213 10.995 6.61942C10.995 6.61755 10.995 6.61567 10.995 6.6138C10.995 6.61193 10.995 6.61005 10.995 6.60818C10.995 6.60631 10.995 6.60443 10.995 6.60256C10.995 6.60069 10.9949 6.59882 10.9949 6.59695C10.9949 6.59508 10.9949 6.59321 10.9949 6.59134C10.9949 6.58947 10.9949 6.5876 10.9949 6.58573C10.9949 6.58386 10.9949 6.58199 10.9949 6.58012C10.9949 6.57826 10.9949 6.57639 10.9949 6.57452C10.9949 6.57265 10.9948 6.57079 10.9948 6.56892C10.9948 6.56705 10.9948 6.56519 10.9948 6.56332C10.9948 6.56146 10.9948 6.55959 10.9948 6.55773C10.9948 6.55586 10.9948 6.554 10.9948 6.55214C10.9948 6.55027 10.9948 6.54841 10.9948 6.54655C10.9948 6.54468 10.9947 6.54282 10.9947 6.54096C10.9947 6.53909 10.9947 6.53723 10.9947 6.53537C10.9947 6.53351 10.9947 6.53165 10.9947 6.52979C10.9947 6.52793 10.9947 6.52607 10.9947 6.52421C10.9947 6.52235 10.9947 6.52049 10.9947 6.51863C10.9947 6.51677 10.9946 6.51491 10.9946 6.51305C10.9946 6.51119 10.9946 6.50933 10.9946 6.50747C10.9946 6.50562 10.9946 6.50376 10.9946 6.5019C10.9946 6.50004 10.9946 6.49819 10.9946 6.49633C10.9946 6.49447 10.9946 6.49262 10.9946 6.49076C10.9945 6.4889 10.9945 6.48705 10.9945 6.48519C10.9945 6.48333 10.9945 6.48148 10.9945 6.47962C10.9945 6.47777 10.9945 6.47591 10.9945 6.47406C10.9945 6.4722 10.9945 6.47035 10.9945 6.4685C10.9945 6.46664 10.9945 6.46479 10.9945 6.46293C10.9944 6.46108 10.9944 6.45923 10.9944 6.45737C10.9944 6.45552 10.9944 6.45367 10.9944 6.45181C10.9944 6.44996 10.9944 6.44811 10.9944 6.44625C10.9944 6.4444 10.9944 6.44255 10.9944 6.4407C10.9944 6.43884 10.9944 6.43699 10.9944 6.43514C10.9943 6.43329 10.9943 6.43144 10.9943 6.42959C10.9943 6.42773 10.9943 6.42588 10.9943 6.42403C10.9943 6.42218 10.9943 6.42033 10.9943 6.41848C10.9943 6.41663 10.9943 6.41478 10.9943 6.41293C10.9943 6.41107 10.9943 6.40922 10.9943 6.40737C10.9942 6.40552 10.9942 6.40367 10.9942 6.40182C10.9942 6.39997 10.9942 6.39812 10.9942 6.39627C10.9942 6.39442 10.9942 6.39257 10.9942 6.39072C10.9942 6.38887 10.9942 6.38702 10.9942 6.38517C10.9942 6.38332 10.9942 6.38147 10.9942 6.37962C10.9941 6.37778 10.9941 6.37593 10.9941 6.37408C10.9941 6.37223 10.9941 6.37038 10.9941 6.36853C10.9941 6.36668 10.9941 6.36483 10.9941 6.36298C10.9941 6.36113 10.9941 6.35928 10.9941 6.35743C10.9941 6.35558 10.9941 6.35373 10.9941 6.35189C10.994 6.35004 10.994 6.34819 10.994 6.34634C10.994 6.34449 10.994 6.34264 10.994 6.34079C10.994 6.33894 10.994 6.33709 10.994 6.33524C10.994 6.33339 10.994 6.33154 10.994 6.3297C10.994 6.32785 10.994 6.326 10.994 6.32415C10.9939 6.3223 10.9939 6.32045 10.9939 6.3186C10.9939 6.31675 10.9939 6.3149 10.9939 6.31305C10.9939 6.3112 10.9939 6.30935 10.9939 6.3075C10.9939 6.30565 10.9939 6.3038 10.9939 6.30195C10.9939 6.3001 10.9939 6.29825 10.9939 6.2964C10.9939 6.29455 10.9938 6.2927 10.9938 6.29085C10.9938 6.289 10.9938 6.28715 10.9938 6.2853C10.9938 6.28345 10.9938 6.2816 10.9938 6.27975C10.9938 6.2779 10.9938 6.27605 10.9938 6.2742C10.9938 6.27235 10.9938 6.2705 10.9938 6.26864C10.9938 6.26679 10.9937 6.26494 10.9937 6.26309C10.9937 6.26124 10.9937 6.25939 10.9937 6.25754C10.9937 6.25568 10.9937 6.25383 10.9937 6.25198C10.9937 6.25013 10.9937 6.24827 10.9937 6.24642C10.9937 6.24457 10.9937 6.24272 10.9937 6.24086C10.9937 6.23901 10.9936 6.23716 10.9936 6.2353C10.9936 6.23345 10.9936 6.2316 10.9936 6.22974C10.9936 6.22789 10.9936 6.22603 10.9936 6.22418C10.9936 6.22233 10.9936 6.22047 10.9936 6.21862C10.9936 6.21676 10.9936 6.21491 10.9936 6.21305C10.9935 6.2112 10.9935 6.20934 10.9935 6.20748C10.9935 6.20563 10.9935 6.20377 10.9935 6.20192C10.9935 6.20006 10.9935 6.1982 10.9935 6.19635C10.9935 6.19449 10.9935 6.19263 10.9935 6.19077C10.9935 6.18892 10.9935 6.18706 10.9935 6.1852C10.9934 6.18334 10.9934 6.18148 10.9934 6.17963C10.9934 6.17777 10.9934 6.17591 10.9934 6.17405C10.9934 6.17219 10.9934 6.17033 10.9934 6.16847C10.9934 6.16661 10.9934 6.16475 10.9934 6.16289C10.9934 6.16103 10.9934 6.15917 10.9934 6.1573C10.9933 6.15544 10.9933 6.15358 10.9933 6.15172C10.9933 6.14986 10.9933 6.14799 10.9933 6.14613C10.9933 6.14427 10.9933 6.1424 10.9933 6.14054C10.9933 6.13868 10.9933 6.13681 10.9933 6.13495C10.9933 6.13308 10.9933 6.13122 10.9933 6.12935C10.9932 6.12749 10.9932 6.12562 10.9932 6.12376C10.9932 6.12189 10.9932 6.12002 10.9932 6.11815C10.9932 6.11629 10.9932 6.11442 10.9932 6.11255C10.9932 6.11068 10.9932 6.10882 10.9932 6.10695C10.9932 6.10508 10.9932 6.10321 10.9932 6.10134C10.9931 6.09947 10.9931 6.0976 10.9931 6.09573C10.9931 6.09386 10.9931 6.09198 10.9931 6.09011C10.9931 6.08824 10.9931 6.08637 10.9931 6.0845C10.9931 6.08262 10.9931 6.08075 10.9931 6.07888C10.9931 6.077 10.9931 6.07513 10.9931 6.07325C10.993 6.07138 10.993 6.0695 10.993 6.06763C10.993 6.06575 10.993 6.06387 10.993 6.062C10.993 6.06012 10.993 6.05824 10.993 6.05636C10.993 6.05449 10.993 6.05261 10.993 6.05073C10.993 6.04885 10.993 6.04697 10.993 6.04509C10.9929 6.04321 10.9929 6.04133 10.9929 6.03945C10.9929 6.03756 10.9929 6.03568 10.9929 6.0338C10.9929 6.03192 10.9929 6.03003 10.9929 6.02815C10.9929 6.02627 10.9929 6.02438 10.9929 6.0225C10.9929 6.02061 10.9929 6.01872 10.9928 6.01684C10.9928 6.01495 10.9928 6.01306 10.9928 6.01118C10.9928 6.00929 10.9928 6.0074 10.9928 6.00551C10.9928 6.00362 10.9928 6.00173 10.9928 5.99984C10.9928 5.99795 10.9928 5.99606 10.9928 5.99417C10.9928 5.99228 10.9928 5.99039 10.9927 5.98849C10.9927 5.9866 10.9927 5.98471 10.9927 5.98281C10.9927 5.98092 10.9927 5.97902 10.9927 5.97713C10.9927 5.97523 10.9927 5.97333 10.9927 5.97144C10.9927 5.96954 10.9927 5.96764 10.9927 5.96574C10.9927 5.96384 10.9927 5.96194 10.9926 5.96004C10.9926 5.95814 10.9926 5.95624 10.9926 5.95434C10.9926 5.95244 10.9926 5.95054 10.9926 5.94863C10.9926 5.94673 10.9926 5.94483 10.9926 5.94292C10.9926 5.94102 10.9926 5.93911 10.9926 5.93721C10.9926 5.9353 10.9925 5.93339 10.9925 5.93148C10.9925 5.92958 10.9925 5.92767 10.9925 5.92576C10.9925 5.92385 10.9925 5.92194 10.9925 5.92003C10.9925 5.91812 10.9925 5.91621 10.9925 5.91429C10.9925 5.91238 10.9925 5.91047 10.9925 5.90855C10.9925 5.90664 10.9924 5.90472 10.9924 5.90281C10.9924 5.90089 10.9924 5.89897 10.9924 5.89706C10.9924 5.89514 10.9924 5.89322 10.9924 5.8913C10.9924 5.88938 10.9924 5.88746 10.9924 5.88554C10.9924 5.88362 10.9924 5.8817 10.9924 5.87977C10.9923 5.87785 10.9923 5.87593 10.9923 5.874C10.9923 5.87208 10.9923 5.87015 10.9923 5.86822C10.9923 5.8663 10.9923 5.86437 10.9923 5.86244C10.9923 5.86051 10.9923 5.85858 10.9923 5.85665C10.9923 5.85472 10.9923 5.85279 10.9923 5.85086C10.9922 5.84893 10.9922 5.84699 10.9922 5.84506C10.9922 5.84313 10.9922 5.84119 10.9922 5.83925C10.9922 5.83732 10.9922 5.83538 10.9922 5.83344C10.9922 5.83151 10.9922 5.82957 10.9922 5.82763C10.9922 5.82569 10.9922 5.82375 10.9921 5.8218C10.9921 5.81986 10.9921 5.81792 10.9921 5.81598C10.9921 5.81403 10.9921 5.81209 10.9921 5.81014C10.9921 5.8082 10.9921 5.80625 10.9921 5.8043C10.9921 5.80235 10.9921 5.8004 10.9921 5.79845C10.9921 5.7965 10.992 5.79455 10.992 5.7926C10.992 5.79065 10.992 5.7887 10.992 5.78674C10.992 5.78479 10.992 5.78283 10.992 5.78088C10.992 5.77892 10.992 5.77696 10.992 5.775C10.992 5.77304 10.992 5.77109 10.992 5.76912C10.992 5.76716 10.9919 5.7652 10.9919 5.76324C10.9919 5.76128 10.9919 5.75931 10.9919 5.75735C10.9919 5.75538 10.9919 5.75342 10.9919 5.75145C10.9919 5.74948 10.9919 5.74751 10.9919 5.74554C10.9919 5.74357 10.9919 5.7416 10.9919 5.73963C10.9918 5.73766 10.9918 5.73569 10.9918 5.73371C10.9918 5.73174 10.9918 5.72976 10.9918 5.72779C10.9918 5.72581 10.9918 5.72383 10.9918 5.72185C10.9918 5.71987 10.9918 5.71789 10.9918 5.71591C10.9918 5.71393 10.9918 5.71195 10.9917 5.70997C10.9917 5.70798 10.9917 5.706 10.9917 5.70401C10.9917 5.70202 10.9917 5.70004 10.9917 5.69805C10.9917 5.69606 10.9917 5.69407 10.9917 5.69208C10.9917 5.69009 10.9917 5.6881 10.9917 5.6861C10.9917 5.68411 10.9916 5.68212 10.9916 5.68012C10.9916 5.67812 10.9916 5.67613 10.9916 5.67413C10.9916 5.67213 10.9916 5.67013 10.9916 5.66813C10.9916 5.66613 10.9916 5.66413 10.9916 5.66212C10.9916 5.66012 10.9916 5.65811 10.9916 5.65611C10.9915 5.6541 10.9915 5.65209 10.9915 5.65009C10.9915 5.64808 10.9915 5.64607 10.9915 5.64406C10.9915 5.64204 10.9915 5.64003 10.9915 5.63802C10.9915 5.636 10.9915 5.63399 10.9915 5.63197C10.9915 5.62996 10.9914 5.62794 10.9914 5.62592C10.9914 5.6239 10.9914 5.62188 10.9914 5.61986C10.9914 5.61783 10.9914 5.61581 10.9914 5.61379C10.9914 5.61176 10.9914 5.60973 10.9914 5.60771C10.9914 5.60568 10.9914 5.60365 10.9914 5.60162C10.9913 5.59959 10.9913 5.59756 10.9913 5.59553C10.9913 5.59349 10.9913 5.59146 10.9913 5.58942C10.9913 5.58739 10.9913 5.58535 10.9913 5.58331C10.9913 5.58127 10.9913 5.57923 10.9913 5.57719C10.9913 5.57515 10.9913 5.5731 10.9912 5.57106C10.9912 5.56902 10.9912 5.56697 10.9912 5.56492C10.9912 5.56287 10.9912 5.56083 10.9912 5.55878C10.9912 5.55672 10.9912 5.55467 10.9912 5.55262C10.9912 5.55057 10.9912 5.54851 10.9912 5.54646C10.9911 5.5444 10.9911 5.54234 10.9911 5.54028C10.9911 5.53822 10.9911 5.53616 10.9911 5.5341C10.9911 5.53204 10.9911 5.52997 10.9911 5.52791C10.9911 5.52584 10.9911 5.52378 10.9911 5.52171C10.9911 5.51964 10.9911 5.51757 10.991 5.5155C10.991 5.51343 10.991 5.51135 10.991 5.50928C10.991 5.5072 10.991 5.50513 10.991 5.50305C10.991 5.50097 10.991 5.49889 10.991 5.49681C10.991 5.49473 10.991 5.49265 10.991 5.49057C10.9909 5.48848 10.9909 5.4864 10.9909 5.48431C10.9909 5.48222 10.9909 5.48013 10.9909 5.47804C10.9909 5.47595 10.9909 5.47386 10.9909 5.47177C10.9909 5.46967 10.9909 5.46758 10.9909 5.46548C10.9909 5.46338 10.9908 5.46129 10.9908 5.45919C10.9908 5.45709 10.9908 5.45498 10.9908 5.45288C10.9908 5.45078 10.9908 5.44867 10.9908 5.44657C10.9908 5.44446 10.9908 5.44235 10.9908 5.44024C10.9908 5.43813 10.9908 5.43602 10.9908 5.43391C10.9907 5.43179 10.9907 5.42968 10.9907 5.42756C10.9907 5.42544 10.9907 5.42333 10.9907 5.42121C10.9907 5.41909 10.9907 5.41696 10.9907 5.41484C10.9907 5.41272 10.9907 5.41059 10.9907 5.40846C10.9907 5.40634 10.9906 5.40421 10.9906 5.40208C10.9906 5.39995 10.9906 5.39781 10.9906 5.39568C10.9906 5.39355 10.9906 5.39141 10.9906 5.38927C10.9906 5.38714 10.9906 5.385 10.9906 5.38286C10.9906 5.38071 10.9906 5.37857 10.9905 5.37643C10.9905 5.37428 10.9905 5.37214 10.9905 5.36999C10.9905 5.36784 10.9905 5.36569 10.9905 5.36354C10.9905 5.36139 10.9905 5.35923 10.9905 5.35708C10.9905 5.35492 10.9905 5.35277 10.9905 5.35061C10.9904 5.34845 10.9904 5.34629 10.9904 5.34412C10.9904 5.34196 10.9904 5.3398 10.9904 5.33763C10.9904 5.33546 10.9904 5.3333 10.9904 5.33113C10.9904 5.32896 10.9904 5.32678 10.9904 5.32461C10.9903 5.32244 10.9903 5.32026 10.9903 5.31808C10.9903 5.31591 10.9903 5.31373 10.9903 5.31155C10.9903 5.30937 10.9903 5.30718 10.9903 5.305C10.9903 5.30281 10.9903 5.30063 10.9903 5.29844C10.9903 5.29625 10.9902 5.29406 10.9902 5.29186C10.9902 5.28967 10.9902 5.28748 10.9902 5.28528C10.9902 5.28308 10.9902 5.28089 10.9902 5.27869C10.9902 5.27648 10.9902 5.27428 10.9902 5.27208C10.9902 5.26987 10.9902 5.26767 10.9901 5.26546C10.9901 5.26325 10.9901 5.26104 10.9901 5.25883C10.9901 5.25662 10.9901 5.2544 10.9901 5.25219C10.9901 5.24997 10.9901 5.24775 10.9901 5.24553C10.9901 5.24331 10.9901 5.24109 10.99 5.23887C10.99 5.23664 10.99 5.23442 10.99 5.23219C10.99 5.22996 10.99 5.22773 10.99 5.2255C10.99 5.22327 10.99 5.22103 10.99 5.2188C10.99 5.21656 10.99 5.21432 10.99 5.21208C10.9899 5.20984 10.9899 5.2076 10.9899 5.20535C10.9899 5.20311 10.9899 5.20086 10.9899 5.19862C10.9899 5.19637 10.9899 5.19412 10.9899 5.19186C10.9899 5.18961 10.9899 5.18736 10.9899 5.1851C10.9898 5.18284 10.9898 5.18058 10.9898 5.17832C10.9898 5.17606 10.9898 5.1738 10.9898 5.17153C10.9898 5.16927 10.9898 5.167 10.9898 5.16473C10.9898 5.16246 10.9898 5.16019 10.9898 5.15792C10.9897 5.15564 10.9897 5.15337 10.9897 5.15109C10.9897 5.14881 10.9897 5.14653 10.9897 5.14425C10.9897 5.14197 10.9897 5.13968 10.9897 5.1374C10.9897 5.13511 10.9897 5.13282 10.9897 5.13053C10.9897 5.12824 10.9896 5.12595 10.9896 5.12365C10.9896 5.12136 10.9896 5.11906 10.9896 5.11676C10.9896 5.11446 10.9896 5.11216 10.9896 5.10985C10.9896 5.10755 10.9896 5.10524 10.9896 5.10293C10.9896 5.10063 10.9895 5.09831 10.9895 5.096C10.9895 5.09369 10.9895 5.09137 10.9895 5.08906C10.9895 5.08674 10.9895 5.08442 10.9895 5.0821C10.9895 5.07978 10.9895 5.07745 10.9895 5.07512C10.9895 5.0728 10.9894 5.07047 10.9894 5.06814C10.9894 5.06581 10.9894 5.06347 10.9894 5.06114C10.9894 5.0588 10.9894 5.05647 10.9894 5.05413C10.9894 5.05179 10.9894 5.04944 10.9894 5.0471C10.9893 5.04475 10.9893 5.04241 10.9893 5.04006C10.9893 5.03771 10.9893 5.03536 10.9893 5.033C10.9893 5.03065 10.9893 5.02829 10.9893 5.02593C10.9893 5.02357 10.9893 5.02121 10.9893 5.01885C10.9892 5.01649 10.9892 5.01412 10.9892 5.01175C10.9892 5.00939 10.9892 5.00702 10.9892 5.00464C10.9892 5.00227 10.9892 4.99989 10.9892 4.99752C10.9892 4.99514 10.9892 4.99276 10.9892 4.99038C10.9891 4.988 10.9891 4.98561 10.9891 4.98322C10.9891 4.98084 10.9891 4.97845 10.9891 4.97606C10.9891 4.97366 10.9891 4.97127 10.9891 4.96887C10.9891 4.96648 10.9891 4.96408 10.9891 4.96167C10.989 4.95927 10.989 4.95687 10.989 4.95446C10.989 4.95206 10.989 4.94965 10.989 4.94724C10.989 4.94482 10.989 4.94241 10.989 4.93999C10.989 4.93758 10.989 4.93516 10.9889 4.93274C10.9889 4.93032 10.9889 4.92789 10.9889 4.92547C10.9889 4.92304 10.9889 4.92061 10.9889 4.91818C10.9889 4.91575 10.9889 4.91332 10.9889 4.91088C10.9889 4.90844 10.9888 4.90601 10.9888 4.90356C10.9888 4.90112 10.9888 4.89868 10.9888 4.89623C10.9888 4.89379 10.9888 4.89134 10.9888 4.88889C10.9888 4.88644 10.9888 4.88398 10.9888 4.88153C10.9888 4.87907 10.9887 4.87661 10.9887 4.87415C10.9887 4.87169 10.9887 4.86922 10.9887 4.86676C10.9887 4.86429 10.9887 4.86182 10.9887 4.85935C10.9887 4.85688 10.9887 4.8544 10.9887 4.85193C10.9886 4.84945 10.9886 4.84697 10.9886 4.84449C10.9886 4.842 10.9886 4.83952 10.9886 4.83703C10.9886 4.83455 10.9886 4.83206 10.9886 4.82956C10.9886 4.82707 10.9886 4.82457 10.9885 4.82208C10.9885 4.81958 10.9885 4.81708 10.9885 4.81458C10.9885 4.81207 10.9885 4.80957 10.9885 4.80706C10.9885 4.80455 10.9885 4.80204 10.9885 4.79952C10.9885 4.79701 10.9884 4.79449 10.9884 4.79197C10.9884 4.78946 10.9884 4.78693 10.9884 4.78441C10.9884 4.78188 10.9884 4.77936 10.9884 4.77683C10.9884 4.7743 10.9884 4.77176 10.9884 4.76923C10.9883 4.76669 10.9883 4.76416 10.9883 4.76162C10.9883 4.75907 10.9883 4.75653 10.9883 4.75398C10.9883 4.75144 10.9883 4.74889 10.9883 4.74634L8.98829 4.75354Z" fill="currentColor"/>
<path d="M14.9372 4.10969C14.9372 4.55152 14.579 4.90969 14.1372 4.90969C13.6953 4.90969 13.3372 4.55152 13.3372 4.10969C13.3372 3.66786 13.6953 3.30969 14.1372 3.30969C14.579 3.30969 14.9372 3.66786 14.9372 4.10969Z" fill="#FF2164"/>
</svg>
