<svg width="50" height="50" viewBox="0 0 50 50" fill="none" xmlns="http://www.w3.org/2000/svg">
<circle cx="25" cy="25" r="24.5" fill="currentColor" fill-opacity="0.9" stroke="black"/>
<circle cx="18" cy="18" r="6" fill="#DBFC3D"/>
<path d="M16.9227 27.6104C14.7302 28.5335 13.4609 29.9182 13.4609 31.3029C13.4609 34.1877 18.6536 36.4955 25.0001 36.4955C31.3467 36.4955 36.5393 34.1877 36.5393 31.3029C36.5393 29.8028 35.27 28.5335 33.0775 27.6104" stroke="black" stroke-linecap="round" stroke-linejoin="round"/>
<path d="M32.1542 29.1109C32.1542 29.8032 31.5772 30.3802 30.8849 30.3802H26.1538C25.4615 30.3802 24.4229 30.3802 23.7306 30.3802H18.9995C18.3072 30.3802 17.7302 29.8032 17.7302 29.1109V26.8031C17.7302 26.1107 17.7302 25.0722 17.7302 24.3798V19.5334C17.7302 18.841 18.1918 18.0333 18.7688 17.5717L23.9614 13.7638C24.5383 13.4176 25.3461 13.4176 25.923 13.7638L31.1157 17.5717C31.6926 17.9179 32.1542 18.841 32.1542 19.5334V24.2644C32.1542 24.9568 32.1542 25.9953 32.1542 26.6877V29.1109V29.1109Z" stroke="black" stroke-linecap="round" stroke-linejoin="round"/>
<path d="M27.3078 26.341C27.3078 25.0717 26.2693 24.0332 25 24.0332C23.7307 24.0332 22.6921 25.0717 22.6921 26.341V30.2644H27.3078V26.341Z" fill="black"/>
</svg>
