<svg width="50" height="50" viewBox="0 0 50 50" fill="none" xmlns="http://www.w3.org/2000/svg">
<circle cx="25" cy="25" r="24.5" fill="currentColor" fill-opacity="0.9" stroke="black"/>
<circle cx="18" cy="18" r="6" fill="#DBFC3D"/>
<path d="M16.5073 18.4817L16.9406 18.7312C17.0296 18.5764 17.0295 18.386 16.9401 18.2314C16.8508 18.0768 16.6858 17.9817 16.5073 17.9817V18.4817ZM16.5049 18.4817L16.059 18.2555C15.9804 18.4105 15.9879 18.5952 16.0789 18.7433C16.1698 18.8914 16.3311 18.9817 16.5049 18.9817V18.4817ZM17.0839 30.4014L16.658 30.6632L17.0839 30.4014ZM16.0801 35.0004L15.9059 34.5317C15.6791 34.616 15.5452 34.8507 15.588 35.0889C15.6309 35.327 15.8382 35.5004 16.0801 35.5004V35.0004ZM22.1453 35.0004V35.5004C22.4215 35.5004 22.6453 35.2765 22.6453 35.0004H22.1453ZM22.1453 32.0949H22.6453C22.6453 31.9332 22.5671 31.7815 22.4355 31.6877L22.1453 32.0949ZM18.5817 24.2256V23.7256C18.329 23.7256 18.1161 23.9141 18.0854 24.1649L18.5817 24.2256ZM18.6869 24.2256V24.7256C18.867 24.7256 19.0333 24.6287 19.122 24.4719C19.2108 24.3151 19.2083 24.1228 19.1156 23.9683L18.6869 24.2256ZM18.6811 24.2159L18.5843 23.7254C18.4245 23.7569 18.2901 23.8643 18.2241 24.0131C18.158 24.1619 18.1686 24.3336 18.2524 24.4732L18.6811 24.2159ZM22.5231 19.8143L22.9968 19.6543C22.9275 19.449 22.7338 19.3118 22.5172 19.3144C22.3005 19.317 22.1102 19.4588 22.0457 19.6657L22.5231 19.8143ZM30.7175 24.2159L31.0627 24.5776C31.2106 24.4365 31.2577 24.2195 31.1816 24.0298C31.1055 23.8401 30.9215 23.7158 30.7171 23.7159L30.7175 24.2159ZM30.7074 24.2256L30.3622 23.8639C30.2143 24.005 30.1673 24.2218 30.2432 24.4115C30.3192 24.6012 30.503 24.7256 30.7074 24.7256V24.2256ZM30.8862 24.2256L31.3825 24.1649C31.3518 23.9141 31.1388 23.7256 30.8862 23.7256V24.2256ZM27.1015 32.2461L26.8273 31.828C26.6864 31.9204 26.6015 32.0776 26.6015 32.2461H27.1015ZM27.1015 35.0004H26.6015C26.6015 35.2765 26.8253 35.5004 27.1015 35.5004V35.0004ZM33.427 35.0004V35.5004C33.6606 35.5004 33.8631 35.3386 33.9146 35.1108C33.9662 34.8829 33.8532 34.6497 33.6424 34.5491L33.427 35.0004ZM32.4358 30.4014L32.8818 30.6274L32.4358 30.4014ZM32.9582 18.4365L32.514 18.6662C32.518 18.6739 32.5222 18.6814 32.5265 18.6889L32.9582 18.4365ZM16.5073 17.9817H16.5049V18.9817H16.5073V17.9817ZM17.5099 30.1395C15.8533 27.4447 15.4065 25.1446 15.5154 23.2589C15.6247 21.367 16.2958 19.8508 16.9406 18.7312L16.074 18.2322C15.3843 19.4299 14.6385 21.0996 14.5171 23.2012C14.3954 25.3091 14.9041 27.8102 16.658 30.6632L17.5099 30.1395ZM16.2544 35.469C17.2119 35.113 17.7881 34.1821 17.9987 33.2031C18.2114 32.2148 18.081 31.0685 17.5099 30.1395L16.658 30.6632C17.0771 31.345 17.1869 32.2223 17.0211 32.9928C16.8533 33.7726 16.4326 34.3359 15.9059 34.5317L16.2544 35.469ZM22.1453 34.5004H16.0801V35.5004H22.1453V34.5004ZM21.6453 32.0949V35.0004H22.6453V32.0949H21.6453ZM18.0199 25.2558C18.0199 28.2494 19.8177 31.0503 21.8552 32.5021L22.4355 31.6877C20.6172 30.3921 19.0199 27.8754 19.0199 25.2558H18.0199ZM18.0854 24.1649C18.0422 24.5186 18.0199 24.8826 18.0199 25.2558H19.0199C19.0199 24.9224 19.0398 24.599 19.078 24.2863L18.0854 24.1649ZM18.6869 23.7256H18.5817V24.7256H18.6869V23.7256ZM18.2524 24.4732L18.2582 24.4829L19.1156 23.9683L19.1098 23.9586L18.2524 24.4732ZM22.0457 19.6657C21.6257 21.0145 20.9198 22.0034 20.2289 22.6717C19.5225 23.3549 18.8687 23.6693 18.5843 23.7254L18.7779 24.7065C19.3195 24.5996 20.1396 24.1493 20.9241 23.3905C21.7241 22.6167 22.5261 21.4864 23.0005 19.963L22.0457 19.6657ZM30.7171 23.7159C28.5524 23.7177 26.8415 23.3581 25.5674 22.6761C24.3065 22.001 23.4511 20.9992 22.9968 19.6543L22.0494 19.9743C22.5864 21.5639 23.614 22.7646 25.0954 23.5577C26.5637 24.3437 28.4543 24.7178 30.7179 24.7159L30.7171 23.7159ZM31.0526 24.5873L31.0627 24.5776L30.3723 23.8542L30.3622 23.8639L31.0526 24.5873ZM30.8862 23.7256H30.7074V24.7256H30.8862V23.7256ZM31.448 25.2558C31.448 24.8826 31.4257 24.5186 31.3825 24.1649L30.3899 24.2863C30.4281 24.599 30.448 24.9224 30.448 25.2558H31.448ZM27.3756 32.6643C29.5129 31.2629 31.448 28.3614 31.448 25.2558H30.448C30.448 27.9771 28.7247 30.5839 26.8273 31.828L27.3756 32.6643ZM27.6015 35.0004V32.2461H26.6015V35.0004H27.6015ZM33.427 34.5004H27.1015V35.5004H33.427V34.5004ZM31.9898 30.1754C30.8508 32.4233 31.7574 34.7575 33.2116 35.4516L33.6424 34.5491C32.7844 34.1396 31.9494 32.4675 32.8818 30.6274L31.9898 30.1754ZM32.5265 18.6889C35.1204 23.1256 33.3006 27.5884 31.9898 30.1754L32.8818 30.6274C34.2057 28.0145 36.2681 23.1073 33.3898 18.1842L32.5265 18.6889ZM24.7431 14.5C28.2882 14.5 31.2675 16.2551 32.514 18.6662L33.4023 18.2069C31.9539 15.4054 28.5916 13.5 24.7431 13.5V14.5ZM16.9509 18.7078C18.1846 16.2755 21.1773 14.5 24.7431 14.5V13.5C20.8727 13.5 17.4935 15.4273 16.059 18.2555L16.9509 18.7078Z" fill="black"/>
</svg>
