<svg width="20" height="10" viewBox="0 0 20 10" fill="none" xmlns="http://www.w3.org/2000/svg">
<rect width="20" height="10" fill="#1E1E1E"/>
<g id="03_&#237;&#146;&#141;&#236;&#132;&#160;&#235;&#130;&#160;&#235;&#166;&#172;&#234;&#184;&#176;">
<path d="M-260 -525C-260 -526.105 -259.105 -527 -258 -527H4418C4419.1 -527 4420 -526.105 4420 -525V854C4420 855.105 4419.1 856 4418 856H-258C-259.104 856 -260 855.105 -260 854V-525Z" fill="#404040"/>
<g id="APP_06_&#237;&#146;&#141;&#236;&#132;&#160;_03_&#237;&#146;&#141;&#236;&#132;&#160;&#235;&#130;&#160;&#235;&#166;&#172;&#234;&#184;&#176;_01_Default" clip-path="url(#clip0_3611_35525)">
<rect width="375" height="1060" transform="translate(-177 -414)" fill="white"/>
<g id="&#236;&#160;&#132;&#236;&#178;&#180;">
<g id="&#237;&#146;&#141;&#236;&#132;&#160; &#235;&#169;&#148;&#236;&#139;&#156;&#236;&#167;&#128;">
<g id="&#237;&#146;&#141;&#236;&#132;&#160; &#236;&#132;&#160;&#237;&#131;&#157;">
<g id="&#237;&#146;&#141;&#236;&#132;&#160;&#236;&#130;&#172;&#236;&#167;&#132;">
<g id="Group 26087023">
<path id="Rectangle 4254" d="M-177 0.000244141H198V180H-177V0.000244141Z" fill="#F9F9F9"/>
<path id="Rectangle 12426" d="M-177 0H198V30H-177V0Z" fill="url(#paint0_linear_3611_35525)"/>
<g id="icon/10px/Page_Semo" clip-path="url(#clip1_3611_35525)">
<path id="Rectangle 12427" d="M0.100505 0L10 -9.89949L19.8995 0L10 9.89949L0.100505 0Z" fill="white"/>
</g>
</g>
</g>
<g id="Tap/54px/Shop">
</g>
</g>
</g>
</g>
</g>
</g>
<defs>
<linearGradient id="paint0_linear_3611_35525" x1="10.5" y1="0" x2="10.5" y2="15.4545" gradientUnits="userSpaceOnUse">
<stop stop-opacity="0.02"/>
<stop offset="1" stop-color="#F9F9F9" stop-opacity="0"/>
</linearGradient>
<clipPath id="clip0_3611_35525">
<rect width="375" height="1060" fill="white" transform="translate(-177 -414)"/>
</clipPath>
<clipPath id="clip1_3611_35525">
<rect width="20" height="10" fill="white"/>
</clipPath>
</defs>
</svg>
