<svg width="20" height="20" viewBox="0 0 20 20" fill="none" xmlns="http://www.w3.org/2000/svg">
<path d="M15.0001 3.33274C13.6073 2.2866 11.8761 1.66669 10.0001 1.66669C5.39771 1.66669 1.66675 5.39765 1.66675 10C1.66675 14.6024 5.39771 18.3334 10.0001 18.3334C14.6025 18.3334 18.3334 14.6024 18.3334 10C18.3334 9.42924 18.276 8.87187 18.1667 8.33335" stroke="currentColor" stroke-linecap="round"/>
<path d="M12.6092 9.02802C12.5645 9.00735 12.5195 8.98606 12.477 8.96115L9.76377 7.37292C9.71271 7.34303 9.65965 7.31619 9.60367 7.29705C8.59088 6.95075 7.5 7.65203 7.5 8.67889V11.5697C7.5 12.5965 8.59088 13.2978 9.60367 12.9515C9.65965 12.9324 9.71271 12.9055 9.76377 12.8756L12.477 11.2874C12.5195 11.2625 12.5645 11.2412 12.6092 11.2205C13.5747 10.7747 13.5747 9.47383 12.6092 9.02802Z" stroke="currentColor" stroke-linecap="round" stroke-linejoin="round"/>
<path d="M17.7958 5.70402C17.7958 6.16425 17.4227 6.53735 16.9624 6.53735C16.5022 6.53735 16.1291 6.16425 16.1291 5.70402C16.1291 5.24378 16.5022 4.87068 16.9624 4.87068C17.4227 4.87068 17.7958 5.24378 17.7958 5.70402Z" fill="#FF2164"/>
</svg>
