<svg width="24" height="24" viewBox="0 0 24 24" fill="none" xmlns="http://www.w3.org/2000/svg">
<g clip-path="url(#clip0_2438_31797)">
<path d="M19.0995 8.14318C19.3182 11.6507 17.1113 15.2483 13.8909 16.2897L14.3191 17.3447C14.4676 17.7122 14.2816 18.1697 13.9846 18.1697H10.0149C9.71784 18.1697 9.53188 17.7104 9.6804 17.3447L10.1086 16.2898C6.88818 15.2484 4.68124 11.6507 4.89993 8.14318C5.12969 4.46202 8.03732 0.778076 11.9997 0.778076C13.6511 0.778076 15.1192 1.41792 16.2867 2.43075" stroke="currentColor" stroke-linecap="round"/>
<path d="M11.9998 18.0001C11.3816 18.6653 11.3486 19.5131 12.6221 20.939C13.86 22.3251 12.7988 23.9398 11.7743 24.8033" stroke="currentColor"/>
<path d="M19 5C19 5.55228 18.5523 6 18 6C17.4477 6 17 5.55228 17 5C17 4.44772 17.4477 4 18 4C18.5523 4 19 4.44772 19 5Z" fill="#FF2164"/>
<path d="M18.0268 18.3856C18.1809 17.9344 18.8191 17.9344 18.9732 18.3856L19.3116 19.3768C19.3617 19.5233 19.4767 19.6383 19.6232 19.6884L20.6144 20.0268C21.0656 20.1809 21.0656 20.8191 20.6144 20.9732L19.6232 21.3116C19.4767 21.3617 19.3617 21.4767 19.3116 21.6232L18.9732 22.6144C18.8191 23.0656 18.1809 23.0656 18.0268 22.6144L17.6884 21.6232C17.6383 21.4767 17.5233 21.3617 17.3768 21.3116L16.3856 20.9732C15.9344 20.8191 15.9344 20.1809 16.3856 20.0268L17.3768 19.6884C17.5233 19.6383 17.6383 19.5233 17.6884 19.3768L18.0268 18.3856Z" fill="currentColor"/>
<path d="M21.7209 14.7076C21.8208 14.4544 22.1792 14.4544 22.2791 14.7076L22.5179 15.3131C22.5484 15.3904 22.6096 15.4516 22.6869 15.4821L23.2924 15.7209C23.5456 15.8208 23.5456 16.1792 23.2924 16.2791L22.6869 16.5179C22.6096 16.5484 22.5484 16.6096 22.5179 16.6869L22.2791 17.2924C22.1792 17.5456 21.8208 17.5456 21.7209 17.2924L21.4821 16.6869C21.4516 16.6096 21.3904 16.5484 21.3131 16.5179L20.7076 16.2791C20.4544 16.1792 20.4544 15.8208 20.7076 15.7209L21.3131 15.4821C21.3904 15.4516 21.4516 15.3904 21.4821 15.3131L21.7209 14.7076Z" fill="currentColor"/>
</g>
<defs>
<clipPath id="clip0_2438_31797">
<rect width="24" height="24" fill="white"/>
</clipPath>
</defs>
</svg>
