<svg width="24" height="24" viewBox="0 0 24 24" fill="none" xmlns="http://www.w3.org/2000/svg">
<g clip-path="url(#clip0_2438_31787)">
<path d="M15.4999 1.83615C14.4847 1.17401 13.2989 0.777954 11.9997 0.777954C8.03732 0.777954 5.12969 4.4619 4.89993 8.14306C4.68124 11.6505 6.88818 15.2482 10.1086 16.2896L9.6804 17.3446C9.53188 17.7102 9.71784 18.1695 10.0149 18.1695H13.9846C14.2816 18.1695 14.4676 17.7121 14.3191 17.3446L13.8909 16.2896C15.9855 15.6123 17.6514 13.8535 18.4999 11.7414" stroke="currentColor" stroke-linecap="round"/>
<path d="M11.9998 18.0001C11.3816 18.6653 11.3486 19.5131 12.6221 20.939C13.86 22.3251 12.7988 23.9398 11.7743 24.8033" stroke="currentColor"/>
<path d="M20.4034 13.3628C20.4297 13.2638 20.5703 13.2638 20.5966 13.3628L21.0051 14.8963C21.0208 14.9551 21.0848 14.9864 21.1408 14.9627L23.4727 13.9736C23.5759 13.9299 23.662 14.0629 23.5797 14.1391L21.6488 15.9266C21.606 15.9662 21.606 16.0338 21.6488 16.0734L23.5797 17.8609C23.662 17.9371 23.5759 18.0701 23.4727 18.0264L21.1408 17.0373C21.0848 17.0136 21.0208 17.0449 21.0051 17.1037L20.5966 18.6372C20.5703 18.7362 20.4297 18.7362 20.4034 18.6372L19.99 17.0852C19.9762 17.0334 19.9239 17.0017 19.8715 17.0134L18.0872 17.4132C17.9858 17.4359 17.9213 17.3081 17.9999 17.2401L19.3461 16.0731C19.3912 16.0341 19.3923 15.9646 19.3486 15.9242L17.4203 14.1391C17.338 14.0629 17.4241 13.9299 17.5273 13.9736L19.8592 14.9627C19.9152 14.9864 19.9792 14.9551 19.9949 14.8963L20.4034 13.3628Z" fill="currentColor"/>
<path d="M17.8649 1.24562C17.9256 1.03806 18.2268 1.0612 18.2551 1.2756L18.6156 4.00474C18.6353 4.15427 18.8072 4.22896 18.93 4.14138L21.6739 2.18426C21.8577 2.05319 22.0839 2.27938 21.9529 2.46317L20.3272 4.74375C20.2226 4.89048 20.3502 5.08984 20.5272 5.05636L22.7917 4.62822C23.011 4.58675 23.1232 4.88135 22.9318 4.99623L20.6877 6.34304C20.5633 6.41768 20.5573 6.59574 20.6763 6.67864L22.7454 8.11985C22.9271 8.24638 22.799 8.53057 22.5839 8.47831L20.0552 7.86399C19.889 7.82363 19.7521 7.99682 19.8297 8.14915L21.2922 11.0187C21.3954 11.2212 21.1344 11.4116 20.9731 11.2515L18.2515 8.55051C18.1496 8.44942 17.9776 8.48535 17.9247 8.61876L17.0963 10.7081C17.0199 10.9007 16.7369 10.8643 16.7118 10.6586L16.4162 8.23778C16.3996 8.10165 16.254 8.02225 16.1306 8.082L13.5172 9.34692C13.3158 9.44441 13.1307 9.18803 13.2866 9.02754L15.155 7.1043C15.2717 6.98419 15.1979 6.78244 15.0313 6.76591L11.9443 6.45971C11.7126 6.43673 11.7005 6.10341 11.9299 6.06363L15.3763 5.46604C15.5138 5.4422 15.5852 5.28846 15.5147 5.16802L14.6395 3.67134C14.5384 3.4984 14.7261 3.3007 14.904 3.39273L16.7144 4.3289C16.8261 4.3867 16.9629 4.32818 16.9982 4.20742L17.8649 1.24562Z" fill="currentColor"/>
</g>
<defs>
<clipPath id="clip0_2438_31787">
<rect width="24" height="24" fill="white"/>
</clipPath>
</defs>
</svg>
