<svg width="24" height="24" viewBox="0 0 24 24" fill="none" xmlns="http://www.w3.org/2000/svg">
<g clip-path="url(#clip0_5727_14490)">
<mask id="path-1-inside-1_5727_14490" fill="white">
<path fill-rule="evenodd" clip-rule="evenodd" d="M13.8926 16.2896C17.113 15.2482 19.3199 11.6505 19.1012 8.14306C18.8714 4.4619 15.9638 0.777954 12.0014 0.777954C8.03903 0.777954 5.1314 4.4619 4.90164 8.14306C4.68295 11.6505 6.88989 15.2482 10.1103 16.2896L9.6821 17.3446C9.53359 17.7102 9.71955 18.1695 10.0166 18.1695H13.9863C14.2833 18.1695 14.4693 17.7121 14.3208 17.3446L13.8926 16.2896Z"/>
</mask>
<path d="M19.1012 8.14306L20.0993 8.08083L20.0993 8.08076L19.1012 8.14306ZM13.8926 16.2896L13.5849 15.3381L12.5615 15.6691L12.966 16.6657L13.8926 16.2896ZM4.90164 8.14306L3.90358 8.08076L3.90358 8.08083L4.90164 8.14306ZM10.1103 16.2896L11.0369 16.6657L11.4413 15.6691L10.418 15.3382L10.1103 16.2896ZM9.6821 17.3446L10.6086 17.721L10.6087 17.7207L9.6821 17.3446ZM14.3208 17.3446L15.2479 16.9699L15.2474 16.9686L14.3208 17.3446ZM18.1031 8.20528C18.2971 11.3165 16.3162 14.4549 13.5849 15.3381L14.2003 17.2411C17.9098 16.0415 20.3426 11.9845 20.0993 8.08083L18.1031 8.20528ZM12.0014 1.77795C15.2947 1.77795 17.8967 4.89795 18.1031 8.20535L20.0993 8.08076C19.8462 4.02585 16.6329 -0.222046 12.0014 -0.222046V1.77795ZM5.8997 8.20535C6.10613 4.89795 8.7081 1.77795 12.0014 1.77795V-0.222046C7.36996 -0.222046 4.15667 4.02585 3.90358 8.08076L5.8997 8.20535ZM10.418 15.3382C7.68667 14.4549 5.70572 11.3166 5.8997 8.20528L3.90358 8.08083C3.66019 11.9845 6.0931 16.0416 9.80259 17.2411L10.418 15.3382ZM9.18368 15.9136L8.75551 16.9686L10.6087 17.7207L11.0369 16.6657L9.18368 15.9136ZM8.75562 16.9683C8.57652 17.4092 8.59984 17.8857 8.75548 18.2698C8.89765 18.6206 9.29089 19.1695 10.0166 19.1695V17.1695C10.2164 17.1695 10.3734 17.2509 10.469 17.3329C10.5571 17.4084 10.5945 17.4827 10.6091 17.5186C10.6346 17.5816 10.6392 17.6456 10.6086 17.721L8.75562 16.9683ZM10.0166 19.1695H13.9863V17.1695H10.0166V19.1695ZM13.9863 19.1695C14.7102 19.1695 15.1042 18.6234 15.2472 18.2709C15.4034 17.886 15.4258 17.4101 15.2479 16.9699L13.3937 17.7194C13.3643 17.6466 13.3679 17.5832 13.394 17.5188C13.4088 17.4824 13.4465 17.4078 13.535 17.3322C13.631 17.2501 13.7877 17.1695 13.9863 17.1695V19.1695ZM15.2474 16.9686L14.8192 15.9136L12.966 16.6657L13.3942 17.7207L15.2474 16.9686Z" fill="black" mask="url(#path-1-inside-1_5727_14490)"/>
<path d="M12.2548 17.6692C11.6365 18.3345 11.3522 19.5131 12.6257 20.939C13.8636 22.325 12.8024 23.9398 11.778 24.8032" stroke="black"/>
</g>
<path d="M18.0268 18.3856C18.1809 17.9344 18.8191 17.9344 18.9732 18.3856L19.3116 19.3768C19.3617 19.5233 19.4767 19.6383 19.6232 19.6884L20.6144 20.0268C21.0656 20.1809 21.0656 20.8191 20.6144 20.9732L19.6232 21.3116C19.4767 21.3617 19.3617 21.4767 19.3116 21.6232L18.9732 22.6144C18.8191 23.0656 18.1809 23.0656 18.0268 22.6144L17.6884 21.6232C17.6383 21.4767 17.5233 21.3617 17.3768 21.3116L16.3856 20.9732C15.9344 20.8191 15.9344 20.1809 16.3856 20.0268L17.3768 19.6884C17.5233 19.6383 17.6383 19.5233 17.6884 19.3768L18.0268 18.3856Z" fill="black"/>
<path d="M21.7209 14.7076C21.8208 14.4544 22.1792 14.4544 22.2791 14.7076L22.5179 15.3131C22.5484 15.3904 22.6096 15.4516 22.6869 15.4821L23.2924 15.7209C23.5456 15.8208 23.5456 16.1792 23.2924 16.2791L22.6869 16.5179C22.6096 16.5484 22.5484 16.6096 22.5179 16.6869L22.2791 17.2924C22.1792 17.5456 21.8208 17.5456 21.7209 17.2924L21.4821 16.6869C21.4516 16.6096 21.3904 16.5484 21.3131 16.5179L20.7076 16.2791C20.4544 16.1792 20.4544 15.8208 20.7076 15.7209L21.3131 15.4821C21.3904 15.4516 21.4516 15.3904 21.4821 15.3131L21.7209 14.7076Z" fill="black"/>
<defs>
<clipPath id="clip0_5727_14490">
<rect width="24" height="24" fill="white"/>
</clipPath>
</defs>
</svg>
