<svg width="24" height="24" viewBox="0 0 24 24" fill="none" xmlns="http://www.w3.org/2000/svg">
<g clip-path="url(#clip0_5732_38220)">
<mask id="path-1-inside-1_5732_38220" fill="white">
<path fill-rule="evenodd" clip-rule="evenodd" d="M13.8907 16.2896C17.111 15.2482 19.3179 11.6505 19.0992 8.14306C18.8695 4.4619 15.9618 0.777954 11.9995 0.777954C8.03708 0.777954 5.12945 4.4619 4.89968 8.14306C4.681 11.6505 6.88793 15.2482 10.1083 16.2896L9.68015 17.3446C9.53164 17.7102 9.7176 18.1695 10.0146 18.1695H13.9844C14.2814 18.1695 14.4674 17.7121 14.3188 17.3446L13.8907 16.2896Z"/>
</mask>
<path d="M19.0992 8.14306L20.0973 8.08083L20.0973 8.08076L19.0992 8.14306ZM13.8907 16.2896L13.583 15.3381L12.5596 15.6691L12.9641 16.6657L13.8907 16.2896ZM4.89968 8.14306L3.90163 8.08076L3.90162 8.08083L4.89968 8.14306ZM10.1083 16.2896L11.0349 16.6657L11.4394 15.6691L10.416 15.3382L10.1083 16.2896ZM9.68015 17.3446L10.6066 17.721L10.6067 17.7207L9.68015 17.3446ZM14.3188 17.3446L15.246 16.9699L15.2454 16.9686L14.3188 17.3446ZM18.1012 8.20528C18.2952 11.3165 16.3142 14.4549 13.583 15.3381L14.1984 17.2411C17.9078 16.0415 20.3407 11.9845 20.0973 8.08083L18.1012 8.20528ZM11.9995 1.77795C15.2928 1.77795 17.8947 4.89795 18.1012 8.20535L20.0973 8.08076C19.8442 4.02585 16.6309 -0.222046 11.9995 -0.222046V1.77795ZM5.89774 8.20535C6.10418 4.89795 8.70614 1.77795 11.9995 1.77795V-0.222046C7.36801 -0.222046 4.15472 4.02585 3.90163 8.08076L5.89774 8.20535ZM10.416 15.3382C7.68472 14.4549 5.70376 11.3166 5.89775 8.20528L3.90162 8.08083C3.65823 11.9845 6.09115 16.0416 9.80063 17.2411L10.416 15.3382ZM9.18173 15.9136L8.75356 16.9686L10.6067 17.7207L11.0349 16.6657L9.18173 15.9136ZM8.75367 16.9683C8.57456 17.4092 8.59789 17.8857 8.75353 18.2698C8.89569 18.6206 9.28894 19.1695 10.0146 19.1695V17.1695C10.2144 17.1695 10.3714 17.2509 10.4671 17.3329C10.5552 17.4084 10.5926 17.4827 10.6071 17.5186C10.6326 17.5816 10.6372 17.6456 10.6066 17.721L8.75367 16.9683ZM10.0146 19.1695H13.9844V17.1695H10.0146V19.1695ZM13.9844 19.1695C14.7082 19.1695 15.1022 18.6234 15.2453 18.2709C15.4015 17.886 15.4239 17.4101 15.246 16.9699L13.3917 17.7194C13.3623 17.6466 13.366 17.5832 13.3921 17.5188C13.4068 17.4824 13.4446 17.4078 13.533 17.3322C13.629 17.2501 13.7857 17.1695 13.9844 17.1695V19.1695ZM15.2454 16.9686L14.8173 15.9136L12.9641 16.6657L13.3922 17.7207L15.2454 16.9686Z" fill="currentColor" mask="url(#path-1-inside-1_5732_38220)"/>
<path d="M12.2508 17.6692C11.6326 18.3345 11.3483 19.5131 12.6218 20.939C13.8597 22.325 12.7985 23.9398 11.774 24.8032" stroke="currentColor"/>
</g>
<path d="M18.0268 18.3856C18.1809 17.9344 18.8191 17.9344 18.9732 18.3856L19.3116 19.3768C19.3617 19.5233 19.4767 19.6383 19.6232 19.6884L20.6144 20.0268C21.0656 20.1809 21.0656 20.8191 20.6144 20.9732L19.6232 21.3116C19.4767 21.3617 19.3617 21.4767 19.3116 21.6232L18.9732 22.6144C18.8191 23.0656 18.1809 23.0656 18.0268 22.6144L17.6884 21.6232C17.6383 21.4767 17.5233 21.3617 17.3768 21.3116L16.3856 20.9732C15.9344 20.8191 15.9344 20.1809 16.3856 20.0268L17.3768 19.6884C17.5233 19.6383 17.6383 19.5233 17.6884 19.3768L18.0268 18.3856Z" fill="currentColor"/>
<path d="M21.7209 14.7076C21.8208 14.4544 22.1792 14.4544 22.2791 14.7076L22.5179 15.3131C22.5484 15.3904 22.6096 15.4516 22.6869 15.4821L23.2924 15.7209C23.5456 15.8208 23.5456 16.1792 23.2924 16.2791L22.6869 16.5179C22.6096 16.5484 22.5484 16.6096 22.5179 16.6869L22.2791 17.2924C22.1792 17.5456 21.8208 17.5456 21.7209 17.2924L21.4821 16.6869C21.4516 16.6096 21.3904 16.5484 21.3131 16.5179L20.7076 16.2791C20.4544 16.1792 20.4544 15.8208 20.7076 15.7209L21.3131 15.4821C21.3904 15.4516 21.4516 15.3904 21.4821 15.3131L21.7209 14.7076Z" fill="currentColor"/>
<defs>
<clipPath id="clip0_5732_38220">
<rect width="24" height="24" fill="white"/>
</clipPath>
</defs>
</svg>
