<svg width="24" height="24" viewBox="0 0 24 24" fill="none" xmlns="http://www.w3.org/2000/svg">
<path d="M4.32698 6.16281L4.77248 6.3898V6.3898L4.32698 6.16281ZM4.70858 21.5024L4.42127 21.0932H4.42127L4.70858 21.5024ZM18.362 19.1978L18.135 18.7523H18.135L18.362 19.1978ZM19.673 17.8868L20.1185 18.1137H20.1185L19.673 17.8868ZM19.673 6.16281L19.2275 6.3898L19.673 6.16281ZM18.362 4.85176L18.135 5.29726L18.362 4.85176ZM5.63803 4.85176L5.41103 4.40626V4.40626L5.63803 4.85176ZM7.26662 19.7064L7.55393 20.1156L7.26662 19.7064ZM3.5 9.32478C3.5 8.49295 3.49961 7.83901 3.54253 7.31367C3.58593 6.78249 3.67609 6.33891 3.88148 5.93581L4.77248 6.3898C4.65089 6.62844 4.57756 6.92577 4.53921 7.3951C4.50039 7.87027 4.5 8.47645 4.5 9.32478H3.5ZM3.5 12.5248V9.32478H4.5V12.5248H3.5ZM4.5 12.5248V19.1914H3.5V12.5248H4.5ZM4.5 19.1914V19.5248H3.5V19.1914H4.5ZM4.5 19.5248V21.1341H3.5V19.5248H4.5ZM4.5 21.1341C4.5 21.1288 4.49782 21.1177 4.49094 21.1069C4.48507 21.0976 4.47839 21.0925 4.47306 21.0897C4.46773 21.087 4.45971 21.0844 4.44876 21.0849C4.43593 21.0855 4.42563 21.0901 4.42127 21.0932L4.99589 21.9116C4.36637 22.3536 3.5 21.9033 3.5 21.1341H4.5ZM4.42127 21.0932L6.97931 19.2971L7.55393 20.1156L4.99589 21.9116L4.42127 21.0932ZM15.2 20.0248H7.84124V19.0248H15.2V20.0248ZM18.589 19.6433C18.1859 19.8487 17.7423 19.9388 17.2111 19.9822C16.6858 20.0252 16.0318 20.0248 15.2 20.0248V19.0248C16.0483 19.0248 16.6545 19.0244 17.1297 18.9856C17.599 18.9472 17.8963 18.8739 18.135 18.7523L18.589 19.6433ZM20.1185 18.1137C19.783 18.7723 19.2475 19.3077 18.589 19.6433L18.135 18.7523C18.6054 18.5126 18.9878 18.1302 19.2275 17.6598L20.1185 18.1137ZM20.5 14.7248C20.5 15.5566 20.5004 16.2106 20.4575 16.7359C20.4141 17.2671 20.3239 17.7106 20.1185 18.1137L19.2275 17.6598C19.3491 17.4211 19.4224 17.1238 19.4608 16.6545C19.4996 16.1793 19.5 15.5731 19.5 14.7248H20.5ZM20.5 9.32478V14.7248H19.5V9.32478H20.5ZM20.1185 5.93581C20.3239 6.33892 20.4141 6.78249 20.4575 7.31367C20.5004 7.83901 20.5 8.49295 20.5 9.32478H19.5C19.5 8.47645 19.4996 7.87028 19.4608 7.3951C19.4224 6.92577 19.3491 6.62844 19.2275 6.3898L20.1185 5.93581ZM18.589 4.40626C19.2475 4.74181 19.783 5.27725 20.1185 5.93581L19.2275 6.3898C18.9878 5.9194 18.6054 5.53695 18.135 5.29726L18.589 4.40626ZM15.2 4.02478C16.0318 4.02478 16.6858 4.02439 17.2111 4.06731C17.7423 4.11071 18.1859 4.20087 18.589 4.40626L18.135 5.29726C17.8963 5.17567 17.599 5.10234 17.1297 5.06399C16.6545 5.02517 16.0483 5.02478 15.2 5.02478V4.02478ZM8.8 4.02478H15.2V5.02478H8.8V4.02478ZM5.41103 4.40626C5.81413 4.20087 6.25771 4.11071 6.78889 4.06731C7.31423 4.02439 7.96817 4.02478 8.8 4.02478V5.02478C7.95167 5.02478 7.34549 5.02517 6.87032 5.06399C6.40099 5.10234 6.10366 5.17567 5.86502 5.29726L5.41103 4.40626ZM3.88148 5.93581C4.21703 5.27725 4.75247 4.74181 5.41103 4.40626L5.86502 5.29726C5.39462 5.53695 5.01217 5.9194 4.77248 6.3898L3.88148 5.93581ZM6.97931 19.2971C7.23178 19.1199 7.53275 19.0248 7.84124 19.0248V20.0248C7.73841 20.0248 7.63808 20.0565 7.55393 20.1156L6.97931 19.2971Z" fill="currentColor"/>
<rect x="8" y="12.9999" width="8" height="1" rx="0.5" fill="currentColor"/>
<path d="M8 10.4999C8 10.2237 8.22386 9.99988 8.5 9.99988H12V10.9999H8.5C8.22386 10.9999 8 10.776 8 10.4999Z" fill="currentColor"/>
</svg>
