<svg width="24" height="24" viewBox="0 0 24 24" fill="none" xmlns="http://www.w3.org/2000/svg">
<g clip-path="url(#clip0_2438_31779)">
<mask id="path-1-inside-1_2438_31779" fill="white">
<path fill-rule="evenodd" clip-rule="evenodd" d="M13.8909 16.2896C17.1113 15.2482 19.3182 11.6505 19.0995 8.14306C18.8697 4.4619 15.9621 0.777954 11.9997 0.777954C8.03732 0.777954 5.12969 4.4619 4.89993 8.14306C4.68124 11.6505 6.88818 15.2482 10.1086 16.2896L9.6804 17.3446C9.53188 17.7102 9.71784 18.1695 10.0149 18.1695H13.9846C14.2816 18.1695 14.4676 17.7121 14.3191 17.3446L13.8909 16.2896Z"/>
</mask>
<path fill-rule="evenodd" clip-rule="evenodd" d="M13.8909 16.2896C17.1113 15.2482 19.3182 11.6505 19.0995 8.14306C18.8697 4.4619 15.9621 0.777954 11.9997 0.777954C8.03732 0.777954 5.12969 4.4619 4.89993 8.14306C4.68124 11.6505 6.88818 15.2482 10.1086 16.2896L9.6804 17.3446C9.53188 17.7102 9.71784 18.1695 10.0149 18.1695H13.9846C14.2816 18.1695 14.4676 17.7121 14.3191 17.3446L13.8909 16.2896Z" fill="currentColor"/>
<path d="M19.0995 8.14306L20.0975 8.08083L20.0975 8.08076L19.0995 8.14306ZM13.8909 16.2896L13.5832 15.3381L12.5598 15.6691L12.9643 16.6657L13.8909 16.2896ZM4.89993 8.14306L3.90187 8.08076L3.90187 8.08083L4.89993 8.14306ZM10.1086 16.2896L11.0352 16.6657L11.4396 15.6691L10.4163 15.3382L10.1086 16.2896ZM9.6804 17.3446L10.6069 17.721L10.607 17.7207L9.6804 17.3446ZM14.3191 17.3446L15.2462 16.9699L15.2457 16.9686L14.3191 17.3446ZM18.1014 8.20528C18.2954 11.3165 16.3145 14.4549 13.5832 15.3381L14.1986 17.2411C17.9081 16.0415 20.3409 11.9845 20.0975 8.08083L18.1014 8.20528ZM11.9997 1.77795C15.293 1.77795 17.895 4.89795 18.1014 8.20535L20.0975 8.08076C19.8445 4.02585 16.6312 -0.222046 11.9997 -0.222046V1.77795ZM5.89799 8.20535C6.10442 4.89795 8.70639 1.77795 11.9997 1.77795V-0.222046C7.36826 -0.222046 4.15496 4.02585 3.90187 8.08076L5.89799 8.20535ZM10.4163 15.3382C7.68496 14.4549 5.70401 11.3166 5.89799 8.20528L3.90187 8.08083C3.65848 11.9845 6.09139 16.0416 9.80088 17.2411L10.4163 15.3382ZM9.18197 15.9136L8.7538 16.9686L10.607 17.7207L11.0352 16.6657L9.18197 15.9136ZM8.75391 16.9683C8.57481 17.4092 8.59813 17.8857 8.75377 18.2698C8.89594 18.6206 9.28919 19.1695 10.0149 19.1695V17.1695C10.2147 17.1695 10.3717 17.2509 10.4673 17.3329C10.5554 17.4084 10.5928 17.4827 10.6073 17.5186C10.6329 17.5816 10.6375 17.6456 10.6069 17.721L8.75391 16.9683ZM10.0149 19.1695H13.9846V17.1695H10.0149V19.1695ZM13.9846 19.1695C14.7085 19.1695 15.1025 18.6234 15.2455 18.2709C15.4017 17.886 15.4241 17.4101 15.2462 16.9699L13.3919 17.7194C13.3626 17.6466 13.3662 17.5832 13.3923 17.5188C13.4071 17.4824 13.4448 17.4078 13.5333 17.3322C13.6293 17.2501 13.786 17.1695 13.9846 17.1695V19.1695ZM15.2457 16.9686L14.8175 15.9136L12.9643 16.6657L13.3925 17.7207L15.2457 16.9686Z" fill="black" mask="url(#path-1-inside-1_2438_31779)"/>
<path d="M12.2513 17.6693C11.6331 18.3345 11.3488 19.5131 12.6223 20.939C13.8602 22.3251 12.799 23.9398 11.7745 24.8033" stroke="black"/>
<path d="M18.0268 18.3856C18.1809 17.9344 18.8191 17.9344 18.9732 18.3856L19.3116 19.3768C19.3617 19.5233 19.4767 19.6383 19.6232 19.6884L20.6144 20.0268C21.0656 20.1809 21.0656 20.8191 20.6144 20.9732L19.6232 21.3116C19.4767 21.3617 19.3617 21.4767 19.3116 21.6232L18.9732 22.6144C18.8191 23.0656 18.1809 23.0656 18.0268 22.6144L17.6884 21.6232C17.6383 21.4767 17.5233 21.3617 17.3768 21.3116L16.3856 20.9732C15.9344 20.8191 15.9344 20.1809 16.3856 20.0268L17.3768 19.6884C17.5233 19.6383 17.6383 19.5233 17.6884 19.3768L18.0268 18.3856Z" fill="currentColor"/>
<path d="M21.7209 14.7076C21.8208 14.4544 22.1792 14.4544 22.2791 14.7076L22.5179 15.3131C22.5484 15.3904 22.6096 15.4516 22.6869 15.4821L23.2924 15.7209C23.5456 15.8208 23.5456 16.1792 23.2924 16.2791L22.6869 16.5179C22.6096 16.5484 22.5484 16.6096 22.5179 16.6869L22.2791 17.2924C22.1792 17.5456 21.8208 17.5456 21.7209 17.2924L21.4821 16.6869C21.4516 16.6096 21.3904 16.5484 21.3131 16.5179L20.7076 16.2791C20.4544 16.1792 20.4544 15.8208 20.7076 15.7209L21.3131 15.4821C21.3904 15.4516 21.4516 15.3904 21.4821 15.3131L21.7209 14.7076Z" fill="currentColor"/>
</g>
<defs>
<clipPath id="clip0_2438_31779">
<rect width="24" height="24" fill="white"/>
</clipPath>
</defs>
</svg>
