<svg xmlns="http://www.w3.org/2000/svg" width="20" height="20" viewBox="0 0 20 20" fill="none">
  <path d="M13.067 2.60898C12.1225 2.2166 11.0865 2 10 2C5.58172 2 2 5.58172 2 10C2 14.4183 5.58172 18 10 18H15.0909C16.6976 18 18 16.6976 18 15.0909V10C18 8.54285 17.6104 7.17669 16.9297 6" stroke="black" stroke-linecap="round"/>
  <path d="M16.0733 4.10844C16.0733 4.5696 15.6995 4.94344 15.2383 4.94344C14.7772 4.94344 14.4033 4.5696 14.4033 4.10844C14.4033 3.64728 14.7772 3.27344 15.2383 3.27344C15.6995 3.27344 16.0733 3.64728 16.0733 4.10844Z" fill="#FF2164"/>
  <path d="M7.5 7.50033C7.5 7.04009 7.8731 6.66699 8.33333 6.66699C8.79357 6.66699 9.16667 7.04009 9.16667 7.50033V10.0003H7.5V7.50033Z" fill="black"/>
  <path d="M10.8334 7.50033C10.8334 7.04009 11.2065 6.66699 11.6667 6.66699C12.1269 6.66699 12.5 7.04009 12.5 7.50033V10.0003H10.8334V7.50033Z" fill="black"/>
</svg>