<svg width="24" height="24" viewBox="0 0 24 24" fill="none" xmlns="http://www.w3.org/2000/svg">
<g clip-path="url(#clip0_2438_32275)">
<path d="M6.48503 13.103L9.23539 18.0224L4.41448 20.8304" stroke="currentColor" stroke-linecap="round" stroke-linejoin="round"/>
<path d="M21.1686 15.0527C22.2874 13.9076 22.6896 12.6326 22.4178 11.4124C22.1416 10.1727 21.1623 8.95462 19.5237 7.98638C17.8896 7.02077 15.7374 6.38829 13.3969 6.20622C11.058 6.02426 8.68869 6.30452 6.66136 6.99617C4.628 7.68987 3.09352 8.74357 2.24667 9.95167C1.41362 11.1401 1.28191 12.419 1.83011 13.6279C2.39023 14.8632 3.65636 16.013 5.51002 16.8535C6.41959 17.2659 7.4345 17.5871 8.51232 17.8068" stroke="currentColor" stroke-linecap="round" stroke-linejoin="round"/>
<path d="M18.2483 16.6921C18.2483 17.2444 18.696 17.6921 19.2483 17.6921C19.8006 17.6921 20.2483 17.2444 20.2483 16.6921C20.2483 16.1398 19.8006 15.6921 19.2483 15.6921C18.696 15.6921 18.2483 16.1398 18.2483 16.6921Z" fill="#FF2164"/>
<path d="M11 0.999878C11 0.447593 11.4477 -0.00012207 12 -0.00012207C12.5523 -0.00012207 13 0.447593 13 0.999878V3.99988H11V0.999878Z" fill="currentColor"/>
<path d="M13 23C13 23.5523 12.5523 24 12 24C11.4477 24 11 23.5523 11 23L11 20L13 20L13 23Z" fill="currentColor"/>
<path d="M12 3.99988L12 20.0001" stroke="currentColor"/>
</g>
<defs>
<clipPath id="clip0_2438_32275">
<rect width="24" height="24" fill="white"/>
</clipPath>
</defs>
</svg>
