<svg width="20" height="20" viewBox="0 0 20 20" fill="none" xmlns="http://www.w3.org/2000/svg">
<g clip-path="url(#clip0_5568_54383)">
<path d="M6.01368 10.6783L8.00193 14.2346L4.51687 16.2645" stroke="black" stroke-width="0.833322" stroke-linecap="round" stroke-linejoin="round"/>
<path d="M16.6287 12.0878C17.4375 11.26 17.7282 10.3383 17.5317 9.45628C17.332 8.56009 16.6241 7.67952 15.4396 6.97958C14.2583 6.28153 12.7024 5.82431 11.0105 5.69268C9.31968 5.56115 7.60689 5.76375 6.14133 6.26374C4.6714 6.76523 3.56212 7.52695 2.94993 8.40029C2.34771 9.2594 2.2525 10.1839 2.64879 11.0579C3.05371 11.9509 3.969 12.7821 5.30902 13.3897C5.96655 13.6878 6.70024 13.9199 7.47939 14.0788" stroke="black" stroke-width="0.833322" stroke-linecap="round" stroke-linejoin="round"/>
<path d="M13.0938 13.5502C13.0938 14.1025 13.5415 14.5502 14.0938 14.5502C14.6461 14.5502 15.0938 14.1025 15.0938 13.5502C15.0938 12.998 14.6461 12.5502 14.0938 12.5502C13.5415 12.5502 13.0938 12.998 13.0938 13.5502Z" fill="#FF2164"/>
<path d="M9 2C9 1.44772 9.44772 1 10 1C10.5523 1 11 1.44772 11 2V4H9V2Z" fill="black"/>
<path d="M10.832 18.1669C10.832 18.6271 10.4589 19.0002 9.9987 19.0002C9.53846 19.0002 9.16536 18.6271 9.16536 18.1669L9.16536 15.6669L10.832 15.6669L10.832 18.1669Z" fill="black"/>
<path d="M10 4L10 16" stroke="black" stroke-width="0.833322"/>
</g>
<defs>
<clipPath id="clip0_5568_54383">
<rect width="20" height="20" fill="white"/>
</clipPath>
</defs>
</svg>
