<svg width="24" height="24" viewBox="0 0 24 24" fill="none" xmlns="http://www.w3.org/2000/svg">
<path d="M16.3756 3.19385L6.16208 3.19385C5.05751 3.19385 4.16208 4.08928 4.16208 5.19385L4.16208 18.9206C4.16208 20.5916 6.09012 21.5261 7.40217 20.4913C8.49739 19.6275 9.59276 18.7637 10.6875 17.8999C11.3939 17.3425 12.3855 17.3252 13.1108 17.8578L16.6865 20.4839C18.0074 21.454 19.8704 20.5107 19.8704 18.8719L19.8704 7.15885" stroke="currentColor" stroke-linecap="round" stroke-linejoin="round"/>
<path d="M20.3255 4.126C20.3255 4.64082 19.9082 5.05816 19.3933 5.05816C18.8785 5.05816 18.4612 4.64082 18.4612 4.126C18.4612 3.61119 18.8785 3.19385 19.3933 3.19385C19.9082 3.19385 20.3255 3.61119 20.3255 4.126Z" fill="#FF2164"/>
<path d="M9 9C9 8.44772 9.44772 8 10 8C10.5523 8 11 8.44772 11 9V12H9V9Z" fill="currentColor"/>
<path d="M13 9C13 8.44772 13.4477 8 14 8C14.5523 8 15 8.44772 15 9V12H13V9Z" fill="currentColor"/>
</svg>
