<svg width="20" height="20" viewBox="0 0 20 20" fill="none" xmlns="http://www.w3.org/2000/svg">
<path d="M7.0495 2.20602C5.41994 2.82147 3.96894 3.95108 2.96377 5.53508C0.497825 9.42107 1.649 14.5703 5.53499 17.0363C9.42099 19.5022 14.5703 18.3511 17.0362 14.4651C19.5021 10.5791 18.351 5.4298 14.465 2.96386C13.983 2.65803 13.4817 2.40785 12.9684 2.21161" stroke="black" stroke-linecap="round"/>
<path d="M10 14L9.64645 14.3536L10 14.7071L10.3536 14.3536L10 14ZM10.5 5C10.5 4.72386 10.2761 4.5 10 4.5C9.72386 4.5 9.5 4.72386 9.5 5L10.5 5ZM5.64645 10.3536L9.64645 14.3536L10.3536 13.6464L6.35355 9.64645L5.64645 10.3536ZM10.3536 14.3536L14.3536 10.3536L13.6464 9.64645L9.64645 13.6464L10.3536 14.3536ZM10.5 14L10.5 5L9.5 5L9.5 14L10.5 14Z" fill="black"/>
<path d="M10.4466 1.24287C10.8352 1.48947 10.9503 2.00439 10.7037 2.39299C10.4571 2.78159 9.94219 2.89671 9.55359 2.65011C9.16499 2.40352 9.04987 1.88859 9.29647 1.49999C9.54306 1.11139 10.058 0.996276 10.4466 1.24287Z" fill="#FF2164"/>
</svg>
