<svg width="20" height="20" viewBox="0 0 20 20" fill="none" xmlns="http://www.w3.org/2000/svg">
<path d="M15.5111 5.07584C15.6535 5.13575 16.2805 5.32057 16.4099 5.37501V5.37501C17.0557 5.64656 17.4442 6.31219 17.3632 7.00801L17.0597 9.61453C17.0373 9.80709 17.0261 9.90337 17.0261 10.0001C17.0261 10.0968 17.0373 10.1931 17.0597 10.3856L17.2103 11.6793C17.3498 12.8768 17.4195 13.4756 17.1391 13.956C16.8586 14.4365 16.3029 14.6702 15.1915 15.1375L13.845 15.7038C13.6763 15.7747 13.592 15.8102 13.5123 15.8545C13.4325 15.8989 13.3579 15.9518 13.2087 16.0576L11.9284 16.9657C10.9968 17.6264 10.531 17.9568 10 17.9568C9.46895 17.9568 9.00317 17.6264 8.0716 16.9657L6.79129 16.0576C6.64209 15.9518 6.56749 15.8989 6.48772 15.8545C6.40795 15.8102 6.32365 15.7747 6.15504 15.7038L4.80846 15.1375C3.6971 14.6702 3.14141 14.4365 2.86095 13.956C2.58048 13.4756 2.65021 12.8768 2.78966 11.6793L2.9403 10.3856C2.96272 10.1931 2.97393 10.0968 2.97393 10.0001C2.97393 9.90337 2.96272 9.80709 2.9403 9.61453L2.78966 8.32088C2.65021 7.12334 2.58048 6.52457 2.86095 6.04412C3.14141 5.56368 3.6971 5.33 4.80846 4.86264L6.15504 4.29636C6.32365 4.22546 6.40796 4.19 6.48772 4.14565C6.56749 4.10129 6.64209 4.04838 6.79129 3.94256L8.93188 2.42432C9.0313 2.35381 9.08101 2.31855 9.12825 2.28956C9.66308 1.96134 10.3369 1.96134 10.8717 2.28956C10.919 2.31855 10.9687 2.35381 11.0681 2.42432V2.42432L11.6667 2.91675" stroke="black" stroke-width="0.833333" stroke-linecap="round"/>
<circle cx="10.0013" cy="10.0001" r="2.91667" stroke="black" stroke-width="0.833333"/>
<path d="M14.3008 4.52368C14.3008 5.07597 13.8531 5.52368 13.3008 5.52368C12.7485 5.52368 12.3008 5.07597 12.3008 4.52368C12.3008 3.9714 12.7485 3.52368 13.3008 3.52368C13.8531 3.52368 14.3008 3.9714 14.3008 4.52368Z" fill="#FF2164"/>
</svg>
