<svg width="24" height="24" viewBox="0 0 24 24" fill="none" xmlns="http://www.w3.org/2000/svg">
<path d="M18.6133 6.09091C18.7842 6.1628 19.5366 6.38458 19.6919 6.44991V6.44991C20.4668 6.77578 20.9331 7.57453 20.8359 8.40952L20.4716 11.5373C20.4447 11.7684 20.4313 11.8839 20.4313 12C20.4313 12.1161 20.4447 12.2316 20.4716 12.4627L20.6524 14.015C20.8198 15.4521 20.9034 16.1706 20.5669 16.7471C20.2303 17.3237 19.5635 17.6041 18.2298 18.1649L16.614 18.8445C16.4116 18.9295 16.3105 18.9721 16.2147 19.0253C16.119 19.0785 16.0295 19.142 15.8505 19.269L14.3141 20.3587C13.1962 21.1516 12.6373 21.548 12 21.548C11.3627 21.548 10.8038 21.1516 9.68592 20.3587L8.14954 19.269C7.97051 19.142 7.88099 19.0785 7.78527 19.0253C7.68955 18.9721 7.58838 18.9295 7.38605 18.8445L5.77015 18.1649C4.43652 17.6041 3.7697 17.3237 3.43314 16.7471C3.09658 16.1706 3.18025 15.4521 3.34759 14.015L3.52836 12.4627C3.55527 12.2316 3.56872 12.1161 3.56872 12C3.56872 11.8839 3.55527 11.7684 3.52836 11.5373L3.34759 9.98496C3.18025 8.54791 3.09658 7.82938 3.43314 7.25285C3.7697 6.67632 4.43652 6.3959 5.77015 5.83507L7.38605 5.15554C7.58838 5.07045 7.68955 5.02791 7.78527 4.97468C7.88099 4.92145 7.97051 4.85796 8.14954 4.73098L10.7183 2.90909C10.8376 2.82447 10.8972 2.78216 10.9539 2.74737C11.5957 2.35351 12.4043 2.35351 13.0461 2.74738C13.1028 2.78217 13.1624 2.82447 13.2817 2.90909V2.90909L14 3.5" stroke="currentColor" stroke-linecap="round"/>
<circle cx="12" cy="12" r="3.5" stroke="currentColor"/>
<path d="M17.0938 5.22845C17.0938 5.78074 16.646 6.22845 16.0938 6.22845C15.5415 6.22845 15.0938 5.78074 15.0938 5.22845C15.0938 4.67617 15.5415 4.22845 16.0938 4.22845C16.646 4.22845 17.0938 4.67617 17.0938 5.22845Z" fill="#FF2164"/>
</svg>
