<svg width="20" height="20" viewBox="0 0 20 20" fill="none" xmlns="http://www.w3.org/2000/svg">
<path d="M10 2.5L9.64649 2.14645L10 1.79289L10.3536 2.14645L10 2.5ZM10.5 10.8333C10.5 11.1095 10.2762 11.3333 10 11.3333C9.7239 11.3333 9.50004 11.1095 9.50004 10.8333L10.5 10.8333ZM5.47982 6.31311L9.64649 2.14645L10.3536 2.85355L6.18693 7.02022L5.47982 6.31311ZM10.3536 2.14645L14.5203 6.31311L13.8132 7.02022L9.64649 2.85355L10.3536 2.14645ZM10.5 2.5L10.5 10.8333L9.50004 10.8333L9.50004 2.5L10.5 2.5Z" fill="black"/>
<path d="M10.8333 13.3333C10.8333 13.7936 10.4602 14.1667 9.99996 14.1667C9.53972 14.1667 9.16663 13.7936 9.16663 13.3333C9.16663 12.8731 9.53972 12.5 9.99996 12.5C10.4602 12.5 10.8333 12.8731 10.8333 13.3333Z" fill="#FF2164"/>
<path d="M13.3333 9.16675H13.5C15.3856 9.16675 16.3284 9.16675 16.9142 9.75253C17.5 10.3383 17.5 11.2811 17.5 13.1667V13.5001C17.5 15.3857 17.5 16.3285 16.9142 16.9143C16.3284 17.5001 15.3856 17.5001 13.5 17.5001H6.5C4.61438 17.5001 3.67157 17.5001 3.08579 16.9143C2.5 16.3285 2.5 15.3857 2.5 13.5001V13.1667C2.5 11.2811 2.5 10.3383 3.08579 9.75253C3.67157 9.16675 4.61438 9.16675 6.5 9.16675H6.66667" stroke="black"/>
</svg>
