<svg width="24" height="24" viewBox="0 0 24 24" fill="none" xmlns="http://www.w3.org/2000/svg">
<g clip-path="url(#clip0_5732_38206)">
<g clip-path="url(#clip1_5732_38206)">
<path d="M20.3521 3.14758C19.5985 2.39384 18.3803 2.39384 17.6267 3.14758C16.5806 4.33499 15.5964 5.57057 14.6742 6.85779C14.4264 7.2054 13.9275 7.25015 13.6281 6.94727L11.5359 4.85469C11.0438 4.36252 10.242 4.36252 9.7499 4.85469L8.50076 6.10404C8.27709 6.32776 8.27709 6.69258 8.50076 6.9163L16.092 14.5088C16.584 15.001 17.3858 15.001 17.8779 14.5088L18.6384 13.7482C19.1305 13.256 19.1305 12.4541 18.6384 11.9619L16.5462 9.86932C16.2434 9.56644 16.2881 9.07083 16.6357 8.82303C17.9192 7.90064 19.158 6.9163 20.3452 5.87345C21.0988 5.1197 21.0988 3.90133 20.3452 3.14758H20.3521Z" stroke="currentColor" stroke-miterlimit="10" stroke-linejoin="round"/>
<path d="M16.5773 15.001L8.6489 7.06775C8.34264 6.76143 7.84711 6.76143 7.54085 7.06775L2.4617 12.1478C2.23803 12.3715 2.23803 12.7363 2.4617 12.96L3.62481 14.1233C3.69708 14.1956 3.80719 14.2059 3.88978 14.1474L5.52777 13.0426C5.72048 12.9153 5.94759 13.1424 5.82027 13.3352L4.71566 14.9734C4.6606 15.056 4.67092 15.1696 4.73975 15.2385L10.5381 21.0378C10.7618 21.2615 11.1265 21.2615 11.3502 21.0378L16.5739 15.8132C16.7976 15.5895 16.7976 15.2247 16.5739 15.001H16.5773Z" stroke="currentColor" stroke-miterlimit="10" stroke-linejoin="round"/>
<path d="M8.54245 5.36022L6.19922 7.70386L6.44235 7.94703L8.78559 5.60339L8.54245 5.36022Z" fill="currentColor"/>
<path d="M18.5425 14.0576L16.1992 16.4013L16.4425 16.6446L18.7858 14.301L18.5425 14.0576Z" fill="currentColor"/>
</g>
<path d="M18.0268 18.3856C18.1809 17.9344 18.8191 17.9344 18.9732 18.3856L19.3116 19.3768C19.3617 19.5233 19.4767 19.6383 19.6232 19.6884L20.6144 20.0268C21.0656 20.1809 21.0656 20.8191 20.6144 20.9732L19.6232 21.3116C19.4767 21.3617 19.3617 21.4767 19.3116 21.6232L18.9732 22.6144C18.8191 23.0656 18.1809 23.0656 18.0268 22.6144L17.6884 21.6232C17.6383 21.4767 17.5233 21.3617 17.3768 21.3116L16.3856 20.9732C15.9344 20.8191 15.9344 20.1809 16.3856 20.0268L17.3768 19.6884C17.5233 19.6383 17.6383 19.5233 17.6884 19.3768L18.0268 18.3856Z" fill="currentColor"/>
<path d="M21.7209 14.7076C21.8208 14.4544 22.1792 14.4544 22.2791 14.7076L22.5179 15.3131C22.5484 15.3904 22.6096 15.4516 22.6869 15.4821L23.2924 15.7209C23.5456 15.8208 23.5456 16.1792 23.2924 16.2791L22.6869 16.5179C22.6096 16.5484 22.5484 16.6096 22.5179 16.6869L22.2791 17.2924C22.1792 17.5456 21.8208 17.5456 21.7209 17.2924L21.4821 16.6869C21.4516 16.6096 21.3904 16.5484 21.3131 16.5179L20.7076 16.2791C20.4544 16.1792 20.4544 15.8208 20.7076 15.7209L21.3131 15.4821C21.3904 15.4516 21.4516 15.3904 21.4821 15.3131L21.7209 14.7076Z" fill="currentColor"/>
</g>
<defs>
<clipPath id="clip0_5732_38206">
<rect width="24" height="24" fill="white"/>
</clipPath>
<clipPath id="clip1_5732_38206">
<rect width="20" height="20" fill="white" transform="translate(1.60449 1.89478)"/>
</clipPath>
</defs>
</svg>
