<svg width="24" height="24" viewBox="0 0 24 24" fill="none" xmlns="http://www.w3.org/2000/svg">
<path d="M12 3L11.6464 2.64645L12 2.29289L12.3536 2.64645L12 3ZM12.5 13C12.5 13.2761 12.2761 13.5 12 13.5C11.7239 13.5 11.5 13.2761 11.5 13L12.5 13ZM6.64645 7.64645L11.6464 2.64645L12.3536 3.35355L7.35355 8.35355L6.64645 7.64645ZM12.3536 2.64645L17.3536 7.64645L16.6464 8.35355L11.6464 3.35355L12.3536 2.64645ZM12.5 3L12.5 13L11.5 13L11.5 3L12.5 3Z" fill="currentColor"/>
<path d="M13 16C13 16.5523 12.5523 17 12 17C11.4477 17 11 16.5523 11 16C11 15.4477 11.4477 15 12 15C12.5523 15 13 15.4477 13 16Z" fill="#FF2164"/>
<path d="M16 11H17C18.8856 11 19.8284 11 20.4142 11.5858C21 12.1716 21 13.1144 21 15V17C21 18.8856 21 19.8284 20.4142 20.4142C19.8284 21 18.8856 21 17 21H7C5.11438 21 4.17157 21 3.58579 20.4142C3 19.8284 3 18.8856 3 17V15C3 13.1144 3 12.1716 3.58579 11.5858C4.17157 11 5.11438 11 7 11H8" stroke="currentColor"/>
</svg>
