<svg width="24" height="24" viewBox="0 0 24 24" fill="none" xmlns="http://www.w3.org/2000/svg">
<path d="M9 10C9 9.44772 9.44772 9 10 9C10.5523 9 11 9.44772 11 10V13H9V10Z" fill="black"/>
<path d="M13 10C13 9.44772 13.4477 9 14 9C14.5523 9 15 9.44772 15 10V13H13V10Z" fill="black"/>
<path d="M18 3.99927C16.3287 2.74389 14.2512 2 12 2C6.47715 2 2 6.47715 2 12C2 17.5228 6.47715 22 12 22C17.5228 22 22 17.5228 22 12C22 11.3151 21.9311 10.6462 21.8 10" stroke="black" stroke-linecap="round"/>
<path d="M21.3554 6.84467C21.3554 7.39696 20.9077 7.84467 20.3554 7.84467C19.8031 7.84467 19.3554 7.39696 19.3554 6.84467C19.3554 6.29239 19.8031 5.84467 20.3554 5.84467C20.9077 5.84467 21.3554 6.29239 21.3554 6.84467Z" fill="#FF2164"/>
<path d="M4.02683 3.38562C4.18092 2.9344 4.81908 2.9344 4.97317 3.38562L5.31164 4.37677C5.36166 4.52327 5.47673 4.63834 5.62323 4.68836L6.61438 5.02683C7.0656 5.18092 7.0656 5.81908 6.61438 5.97317L5.62323 6.31164C5.47673 6.36166 5.36166 6.47673 5.31164 6.62323L4.97317 7.61438C4.81908 8.0656 4.18092 8.0656 4.02683 7.61438L3.68836 6.62323C3.63834 6.47673 3.52327 6.36166 3.37677 6.31164L2.38562 5.97317C1.9344 5.81908 1.9344 5.18092 2.38562 5.02683L3.37677 4.68836C3.52327 4.63834 3.63834 4.52327 3.68836 4.37677L4.02683 3.38562Z" fill="black"/>
</svg>
