<svg width="24" height="24" viewBox="0 0 24 24" fill="none" xmlns="http://www.w3.org/2000/svg">
<path d="M5.5 12C5.5 12.5523 5.94772 13 6.5 13C7.05228 13 7.5 12.5523 7.5 12C7.5 11.4477 7.05228 11 6.5 11C5.94772 11 5.5 11.4477 5.5 12Z" fill="#FF2164"/>
<path d="M7.5 17C7.03406 17 6.80109 17 6.61732 17.0761C6.37229 17.1776 6.17761 17.3723 6.07612 17.6173C6 17.8011 6 18.0341 6 18.5V18.5C6 18.9659 6 19.1989 6.07612 19.3827C6.17761 19.6277 6.37229 19.8224 6.61732 19.9239C6.80109 20 7.03406 20 7.5 20L17.5 20C17.9659 20 18.1989 20 18.3827 19.9239C18.6277 19.8224 18.8224 19.6277 18.9239 19.3827C19 19.1989 19 18.9659 19 18.5V18.5C19 18.0341 19 17.8011 18.9239 17.6173C18.8224 17.3723 18.6277 17.1776 18.3827 17.0761C18.1989 17 17.9659 17 17.5 17L7.5 17Z" stroke="currentColor" stroke-linejoin="round"/>
<path d="M13.5 10.5C13.0341 10.5 12.8011 10.5 12.6173 10.5761C12.3723 10.6776 12.1776 10.8723 12.0761 11.1173C12 11.3011 12 11.5341 12 12V12C12 12.4659 12 12.6989 12.0761 12.8827C12.1776 13.1277 12.3723 13.3224 12.6173 13.4239C12.8011 13.5 13.0341 13.5 13.5 13.5L17.5 13.5C17.9659 13.5 18.1989 13.5 18.3827 13.4239C18.6277 13.3224 18.8224 13.1277 18.9239 12.8827C19 12.6989 19 12.4659 19 12V12C19 11.5341 19 11.3011 18.9239 11.1173C18.8224 10.8723 18.6277 10.6776 18.3827 10.5761C18.1989 10.5 17.9659 10.5 17.5 10.5L13.5 10.5Z" stroke="currentColor" stroke-linejoin="round"/>
<path d="M9.5 4C9.03406 4 8.80109 4 8.61732 4.07612C8.37229 4.17761 8.17761 4.37229 8.07612 4.61732C8 4.80109 8 5.03406 8 5.5V5.5C8 5.96594 8 6.19891 8.07612 6.38268C8.17761 6.62771 8.37229 6.82239 8.61732 6.92388C8.80109 7 9.03406 7 9.5 7L17.5 7C17.9659 7 18.1989 7 18.3827 6.92388C18.6277 6.82239 18.8224 6.62771 18.9239 6.38268C19 6.19891 19 5.96594 19 5.5V5.5C19 5.03406 19 4.80109 18.9239 4.61732C18.8224 4.37229 18.6277 4.17761 18.3827 4.07612C18.1989 4 17.9659 4 17.5 4L9.5 4Z" stroke="currentColor" stroke-linejoin="round"/>
</svg>
