<svg width="24" height="24" viewBox="0 0 24 24" fill="none" xmlns="http://www.w3.org/2000/svg">
<path d="M20 12C20 12.5523 19.5523 13 19 13C18.4477 13 18 12.5523 18 12C18 11.4477 18.4477 11 19 11C19.5523 11 20 11.4477 20 12Z" fill="#FF2164"/>
<path d="M17 17C17.4659 17 17.6989 17 17.8827 17.0761C18.1277 17.1776 18.3224 17.3723 18.4239 17.6173C18.5 17.8011 18.5 18.0341 18.5 18.5V18.5C18.5 18.9659 18.5 19.1989 18.4239 19.3827C18.3224 19.6277 18.1277 19.8224 17.8827 19.9239C17.6989 20 17.4659 20 17 20L7 20C6.53406 20 6.30109 20 6.11732 19.9239C5.87229 19.8224 5.67761 19.6277 5.57612 19.3827C5.5 19.1989 5.5 18.9659 5.5 18.5V18.5C5.5 18.0341 5.5 17.8011 5.57612 17.6173C5.67761 17.3723 5.87229 17.1776 6.11732 17.0761C6.30109 17 6.53406 17 7 17L17 17Z" stroke="currentColor" stroke-linejoin="round"/>
<path d="M14 10.5C14.4659 10.5 14.6989 10.5 14.8827 10.5761C15.1277 10.6776 15.3224 10.8723 15.4239 11.1173C15.5 11.3011 15.5 11.5341 15.5 12V12C15.5 12.4659 15.5 12.6989 15.4239 12.8827C15.3224 13.1277 15.1277 13.3224 14.8827 13.4239C14.6989 13.5 14.4659 13.5 14 13.5L10 13.5C9.53406 13.5 9.30109 13.5 9.11732 13.4239C8.87229 13.3224 8.67761 13.1277 8.57612 12.8827C8.5 12.6989 8.5 12.4659 8.5 12V12C8.5 11.5341 8.5 11.3011 8.57612 11.1173C8.67761 10.8723 8.87229 10.6776 9.11732 10.5761C9.30109 10.5 9.53406 10.5 10 10.5L14 10.5Z" stroke="currentColor" stroke-linejoin="round"/>
<path d="M17 4C17.4659 4 17.6989 4 17.8827 4.07612C18.1277 4.17761 18.3224 4.37229 18.4239 4.61732C18.5 4.80109 18.5 5.03406 18.5 5.5V5.5C18.5 5.96594 18.5 6.19891 18.4239 6.38268C18.3224 6.62771 18.1277 6.82239 17.8827 6.92388C17.6989 7 17.4659 7 17 7L7 7C6.53406 7 6.30109 7 6.11732 6.92388C5.87229 6.82239 5.67761 6.62771 5.57612 6.38268C5.5 6.19891 5.5 5.96594 5.5 5.5V5.5C5.5 5.03406 5.5 4.80109 5.57612 4.61732C5.67762 4.37229 5.87229 4.17761 6.11732 4.07612C6.30109 4 6.53406 4 7 4L17 4Z" stroke="currentColor" stroke-linejoin="round"/>
</svg>
