<svg width="20" height="20" viewBox="0 0 20 20" fill="none" xmlns="http://www.w3.org/2000/svg">
<path d="M15.9999 10C15.9999 10.4418 15.6417 10.8 15.1999 10.8C14.7581 10.8 14.3999 10.4418 14.3999 10C14.3999 9.55818 14.7581 9.20001 15.1999 9.20001C15.6417 9.20001 15.9999 9.55818 15.9999 10Z" fill="#FF2164"/>
<path d="M14.25 14.1667C14.4823 14.1667 14.5985 14.1667 14.6951 14.1859C15.0918 14.2648 15.4019 14.5749 15.4808 14.9716C15.5 15.0682 15.5 15.1844 15.5 15.4167V15.4167C15.5 15.649 15.5 15.7652 15.4808 15.8618C15.4019 16.2585 15.0918 16.5686 14.6951 16.6475C14.5985 16.6667 14.4823 16.6667 14.25 16.6667L5.75 16.6667C5.51767 16.6667 5.40151 16.6667 5.30491 16.6475C4.90822 16.5686 4.59812 16.2585 4.51921 15.8618C4.5 15.7652 4.5 15.649 4.5 15.4167V15.4167C4.5 15.1844 4.5 15.0682 4.51921 14.9716C4.59812 14.5749 4.90822 14.2648 5.30491 14.1859C5.40151 14.1667 5.51767 14.1667 5.75 14.1667L14.25 14.1667Z" stroke="currentColor" stroke-linejoin="round"/>
<path d="M9.25 8.75C9.48233 8.75 9.59849 8.75 9.69509 8.76921C10.0918 8.84812 10.4019 9.15822 10.4808 9.55491C10.5 9.65151 10.5 9.76767 10.5 10V10C10.5 10.2323 10.5 10.3485 10.4808 10.4451C10.4019 10.8418 10.0918 11.1519 9.69509 11.2308C9.59849 11.25 9.48233 11.25 9.25 11.25L5.75 11.25C5.51767 11.25 5.40151 11.25 5.30491 11.2308C4.90822 11.1519 4.59812 10.8418 4.51921 10.4451C4.5 10.3485 4.5 10.2323 4.5 10V10C4.5 9.76767 4.5 9.65151 4.51921 9.55491C4.59812 9.15822 4.90822 8.84812 5.30491 8.76921C5.40151 8.75 5.51767 8.75 5.75 8.75L9.25 8.75Z" stroke="currentColor" stroke-linejoin="round"/>
<path d="M12.25 3.33331C12.4823 3.33331 12.5985 3.33331 12.6951 3.35253C13.0918 3.43143 13.4019 3.74153 13.4808 4.13822C13.5 4.23482 13.5 4.35099 13.5 4.58331V4.58331C13.5 4.81564 13.5 4.9318 13.4808 5.0284C13.4019 5.42509 13.0918 5.73519 12.6951 5.8141C12.5985 5.83331 12.4823 5.83331 12.25 5.83331L5.74999 5.83331C5.51766 5.83331 5.4015 5.83331 5.3049 5.8141C4.90821 5.73519 4.59811 5.42509 4.51921 5.0284C4.49999 4.9318 4.49999 4.81564 4.49999 4.58331V4.58331C4.49999 4.35099 4.49999 4.23482 4.51921 4.13822C4.59811 3.74153 4.90821 3.43143 5.3049 3.35253C5.4015 3.33331 5.51766 3.33331 5.74999 3.33331L12.25 3.33331Z" stroke="currentColor" stroke-linejoin="round"/>
</svg>
