<svg width="34" height="34" viewBox="0 0 34 34" fill="none" xmlns="http://www.w3.org/2000/svg">
<rect x="8.5" y="7.5" width="17" height="19" rx="1.5" stroke="black"/>
<mask id="path-3-inside-1_2653_21778" fill="white">
<path d="M10.5 9.5C10.5 9.22386 10.7239 9 11 9H12.2C12.4761 9 12.7 9.22386 12.7 9.5C12.7 9.77614 12.4761 10 12.2 10H11C10.7239 10 10.5 9.77614 10.5 9.5Z"/>
</mask>
<path d="M11 10H12.2V8H11V10ZM12.2 9H11V11H12.2V9ZM11 9C11.2761 9 11.5 9.22386 11.5 9.5H9.5C9.5 10.3284 10.1716 11 11 11V9ZM11.7 9.5C11.7 9.22386 11.9239 9 12.2 9V11C13.0284 11 13.7 10.3284 13.7 9.5H11.7ZM12.2 10C11.9239 10 11.7 9.77614 11.7 9.5H13.7C13.7 8.67157 13.0284 8 12.2 8V10ZM11 8C10.1716 8 9.5 8.67157 9.5 9.5H11.5C11.5 9.77614 11.2761 10 11 10V8Z" fill="black" mask="url(#path-3-inside-1_2653_21778)"/>
<mask id="path-5-inside-2_2653_21778" fill="white">
<path d="M13.5 9.5C13.5 9.22386 13.7239 9 14 9H15.2C15.4761 9 15.7 9.22386 15.7 9.5C15.7 9.77614 15.4761 10 15.2 10H14C13.7239 10 13.5 9.77614 13.5 9.5Z"/>
</mask>
<path d="M14 10H15.2V8H14V10ZM15.2 9H14V11H15.2V9ZM14 9C14.2761 9 14.5 9.22386 14.5 9.5H12.5C12.5 10.3284 13.1716 11 14 11V9ZM14.7 9.5C14.7 9.22386 14.9239 9 15.2 9V11C16.0284 11 16.7 10.3284 16.7 9.5H14.7ZM15.2 10C14.9239 10 14.7 9.77614 14.7 9.5H16.7C16.7 8.67157 16.0284 8 15.2 8V10ZM14 8C13.1716 8 12.5 8.67157 12.5 9.5H14.5C14.5 9.77614 14.2761 10 14 10V8Z" fill="black" mask="url(#path-5-inside-2_2653_21778)"/>
<mask id="path-7-inside-3_2653_21778" fill="white">
<path d="M26 11.5C26 11.7761 25.7761 12 25.5 12L8.5 12C8.22386 12 8 11.7761 8 11.5C8 11.2239 8.22386 11 8.5 11L25.5 11C25.7761 11 26 11.2239 26 11.5Z"/>
</mask>
<path d="M25.5 11L8.5 11L8.5 13L25.5 13L25.5 11ZM8.5 12L25.5 12L25.5 10L8.5 10L8.5 12ZM25.5 12C25.2239 12 25 11.7761 25 11.5L27 11.5C27 10.6716 26.3284 10 25.5 10L25.5 12ZM9 11.5C9 11.7761 8.77614 12 8.5 12L8.5 10C7.67157 10 7 10.6716 7 11.5L9 11.5ZM8.5 11C8.77614 11 9 11.2239 9 11.5L7 11.5C7 12.3284 7.67157 13 8.5 13L8.5 11ZM25.5 13C26.3284 13 27 12.3284 27 11.5L25 11.5C25 11.2239 25.2239 11 25.5 11L25.5 13Z" fill="black" mask="url(#path-7-inside-3_2653_21778)"/>
<mask id="path-9-inside-4_2653_21778" fill="white">
<path d="M21.5 12C21.2239 12 21 11.7761 21 11.5L21 7.5C21 7.22386 21.2239 7 21.5 7C21.7761 7 22 7.22386 22 7.5L22 11.5C22 11.7761 21.7761 12 21.5 12Z"/>
</mask>
<path d="M22 11.5L22 7.5L20 7.5L20 11.5L22 11.5ZM21 7.5L21 11.5L23 11.5L23 7.5L21 7.5ZM21 11.5C21 11.2239 21.2239 11 21.5 11L21.5 13C22.3284 13 23 12.3284 23 11.5L21 11.5ZM21.5 8C21.2239 8 21 7.77614 21 7.5L23 7.5C23 6.67157 22.3284 6 21.5 6L21.5 8ZM22 7.5C22 7.77614 21.7761 8 21.5 8L21.5 6C20.6716 6 20 6.67157 20 7.5L22 7.5ZM20 11.5C20 12.3284 20.6716 13 21.5 13L21.5 11C21.7761 11 22 11.2239 22 11.5L20 11.5Z" fill="black" mask="url(#path-9-inside-4_2653_21778)"/>
<circle cx="17" cy="19" r="4.5" stroke="black"/>
<path d="M12.5996 18.2001C13.0996 17.5789 14.8925 16.4343 17.144 17.8067C18.0907 18.3838 19.4996 19.0001 21.1996 17.7001" stroke="black" stroke-linecap="round"/>
</svg>
