<svg width="24" height="24" viewBox="0 0 24 24" fill="none" xmlns="http://www.w3.org/2000/svg">
<path d="M11.1308 2.05191C11.5593 1.46042 12.4407 1.46042 12.8692 2.05191C13.4792 2.89378 14.6183 3.15378 15.5332 2.65993C16.1759 2.31296 16.97 2.69537 17.0995 3.41422C17.2838 4.43738 18.1973 5.16588 19.2358 5.11787C19.9654 5.08414 20.5149 5.77321 20.3197 6.47705C20.0418 7.47885 20.5488 8.53157 21.5053 8.93891C22.1773 9.22509 22.3734 10.0844 21.8921 10.6338C21.2071 11.4158 21.2071 12.5842 21.8921 13.3662C22.3734 13.9156 22.1773 14.7749 21.5053 15.0611C20.5488 15.4684 20.0418 16.5212 20.3197 17.5229C20.5149 18.2268 19.9654 18.9159 19.2358 18.8821C18.1973 18.8341 17.2838 19.5626 17.0995 20.5858C16.97 21.3046 16.1759 21.687 15.5332 21.3401C14.6183 20.8462 13.4792 21.1062 12.8692 21.9481C12.4407 22.5396 11.5593 22.5396 11.1308 21.9481C10.5208 21.1062 9.38167 20.8462 8.46683 21.3401C7.82408 21.687 7.03001 21.3046 6.90054 20.5858C6.71625 19.5626 5.80274 18.8341 4.76422 18.8821C4.03458 18.9159 3.48507 18.2268 3.68031 17.5229C3.95821 16.5212 3.45125 15.4684 2.49475 15.0611C1.82273 14.7749 1.62661 13.9156 2.1079 13.3662C2.79294 12.5842 2.79294 11.4158 2.1079 10.6338C1.62661 10.0844 1.82273 9.22509 2.49475 8.93891C3.45125 8.53157 3.95821 7.47885 3.68031 6.47705C3.48507 5.77321 4.03458 5.08414 4.76422 5.11787C5.80274 5.16588 6.71625 4.43738 6.90054 3.41422C7.03001 2.69537 7.82408 2.31296 8.46683 2.65993C9.38167 3.15378 10.5208 2.89378 11.1308 2.05191Z" stroke="black"/>
<path d="M11.6598 5.50908L12 5.50017L12.3402 5.50908L12.6794 5.53578L13.0168 5.5802L13.3514 5.64221L13.6823 5.72165L14.0086 5.81829L14.3293 5.93189L14.6437 6.06211L14.9509 6.20861L15.2499 6.37098L15.5401 6.54878L15.8205 6.74153L16.0905 6.94868L16.3492 7.16969L16.5961 7.40392L16.8303 7.65076L17.0513 7.90953L17.2585 8.1795L17.4512 8.45994L17.629 8.75009L17.7914 9.04914L17.9379 9.35628L18.0681 9.67067L18.1817 9.99144L18.2783 10.3177L18.3578 10.6486L18.4198 10.9832L18.4642 11.3206L18.4909 11.6598L18.4998 12L18.4909 12.3402L18.4642 12.6794L18.4198 13.0168L18.3578 13.3514L18.2784 13.6823L18.1817 14.0086L18.0681 14.3293L17.9379 14.6437L17.7914 14.9509L17.629 15.2499L17.4512 15.5401L17.2585 15.8205L17.0513 16.0905L16.8303 16.3492L16.5961 16.5961L16.3492 16.8303L16.0905 17.0513L15.8205 17.2585L15.5401 17.4512L15.2499 17.629L14.9509 17.7914L14.6437 17.9379L14.3293 18.0681L14.0086 18.1817L13.6823 18.2784L13.3514 18.3578L13.0168 18.4198L12.6794 18.4642L12.3402 18.4909L12 18.4998L11.6598 18.4909L11.3206 18.4642L10.9832 18.4198L10.6486 18.3578L10.3177 18.2783L9.99144 18.1817L9.67067 18.0681L9.35628 17.9379L9.04914 17.7914L8.75009 17.629L8.45994 17.4512L8.1795 17.2585L7.90953 17.0513L7.65076 16.8303L7.40392 16.5961L7.16969 16.3492L6.94868 16.0905L6.74153 15.8205L6.54878 15.5401L6.37098 15.2499L6.20861 14.9509L6.06211 14.6437L5.93189 14.3293L5.81829 14.0086L5.72165 13.6823L5.64221 13.3514L5.5802 13.0168L5.53578 12.6794L5.50908 12.3402L5.50017 12L5.50908 11.6598L5.53578 11.3206L5.5802 10.9832L5.64221 10.6486L5.72165 10.3177L5.8183 9.99144L5.93189 9.67067L6.06211 9.35628L6.20861 9.04914L6.37098 8.75008L6.54878 8.45994L6.74153 8.1795L6.94868 7.90953L7.16969 7.65076L7.40393 7.40393L7.65076 7.16969L7.90953 6.94868L8.1795 6.74153L8.45994 6.54878L8.75008 6.37098L9.04914 6.20861L9.35628 6.06211L9.67067 5.93189L9.99144 5.8183L10.3177 5.72165L10.6486 5.64221L10.9832 5.5802L11.3206 5.53578L11.6598 5.50908Z" fill="currentColor" stroke="black"/>
<path d="M15.0771 12.5436C15.0771 13.5365 14.2722 14.3415 13.2793 14.3415" stroke="black" stroke-linecap="round"/>
<path d="M9.6001 10.1993C9.6001 9.86828 9.8684 9.59998 10.1994 9.59998C10.5303 9.59998 10.7986 9.86828 10.7986 10.1992V11.9972H9.6001V10.1993Z" fill="black"/>
<path d="M12.5435 10.1993C12.5435 9.86828 12.8118 9.59998 13.1427 9.59998C13.4737 9.59998 13.742 9.86828 13.742 10.1992V11.9972H12.5435V10.1993Z" fill="black"/>
</svg>
