<svg width="24" height="24" viewBox="0 0 24 24" fill="none" xmlns="http://www.w3.org/2000/svg">
<path d="M14.9346 21L7.05501 21C6.1962 21 5.5 20.2819 5.5 19.396V10.9604C5.37526 10.9249 5.25477 10.8734 5.14148 10.8066L1.39183 9.04335C0.946714 8.78099 0.865295 8.15386 1.22781 7.77994L3.58487 5.34867C4.73074 4.16673 6.20601 3.38363 7.80447 3.10883L8.4373 3.00004C8.76148 4.72454 10.2333 6.0266 11.9999 6.0266C13.7665 6.0266 15.2383 4.72452 15.5625 3L16.1955 3.10883C17.794 3.38363 19.2693 4.16673 20.4151 5.34867L22.7722 7.77994C23.1347 8.15386 23.0533 8.78099 22.6082 9.04335L18.8586 10.8066C18.7453 10.8734 18.6248 10.9249 18.5 10.9604V17.625" stroke="currentColor" stroke-linecap="round" stroke-linejoin="round"/>
<path d="M14.0268 15.3856C14.1809 14.9344 14.8191 14.9344 14.9732 15.3856L15.0571 15.6313C15.1071 15.7778 15.2222 15.8929 15.3687 15.9429L15.6144 16.0268C16.0656 16.1809 16.0656 16.8191 15.6144 16.9732L15.3687 17.0571C15.2222 17.1071 15.1071 17.2222 15.0571 17.3687L14.9732 17.6144C14.8191 18.0656 14.1809 18.0656 14.0268 17.6144L13.9429 17.3687C13.8929 17.2222 13.7778 17.1071 13.6313 17.0571L13.3856 16.9732C12.9344 16.8191 12.9344 16.1809 13.3856 16.0268L13.6313 15.9429C13.7778 15.8929 13.8929 15.7778 13.9429 15.6313L14.0268 15.3856Z" fill="currentColor"/>
<path d="M11.2209 13.7076C11.3208 13.4544 11.6792 13.4544 11.7791 13.7076L11.8765 13.9545C11.907 14.0318 11.9682 14.093 12.0455 14.1235L12.2924 14.2209C12.5456 14.3208 12.5456 14.6792 12.2924 14.7791L12.0455 14.8765C11.9682 14.907 11.907 14.9682 11.8765 15.0455L11.7791 15.2924C11.6792 15.5456 11.3208 15.5456 11.2209 15.2924L11.1235 15.0455C11.093 14.9682 11.0318 14.907 10.9545 14.8765L10.7076 14.7791C10.4544 14.6792 10.4544 14.3208 10.7076 14.2209L10.9545 14.1235C11.0318 14.093 11.093 14.0318 11.1235 13.9545L11.2209 13.7076Z" fill="currentColor"/>
<path d="M19 20.5C19 21.0523 18.5523 21.5 18 21.5C17.4477 21.5 17 21.0523 17 20.5C17 19.9477 17.4477 19.5 18 19.5C18.5523 19.5 19 19.9477 19 20.5Z" fill="#FF2164"/>
<path d="M5 9.5C5 9.22386 5.22386 9 5.5 9C5.77614 9 6 9.22386 6 9.5V11.5C6 11.7761 5.77614 12 5.5 12C5.22386 12 5 11.7761 5 11.5V9.5Z" fill="currentColor"/>
<path d="M18 9.5C18 9.22386 18.2239 9 18.5 9C18.7761 9 19 9.22386 19 9.5V11.5C19 11.7761 18.7761 12 18.5 12C18.2239 12 18 11.7761 18 11.5V9.5Z" fill="currentColor"/>
</svg>
