<svg width="34" height="34" viewBox="0 0 34 34" fill="none" xmlns="http://www.w3.org/2000/svg">
<path d="M26.5 22.5C26.5 22.7748 26.3421 23.1075 25.8954 23.4771C25.4519 23.8441 24.7801 24.197 23.9059 24.5029C22.1621 25.1133 19.7205 25.5 17 25.5C14.2795 25.5 11.8379 25.1133 10.0941 24.5029C9.21991 24.197 8.5481 23.8441 8.10461 23.4771C7.65794 23.1075 7.5 22.7748 7.5 22.5C7.5 22.2252 7.65794 21.8925 8.10461 21.5229C8.5481 21.1559 9.21991 20.803 10.0941 20.4971C11.8379 19.8867 14.2795 19.5 17 19.5C19.7205 19.5 22.1621 19.8867 23.9059 20.4971C24.7801 20.803 25.4519 21.1559 25.8954 21.5229C26.3421 21.8925 26.5 22.2252 26.5 22.5Z" stroke="black"/>
<path d="M17 6.5L7.5 22.5" stroke="black" stroke-linecap="round"/>
<path d="M17 6.5L26.5 22.5" stroke="black" stroke-linecap="round"/>
<path d="M17 6.5V22" stroke="black" stroke-linecap="round"/>
</svg>
