<svg width="24" height="24" viewBox="0 0 24 24" fill="none" xmlns="http://www.w3.org/2000/svg">
<path d="M5.97016 12.232H9.52216L8.96216 10.44C8.53016 9.11197 8.16216 7.83197 7.77816 6.47197H7.71416C7.34616 7.84797 6.96216 9.11197 6.54616 10.44L5.97016 12.232ZM11.0102 17L9.89016 13.416H5.60216L4.46616 17H2.96216L6.94616 5.27197H8.59416L12.5782 17H11.0102Z" fill="currentColor"/>
<path d="M15.5268 17.208C14.0708 17.208 12.9828 16.312 12.9828 14.744C12.9828 12.856 14.6308 11.912 18.3268 11.496C18.3268 10.376 17.9588 9.30397 16.5348 9.30397C15.5268 9.30397 14.6148 9.76797 13.9268 10.232L13.3508 9.22397C14.1508 8.71197 15.3828 8.08797 16.7748 8.08797C18.8868 8.08797 19.7828 9.51197 19.7828 11.656V17H18.5828L18.4548 15.96H18.4068C17.5748 16.648 16.5988 17.208 15.5268 17.208ZM15.9428 16.04C16.7908 16.04 17.4788 15.64 18.3268 14.888V12.456C15.3988 12.808 14.4068 13.528 14.4068 14.648C14.4068 15.64 15.0788 16.04 15.9428 16.04Z" fill="currentColor"/>
</svg>
