<svg width="20" height="20" viewBox="0 0 20 20" fill="none" xmlns="http://www.w3.org/2000/svg">
<path d="M9 7.5C9 7.22386 9.22386 7 9.5 7C9.77614 7 10 7.22386 10 7.5V10H9V7.5Z" fill="currentColor"/>
<path d="M12.5 10C12.7761 10 13 10.2239 13 10.5C13 10.7761 12.7761 11 12.5 11L9 11L9 10L12.5 10Z" fill="currentColor"/>
<path d="M17 6C17 6.55229 16.5523 7 16 7C15.4477 7 15 6.55229 15 6C15 5.44771 15.4477 5 16 5C16.5523 5 17 5.44771 17 6Z" fill="#FF2164"/>
<path d="M14.2 4.39949C13.0301 3.52072 11.5758 3 10 3C6.13401 3 3 6.13401 3 10C3 13.866 6.13401 17 10 17C13.866 17 17 13.866 17 10C17 9.52055 16.9518 9.05235 16.86 8.6" stroke="currentColor" stroke-linecap="round"/>
</svg>
