<svg width="32" height="32" viewBox="0 0 32 32" fill="none" xmlns="http://www.w3.org/2000/svg">
<circle cx="16" cy="16" r="15.5" fill="white" stroke="black"/>
<path d="M10 11C10 10.4477 10.4477 10 11 10H19V12H11C10.4477 12 10 11.5523 10 11Z" fill="black"/>
<path d="M13 16C13 15.4477 13.4477 15 14 15H21C21.5523 15 22 15.4477 22 16C22 16.5523 21.5523 17 21 17H14C13.4477 17 13 16.5523 13 16Z" fill="black"/>
<path d="M10 21C10 20.4477 10.4477 20 11 20H21C21.5523 20 22 20.4477 22 21C22 21.5523 21.5523 22 21 22H11C10.4477 22 10 21.5523 10 21Z" fill="black"/>
<circle cx="21" cy="11" r="1" fill="black"/>
</svg>
