<svg width="24" height="24" viewBox="0 0 24 24" fill="none" xmlns="http://www.w3.org/2000/svg">
<mask id="path-1-inside-1_2438_31405" fill="white">
<path d="M9.62667 2.74924C10.7706 1.90608 11.3425 1.4845 12 1.4845C12.6574 1.4845 13.2294 1.90608 14.3733 2.74924L16.0942 4.01769C16.2744 4.15052 16.3645 4.21693 16.4612 4.27278C16.558 4.32863 16.6605 4.37346 16.8657 4.46311L18.8246 5.31923C20.1268 5.88831 20.7779 6.17284 21.1066 6.7422C21.4353 7.31156 21.3562 8.01768 21.1979 9.42991L20.9599 11.5545C20.935 11.777 20.9225 11.8882 20.9225 11.9999C20.9225 12.1116 20.935 12.2228 20.9599 12.4453L21.1979 14.5699C21.3562 15.9821 21.4353 16.6883 21.1066 17.2576C20.7779 17.827 20.1268 18.1115 18.8246 18.6806L16.8657 19.5367C16.6605 19.6264 16.558 19.6712 16.4612 19.727C16.3645 19.7829 16.2744 19.8493 16.0942 19.9821L14.3733 21.2506C13.2294 22.0937 12.6574 22.5153 12 22.5153C11.3425 22.5153 10.7706 22.0937 9.62667 21.2506L7.90576 19.9821C7.72555 19.8493 7.63545 19.7829 7.53871 19.727C7.44198 19.6712 7.33941 19.6264 7.13427 19.5367L5.1753 18.6806C3.87315 18.1115 3.22208 17.827 2.89336 17.2576C2.56464 16.6883 2.64376 15.9821 2.802 14.5699L3.04006 12.4453C3.06499 12.2228 3.07745 12.1116 3.07745 11.9999C3.07745 11.8882 3.06499 11.777 3.04006 11.5545L2.802 9.42991C2.64376 8.01768 2.56464 7.31156 2.89336 6.7422C3.22208 6.17284 3.87315 5.88831 5.1753 5.31923L7.13427 4.46311C7.33941 4.37346 7.44198 4.32863 7.53871 4.27278C7.63545 4.21693 7.72555 4.15052 7.90576 4.01769L9.62667 2.74924Z"/>
</mask>
<path d="M7.90576 4.01769L9.09241 5.62762L7.90576 4.01769ZM7.53871 4.27278L6.53871 2.54073L7.53871 4.27278ZM2.802 9.42991L4.78956 9.2072L2.802 9.42991ZM3.04006 11.5545L1.0525 11.7772L3.04006 11.5545ZM3.07745 11.9999H5.07745H3.07745ZM5.1753 18.6806L4.37439 20.5132L5.1753 18.6806ZM2.89336 17.2576L4.62541 16.2576L2.89336 17.2576ZM7.90576 19.9821L9.09241 18.3722L7.90576 19.9821ZM7.13427 19.5367L7.93518 17.7041L7.13427 19.5367ZM7.53871 19.727L6.53871 21.4591L7.53871 19.727ZM14.3733 21.2506L15.5599 22.8605L14.3733 21.2506ZM9.62667 21.2506L8.44001 22.8605L9.62667 21.2506ZM12 22.5153V24.5153V22.5153ZM16.8657 19.5367L17.6666 21.3693L16.8657 19.5367ZM16.0942 19.9821L14.9075 18.3722L16.0942 19.9821ZM16.4612 19.727L17.4612 21.4591L16.4612 19.727ZM21.1979 14.5699L23.1855 14.3472L21.1979 14.5699ZM18.8246 18.6806L18.0237 16.848L18.8246 18.6806ZM21.1066 17.2576L22.8386 18.2576L21.1066 17.2576ZM20.9599 11.5545L18.9723 11.3318L20.9599 11.5545ZM20.9599 12.4453L22.9474 12.2226L20.9599 12.4453ZM20.9225 11.9999H18.9225H20.9225ZM18.8246 5.31923L18.0237 7.15186L18.8246 5.31923ZM21.1979 9.42991L19.2104 9.20721L21.1979 9.42991ZM21.1066 6.7422L22.8386 5.7422L21.1066 6.7422ZM16.0942 4.01769L17.2808 2.40777L16.0942 4.01769ZM16.8657 4.46311L17.6666 2.63048L16.8657 4.46311ZM16.4612 4.27278L17.4612 2.54073L16.4612 4.27278ZM14.3733 2.74924L13.1866 4.35916L14.3733 2.74924ZM9.62667 2.74924L8.44002 1.13931L9.62667 2.74924ZM12 1.4845V3.4845V1.4845ZM13.1866 4.35916L14.9075 5.62762L17.2808 2.40777L15.5599 1.13931L13.1866 4.35916ZM16.0648 6.29574L18.0237 7.15186L19.6255 3.4866L17.6666 2.63048L16.0648 6.29574ZM19.2104 9.20721L18.9723 11.3318L22.9474 11.7772L23.1855 9.65262L19.2104 9.20721ZM18.9723 12.668L19.2104 14.7926L23.1855 14.3472L22.9474 12.2226L18.9723 12.668ZM18.0237 16.848L16.0648 17.7041L17.6666 21.3693L19.6255 20.5132L18.0237 16.848ZM14.9075 18.3722L13.1866 19.6407L15.5599 22.8605L17.2808 21.5921L14.9075 18.3722ZM10.8133 19.6407L9.09241 18.3722L6.71911 21.5921L8.44001 22.8605L10.8133 19.6407ZM7.93518 17.7041L5.97621 16.848L4.37439 20.5132L6.33336 21.3693L7.93518 17.7041ZM4.78956 14.7926L5.02762 12.668L1.0525 12.2226L0.814439 14.3472L4.78956 14.7926ZM5.02762 11.3318L4.78956 9.2072L0.814439 9.65262L1.0525 11.7772L5.02762 11.3318ZM5.97621 7.15186L7.93518 6.29574L6.33336 2.63048L4.37439 3.4866L5.97621 7.15186ZM9.09241 5.62762L10.8133 4.35916L8.44002 1.13931L6.71911 2.40777L9.09241 5.62762ZM7.93518 6.29574C8.10181 6.22292 8.32327 6.12922 8.53871 6.00483L6.53871 2.54073C6.55858 2.52926 6.56581 2.52693 6.53564 2.54092C6.49704 2.55882 6.44357 2.58231 6.33336 2.63048L7.93518 6.29574ZM6.71911 2.40777C6.6223 2.47912 6.57521 2.51369 6.54041 2.53817C6.51321 2.5573 6.51885 2.5522 6.53871 2.54073L8.53871 6.00483C8.75416 5.88045 8.94603 5.73551 9.09241 5.62762L6.71911 2.40777ZM4.78956 9.2072C4.70523 8.45458 4.66404 8.05908 4.66506 7.77719C4.66588 7.54742 4.69896 7.61481 4.62541 7.7422L1.16131 5.7422C0.759038 6.43895 0.667311 7.14408 0.665081 7.76277C0.663038 8.32934 0.740529 8.99301 0.814439 9.65262L4.78956 9.2072ZM4.37439 3.4866C3.7662 3.75239 3.1527 4.01712 2.66306 4.30218C2.12837 4.61345 1.56357 5.04545 1.16131 5.7422L4.62541 7.7422C4.55186 7.86959 4.47696 7.87465 4.67553 7.75905C4.91914 7.61722 5.28225 7.45514 5.97621 7.15186L4.37439 3.4866ZM5.02762 12.668C5.04787 12.4873 5.07745 12.2487 5.07745 11.9999H1.07745C1.07745 11.977 1.07905 11.9695 1.07608 12.0027C1.07228 12.045 1.06589 12.1031 1.0525 12.2226L5.02762 12.668ZM1.0525 11.7772C1.06589 11.8967 1.07228 11.9548 1.07608 11.9972C1.07905 12.0303 1.07745 12.0228 1.07745 11.9999H5.07745C5.07745 11.7511 5.04787 11.5125 5.02762 11.3318L1.0525 11.7772ZM5.97621 16.848C5.28225 16.5447 4.91914 16.3826 4.67553 16.2408C4.47696 16.1252 4.55186 16.1302 4.62541 16.2576L1.16131 18.2576C1.56357 18.9544 2.12837 19.3864 2.66306 19.6976C3.1527 19.9827 3.7662 20.2474 4.37439 20.5132L5.97621 16.848ZM0.814439 14.3472C0.740529 15.0068 0.663038 15.6705 0.665081 16.237C0.667311 16.8557 0.759038 17.5609 1.16131 18.2576L4.62541 16.2576C4.69896 16.385 4.66588 16.4524 4.66506 16.2226C4.66404 15.9407 4.70523 15.5452 4.78956 14.7926L0.814439 14.3472ZM9.09241 18.3722C8.94603 18.2643 8.75416 18.1194 8.53871 17.995L6.53871 21.4591C6.51885 21.4476 6.51321 21.4425 6.54041 21.4616C6.57521 21.4861 6.6223 21.5207 6.71911 21.5921L9.09241 18.3722ZM6.33336 21.3693C6.44357 21.4175 6.49704 21.441 6.53564 21.4589C6.56581 21.4729 6.55858 21.4706 6.53871 21.4591L8.53871 17.995C8.32327 17.8706 8.10181 17.7769 7.93518 17.7041L6.33336 21.3693ZM13.1866 19.6407C12.577 20.09 12.2551 20.3234 12.0104 20.4635C11.811 20.5777 11.8529 20.5153 12 20.5153V24.5153C12.8045 24.5153 13.461 24.2422 13.9979 23.9348C14.4896 23.6533 15.0256 23.2543 15.5599 22.8605L13.1866 19.6407ZM8.44001 22.8605C8.9743 23.2543 9.51031 23.6533 10.002 23.9348C10.5389 24.2422 11.1954 24.5153 12 24.5153V20.5153C12.1471 20.5153 12.1889 20.5777 11.9895 20.4635C11.7449 20.3234 11.4229 20.09 10.8133 19.6407L8.44001 22.8605ZM16.0648 17.7041C15.8981 17.7769 15.6767 17.8706 15.4612 17.995L17.4612 21.4591C17.4414 21.4706 17.4341 21.4729 17.4643 21.4589C17.5029 21.441 17.5564 21.4175 17.6666 21.3693L16.0648 17.7041ZM17.2808 21.5921C17.3776 21.5207 17.4247 21.4861 17.4595 21.4616C17.4867 21.4425 17.4811 21.4476 17.4612 21.4591L15.4612 17.995C15.2458 18.1194 15.0539 18.2643 14.9075 18.3722L17.2808 21.5921ZM19.2104 14.7926C19.2947 15.5452 19.3359 15.9407 19.3349 16.2226C19.3341 16.4524 19.301 16.385 19.3745 16.2576L22.8386 18.2576C23.2409 17.5609 23.3326 16.8557 23.3349 16.237C23.3369 15.6705 23.2594 15.0068 23.1855 14.3472L19.2104 14.7926ZM19.6255 20.5132C20.2337 20.2474 20.8472 19.9827 21.3369 19.6976C21.8716 19.3864 22.4364 18.9544 22.8386 18.2576L19.3745 16.2576C19.4481 16.1302 19.523 16.1252 19.3244 16.2408C19.0808 16.3826 18.7177 16.5447 18.0237 16.848L19.6255 20.5132ZM18.9723 11.3318C18.9521 11.5125 18.9225 11.7511 18.9225 11.9999H22.9225C22.9225 12.0228 22.9209 12.0303 22.9239 11.9972C22.9277 11.9548 22.934 11.8967 22.9474 11.7772L18.9723 11.3318ZM22.9474 12.2226C22.934 12.1031 22.9277 12.045 22.9239 12.0027C22.9209 11.9695 22.9225 11.977 22.9225 11.9999H18.9225C18.9225 12.2487 18.9521 12.4873 18.9723 12.668L22.9474 12.2226ZM18.0237 7.15186C18.7177 7.45514 19.0808 7.61722 19.3244 7.75905C19.523 7.87465 19.4481 7.86959 19.3745 7.7422L22.8386 5.7422C22.4364 5.04545 21.8716 4.61345 21.3369 4.30218C20.8472 4.01712 20.2337 3.75239 19.6255 3.4866L18.0237 7.15186ZM23.1855 9.65262C23.2594 8.99301 23.3369 8.32934 23.3349 7.76277C23.3326 7.14408 23.2409 6.43895 22.8386 5.7422L19.3745 7.7422C19.301 7.61481 19.3341 7.54742 19.3349 7.77719C19.3359 8.05908 19.2947 8.45458 19.2104 9.20721L23.1855 9.65262ZM14.9075 5.62762C15.0539 5.73551 15.2458 5.88045 15.4612 6.00483L17.4612 2.54073C17.4811 2.5522 17.4867 2.5573 17.4595 2.53817C17.4247 2.51369 17.3776 2.47912 17.2808 2.40777L14.9075 5.62762ZM17.6666 2.63048C17.5564 2.58231 17.5029 2.55882 17.4643 2.54092C17.4341 2.52693 17.4414 2.52926 17.4612 2.54073L15.4612 6.00483C15.6767 6.12922 15.8981 6.22292 16.0648 6.29574L17.6666 2.63048ZM15.5599 1.13931C15.0256 0.7455 14.4896 0.346553 13.9979 0.0650371C13.461 -0.242376 12.8045 -0.515503 12 -0.515503V3.4845C11.8529 3.4845 11.811 3.42216 12.0104 3.53633C12.2551 3.67639 12.577 3.90981 13.1866 4.35916L15.5599 1.13931ZM10.8133 4.35916C11.4229 3.90981 11.7449 3.67639 11.9895 3.53633C12.1889 3.42216 12.1471 3.4845 12 3.4845V-0.515503C11.1954 -0.515503 10.5389 -0.242376 10.002 0.0650369C9.51031 0.346552 8.9743 0.745499 8.44002 1.13931L10.8133 4.35916Z" fill="currentColor" mask="url(#path-1-inside-1_2438_31405)"/>
<circle cx="12" cy="12" r="3" stroke="currentColor" stroke-width="2"/>
<circle cx="19.5" cy="1.5" r="1.5" fill="#FF2164"/>
</svg>
