<svg width="24" height="24" viewBox="0 0 24 24" fill="none" xmlns="http://www.w3.org/2000/svg">
<path d="M20.4991 11.3734L20.4971 11.4126V11.4519V19.7778C20.4971 20.1769 20.1737 20.5 19.7752 20.5H4.2219C3.82341 20.5 3.5 20.1769 3.5 19.7778V11.4198L3.51177 11.3726L3.52027 11.2354C3.52946 11.0871 3.59153 10.9341 3.73038 10.8036L11.2764 3.71153C11.5719 3.43381 12.0617 3.42842 12.3642 3.70208L13.3704 2.58961L12.3642 3.70208L20.2785 10.8602C20.4442 11.0101 20.5084 11.1963 20.4991 11.3734Z" stroke="currentColor" stroke-width="3"/>
<circle cx="19.5" cy="3.5" r="1.5" fill="#FF2164"/>
<path d="M9 15C9 14.4477 9.44772 14 10 14H15V16H10C9.44772 16 9 15.5523 9 15Z" fill="currentColor"/>
</svg>
