<svg width="20" height="20" viewBox="0 0 20 20" fill="none" xmlns="http://www.w3.org/2000/svg">
<path d="M7.0495 2.20602C5.41994 2.82147 3.96894 3.95108 2.96377 5.53508C0.497825 9.42107 1.649 14.5703 5.53499 17.0363C9.42099 19.5022 14.5703 18.3511 17.0362 14.4651C19.5021 10.5791 18.351 5.4298 14.465 2.96386C13.983 2.65803 13.4817 2.40785 12.9684 2.21161" stroke="black" stroke-linecap="round"/>
<path d="M10.4466 1.24287C10.8352 1.48947 10.9503 2.00439 10.7037 2.39299C10.4571 2.78159 9.94219 2.89671 9.55359 2.65011C9.16499 2.40352 9.04987 1.88859 9.29647 1.49999C9.54306 1.11139 10.058 0.996276 10.4466 1.24287Z" fill="#FF2164"/>
<path d="M6.97881 9.291H8.78781L8.52681 8.4C8.30181 7.68 8.10381 6.942 7.89681 6.195H7.86081C7.67181 6.951 7.46481 7.68 7.24881 8.4L6.97881 9.291ZM9.59781 12L9.03981 10.11H6.73581L6.16881 12H5.10681L7.30281 5.376H8.50881L10.7048 12H9.59781ZM12.3694 12.117C11.5144 12.117 10.9114 11.559 10.9114 10.686C10.9114 9.624 11.8114 9.075 13.8724 8.85C13.8634 8.274 13.6564 7.77 12.9274 7.77C12.4054 7.77 11.9194 8.004 11.4964 8.274L11.1094 7.572C11.6224 7.248 12.3154 6.924 13.1074 6.924C14.3404 6.924 14.9074 7.707 14.9074 9.021V12H14.0614L13.9714 11.433H13.9444C13.4944 11.82 12.9634 12.117 12.3694 12.117ZM12.6844 11.298C13.1164 11.298 13.4674 11.091 13.8724 10.722V9.507C12.4054 9.687 11.9104 10.056 11.9104 10.614C11.9104 11.1 12.2434 11.298 12.6844 11.298Z" fill="black"/>
<path d="M5 14H15" stroke="black"/>
</svg>
