<svg width="20" height="20" viewBox="0 0 20 20" fill="none" xmlns="http://www.w3.org/2000/svg">
<path d="M18.5 12C18.5 10.4908 17.9206 8.56305 16.9339 7.34095M1.5 12C1.5 8.04575 4.89731 4 9.75552 4C10.8528 4 11.9052 4.18267 12.8769 4.51107" stroke="currentColor" stroke-linecap="round"/>
<path fill-rule="evenodd" clip-rule="evenodd" d="M5.35042 12.058C5.35042 11.7818 5.12656 11.558 4.85042 11.558C4.57427 11.558 4.35042 11.7818 4.35042 12.058C4.35042 12.6957 4.54456 13.2881 4.87696 13.7792C4.74589 13.8403 4.59358 13.9015 4.43022 13.9563C4.09431 14.069 3.77758 14.1327 3.57517 14.1327C3.02802 14.1327 2.66041 13.91 2.41205 13.5601C2.14917 13.1898 2 12.6436 2 11.9998H1C1 12.7781 1.1774 13.5484 1.5966 14.1389C2.03032 14.75 2.70029 15.1327 3.57517 15.1327C3.93328 15.1327 4.36759 15.0321 4.74828 14.9043C5.04569 14.8046 5.35041 14.6748 5.59754 14.5309C6.10846 14.9091 6.74071 15.1328 7.42521 15.1328C8.50282 15.1328 9.45096 14.5784 10 13.7393C10.549 14.5784 11.4972 15.1328 12.5748 15.1328C13.2593 15.1328 13.8915 14.9091 14.4025 14.5309C14.6496 14.6748 14.9543 14.8046 15.2517 14.9043C15.6324 15.032 16.0667 15.1327 16.4248 15.1327C17.2997 15.1327 17.9697 14.75 18.4034 14.1389C18.8226 13.5484 19 12.7781 19 11.9998H18C18 12.6436 17.8508 13.1898 17.5879 13.5601C17.3396 13.91 16.972 14.1327 16.4248 14.1327C16.2224 14.1327 15.9057 14.069 15.5698 13.9563C15.4064 13.9015 15.2541 13.8403 15.123 13.7792C15.4554 13.2881 15.6496 12.6957 15.6496 12.058C15.6496 11.7818 15.4257 11.558 15.1496 11.558C14.8734 11.558 14.6496 11.7818 14.6496 12.058C14.6496 13.2039 13.7207 14.1328 12.5748 14.1328C11.4294 14.1328 10.5008 13.2047 10.5 12.0595V12.058C10.5 11.7818 10.2761 11.558 10 11.558C9.72386 11.558 9.5 11.7818 9.5 12.058L9.5 12.0595C9.49916 13.2047 8.57057 14.1328 7.42521 14.1328C6.27933 14.1328 5.35042 13.2039 5.35042 12.058Z" fill="currentColor"/>
<path d="M16.155 5.51202C16.155 6.06431 15.7073 6.51202 15.155 6.51202C14.6027 6.51202 14.155 6.06431 14.155 5.51202C14.155 4.95974 14.6027 4.51202 15.155 4.51202C15.7073 4.51202 16.155 4.95974 16.155 5.51202Z" fill="#FF2164"/>
</svg>
