<svg width="275" height="47" viewBox="0 0 275 47" fill="none" xmlns="http://www.w3.org/2000/svg">
<mask id="path-1-outside-1_5375_59749" maskUnits="userSpaceOnUse" x="-1" y="-1" width="276" height="49" fill="black">
<rect fill="white" x="-1" y="-1" width="276" height="49"/>
<path d="M0.16 46V1.36H15.82C25.66 1.36 33.76 4.84 33.76 15.88C33.76 26.5 25.54 31.18 16.12 31.18H10.9V46H0.16ZM10.9 22.72H15.58C20.8 22.72 23.32 20.26 23.32 15.88C23.32 11.38 20.44 9.82 15.28 9.82H10.9V22.72ZM38.3514 46V1.36H49.0914V46H38.3514ZM56.328 46V1.36H67.248L78.348 22.72L82.728 32.62H83.028C82.428 27.88 81.588 21.46 81.588 16.12V1.36H91.788V46H80.868L69.828 24.46L65.448 14.68H65.148C65.628 19.66 66.528 25.78 66.528 31.18V46H56.328ZM119.248 46.84C106.828 46.84 97.1083 39.04 97.1083 23.92C97.1083 9.04 107.128 0.519999 119.068 0.519999C125.608 0.519999 130.288 3.28 133.348 6.34L127.648 13.18C125.488 11.2 123.148 9.7 119.428 9.7C112.828 9.7 108.088 14.86 108.088 23.56C108.088 32.44 112.048 37.6 120.328 37.6C121.948 37.6 123.628 37.18 124.588 36.46V29.26H117.508V20.5H134.128V41.38C131.008 44.38 125.488 46.84 119.248 46.84ZM140.152 46V1.36H155.812C165.652 1.36 173.752 4.84 173.752 15.88C173.752 26.5 165.532 31.18 156.112 31.18H150.892V46H140.152ZM150.892 22.72H155.572C160.792 22.72 163.312 20.26 163.312 15.88C163.312 11.38 160.432 9.82 155.272 9.82H150.892V22.72ZM178.344 46V1.36H189.084V46H178.344ZM196.32 46V1.36H207.24L218.34 22.72L222.72 32.62H223.02C222.42 27.88 221.58 21.46 221.58 16.12V1.36H231.78V46H220.86L209.82 24.46L205.44 14.68H205.14C205.62 19.66 206.52 25.78 206.52 31.18V46H196.32ZM259.24 46.84C246.82 46.84 237.1 39.04 237.1 23.92C237.1 9.04 247.12 0.519999 259.06 0.519999C265.6 0.519999 270.28 3.28 273.34 6.34L267.64 13.18C265.48 11.2 263.14 9.7 259.42 9.7C252.82 9.7 248.08 14.86 248.08 23.56C248.08 32.44 252.04 37.6 260.32 37.6C261.94 37.6 263.62 37.18 264.58 36.46V29.26H257.5V20.5H274.12V41.38C271 44.38 265.48 46.84 259.24 46.84Z"/>
</mask>
<path d="M0.16 46H-0.54V46.7H0.16V46ZM0.16 1.36V0.66H-0.54V1.36H0.16ZM10.9 31.18V30.48H10.2V31.18H10.9ZM10.9 46V46.7H11.6V46H10.9ZM10.9 22.72H10.2V23.42H10.9V22.72ZM10.9 9.82V9.12H10.2V9.82H10.9ZM0.86 46V1.36H-0.54V46H0.86ZM0.16 2.06H15.82V0.66H0.16V2.06ZM15.82 2.06C20.6784 2.06 24.9962 2.92281 28.082 5.05582C31.1221 7.15732 33.06 10.5567 33.06 15.88H34.46C34.46 10.1633 32.3479 6.30268 28.878 3.90418C25.4538 1.53719 20.8016 0.66 15.82 0.66V2.06ZM33.06 15.88C33.06 20.9869 31.0949 24.6018 28.0445 26.9586C24.9694 29.3345 20.7257 30.48 16.12 30.48V31.88C20.9343 31.88 25.5106 30.6855 28.9005 28.0664C32.3151 25.4282 34.46 21.3931 34.46 15.88H33.06ZM16.12 30.48H10.9V31.88H16.12V30.48ZM10.2 31.18V46H11.6V31.18H10.2ZM10.9 45.3H0.16V46.7H10.9V45.3ZM10.9 23.42H15.58V22.02H10.9V23.42ZM15.58 23.42C18.2884 23.42 20.4197 22.7826 21.8776 21.4611C23.3475 20.1288 24.02 18.2044 24.02 15.88H22.62C22.62 17.9356 22.0325 19.4312 20.9374 20.4239C19.8303 21.4274 18.0916 22.02 15.58 22.02V23.42ZM24.02 15.88C24.02 13.4655 23.2354 11.7048 21.6356 10.5884C20.091 9.51067 17.9022 9.12 15.28 9.12V10.52C17.8178 10.52 19.649 10.9093 20.8344 11.7366C21.9646 12.5252 22.62 13.7945 22.62 15.88H24.02ZM15.28 9.12H10.9V10.52H15.28V9.12ZM10.2 9.82V22.72H11.6V9.82H10.2ZM38.3514 46H37.6514V46.7H38.3514V46ZM38.3514 1.36V0.66H37.6514V1.36H38.3514ZM49.0914 1.36H49.7914V0.66H49.0914V1.36ZM49.0914 46V46.7H49.7914V46H49.0914ZM39.0514 46V1.36H37.6514V46H39.0514ZM38.3514 2.06H49.0914V0.66H38.3514V2.06ZM48.3914 1.36V46H49.7914V1.36H48.3914ZM49.0914 45.3H38.3514V46.7H49.0914V45.3ZM56.328 46H55.628V46.7H56.328V46ZM56.328 1.36V0.66H55.628V1.36H56.328ZM67.248 1.36L67.8691 1.03722L67.6731 0.66H67.248V1.36ZM78.348 22.72L78.9881 22.4368L78.9792 22.4167L78.9691 22.3972L78.348 22.72ZM82.728 32.62L82.0878 32.9032L82.2722 33.32H82.728V32.62ZM83.028 32.62V33.32H83.8222L83.7224 32.5321L83.028 32.62ZM81.588 1.36V0.66H80.888V1.36H81.588ZM91.788 1.36H92.488V0.66H91.788V1.36ZM91.788 46V46.7H92.488V46H91.788ZM80.868 46L80.245 46.3193L80.4402 46.7H80.868V46ZM69.828 24.46L69.1891 24.7461L69.1966 24.7629L69.205 24.7793L69.828 24.46ZM65.448 14.68L66.0868 14.3939L65.9015 13.98H65.448V14.68ZM65.148 14.68V13.98H64.3773L64.4512 14.7472L65.148 14.68ZM66.528 46V46.7H67.228V46H66.528ZM57.028 46V1.36H55.628V46H57.028ZM56.328 2.06H67.248V0.66H56.328V2.06ZM66.6268 1.68278L77.7268 23.0428L78.9691 22.3972L67.8691 1.03722L66.6268 1.68278ZM77.7078 23.0032L82.0878 32.9032L83.3681 32.3368L78.9881 22.4368L77.7078 23.0032ZM82.728 33.32H83.028V31.92H82.728V33.32ZM83.7224 32.5321C83.1207 27.778 82.288 21.4065 82.288 16.12H80.888C80.888 21.5135 81.7353 27.982 82.3335 32.7079L83.7224 32.5321ZM82.288 16.12V1.36H80.888V16.12H82.288ZM81.588 2.06H91.788V0.66H81.588V2.06ZM91.088 1.36V46H92.488V1.36H91.088ZM91.788 45.3H80.868V46.7H91.788V45.3ZM81.4909 45.6807L70.4509 24.1407L69.205 24.7793L80.245 46.3193L81.4909 45.6807ZM70.4668 24.1739L66.0868 14.3939L64.8091 14.9661L69.1891 24.7461L70.4668 24.1739ZM65.448 13.98H65.148V15.38H65.448V13.98ZM64.4512 14.7472C64.9363 19.7801 65.828 25.8247 65.828 31.18H67.228C67.228 25.7353 66.3196 19.5399 65.8447 14.6128L64.4512 14.7472ZM65.828 31.18V46H67.228V31.18H65.828ZM66.528 45.3H56.328V46.7H66.528V45.3ZM133.348 6.34L133.886 6.78813L134.295 6.29704L133.843 5.84502L133.348 6.34ZM127.648 13.18L127.175 13.696L127.716 14.1919L128.186 13.6281L127.648 13.18ZM124.588 36.46L125.008 37.02L125.288 36.81V36.46H124.588ZM124.588 29.26H125.288V28.56H124.588V29.26ZM117.508 29.26H116.808V29.96H117.508V29.26ZM117.508 20.5V19.8H116.808V20.5H117.508ZM134.128 20.5H134.828V19.8H134.128V20.5ZM134.128 41.38L134.613 41.8846L134.828 41.678V41.38H134.128ZM119.248 46.14C113.183 46.14 107.835 44.2372 104.007 40.5461C100.184 36.8602 97.8083 31.3244 97.8083 23.92H96.4083C96.4083 31.6356 98.8926 37.5598 103.035 41.5539C107.172 45.5428 112.893 47.54 119.248 47.54V46.14ZM97.8083 23.92C97.8083 16.6433 100.255 10.979 104.105 7.13544C107.96 3.28834 113.266 1.22 119.068 1.22V-0.18C112.93 -0.18 107.257 2.01166 103.116 6.14456C98.972 10.281 96.4083 16.3167 96.4083 23.92H97.8083ZM119.068 1.22C125.391 1.22 129.901 3.88231 132.853 6.83497L133.843 5.84502C130.676 2.67768 125.825 -0.18 119.068 -0.18V1.22ZM132.811 5.89187L127.111 12.7319L128.186 13.6281L133.886 6.78813L132.811 5.89187ZM128.121 12.664C125.888 10.617 123.387 9 119.428 9V10.4C122.91 10.4 125.088 11.783 127.175 13.696L128.121 12.664ZM119.428 9C115.933 9 112.899 10.3727 110.749 12.9156C108.607 15.4485 107.388 19.0871 107.388 23.56H108.788C108.788 19.3329 109.939 16.0415 111.818 13.8194C113.688 11.6073 116.323 10.4 119.428 10.4V9ZM107.388 23.56C107.388 28.0901 108.397 31.7876 110.568 34.3614C112.758 36.9561 116.036 38.3 120.328 38.3V36.9C116.341 36.9 113.499 35.6639 111.638 33.4586C109.76 31.2324 108.788 27.9099 108.788 23.56H107.388ZM120.328 38.3C122.03 38.3 123.881 37.8654 125.008 37.02L124.168 35.9C123.376 36.4946 121.867 36.9 120.328 36.9V38.3ZM125.288 36.46V29.26H123.888V36.46H125.288ZM124.588 28.56H117.508V29.96H124.588V28.56ZM118.208 29.26V20.5H116.808V29.26H118.208ZM117.508 21.2H134.128V19.8H117.508V21.2ZM133.428 20.5V41.38H134.828V20.5H133.428ZM133.643 40.8754C130.662 43.7414 125.32 46.14 119.248 46.14V47.54C125.656 47.54 131.354 45.0186 134.613 41.8846L133.643 40.8754ZM140.152 46H139.452V46.7H140.152V46ZM140.152 1.36V0.66H139.452V1.36H140.152ZM150.892 31.18V30.48H150.192V31.18H150.892ZM150.892 46V46.7H151.592V46H150.892ZM150.892 22.72H150.192V23.42H150.892V22.72ZM150.892 9.82V9.12H150.192V9.82H150.892ZM140.852 46V1.36H139.452V46H140.852ZM140.152 2.06H155.812V0.66H140.152V2.06ZM155.812 2.06C160.671 2.06 164.988 2.92281 168.074 5.05582C171.114 7.15732 173.052 10.5567 173.052 15.88H174.452C174.452 10.1633 172.34 6.30268 168.87 3.90418C165.446 1.53719 160.794 0.66 155.812 0.66V2.06ZM173.052 15.88C173.052 20.9869 171.087 24.6018 168.037 26.9586C164.962 29.3345 160.718 30.48 156.112 30.48V31.88C160.926 31.88 165.503 30.6855 168.893 28.0664C172.307 25.4282 174.452 21.3931 174.452 15.88H173.052ZM156.112 30.48H150.892V31.88H156.112V30.48ZM150.192 31.18V46H151.592V31.18H150.192ZM150.892 45.3H140.152V46.7H150.892V45.3ZM150.892 23.42H155.572V22.02H150.892V23.42ZM155.572 23.42C158.281 23.42 160.412 22.7826 161.87 21.4611C163.34 20.1288 164.012 18.2044 164.012 15.88H162.612C162.612 17.9356 162.025 19.4312 160.93 20.4239C159.822 21.4274 158.084 22.02 155.572 22.02V23.42ZM164.012 15.88C164.012 13.4655 163.228 11.7048 161.628 10.5884C160.083 9.51067 157.894 9.12 155.272 9.12V10.52C157.81 10.52 159.641 10.9093 160.827 11.7366C161.957 12.5252 162.612 13.7945 162.612 15.88H164.012ZM155.272 9.12H150.892V10.52H155.272V9.12ZM150.192 9.82V22.72H151.592V9.82H150.192ZM178.344 46H177.644V46.7H178.344V46ZM178.344 1.36V0.66H177.644V1.36H178.344ZM189.084 1.36H189.784V0.66H189.084V1.36ZM189.084 46V46.7H189.784V46H189.084ZM179.044 46V1.36H177.644V46H179.044ZM178.344 2.06H189.084V0.66H178.344V2.06ZM188.384 1.36V46H189.784V1.36H188.384ZM189.084 45.3H178.344V46.7H189.084V45.3ZM196.32 46H195.62V46.7H196.32V46ZM196.32 1.36V0.66H195.62V1.36H196.32ZM207.24 1.36L207.861 1.03722L207.665 0.66H207.24V1.36ZM218.34 22.72L218.98 22.4368L218.971 22.4167L218.961 22.3972L218.34 22.72ZM222.72 32.62L222.08 32.9032L222.264 33.32H222.72V32.62ZM223.02 32.62V33.32H223.814L223.715 32.5321L223.02 32.62ZM221.58 1.36V0.66H220.88V1.36H221.58ZM231.78 1.36H232.48V0.66H231.78V1.36ZM231.78 46V46.7H232.48V46H231.78ZM220.86 46L220.237 46.3193L220.432 46.7H220.86V46ZM209.82 24.46L209.181 24.7461L209.189 24.7629L209.197 24.7793L209.82 24.46ZM205.44 14.68L206.079 14.3939L205.894 13.98H205.44V14.68ZM205.14 14.68V13.98H204.369L204.443 14.7472L205.14 14.68ZM206.52 46V46.7H207.22V46H206.52ZM197.02 46V1.36H195.62V46H197.02ZM196.32 2.06H207.24V0.66H196.32V2.06ZM206.619 1.68278L217.719 23.0428L218.961 22.3972L207.861 1.03722L206.619 1.68278ZM217.7 23.0032L222.08 32.9032L223.36 32.3368L218.98 22.4368L217.7 23.0032ZM222.72 33.32H223.02V31.92H222.72V33.32ZM223.715 32.5321C223.113 27.778 222.28 21.4065 222.28 16.12H220.88C220.88 21.5135 221.727 27.982 222.326 32.7079L223.715 32.5321ZM222.28 16.12V1.36H220.88V16.12H222.28ZM221.58 2.06H231.78V0.66H221.58V2.06ZM231.08 1.36V46H232.48V1.36H231.08ZM231.78 45.3H220.86V46.7H231.78V45.3ZM221.483 45.6807L210.443 24.1407L209.197 24.7793L220.237 46.3193L221.483 45.6807ZM210.459 24.1739L206.079 14.3939L204.801 14.9661L209.181 24.7461L210.459 24.1739ZM205.44 13.98H205.14V15.38H205.44V13.98ZM204.443 14.7472C204.928 19.7801 205.82 25.8247 205.82 31.18H207.22C207.22 25.7353 206.312 19.5399 205.837 14.6128L204.443 14.7472ZM205.82 31.18V46H207.22V31.18H205.82ZM206.52 45.3H196.32V46.7H206.52V45.3ZM273.34 6.34L273.878 6.78813L274.287 6.29704L273.835 5.84502L273.34 6.34ZM267.64 13.18L267.167 13.696L267.708 14.1919L268.178 13.6281L267.64 13.18ZM264.58 36.46L265 37.02L265.28 36.81V36.46H264.58ZM264.58 29.26H265.28V28.56H264.58V29.26ZM257.5 29.26H256.8V29.96H257.5V29.26ZM257.5 20.5V19.8H256.8V20.5H257.5ZM274.12 20.5H274.82V19.8H274.12V20.5ZM274.12 41.38L274.606 41.8846L274.82 41.678V41.38H274.12ZM259.24 46.14C253.176 46.14 247.827 44.2372 243.999 40.5461C240.176 36.8602 237.8 31.3244 237.8 23.92H236.4C236.4 31.6356 238.885 37.5598 243.027 41.5539C247.164 45.5428 252.885 47.54 259.24 47.54V46.14ZM237.8 23.92C237.8 16.6433 240.247 10.979 244.097 7.13544C247.952 3.28834 253.258 1.22 259.06 1.22V-0.18C252.923 -0.18 247.249 2.01166 243.108 6.14456C238.964 10.281 236.4 16.3167 236.4 23.92H237.8ZM259.06 1.22C265.384 1.22 269.893 3.88231 272.845 6.83497L273.835 5.84502C270.668 2.67768 265.817 -0.18 259.06 -0.18V1.22ZM272.803 5.89187L267.103 12.7319L268.178 13.6281L273.878 6.78813L272.803 5.89187ZM268.113 12.664C265.88 10.617 263.379 9 259.42 9V10.4C262.902 10.4 265.081 11.783 267.167 13.696L268.113 12.664ZM259.42 9C255.925 9 252.891 10.3727 250.741 12.9156C248.599 15.4485 247.38 19.0871 247.38 23.56H248.78C248.78 19.3329 249.931 16.0415 251.81 13.8194C253.68 11.6073 256.316 10.4 259.42 10.4V9ZM247.38 23.56C247.38 28.0901 248.389 31.7876 250.56 34.3614C252.75 36.9561 256.028 38.3 260.32 38.3V36.9C256.333 36.9 253.491 35.6639 251.63 33.4586C249.752 31.2324 248.78 27.9099 248.78 23.56H247.38ZM260.32 38.3C262.022 38.3 263.873 37.8654 265 37.02L264.16 35.9C263.368 36.4946 261.859 36.9 260.32 36.9V38.3ZM265.28 36.46V29.26H263.88V36.46H265.28ZM264.58 28.56H257.5V29.96H264.58V28.56ZM258.2 29.26V20.5H256.8V29.26H258.2ZM257.5 21.2H274.12V19.8H257.5V21.2ZM273.42 20.5V41.38H274.82V20.5H273.42ZM273.635 40.8754C270.655 43.7414 265.312 46.14 259.24 46.14V47.54C265.649 47.54 271.346 45.0186 274.606 41.8846L273.635 40.8754Z" fill="black" fill-opacity="0.1" mask="url(#path-1-outside-1_5375_59749)"/>
</svg>
