<svg width="53" height="24" viewBox="0 0 53 24" fill="none" xmlns="http://www.w3.org/2000/svg">
<path d="M3.368 22.257C1.68 22.257 0.456 21.129 0.456 19.225C0.456 16.945 2.088 15.465 3.904 15.465C5.576 15.465 6.624 16.561 6.624 18.217C6.624 19.697 5.752 20.489 5.048 20.489C4.584 20.489 4.248 20.281 4.216 19.825H4.2C3.88 20.153 3.528 20.441 3.12 20.441C2.592 20.441 2.128 20.049 2.128 19.257C2.128 18.425 2.72 17.297 3.76 17.297C4.072 17.297 4.32 17.441 4.496 17.721H4.512L4.584 17.369H4.824L4.52 18.993C4.312 19.833 4.504 20.233 5.064 20.233C5.632 20.233 6.344 19.513 6.344 18.241C6.344 16.689 5.384 15.721 3.88 15.721C2.264 15.721 0.728 17.097 0.728 19.209C0.728 20.913 1.792 21.993 3.384 21.993C3.984 21.993 4.464 21.817 4.88 21.561L5.016 21.785C4.512 22.097 3.968 22.257 3.368 22.257ZM3.152 20.185C3.44 20.185 3.776 19.993 4.144 19.569L4.424 18.009C4.2 17.665 4.024 17.561 3.736 17.561C2.92 17.561 2.408 18.465 2.408 19.241C2.408 19.937 2.744 20.185 3.152 20.185ZM8.89412 21.105C7.83812 21.105 7.15012 20.329 7.15012 18.905C7.15012 17.545 8.01412 16.681 9.03813 16.681C9.55013 16.681 9.90213 16.873 10.3341 17.209L10.3101 16.417V14.649H10.5981V21.001H10.3581L10.3181 20.441H10.3021C9.95012 20.793 9.47813 21.105 8.89412 21.105ZM8.91812 20.841C9.40613 20.841 9.84613 20.577 10.3101 20.113V17.521C9.84613 17.105 9.46213 16.945 9.02213 16.945C8.13412 16.945 7.45412 17.817 7.45412 18.905C7.45412 20.057 7.98212 20.841 8.91812 20.841ZM13.4359 21.105C12.3719 21.105 11.5079 20.281 11.5079 18.905C11.5079 17.529 12.3879 16.681 13.3239 16.681C14.2999 16.681 14.9159 17.377 14.9159 18.625C14.9159 18.713 14.9159 18.809 14.8999 18.913H11.8119C11.8119 20.025 12.4599 20.841 13.4519 20.841C13.9319 20.841 14.2919 20.689 14.6119 20.457L14.7399 20.705C14.4199 20.897 14.0599 21.105 13.4359 21.105ZM11.8119 18.649H14.6359C14.6359 17.505 14.1159 16.945 13.3239 16.945C12.5719 16.945 11.8999 17.585 11.8119 18.649ZM16.6867 21.105C16.0547 21.105 15.5267 20.841 15.1507 20.529L15.3347 20.297C15.6867 20.601 16.0787 20.841 16.7027 20.841C17.4067 20.841 17.7667 20.433 17.7667 19.953C17.7667 19.401 17.2067 19.153 16.7107 18.977C16.0707 18.745 15.3507 18.505 15.3507 17.777C15.3507 17.193 15.8067 16.681 16.6787 16.681C17.0947 16.681 17.5427 16.857 17.8467 17.113L17.6787 17.329C17.3987 17.121 17.0947 16.945 16.6547 16.945C15.9587 16.945 15.6467 17.345 15.6467 17.761C15.6467 18.265 16.1587 18.457 16.6627 18.649C17.3347 18.905 18.0627 19.113 18.0627 19.937C18.0627 20.561 17.5747 21.105 16.6867 21.105ZM18.8259 21.001V16.785H19.1139V21.001H18.8259ZM18.9779 15.721C18.8099 15.721 18.6739 15.601 18.6739 15.417C18.6739 15.217 18.8099 15.105 18.9779 15.105C19.1379 15.105 19.2899 15.217 19.2899 15.417C19.2899 15.601 19.1379 15.721 18.9779 15.721ZM21.7469 23.057C20.6749 23.057 20.0189 22.585 20.0189 21.881C20.0189 21.513 20.2669 21.121 20.6589 20.841V20.809C20.4429 20.681 20.2829 20.457 20.2829 20.137C20.2829 19.753 20.5629 19.489 20.7469 19.361V19.329C20.4829 19.097 20.2109 18.681 20.2109 18.169C20.2109 17.313 20.8509 16.681 21.6589 16.681C21.8989 16.681 22.0909 16.737 22.2109 16.785H23.6189V17.049H22.6109C22.9069 17.297 23.1069 17.689 23.1069 18.169C23.1069 19.009 22.4749 19.665 21.6589 19.665C21.4189 19.665 21.1389 19.593 20.9469 19.473C20.7549 19.625 20.5789 19.825 20.5789 20.113C20.5789 20.433 20.7549 20.697 21.4029 20.697H22.3389C23.2669 20.697 23.6909 20.993 23.6909 21.641C23.6909 22.353 22.9309 23.057 21.7469 23.057ZM21.6589 19.401C22.2749 19.401 22.8109 18.897 22.8109 18.169C22.8109 17.417 22.2909 16.945 21.6589 16.945C21.0349 16.945 20.5149 17.409 20.5149 18.169C20.5149 18.897 21.0509 19.401 21.6589 19.401ZM21.7629 22.801C22.7709 22.801 23.3949 22.225 23.3949 21.673C23.3949 21.177 23.0429 20.985 22.3789 20.985H21.4189C21.3629 20.985 21.1389 20.969 20.9069 20.913C20.4909 21.193 20.3229 21.545 20.3229 21.857C20.3229 22.417 20.8429 22.801 21.7629 22.801ZM24.2291 21.001V16.785H24.4691L24.5171 17.457H24.5331C24.9651 17.017 25.4051 16.681 25.9891 16.681C26.8531 16.681 27.2611 17.201 27.2611 18.289V21.001H26.9731V18.329C26.9731 17.401 26.6771 16.945 25.9571 16.945C25.4371 16.945 25.0531 17.225 24.5171 17.777V21.001H24.2291ZM31.4035 21.105C31.0035 21.105 30.5235 20.897 30.1315 20.577H30.1075L30.0675 21.001H29.8275V14.649H30.1155V16.521L30.0915 17.369C30.5315 17.001 31.0515 16.681 31.5795 16.681C32.7235 16.681 33.2755 17.529 33.2755 18.833C33.2755 20.265 32.4115 21.105 31.4035 21.105ZM31.4275 20.841C32.3235 20.841 32.9715 20.009 32.9715 18.833C32.9715 17.761 32.5875 16.945 31.5555 16.945C31.1235 16.945 30.6355 17.209 30.1155 17.673V20.273C30.5955 20.689 31.0915 20.841 31.4275 20.841ZM33.9217 22.953C33.7777 22.953 33.6177 22.921 33.5137 22.865L33.5857 22.601C33.6737 22.641 33.8097 22.673 33.9377 22.673C34.4657 22.673 34.8257 22.161 35.0577 21.489L35.1777 21.097L33.4337 16.785H33.7537L34.8177 19.537C34.9537 19.897 35.1297 20.345 35.2897 20.721H35.3297C35.4657 20.345 35.6097 19.897 35.7297 19.537L36.6737 16.785H36.9697L35.2897 21.593C35.0737 22.249 34.6497 22.953 33.9217 22.953ZM38.9097 21.001V15.193H40.3097C41.6297 15.193 42.3897 15.617 42.3897 16.777C42.3897 17.897 41.6457 18.441 40.3417 18.441H39.2057V21.001H38.9097ZM39.2057 18.177H40.2377C41.4777 18.177 42.0697 17.777 42.0697 16.777C42.0697 15.761 41.4617 15.457 40.2057 15.457H39.2057V18.177ZM43.2509 21.001V16.785H43.5389V21.001H43.2509ZM43.4029 15.721C43.2349 15.721 43.0989 15.601 43.0989 15.417C43.0989 15.217 43.2349 15.105 43.4029 15.105C43.5629 15.105 43.7149 15.217 43.7149 15.417C43.7149 15.601 43.5629 15.721 43.4029 15.721ZM44.8119 21.001V16.785H45.0519L45.0999 17.457H45.1159C45.5479 17.017 45.9879 16.681 46.5719 16.681C47.4359 16.681 47.8439 17.201 47.8439 18.289V21.001H47.5559V18.329C47.5559 17.401 47.2599 16.945 46.5399 16.945C46.0199 16.945 45.6359 17.225 45.0999 17.777V21.001H44.8119ZM50.4125 23.057C49.3405 23.057 48.6845 22.585 48.6845 21.881C48.6845 21.513 48.9325 21.121 49.3245 20.841V20.809C49.1085 20.681 48.9485 20.457 48.9485 20.137C48.9485 19.753 49.2285 19.489 49.4125 19.361V19.329C49.1485 19.097 48.8765 18.681 48.8765 18.169C48.8765 17.313 49.5165 16.681 50.3245 16.681C50.5645 16.681 50.7565 16.737 50.8765 16.785H52.2845V17.049H51.2765C51.5725 17.297 51.7725 17.689 51.7725 18.169C51.7725 19.009 51.1405 19.665 50.3245 19.665C50.0845 19.665 49.8045 19.593 49.6125 19.473C49.4205 19.625 49.2445 19.825 49.2445 20.113C49.2445 20.433 49.4205 20.697 50.0685 20.697H51.0045C51.9325 20.697 52.3565 20.993 52.3565 21.641C52.3565 22.353 51.5965 23.057 50.4125 23.057ZM50.3245 19.401C50.9405 19.401 51.4765 18.897 51.4765 18.169C51.4765 17.417 50.9565 16.945 50.3245 16.945C49.7005 16.945 49.1805 17.409 49.1805 18.169C49.1805 18.897 49.7165 19.401 50.3245 19.401ZM50.4285 22.801C51.4365 22.801 52.0605 22.225 52.0605 21.673C52.0605 21.177 51.7085 20.985 51.0445 20.985H50.0845C50.0285 20.985 49.8045 20.969 49.5725 20.913C49.1565 21.193 48.9885 21.545 48.9885 21.857C48.9885 22.417 49.5085 22.801 50.4285 22.801Z" fill="black"/>
<path fill-rule="evenodd" clip-rule="evenodd" d="M5.4 0.000976562H1V4.67597V11.001H5.4V9.34302C5.49099 9.3483 5.58268 9.35098 5.675 9.35098C8.25693 9.35098 10.35 7.25791 10.35 4.67598C10.35 2.09404 8.25693 0.000976562 5.675 0.000976562H5.4Z" fill="black"/>
<path d="M6.22455 4.67618C6.22455 4.9795 5.97865 5.2254 5.67532 5.2254C5.37199 5.2254 5.1261 4.9795 5.1261 4.67618C5.1261 4.37285 5.37199 4.12695 5.67532 4.12695C5.97865 4.12695 6.22455 4.37285 6.22455 4.67618Z" fill="white"/>
<path d="M10.8997 0.000976562H15.8497V11.001H10.8997V0.000976562Z" fill="black"/>
<path d="M16.3997 0.000976562H20.7497C23.5111 0.000976562 25.7497 2.23955 25.7497 5.00098V11.001H16.3997V0.000976562Z" fill="black"/>
<path d="M21.6242 10.4501C21.6242 10.7534 21.3783 10.9993 21.075 10.9993C20.7717 10.9993 20.5258 10.7534 20.5258 10.4501C20.5258 10.1468 20.7717 9.90088 21.075 9.90088C21.3783 9.90088 21.6242 10.1468 21.6242 10.4501Z" fill="white"/>
<path fill-rule="evenodd" clip-rule="evenodd" d="M30.6985 0.00893068C28.2445 0.151277 26.2985 2.18636 26.2985 4.67598C26.2985 7.16559 28.2445 9.20068 30.6985 9.34302V11.001C33.4323 11.001 35.6485 8.78479 35.6485 6.05098V4.679C35.6485 4.67799 35.6485 4.67698 35.6485 4.67598V0.000976562H30.9735H30.6985V0.00893068Z" fill="black"/>
<path d="M30.4253 4.67685C30.4253 4.37352 30.6712 4.12763 30.9745 4.12763C31.2778 4.12763 31.5237 4.37352 31.5237 4.67685C31.5237 4.98018 31.2778 5.22607 30.9745 5.22607C30.6712 5.22607 30.4253 4.98018 30.4253 4.67685Z" fill="white"/>
</svg>
