<svg width="275" height="47" viewBox="0 0 275 47" fill="none" xmlns="http://www.w3.org/2000/svg">
<mask id="path-1-outside-1_5375_59566" maskUnits="userSpaceOnUse" x="-1" y="-0.999878" width="276" height="49" fill="black">
<rect fill="white" x="-1" y="-0.999878" width="276" height="49"/>
<path d="M0.16 46.0001V1.36012H15.82C25.66 1.36012 33.76 4.84012 33.76 15.8801C33.76 26.5001 25.54 31.1801 16.12 31.1801H10.9V46.0001H0.16ZM10.9 22.7201H15.58C20.8 22.7201 23.32 20.2601 23.32 15.8801C23.32 11.3801 20.44 9.82012 15.28 9.82012H10.9V22.7201ZM38.3514 46.0001V1.36012H49.0914V46.0001H38.3514ZM56.328 46.0001V1.36012H67.248L78.348 22.7201L82.728 32.6201H83.028C82.428 27.8801 81.588 21.4601 81.588 16.1201V1.36012H91.788V46.0001H80.868L69.828 24.4601L65.448 14.6801H65.148C65.628 19.6601 66.528 25.7801 66.528 31.1801V46.0001H56.328ZM119.248 46.8401C106.828 46.8401 97.1083 39.0401 97.1083 23.9201C97.1083 9.04012 107.128 0.520121 119.068 0.520121C125.608 0.520121 130.288 3.28012 133.348 6.34012L127.648 13.1801C125.488 11.2001 123.148 9.70012 119.428 9.70012C112.828 9.70012 108.088 14.8601 108.088 23.5601C108.088 32.4401 112.048 37.6001 120.328 37.6001C121.948 37.6001 123.628 37.1801 124.588 36.4601V29.2601H117.508V20.5001H134.128V41.3801C131.008 44.3801 125.488 46.8401 119.248 46.8401ZM140.152 46.0001V1.36012H155.812C165.652 1.36012 173.752 4.84012 173.752 15.8801C173.752 26.5001 165.532 31.1801 156.112 31.1801H150.892V46.0001H140.152ZM150.892 22.7201H155.572C160.792 22.7201 163.312 20.2601 163.312 15.8801C163.312 11.3801 160.432 9.82012 155.272 9.82012H150.892V22.7201ZM178.344 46.0001V1.36012H189.084V46.0001H178.344ZM196.32 46.0001V1.36012H207.24L218.34 22.7201L222.72 32.6201H223.02C222.42 27.8801 221.58 21.4601 221.58 16.1201V1.36012H231.78V46.0001H220.86L209.82 24.4601L205.44 14.6801H205.14C205.62 19.6601 206.52 25.7801 206.52 31.1801V46.0001H196.32ZM259.24 46.8401C246.82 46.8401 237.1 39.0401 237.1 23.9201C237.1 9.04012 247.12 0.520121 259.06 0.520121C265.6 0.520121 270.28 3.28012 273.34 6.34012L267.64 13.1801C265.48 11.2001 263.14 9.70012 259.42 9.70012C252.82 9.70012 248.08 14.8601 248.08 23.5601C248.08 32.4401 252.04 37.6001 260.32 37.6001C261.94 37.6001 263.62 37.1801 264.58 36.4601V29.2601H257.5V20.5001H274.12V41.3801C271 44.3801 265.48 46.8401 259.24 46.8401Z"/>
</mask>
<path d="M0.16 46.0001H-0.54V46.7001H0.16V46.0001ZM0.16 1.36012V0.660122H-0.54V1.36012H0.16ZM10.9 31.1801V30.4801H10.2V31.1801H10.9ZM10.9 46.0001V46.7001H11.6V46.0001H10.9ZM10.9 22.7201H10.2V23.4201H10.9V22.7201ZM10.9 9.82012V9.12012H10.2V9.82012H10.9ZM0.86 46.0001V1.36012H-0.54V46.0001H0.86ZM0.16 2.06012H15.82V0.660122H0.16V2.06012ZM15.82 2.06012C20.6784 2.06012 24.9962 2.92293 28.082 5.05594C31.1221 7.15744 33.06 10.5568 33.06 15.8801H34.46C34.46 10.1634 32.3479 6.3028 28.878 3.9043C25.4538 1.53731 20.8016 0.660122 15.82 0.660122V2.06012ZM33.06 15.8801C33.06 20.987 31.0949 24.6019 28.0445 26.9587C24.9694 29.3346 20.7257 30.4801 16.12 30.4801V31.8801C20.9343 31.8801 25.5106 30.6856 28.9005 28.0665C32.3151 25.4283 34.46 21.3932 34.46 15.8801H33.06ZM16.12 30.4801H10.9V31.8801H16.12V30.4801ZM10.2 31.1801V46.0001H11.6V31.1801H10.2ZM10.9 45.3001H0.16V46.7001H10.9V45.3001ZM10.9 23.4201H15.58V22.0201H10.9V23.4201ZM15.58 23.4201C18.2884 23.4201 20.4197 22.7828 21.8776 21.4613C23.3475 20.1289 24.02 18.2045 24.02 15.8801H22.62C22.62 17.9357 22.0325 19.4314 20.9374 20.424C19.8303 21.4275 18.0916 22.0201 15.58 22.0201V23.4201ZM24.02 15.8801C24.02 13.4656 23.2354 11.7049 21.6356 10.5886C20.091 9.51079 17.9022 9.12012 15.28 9.12012V10.5201C17.8178 10.5201 19.649 10.9095 20.8344 11.7367C21.9646 12.5253 22.62 13.7946 22.62 15.8801H24.02ZM15.28 9.12012H10.9V10.5201H15.28V9.12012ZM10.2 9.82012V22.7201H11.6V9.82012H10.2ZM38.3514 46.0001H37.6514V46.7001H38.3514V46.0001ZM38.3514 1.36012V0.660122H37.6514V1.36012H38.3514ZM49.0914 1.36012H49.7914V0.660122H49.0914V1.36012ZM49.0914 46.0001V46.7001H49.7914V46.0001H49.0914ZM39.0514 46.0001V1.36012H37.6514V46.0001H39.0514ZM38.3514 2.06012H49.0914V0.660122H38.3514V2.06012ZM48.3914 1.36012V46.0001H49.7914V1.36012H48.3914ZM49.0914 45.3001H38.3514V46.7001H49.0914V45.3001ZM56.328 46.0001H55.628V46.7001H56.328V46.0001ZM56.328 1.36012V0.660122H55.628V1.36012H56.328ZM67.248 1.36012L67.8691 1.03734L67.6731 0.660122H67.248V1.36012ZM78.348 22.7201L78.9881 22.4369L78.9792 22.4168L78.9691 22.3973L78.348 22.7201ZM82.728 32.6201L82.0878 32.9033L82.2722 33.3201H82.728V32.6201ZM83.028 32.6201V33.3201H83.8222L83.7224 32.5322L83.028 32.6201ZM81.588 1.36012V0.660122H80.888V1.36012H81.588ZM91.788 1.36012H92.488V0.660122H91.788V1.36012ZM91.788 46.0001V46.7001H92.488V46.0001H91.788ZM80.868 46.0001L80.245 46.3194L80.4402 46.7001H80.868V46.0001ZM69.828 24.4601L69.1891 24.7462L69.1966 24.763L69.205 24.7794L69.828 24.4601ZM65.448 14.6801L66.0868 14.394L65.9015 13.9801H65.448V14.6801ZM65.148 14.6801V13.9801H64.3773L64.4512 14.7473L65.148 14.6801ZM66.528 46.0001V46.7001H67.228V46.0001H66.528ZM57.028 46.0001V1.36012H55.628V46.0001H57.028ZM56.328 2.06012H67.248V0.660122H56.328V2.06012ZM66.6268 1.6829L77.7268 23.0429L78.9691 22.3973L67.8691 1.03734L66.6268 1.6829ZM77.7078 23.0033L82.0878 32.9033L83.3681 32.3369L78.9881 22.4369L77.7078 23.0033ZM82.728 33.3201H83.028V31.9201H82.728V33.3201ZM83.7224 32.5322C83.1207 27.7782 82.288 21.4066 82.288 16.1201H80.888C80.888 21.5136 81.7353 27.9821 82.3335 32.708L83.7224 32.5322ZM82.288 16.1201V1.36012H80.888V16.1201H82.288ZM81.588 2.06012H91.788V0.660122H81.588V2.06012ZM91.088 1.36012V46.0001H92.488V1.36012H91.088ZM91.788 45.3001H80.868V46.7001H91.788V45.3001ZM81.4909 45.6808L70.4509 24.1408L69.205 24.7794L80.245 46.3194L81.4909 45.6808ZM70.4668 24.174L66.0868 14.394L64.8091 14.9662L69.1891 24.7462L70.4668 24.174ZM65.448 13.9801H65.148V15.3801H65.448V13.9801ZM64.4512 14.7473C64.9363 19.7802 65.828 25.8248 65.828 31.1801H67.228C67.228 25.7354 66.3196 19.54 65.8447 14.613L64.4512 14.7473ZM65.828 31.1801V46.0001H67.228V31.1801H65.828ZM66.528 45.3001H56.328V46.7001H66.528V45.3001ZM133.348 6.34012L133.886 6.78825L134.295 6.29716L133.843 5.84515L133.348 6.34012ZM127.648 13.1801L127.175 13.6961L127.716 14.192L128.186 13.6282L127.648 13.1801ZM124.588 36.4601L125.008 37.0201L125.288 36.8101V36.4601H124.588ZM124.588 29.2601H125.288V28.5601H124.588V29.2601ZM117.508 29.2601H116.808V29.9601H117.508V29.2601ZM117.508 20.5001V19.8001H116.808V20.5001H117.508ZM134.128 20.5001H134.828V19.8001H134.128V20.5001ZM134.128 41.3801L134.613 41.8847L134.828 41.6781V41.3801H134.128ZM119.248 46.1401C113.183 46.1401 107.835 44.2374 104.007 40.5462C100.184 36.8603 97.8083 31.3245 97.8083 23.9201H96.4083C96.4083 31.6357 98.8926 37.56 103.035 41.554C107.172 45.5429 112.893 47.5401 119.248 47.5401V46.1401ZM97.8083 23.9201C97.8083 16.6434 100.255 10.9791 104.105 7.13556C107.96 3.28846 113.266 1.22012 119.068 1.22012V-0.179878C112.93 -0.179878 107.257 2.01178 103.116 6.14468C98.972 10.2812 96.4083 16.3169 96.4083 23.9201H97.8083ZM119.068 1.22012C125.391 1.22012 129.901 3.88243 132.853 6.8351L133.843 5.84515C130.676 2.67781 125.825 -0.179878 119.068 -0.179878V1.22012ZM132.811 5.89199L127.111 12.732L128.186 13.6282L133.886 6.78825L132.811 5.89199ZM128.121 12.6641C125.888 10.6171 123.387 9.00012 119.428 9.00012V10.4001C122.91 10.4001 125.088 11.7831 127.175 13.6961L128.121 12.6641ZM119.428 9.00012C115.933 9.00012 112.899 10.3728 110.749 12.9157C108.607 15.4486 107.388 19.0872 107.388 23.5601H108.788C108.788 19.333 109.939 16.0416 111.818 13.8196C113.688 11.6074 116.323 10.4001 119.428 10.4001V9.00012ZM107.388 23.5601C107.388 28.0902 108.397 31.7878 110.568 34.3615C112.758 36.9563 116.036 38.3001 120.328 38.3001V36.9001C116.341 36.9001 113.499 35.664 111.638 33.4587C109.76 31.2325 108.788 27.91 108.788 23.5601H107.388ZM120.328 38.3001C122.03 38.3001 123.881 37.8656 125.008 37.0201L124.168 35.9001C123.376 36.4947 121.867 36.9001 120.328 36.9001V38.3001ZM125.288 36.4601V29.2601H123.888V36.4601H125.288ZM124.588 28.5601H117.508V29.9601H124.588V28.5601ZM118.208 29.2601V20.5001H116.808V29.2601H118.208ZM117.508 21.2001H134.128V19.8001H117.508V21.2001ZM133.428 20.5001V41.3801H134.828V20.5001H133.428ZM133.643 40.8755C130.662 43.7415 125.32 46.1401 119.248 46.1401V47.5401C125.656 47.5401 131.354 45.0187 134.613 41.8847L133.643 40.8755ZM140.152 46.0001H139.452V46.7001H140.152V46.0001ZM140.152 1.36012V0.660122H139.452V1.36012H140.152ZM150.892 31.1801V30.4801H150.192V31.1801H150.892ZM150.892 46.0001V46.7001H151.592V46.0001H150.892ZM150.892 22.7201H150.192V23.4201H150.892V22.7201ZM150.892 9.82012V9.12012H150.192V9.82012H150.892ZM140.852 46.0001V1.36012H139.452V46.0001H140.852ZM140.152 2.06012H155.812V0.660122H140.152V2.06012ZM155.812 2.06012C160.671 2.06012 164.988 2.92293 168.074 5.05594C171.114 7.15744 173.052 10.5568 173.052 15.8801H174.452C174.452 10.1634 172.34 6.3028 168.87 3.9043C165.446 1.53731 160.794 0.660122 155.812 0.660122V2.06012ZM173.052 15.8801C173.052 20.987 171.087 24.6019 168.037 26.9587C164.962 29.3346 160.718 30.4801 156.112 30.4801V31.8801C160.926 31.8801 165.503 30.6856 168.893 28.0665C172.307 25.4283 174.452 21.3932 174.452 15.8801H173.052ZM156.112 30.4801H150.892V31.8801H156.112V30.4801ZM150.192 31.1801V46.0001H151.592V31.1801H150.192ZM150.892 45.3001H140.152V46.7001H150.892V45.3001ZM150.892 23.4201H155.572V22.0201H150.892V23.4201ZM155.572 23.4201C158.281 23.4201 160.412 22.7828 161.87 21.4613C163.34 20.1289 164.012 18.2045 164.012 15.8801H162.612C162.612 17.9357 162.025 19.4314 160.93 20.424C159.822 21.4275 158.084 22.0201 155.572 22.0201V23.4201ZM164.012 15.8801C164.012 13.4656 163.228 11.7049 161.628 10.5886C160.083 9.51079 157.894 9.12012 155.272 9.12012V10.5201C157.81 10.5201 159.641 10.9095 160.827 11.7367C161.957 12.5253 162.612 13.7946 162.612 15.8801H164.012ZM155.272 9.12012H150.892V10.5201H155.272V9.12012ZM150.192 9.82012V22.7201H151.592V9.82012H150.192ZM178.344 46.0001H177.644V46.7001H178.344V46.0001ZM178.344 1.36012V0.660122H177.644V1.36012H178.344ZM189.084 1.36012H189.784V0.660122H189.084V1.36012ZM189.084 46.0001V46.7001H189.784V46.0001H189.084ZM179.044 46.0001V1.36012H177.644V46.0001H179.044ZM178.344 2.06012H189.084V0.660122H178.344V2.06012ZM188.384 1.36012V46.0001H189.784V1.36012H188.384ZM189.084 45.3001H178.344V46.7001H189.084V45.3001ZM196.32 46.0001H195.62V46.7001H196.32V46.0001ZM196.32 1.36012V0.660122H195.62V1.36012H196.32ZM207.24 1.36012L207.861 1.03734L207.665 0.660122H207.24V1.36012ZM218.34 22.7201L218.98 22.4369L218.971 22.4168L218.961 22.3973L218.34 22.7201ZM222.72 32.6201L222.08 32.9033L222.264 33.3201H222.72V32.6201ZM223.02 32.6201V33.3201H223.814L223.715 32.5322L223.02 32.6201ZM221.58 1.36012V0.660122H220.88V1.36012H221.58ZM231.78 1.36012H232.48V0.660122H231.78V1.36012ZM231.78 46.0001V46.7001H232.48V46.0001H231.78ZM220.86 46.0001L220.237 46.3194L220.432 46.7001H220.86V46.0001ZM209.82 24.4601L209.181 24.7462L209.189 24.763L209.197 24.7794L209.82 24.4601ZM205.44 14.6801L206.079 14.394L205.894 13.9801H205.44V14.6801ZM205.14 14.6801V13.9801H204.369L204.443 14.7473L205.14 14.6801ZM206.52 46.0001V46.7001H207.22V46.0001H206.52ZM197.02 46.0001V1.36012H195.62V46.0001H197.02ZM196.32 2.06012H207.24V0.660122H196.32V2.06012ZM206.619 1.6829L217.719 23.0429L218.961 22.3973L207.861 1.03734L206.619 1.6829ZM217.7 23.0033L222.08 32.9033L223.36 32.3369L218.98 22.4369L217.7 23.0033ZM222.72 33.3201H223.02V31.9201H222.72V33.3201ZM223.715 32.5322C223.113 27.7782 222.28 21.4066 222.28 16.1201H220.88C220.88 21.5136 221.727 27.9821 222.326 32.708L223.715 32.5322ZM222.28 16.1201V1.36012H220.88V16.1201H222.28ZM221.58 2.06012H231.78V0.660122H221.58V2.06012ZM231.08 1.36012V46.0001H232.48V1.36012H231.08ZM231.78 45.3001H220.86V46.7001H231.78V45.3001ZM221.483 45.6808L210.443 24.1408L209.197 24.7794L220.237 46.3194L221.483 45.6808ZM210.459 24.174L206.079 14.394L204.801 14.9662L209.181 24.7462L210.459 24.174ZM205.44 13.9801H205.14V15.3801H205.44V13.9801ZM204.443 14.7473C204.928 19.7802 205.82 25.8248 205.82 31.1801H207.22C207.22 25.7354 206.312 19.54 205.837 14.613L204.443 14.7473ZM205.82 31.1801V46.0001H207.22V31.1801H205.82ZM206.52 45.3001H196.32V46.7001H206.52V45.3001ZM273.34 6.34012L273.878 6.78825L274.287 6.29716L273.835 5.84515L273.34 6.34012ZM267.64 13.1801L267.167 13.6961L267.708 14.192L268.178 13.6282L267.64 13.1801ZM264.58 36.4601L265 37.0201L265.28 36.8101V36.4601H264.58ZM264.58 29.2601H265.28V28.5601H264.58V29.2601ZM257.5 29.2601H256.8V29.9601H257.5V29.2601ZM257.5 20.5001V19.8001H256.8V20.5001H257.5ZM274.12 20.5001H274.82V19.8001H274.12V20.5001ZM274.12 41.3801L274.606 41.8847L274.82 41.6781V41.3801H274.12ZM259.24 46.1401C253.176 46.1401 247.827 44.2374 243.999 40.5462C240.176 36.8603 237.8 31.3245 237.8 23.9201H236.4C236.4 31.6357 238.885 37.56 243.027 41.554C247.164 45.5429 252.885 47.5401 259.24 47.5401V46.1401ZM237.8 23.9201C237.8 16.6434 240.247 10.9791 244.097 7.13556C247.952 3.28846 253.258 1.22012 259.06 1.22012V-0.179878C252.923 -0.179878 247.249 2.01178 243.108 6.14468C238.964 10.2812 236.4 16.3169 236.4 23.9201H237.8ZM259.06 1.22012C265.384 1.22012 269.893 3.88243 272.845 6.8351L273.835 5.84515C270.668 2.67781 265.817 -0.179878 259.06 -0.179878V1.22012ZM272.803 5.89199L267.103 12.732L268.178 13.6282L273.878 6.78825L272.803 5.89199ZM268.113 12.6641C265.88 10.6171 263.379 9.00012 259.42 9.00012V10.4001C262.902 10.4001 265.081 11.7831 267.167 13.6961L268.113 12.6641ZM259.42 9.00012C255.925 9.00012 252.891 10.3728 250.741 12.9157C248.599 15.4486 247.38 19.0872 247.38 23.5601H248.78C248.78 19.333 249.931 16.0416 251.81 13.8196C253.68 11.6074 256.316 10.4001 259.42 10.4001V9.00012ZM247.38 23.5601C247.38 28.0902 248.389 31.7878 250.56 34.3615C252.75 36.9563 256.028 38.3001 260.32 38.3001V36.9001C256.333 36.9001 253.491 35.664 251.63 33.4587C249.752 31.2325 248.78 27.91 248.78 23.5601H247.38ZM260.32 38.3001C262.022 38.3001 263.873 37.8656 265 37.0201L264.16 35.9001C263.368 36.4947 261.859 36.9001 260.32 36.9001V38.3001ZM265.28 36.4601V29.2601H263.88V36.4601H265.28ZM264.58 28.5601H257.5V29.9601H264.58V28.5601ZM258.2 29.2601V20.5001H256.8V29.2601H258.2ZM257.5 21.2001H274.12V19.8001H257.5V21.2001ZM273.42 20.5001V41.3801H274.82V20.5001H273.42ZM273.635 40.8755C270.655 43.7415 265.312 46.1401 259.24 46.1401V47.5401C265.649 47.5401 271.346 45.0187 274.606 41.8847L273.635 40.8755Z" fill="black" fill-opacity="0.1" mask="url(#path-1-outside-1_5375_59566)"/>
</svg>
