<svg width="53" height="24" viewBox="0 0 53 24" fill="none" xmlns="http://www.w3.org/2000/svg">
<path d="M3.368 22.2571C1.68 22.2571 0.456 21.1291 0.456 19.2251C0.456 16.9451 2.088 15.4651 3.904 15.4651C5.576 15.4651 6.624 16.5611 6.624 18.2171C6.624 19.6971 5.752 20.4891 5.048 20.4891C4.584 20.4891 4.248 20.2811 4.216 19.8251H4.2C3.88 20.1531 3.528 20.4411 3.12 20.4411C2.592 20.4411 2.128 20.0491 2.128 19.2571C2.128 18.4251 2.72 17.2971 3.76 17.2971C4.072 17.2971 4.32 17.4411 4.496 17.7211H4.512L4.584 17.3691H4.824L4.52 18.9931C4.312 19.8331 4.504 20.2331 5.064 20.2331C5.632 20.2331 6.344 19.5131 6.344 18.2411C6.344 16.6891 5.384 15.7211 3.88 15.7211C2.264 15.7211 0.728 17.0971 0.728 19.2091C0.728 20.9131 1.792 21.9931 3.384 21.9931C3.984 21.9931 4.464 21.8171 4.88 21.5611L5.016 21.7851C4.512 22.0971 3.968 22.2571 3.368 22.2571ZM3.152 20.1851C3.44 20.1851 3.776 19.9931 4.144 19.5691L4.424 18.0091C4.2 17.6651 4.024 17.5611 3.736 17.5611C2.92 17.5611 2.408 18.4651 2.408 19.2411C2.408 19.9371 2.744 20.1851 3.152 20.1851ZM8.89412 21.1051C7.83812 21.1051 7.15012 20.3291 7.15012 18.9051C7.15012 17.5451 8.01412 16.6811 9.03813 16.6811C9.55013 16.6811 9.90213 16.8731 10.3341 17.2091L10.3101 16.4171V14.6491H10.5981V21.0011H10.3581L10.3181 20.4411H10.3021C9.95012 20.7931 9.47813 21.1051 8.89412 21.1051ZM8.91812 20.8411C9.40613 20.8411 9.84613 20.5771 10.3101 20.1131V17.5211C9.84613 17.1051 9.46213 16.9451 9.02213 16.9451C8.13412 16.9451 7.45412 17.8171 7.45412 18.9051C7.45412 20.0571 7.98212 20.8411 8.91812 20.8411ZM13.4359 21.1051C12.3719 21.1051 11.5079 20.2811 11.5079 18.9051C11.5079 17.5291 12.3879 16.6811 13.3239 16.6811C14.2999 16.6811 14.9159 17.3771 14.9159 18.6251C14.9159 18.7131 14.9159 18.8091 14.8999 18.9131H11.8119C11.8119 20.0251 12.4599 20.8411 13.4519 20.8411C13.9319 20.8411 14.2919 20.6891 14.6119 20.4571L14.7399 20.7051C14.4199 20.8971 14.0599 21.1051 13.4359 21.1051ZM11.8119 18.6491H14.6359C14.6359 17.5051 14.1159 16.9451 13.3239 16.9451C12.5719 16.9451 11.8999 17.5851 11.8119 18.6491ZM16.6867 21.1051C16.0547 21.1051 15.5267 20.8411 15.1507 20.5291L15.3347 20.2971C15.6867 20.6011 16.0787 20.8411 16.7027 20.8411C17.4067 20.8411 17.7667 20.4331 17.7667 19.9531C17.7667 19.4011 17.2067 19.1531 16.7107 18.9771C16.0707 18.7451 15.3507 18.5051 15.3507 17.7771C15.3507 17.1931 15.8067 16.6811 16.6787 16.6811C17.0947 16.6811 17.5427 16.8571 17.8467 17.1131L17.6787 17.3291C17.3987 17.1211 17.0947 16.9451 16.6547 16.9451C15.9587 16.9451 15.6467 17.3451 15.6467 17.7611C15.6467 18.2651 16.1587 18.4571 16.6627 18.6491C17.3347 18.9051 18.0627 19.1131 18.0627 19.9371C18.0627 20.5611 17.5747 21.1051 16.6867 21.1051ZM18.8259 21.0011V16.7851H19.1139V21.0011H18.8259ZM18.9779 15.7211C18.8099 15.7211 18.6739 15.6011 18.6739 15.4171C18.6739 15.2171 18.8099 15.1051 18.9779 15.1051C19.1379 15.1051 19.2899 15.2171 19.2899 15.4171C19.2899 15.6011 19.1379 15.7211 18.9779 15.7211ZM21.7469 23.0571C20.6749 23.0571 20.0189 22.5851 20.0189 21.8811C20.0189 21.5131 20.2669 21.1211 20.6589 20.8411V20.8091C20.4429 20.6811 20.2829 20.4571 20.2829 20.1371C20.2829 19.7531 20.5629 19.4891 20.7469 19.3611V19.3291C20.4829 19.0971 20.2109 18.6811 20.2109 18.1691C20.2109 17.3131 20.8509 16.6811 21.6589 16.6811C21.8989 16.6811 22.0909 16.7371 22.2109 16.7851H23.6189V17.0491H22.6109C22.9069 17.2971 23.1069 17.6891 23.1069 18.1691C23.1069 19.0091 22.4749 19.6651 21.6589 19.6651C21.4189 19.6651 21.1389 19.5931 20.9469 19.4731C20.7549 19.6251 20.5789 19.8251 20.5789 20.1131C20.5789 20.4331 20.7549 20.6971 21.4029 20.6971H22.3389C23.2669 20.6971 23.6909 20.9931 23.6909 21.6411C23.6909 22.3531 22.9309 23.0571 21.7469 23.0571ZM21.6589 19.4011C22.2749 19.4011 22.8109 18.8971 22.8109 18.1691C22.8109 17.4171 22.2909 16.9451 21.6589 16.9451C21.0349 16.9451 20.5149 17.4091 20.5149 18.1691C20.5149 18.8971 21.0509 19.4011 21.6589 19.4011ZM21.7629 22.8011C22.7709 22.8011 23.3949 22.2251 23.3949 21.6731C23.3949 21.1771 23.0429 20.9851 22.3789 20.9851H21.4189C21.3629 20.9851 21.1389 20.9691 20.9069 20.9131C20.4909 21.1931 20.3229 21.5451 20.3229 21.8571C20.3229 22.4171 20.8429 22.8011 21.7629 22.8011ZM24.2291 21.0011V16.7851H24.4691L24.5171 17.4571H24.5331C24.9651 17.0171 25.4051 16.6811 25.9891 16.6811C26.8531 16.6811 27.2611 17.2011 27.2611 18.2891V21.0011H26.9731V18.3291C26.9731 17.4011 26.6771 16.9451 25.9571 16.9451C25.4371 16.9451 25.0531 17.2251 24.5171 17.7771V21.0011H24.2291ZM31.4035 21.1051C31.0035 21.1051 30.5235 20.8971 30.1315 20.5771H30.1075L30.0675 21.0011H29.8275V14.6491H30.1155V16.5211L30.0915 17.3691C30.5315 17.0011 31.0515 16.6811 31.5795 16.6811C32.7235 16.6811 33.2755 17.5291 33.2755 18.8331C33.2755 20.2651 32.4115 21.1051 31.4035 21.1051ZM31.4275 20.8411C32.3235 20.8411 32.9715 20.0091 32.9715 18.8331C32.9715 17.7611 32.5875 16.9451 31.5555 16.9451C31.1235 16.9451 30.6355 17.2091 30.1155 17.6731V20.2731C30.5955 20.6891 31.0915 20.8411 31.4275 20.8411ZM33.9217 22.9531C33.7777 22.9531 33.6177 22.9211 33.5137 22.8651L33.5857 22.6011C33.6737 22.6411 33.8097 22.6731 33.9377 22.6731C34.4657 22.6731 34.8257 22.1611 35.0577 21.4891L35.1777 21.0971L33.4337 16.7851H33.7537L34.8177 19.5371C34.9537 19.8971 35.1297 20.3451 35.2897 20.7211H35.3297C35.4657 20.3451 35.6097 19.8971 35.7297 19.5371L36.6737 16.7851H36.9697L35.2897 21.5931C35.0737 22.2491 34.6497 22.9531 33.9217 22.9531ZM38.9097 21.0011V15.1931H40.3097C41.6297 15.1931 42.3897 15.6171 42.3897 16.7771C42.3897 17.8971 41.6457 18.4411 40.3417 18.4411H39.2057V21.0011H38.9097ZM39.2057 18.1771H40.2377C41.4777 18.1771 42.0697 17.7771 42.0697 16.7771C42.0697 15.7611 41.4617 15.4571 40.2057 15.4571H39.2057V18.1771ZM43.2509 21.0011V16.7851H43.5389V21.0011H43.2509ZM43.4029 15.7211C43.2349 15.7211 43.0989 15.6011 43.0989 15.4171C43.0989 15.2171 43.2349 15.1051 43.4029 15.1051C43.5629 15.1051 43.7149 15.2171 43.7149 15.4171C43.7149 15.6011 43.5629 15.7211 43.4029 15.7211ZM44.8119 21.0011V16.7851H45.0519L45.0999 17.4571H45.1159C45.5479 17.0171 45.9879 16.6811 46.5719 16.6811C47.4359 16.6811 47.8439 17.2011 47.8439 18.2891V21.0011H47.5559V18.3291C47.5559 17.4011 47.2599 16.9451 46.5399 16.9451C46.0199 16.9451 45.6359 17.2251 45.0999 17.7771V21.0011H44.8119ZM50.4125 23.0571C49.3405 23.0571 48.6845 22.5851 48.6845 21.8811C48.6845 21.5131 48.9325 21.1211 49.3245 20.8411V20.8091C49.1085 20.6811 48.9485 20.4571 48.9485 20.1371C48.9485 19.7531 49.2285 19.4891 49.4125 19.3611V19.3291C49.1485 19.0971 48.8765 18.6811 48.8765 18.1691C48.8765 17.3131 49.5165 16.6811 50.3245 16.6811C50.5645 16.6811 50.7565 16.7371 50.8765 16.7851H52.2845V17.0491H51.2765C51.5725 17.2971 51.7725 17.6891 51.7725 18.1691C51.7725 19.0091 51.1405 19.6651 50.3245 19.6651C50.0845 19.6651 49.8045 19.5931 49.6125 19.4731C49.4205 19.6251 49.2445 19.8251 49.2445 20.1131C49.2445 20.4331 49.4205 20.6971 50.0685 20.6971H51.0045C51.9325 20.6971 52.3565 20.9931 52.3565 21.6411C52.3565 22.3531 51.5965 23.0571 50.4125 23.0571ZM50.3245 19.4011C50.9405 19.4011 51.4765 18.8971 51.4765 18.1691C51.4765 17.4171 50.9565 16.9451 50.3245 16.9451C49.7005 16.9451 49.1805 17.4091 49.1805 18.1691C49.1805 18.8971 49.7165 19.4011 50.3245 19.4011ZM50.4285 22.8011C51.4365 22.8011 52.0605 22.2251 52.0605 21.6731C52.0605 21.1771 51.7085 20.9851 51.0445 20.9851H50.0845C50.0285 20.9851 49.8045 20.9691 49.5725 20.9131C49.1565 21.1931 48.9885 21.5451 48.9885 21.8571C48.9885 22.4171 49.5085 22.8011 50.4285 22.8011Z" fill="black"/>
<path fill-rule="evenodd" clip-rule="evenodd" d="M5.4 0.00109863H1V4.6761V11.0011H5.4V9.34315C5.49099 9.34842 5.58268 9.3511 5.675 9.3511C8.25693 9.3511 10.35 7.25803 10.35 4.6761C10.35 2.09417 8.25693 0.00109863 5.675 0.00109863H5.4Z" fill="black"/>
<path d="M6.22452 4.67642C6.22452 4.97975 5.97862 5.22564 5.67529 5.22564C5.37196 5.22564 5.12607 4.97975 5.12607 4.67642C5.12607 4.37309 5.37196 4.1272 5.67529 4.1272C5.97862 4.1272 6.22452 4.37309 6.22452 4.67642Z" fill="white"/>
<path d="M10.8996 0.00109863H15.8496V11.0011H10.8996V0.00109863Z" fill="black"/>
<path d="M16.3996 0.00109863H20.7496C23.511 0.00109863 25.7496 2.23968 25.7496 5.0011V11.0011H16.3996V0.00109863Z" fill="black"/>
<path d="M21.6241 10.4503C21.6241 10.7537 21.3782 10.9996 21.0749 10.9996C20.7716 10.9996 20.5257 10.7537 20.5257 10.4503C20.5257 10.147 20.7716 9.90112 21.0749 9.90112C21.3782 9.90112 21.6241 10.147 21.6241 10.4503Z" fill="white"/>
<path fill-rule="evenodd" clip-rule="evenodd" d="M30.6984 0.00905275C28.2445 0.151399 26.2984 2.18648 26.2984 4.6761C26.2984 7.16571 28.2445 9.2008 30.6984 9.34315V11.0011C33.4322 11.0011 35.6484 8.78491 35.6484 6.0511V4.67912C35.6484 4.67811 35.6484 4.67711 35.6484 4.6761V0.00109863H30.9734H30.6984V0.00905275Z" fill="black"/>
<path d="M30.4253 4.67685C30.4253 4.37352 30.6712 4.12763 30.9745 4.12763C31.2778 4.12763 31.5237 4.37352 31.5237 4.67685C31.5237 4.98018 31.2778 5.22607 30.9745 5.22607C30.6712 5.22607 30.4253 4.98018 30.4253 4.67685Z" fill="white"/>
</svg>
