<svg width="339" height="507" viewBox="0 0 339 507" fill="none" xmlns="http://www.w3.org/2000/svg">
<rect x="1" y="3" width="335" height="504" rx="30" fill="#DBFC3D"/>
<rect x="21.5" y="36.5" width="294" height="439" rx="19.5" fill="white" stroke="black"/>
<mask id="path-3-inside-1_5375_59718" fill="white">
<path fill-rule="evenodd" clip-rule="evenodd" d="M35.66 6.9325C37.6282 8.90067 37.7643 12.3177 36.3915 16.2142C40.2883 14.8411 43.7057 14.9771 45.674 16.9454C47.642 18.9134 47.7782 22.3301 46.4058 26.2262C50.3015 24.854 53.7179 24.9904 55.6858 26.9583C59.5143 30.7867 56.4107 40.0974 48.7538 47.7543C41.0969 55.4112 31.7862 58.5148 27.9578 54.6863C25.9898 52.7183 25.8535 49.3016 27.226 45.4055C23.3303 46.7777 19.9139 46.6413 17.946 44.6734C15.9778 42.7052 15.8417 39.2882 17.2145 35.3918C13.3177 36.7648 9.90031 36.6288 7.93201 34.6605C4.10357 30.8321 7.20713 21.5214 14.864 13.8645C22.5209 6.20762 31.8316 3.10405 35.66 6.9325Z"/>
</mask>
<path fill-rule="evenodd" clip-rule="evenodd" d="M35.66 6.9325C37.6282 8.90067 37.7643 12.3177 36.3915 16.2142C40.2883 14.8411 43.7057 14.9771 45.674 16.9454C47.642 18.9134 47.7782 22.3301 46.4058 26.2262C50.3015 24.854 53.7179 24.9904 55.6858 26.9583C59.5143 30.7867 56.4107 40.0974 48.7538 47.7543C41.0969 55.4112 31.7862 58.5148 27.9578 54.6863C25.9898 52.7183 25.8535 49.3016 27.226 45.4055C23.3303 46.7777 19.9139 46.6413 17.946 44.6734C15.9778 42.7052 15.8417 39.2882 17.2145 35.3918C13.3177 36.7648 9.90031 36.6288 7.93201 34.6605C4.10357 30.8321 7.20713 21.5214 14.864 13.8645C22.5209 6.20762 31.8316 3.10405 35.66 6.9325Z" fill="#63FFF6"/>
<path d="M36.3915 16.2142L35.4484 15.8819L34.7545 17.8512L36.7239 17.1573L36.3915 16.2142ZM46.4058 26.2262L45.4626 25.8939L44.769 27.8629L46.738 27.1694L46.4058 26.2262ZM27.226 45.4055L28.1692 45.7378L28.8628 43.7688L26.8938 44.4623L27.226 45.4055ZM17.2145 35.3918L18.1576 35.7241L18.8515 33.7547L16.8821 34.4486L17.2145 35.3918ZM37.3347 16.5464C38.7445 12.545 38.7584 8.61662 36.3671 6.22539L34.9529 7.6396C36.498 9.18471 36.7841 12.0905 35.4484 15.8819L37.3347 16.5464ZM46.3811 16.2383C43.9897 13.8469 40.061 13.8609 36.0592 15.271L36.7239 17.1573C40.5155 15.8213 43.4217 16.1073 44.9669 17.6525L46.3811 16.2383ZM47.349 26.5584C48.7585 22.5573 48.7722 18.6293 46.3811 16.2383L44.9669 17.6525C46.5119 19.1975 46.798 22.103 45.4626 25.8939L47.349 26.5584ZM46.738 27.1694C50.5286 25.8343 53.4338 26.1205 54.9787 27.6654L56.3929 26.2512C54.002 23.8603 50.0744 23.8738 46.0736 25.283L46.738 27.1694ZM54.9787 27.6654C56.4808 29.1675 56.795 31.9538 55.5781 35.6044C54.3824 39.1915 51.7892 43.3047 48.0467 47.0472L49.4609 48.4614C53.3753 44.547 56.1623 40.1764 57.4755 36.2369C58.7675 32.3608 58.7193 28.5775 56.3929 26.2512L54.9787 27.6654ZM48.0467 47.0472C44.3042 50.7897 40.1911 53.3829 36.6039 54.5786C32.9533 55.7955 30.167 55.4813 28.6649 53.9792L27.2507 55.3934C29.577 57.7198 33.3603 57.768 37.2364 56.476C41.1759 55.1628 45.5465 52.3758 49.4609 48.4614L48.0467 47.0472ZM28.6649 53.9792C27.1199 52.4342 26.8338 49.5287 28.1692 45.7378L26.2828 45.0733C24.8733 49.0744 24.8596 53.0024 27.2507 55.3934L28.6649 53.9792ZM17.2389 45.3805C19.6298 47.7714 23.5573 47.7579 27.5582 46.3487L26.8938 44.4623C23.1032 45.7974 20.198 45.5112 18.6531 43.9663L17.2389 45.3805ZM16.2713 35.0595C14.8615 39.061 14.8476 42.9893 17.2389 45.3805L18.6531 43.9663C17.108 42.4212 16.8219 39.5154 18.1576 35.7241L16.2713 35.0595ZM7.2249 35.3676C9.61629 37.759 13.545 37.745 17.5468 36.3349L16.8821 34.4486C13.0904 35.7846 10.1843 35.4986 8.63911 33.9534L7.2249 35.3676ZM14.1569 13.1574C10.2425 17.0718 7.45551 21.4424 6.14233 25.382C4.8503 29.258 4.89856 33.0413 7.2249 35.3676L8.63911 33.9534C7.13701 32.4513 6.82283 29.665 8.0397 26.0144C9.23541 22.4273 11.8287 18.3141 15.5711 14.5716L14.1569 13.1574ZM36.3671 6.22539C34.0408 3.89905 30.2576 3.85079 26.3815 5.14282C22.4419 6.456 18.0713 9.24298 14.1569 13.1574L15.5711 14.5716C19.3136 10.8291 23.4268 8.2359 27.0139 7.04019C30.6645 5.82332 33.4508 6.1375 34.9529 7.6396L36.3671 6.22539Z" fill="black" mask="url(#path-3-inside-1_5375_59718)"/>
<path d="M251.19 22.7435C252.275 21.6872 254.063 22.7199 253.691 24.1872L252.434 29.1348C252.262 29.8146 252.383 30.5356 252.768 31.1219L254.884 34.3459C255.56 35.3762 254.774 36.7372 253.544 36.6666L249.694 36.4458C248.994 36.4057 248.309 36.6615 247.806 37.1509L244.15 40.7125C243.065 41.7688 241.277 40.7362 241.649 39.2689L242.913 34.293C243.08 33.6339 242.972 32.9351 242.612 32.3576L240.651 29.203C240.018 28.185 240.775 26.8724 241.974 26.9117L245.686 27.0333C246.366 27.0556 247.025 26.8 247.513 26.3255L251.19 22.7435Z" fill="#63FFF6" stroke="black"/>
<path d="M232.966 23.0852C232.842 22.5961 233.438 22.2519 233.8 22.604L235.528 24.2873C235.829 24.5809 236.24 24.7344 236.66 24.7103L238.493 24.6052C238.903 24.5817 239.165 25.0354 238.939 25.3788L237.932 26.913C237.701 27.2648 237.629 27.6974 237.732 28.1052L238.326 30.4436C238.45 30.9327 237.854 31.2769 237.492 30.9248L235.754 29.2313C235.462 28.9466 235.066 28.7933 234.658 28.8066L232.89 28.8646C232.491 28.8776 232.238 28.4401 232.449 28.1008L233.383 26.5989C233.599 26.2524 233.664 25.8331 233.564 25.4376L232.966 23.0852Z" fill="white" stroke="black"/>
<path d="M261.724 463.41C262.808 462.354 264.597 463.386 264.224 464.854L262.574 471.355C262.401 472.034 262.522 472.755 262.907 473.342L265.609 477.458C266.285 478.488 265.499 479.849 264.269 479.779L259.353 479.497C258.653 479.457 257.968 479.713 257.465 480.202L252.661 484.882C251.576 485.938 249.788 484.905 250.16 483.438L251.818 476.909C251.985 476.25 251.877 475.551 251.518 474.974L249.018 470.954C248.385 469.936 249.143 468.624 250.341 468.663L255.072 468.818C255.752 468.84 256.411 468.585 256.898 468.11L261.724 463.41Z" fill="#FF2164" stroke="black"/>
<mask id="path-8-inside-2_5375_59718" fill="white">
<path fill-rule="evenodd" clip-rule="evenodd" d="M329.872 297.149C332.412 297.673 334.516 297.283 335.388 295.9C336.862 293.564 334.269 289.282 329.598 286.336C324.927 283.389 319.946 282.893 318.473 285.229C317.6 286.612 318.154 288.678 319.721 290.746C317.18 290.221 315.077 290.612 314.204 291.995C313.332 293.378 313.885 295.445 315.453 297.512C312.912 296.988 310.809 297.378 309.936 298.761C309.063 300.144 309.617 302.211 311.184 304.278C308.644 303.754 306.54 304.144 305.668 305.527C304.194 307.863 306.787 312.145 311.458 315.092C316.129 318.038 321.11 318.534 322.583 316.198C323.456 314.815 322.902 312.749 321.335 310.682C323.876 311.206 325.979 310.815 326.851 309.432C327.724 308.049 327.17 305.983 325.603 303.915C328.144 304.439 330.247 304.049 331.12 302.666C331.993 301.283 331.439 299.216 329.872 297.149Z"/>
</mask>
<path fill-rule="evenodd" clip-rule="evenodd" d="M329.872 297.149C332.412 297.673 334.516 297.283 335.388 295.9C336.862 293.564 334.269 289.282 329.598 286.336C324.927 283.389 319.946 282.893 318.473 285.229C317.6 286.612 318.154 288.678 319.721 290.746C317.18 290.221 315.077 290.612 314.204 291.995C313.332 293.378 313.885 295.445 315.453 297.512C312.912 296.988 310.809 297.378 309.936 298.761C309.063 300.144 309.617 302.211 311.184 304.278C308.644 303.754 306.54 304.144 305.668 305.527C304.194 307.863 306.787 312.145 311.458 315.092C316.129 318.038 321.11 318.534 322.583 316.198C323.456 314.815 322.902 312.749 321.335 310.682C323.876 311.206 325.979 310.815 326.851 309.432C327.724 308.049 327.17 305.983 325.603 303.915C328.144 304.439 330.247 304.049 331.12 302.666C331.993 301.283 331.439 299.216 329.872 297.149Z" fill="#DBFC3D"/>
<path d="M329.872 297.149L330.074 296.17L327.467 295.632L329.075 297.753L329.872 297.149ZM319.721 290.746L319.519 291.725L322.126 292.263L320.518 290.141L319.721 290.746ZM315.453 297.512L315.25 298.491L317.858 299.029L316.249 296.908L315.453 297.512ZM311.184 304.278L310.982 305.257L313.589 305.795L311.981 303.674L311.184 304.278ZM321.335 310.682L321.537 309.702L318.93 309.164L320.538 311.286L321.335 310.682ZM325.603 303.915L325.805 302.936L323.198 302.398L324.806 304.52L325.603 303.915ZM334.542 295.366C334.289 295.768 333.818 296.096 333.045 296.262C332.267 296.43 331.253 296.413 330.074 296.17L329.67 298.129C331.031 298.409 332.339 298.46 333.466 298.217C334.598 297.974 335.615 297.415 336.234 296.433L334.542 295.366ZM329.065 287.181C331.297 288.59 332.99 290.293 333.942 291.865C334.928 293.494 334.968 294.691 334.542 295.366L336.234 296.433C337.282 294.773 336.762 292.661 335.653 290.829C334.509 288.939 332.57 287.028 330.132 285.49L329.065 287.181ZM319.319 285.762C319.744 285.088 320.842 284.608 322.737 284.796C324.566 284.978 326.832 285.773 329.065 287.181L330.132 285.49C327.694 283.952 325.134 283.025 322.935 282.806C320.804 282.594 318.675 283.035 317.627 284.695L319.319 285.762ZM320.518 290.141C319.79 289.182 319.339 288.274 319.155 287.5C318.972 286.731 319.065 286.164 319.319 285.762L317.627 284.695C317.008 285.677 316.941 286.835 317.209 287.962C317.476 289.084 318.084 290.242 318.924 291.35L320.518 290.141ZM315.05 292.529C315.303 292.127 315.775 291.799 316.548 291.633C317.325 291.465 318.339 291.482 319.519 291.725L319.923 289.766C318.562 289.485 317.254 289.435 316.127 289.677C314.994 289.921 313.978 290.479 313.359 291.461L315.05 292.529ZM316.249 296.908C315.522 295.948 315.07 295.04 314.886 294.266C314.704 293.497 314.797 292.93 315.05 292.529L313.359 291.461C312.739 292.443 312.673 293.601 312.941 294.728C313.207 295.85 313.816 297.008 314.656 298.116L316.249 296.908ZM310.782 299.295C311.035 298.893 311.507 298.565 312.279 298.399C313.057 298.231 314.071 298.248 315.25 298.491L315.655 296.532C314.293 296.252 312.986 296.201 311.858 296.444C310.726 296.687 309.71 297.246 309.09 298.228L310.782 299.295ZM311.981 303.674C311.254 302.714 310.802 301.806 310.618 301.032C310.435 300.263 310.529 299.696 310.782 299.295L309.09 298.228C308.471 299.21 308.404 300.367 308.672 301.494C308.939 302.616 309.548 303.774 310.387 304.882L311.981 303.674ZM306.513 306.061C306.767 305.659 307.238 305.331 308.011 305.165C308.789 304.998 309.803 305.014 310.982 305.257L311.386 303.299C310.025 303.018 308.717 302.967 307.59 303.21C306.458 303.453 305.441 304.012 304.822 304.994L306.513 306.061ZM311.991 314.246C309.758 312.837 308.066 311.134 307.114 309.562C306.128 307.933 306.088 306.736 306.513 306.061L304.822 304.994C303.774 306.654 304.294 308.766 305.403 310.598C306.547 312.488 308.486 314.399 310.924 315.937L311.991 314.246ZM321.737 315.665C321.312 316.34 320.213 316.819 318.318 316.631C316.49 316.449 314.224 315.654 311.991 314.246L310.924 315.937C313.362 317.476 315.922 318.402 318.12 318.621C320.252 318.833 322.381 318.393 323.429 316.732L321.737 315.665ZM320.538 311.286C321.266 312.245 321.717 313.154 321.901 313.928C322.084 314.696 321.99 315.263 321.737 315.665L323.429 316.732C324.048 315.75 324.115 314.592 323.847 313.465C323.58 312.343 322.971 311.185 322.132 310.077L320.538 311.286ZM326.006 308.899C325.752 309.3 325.281 309.628 324.508 309.795C323.731 309.962 322.716 309.945 321.537 309.702L321.133 311.661C322.494 311.942 323.802 311.992 324.929 311.75C326.061 311.506 327.078 310.948 327.697 309.966L326.006 308.899ZM324.806 304.52C325.534 305.479 325.986 306.387 326.169 307.161C326.352 307.93 326.259 308.497 326.006 308.899L327.697 309.966C328.317 308.984 328.383 307.826 328.115 306.699C327.849 305.577 327.24 304.419 326.4 303.311L324.806 304.52ZM330.274 302.132C330.021 302.534 329.549 302.862 328.777 303.028C327.999 303.196 326.985 303.179 325.805 302.936L325.401 304.895C326.762 305.176 328.07 305.226 329.197 304.984C330.33 304.74 331.346 304.182 331.966 303.2L330.274 302.132ZM329.075 297.753C329.802 298.713 330.254 299.621 330.438 300.395C330.62 301.164 330.527 301.731 330.274 302.132L331.966 303.2C332.585 302.218 332.651 301.06 332.384 299.933C332.117 298.811 331.508 297.653 330.669 296.545L329.075 297.753Z" fill="black" mask="url(#path-8-inside-2_5375_59718)"/>
<mask id="path-10-inside-3_5375_59718" fill="white">
<path fill-rule="evenodd" clip-rule="evenodd" d="M18.3262 233.843C20.1135 231.963 20.8936 229.971 20.1802 228.499C18.9758 226.014 13.9706 225.952 9.0007 228.361C4.03083 230.77 0.978307 234.737 2.1827 237.222C2.89607 238.694 4.94285 239.316 7.52592 239.077C5.73859 240.957 4.95853 242.949 5.6719 244.421C6.38526 245.893 8.43205 246.515 11.0151 246.276C9.22778 248.156 8.44773 250.148 9.16109 251.62C9.87446 253.092 11.9212 253.714 14.5043 253.475C12.717 255.355 11.9369 257.347 12.6503 258.819C13.8547 261.304 18.8599 261.366 23.8298 258.957C28.7996 256.548 31.8522 252.581 30.6478 250.096C29.9344 248.624 27.8876 248.002 25.3046 248.241C27.0919 246.361 27.8719 244.369 27.1586 242.897C26.4452 241.425 24.3984 240.803 21.8154 241.042C23.6027 239.162 24.3827 237.17 23.6694 235.698C22.956 234.226 20.9092 233.604 18.3262 233.843Z"/>
</mask>
<path fill-rule="evenodd" clip-rule="evenodd" d="M18.3262 233.843C20.1135 231.963 20.8936 229.971 20.1802 228.499C18.9758 226.014 13.9706 225.952 9.0007 228.361C4.03083 230.77 0.978307 234.737 2.1827 237.222C2.89607 238.694 4.94285 239.316 7.52592 239.077C5.73859 240.957 4.95853 242.949 5.6719 244.421C6.38526 245.893 8.43205 246.515 11.0151 246.276C9.22778 248.156 8.44773 250.148 9.16109 251.62C9.87446 253.092 11.9212 253.714 14.5043 253.475C12.717 255.355 11.9369 257.347 12.6503 258.819C13.8547 261.304 18.8599 261.366 23.8298 258.957C28.7996 256.548 31.8522 252.581 30.6478 250.096C29.9344 248.624 27.8876 248.002 25.3046 248.241C27.0919 246.361 27.8719 244.369 27.1586 242.897C26.4452 241.425 24.3984 240.803 21.8154 241.042C23.6027 239.162 24.3827 237.17 23.6694 235.698C22.956 234.226 20.9092 233.604 18.3262 233.843Z" fill="white"/>
<path d="M18.3262 233.843L17.6014 233.154L15.7673 235.083L18.418 234.838L18.3262 233.843ZM7.52592 239.077L8.25066 239.766L10.0848 237.837L7.43408 238.082L7.52592 239.077ZM11.0151 246.276L11.7399 246.965L13.574 245.036L10.9233 245.281L11.0151 246.276ZM14.5043 253.475L15.2291 254.164L17.0632 252.235L14.4125 252.48L14.5043 253.475ZM25.3046 248.241L24.5798 247.552L22.7457 249.481L25.3964 249.236L25.3046 248.241ZM21.8154 241.042L21.0906 240.353L19.2565 242.282L21.9072 242.037L21.8154 241.042ZM19.2803 228.935C19.4873 229.362 19.5168 229.936 19.2498 230.68C18.9809 231.429 18.4312 232.281 17.6014 233.154L19.0509 234.532C20.0085 233.524 20.7424 232.441 21.1321 231.356C21.5236 230.266 21.5865 229.108 21.0801 228.063L19.2803 228.935ZM9.43685 229.261C11.8124 228.11 14.1528 227.572 15.9902 227.595C17.8944 227.618 18.9323 228.217 19.2803 228.935L21.0801 228.063C20.2237 226.296 18.1568 225.621 16.0148 225.595C13.806 225.568 11.1589 226.204 8.56455 227.461L9.43685 229.261ZM3.08257 236.786C2.73458 236.068 2.90755 234.882 4.06889 233.373C5.18944 231.917 7.06132 230.412 9.43685 229.261L8.56455 227.461C5.9702 228.719 3.83088 230.403 2.48381 232.153C1.17752 233.851 0.426429 235.891 1.28283 237.658L3.08257 236.786ZM7.43408 238.082C6.23492 238.192 5.22528 238.096 4.47098 237.843C3.72183 237.592 3.28954 237.213 3.08257 236.786L1.28283 237.658C1.78922 238.703 2.73701 239.371 3.83536 239.739C4.92857 240.106 6.23385 240.201 7.61776 240.073L7.43408 238.082ZM6.57177 243.985C6.3648 243.558 6.33528 242.984 6.60231 242.24C6.87117 241.491 7.42092 240.639 8.25066 239.766L6.80118 238.388C5.84359 239.396 5.10965 240.479 4.71998 241.564C4.32849 242.655 4.26562 243.812 4.77202 244.857L6.57177 243.985ZM10.9233 245.281C9.72412 245.391 8.71447 245.295 7.96018 245.042C7.21102 244.791 6.77874 244.412 6.57177 243.985L4.77202 244.857C5.27842 245.902 6.22621 246.57 7.32456 246.938C8.41776 247.305 9.72304 247.4 11.107 247.272L10.9233 245.281ZM10.061 251.184C9.854 250.757 9.82448 250.183 10.0915 249.439C10.3604 248.69 10.9101 247.838 11.7399 246.965L10.2904 245.587C9.33279 246.595 8.59884 247.678 8.20918 248.763C7.81769 249.854 7.75482 251.011 8.26122 252.056L10.061 251.184ZM14.4125 252.48C13.2133 252.59 12.2037 252.494 11.4494 252.241C10.7002 251.99 10.2679 251.611 10.061 251.184L8.26122 252.056C8.76761 253.101 9.7154 253.769 10.8138 254.137C11.907 254.504 13.2122 254.599 14.5961 254.471L14.4125 252.48ZM13.5502 258.383C13.3432 257.956 13.3137 257.382 13.5807 256.638C13.8496 255.889 14.3993 255.037 15.2291 254.164L13.7796 252.786C12.822 253.794 12.088 254.877 11.6984 255.962C11.3069 257.053 11.244 258.21 11.7504 259.255L13.5502 258.383ZM23.3936 258.057C21.0181 259.208 18.6777 259.746 16.8403 259.723C14.9361 259.7 13.8982 259.101 13.5502 258.383L11.7504 259.255C12.6068 261.022 14.6737 261.697 16.8156 261.723C19.0244 261.75 21.6716 261.114 24.2659 259.857L23.3936 258.057ZM29.7479 250.532C30.0959 251.25 29.9229 252.436 28.7616 253.945C27.641 255.401 25.7692 256.906 23.3936 258.057L24.2659 259.857C26.8603 258.599 28.9996 256.916 30.3467 255.165C31.653 253.467 32.404 251.427 31.5476 249.66L29.7479 250.532ZM25.3964 249.236C26.5955 249.126 27.6052 249.222 28.3595 249.475C29.1086 249.726 29.5409 250.105 29.7479 250.532L31.5476 249.66C31.0412 248.615 30.0935 247.947 28.9951 247.579C27.9019 247.213 26.5966 247.117 25.2127 247.245L25.3964 249.236ZM26.2587 243.333C26.4657 243.76 26.4952 244.334 26.2282 245.078C25.9593 245.827 25.4096 246.679 24.5798 247.552L26.0293 248.93C26.9869 247.922 27.7208 246.839 28.1105 245.754C28.502 244.664 28.5648 243.506 28.0585 242.461L26.2587 243.333ZM21.9072 242.037C23.1064 241.927 24.116 242.023 24.8703 242.276C25.6194 242.527 26.0517 242.906 26.2587 243.333L28.0585 242.461C27.5521 241.416 26.6043 240.748 25.5059 240.38C24.4127 240.014 23.1074 239.918 21.7235 240.046L21.9072 242.037ZM22.7695 236.134C22.9765 236.561 23.006 237.135 22.739 237.879C22.4701 238.628 21.9204 239.48 21.0906 240.353L22.5401 241.731C23.4977 240.723 24.2316 239.64 24.6213 238.555C25.0128 237.465 25.0757 236.307 24.5693 235.262L22.7695 236.134ZM18.418 234.838C19.6172 234.728 20.6268 234.824 21.3811 235.077C22.1303 235.328 22.5625 235.707 22.7695 236.134L24.5693 235.262C24.0629 234.217 23.1151 233.549 22.0167 233.181C20.9235 232.815 19.6182 232.719 18.2343 232.847L18.418 234.838Z" fill="black" mask="url(#path-10-inside-3_5375_59718)"/>
<rect x="276.5" y="3.5" width="59" height="59" rx="29.5" fill="#FFCB16" stroke="black"/>
<rect x="294.002" y="42" width="2" height="8" rx="1" fill="black"/>
<rect x="288.002" y="42" width="2" height="8" rx="1" fill="black"/>
<circle cx="240" cy="487" r="3.5" fill="#63FFF6" stroke="black"/>
<circle cx="63" cy="18" r="4.5" fill="#FF2164" stroke="black"/>
<path d="M68.606 465.164C72.0045 457.37 83.7127 460.507 82.7588 468.956C82.3448 472.623 84.3705 476.132 87.7535 477.607C95.5474 481.005 92.4102 492.714 83.9612 491.76C80.294 491.346 76.7854 493.371 75.3103 496.754C71.9119 504.548 60.2036 501.411 61.1575 492.962C61.5715 489.295 59.5458 485.786 56.1628 484.311C48.3689 480.913 51.5061 469.205 59.9551 470.158C63.6224 470.572 67.1309 468.547 68.606 465.164Z" fill="#26F1B5" stroke="black"/>
</svg>
