<svg width="128" height="98" viewBox="0 0 128 98" fill="none" xmlns="http://www.w3.org/2000/svg">
<mask id="path-1-inside-1_5983_210335" fill="white">
<path fill-rule="evenodd" clip-rule="evenodd" d="M128 20.0003V88.0006C128 93.5234 123.523 98.0006 118 98.0006H10C4.47715 98.0006 0 93.5234 0 88.0006V17.0006C0 11.4777 4.47715 7.00058 10 7.00058H116.628L122.914 0.920067C124.818 -0.92156 128 0.42752 128 3.0763V17.0006V20.0003Z"/>
</mask>
<path fill-rule="evenodd" clip-rule="evenodd" d="M128 20.0003V88.0006C128 93.5234 123.523 98.0006 118 98.0006H10C4.47715 98.0006 0 93.5234 0 88.0006V17.0006C0 11.4777 4.47715 7.00058 10 7.00058H116.628L122.914 0.920067C124.818 -0.92156 128 0.42752 128 3.0763V17.0006V20.0003Z" fill="white"/>
<path d="M116.628 7.00058V8.00058H117.033L117.324 7.71932L116.628 7.00058ZM122.914 0.920067L122.219 0.201323V0.201323L122.914 0.920067ZM127 20.0003V88.0006H129V20.0003H127ZM127 88.0006C127 92.9711 122.971 97.0006 118 97.0006V99.0006C124.075 99.0006 129 94.0757 129 88.0006H127ZM118 97.0006H10V99.0006H118V97.0006ZM10 97.0006C5.02944 97.0006 1 92.9711 1 88.0006H-1C-1 94.0757 3.92487 99.0006 10 99.0006V97.0006ZM1 88.0006V17.0006H-1V88.0006H1ZM1 17.0006C1 12.03 5.02944 8.00058 10 8.00058V6.00058C3.92487 6.00058 -1 10.9254 -1 17.0006H1ZM10 8.00058H116.628V6.00058H10V8.00058ZM117.324 7.71932L123.609 1.63881L122.219 0.201323L115.933 6.28183L117.324 7.71932ZM123.609 1.63881C124.879 0.411056 127 1.31045 127 3.0763H129C129 -0.45541 124.757 -2.25418 122.219 0.201323L123.609 1.63881ZM127 3.0763V17.0006H129V3.0763H127ZM127 17.0006V20.0003H129V17.0006H127Z" fill="black" mask="url(#path-1-inside-1_5983_210335)"/>
</svg>
