<svg width="265" height="78" viewBox="0 0 265 78" fill="none" xmlns="http://www.w3.org/2000/svg">
<mask id="path-1-inside-1_5983_198153" fill="white">
<path fill-rule="evenodd" clip-rule="evenodd" d="M0 19.93V68.0001C0 73.5229 4.47714 78.0001 10 78.0001H255C260.523 78.0001 265 73.5229 265 68.0001V17.0001C265 11.4772 260.523 7.00007 255 7.00007H11.4437L5.08582 0.849755C3.18204 -0.991872 0 0.357208 0 3.00598V17.0001V19.93Z"/>
</mask>
<path fill-rule="evenodd" clip-rule="evenodd" d="M0 19.93V68.0001C0 73.5229 4.47714 78.0001 10 78.0001H255C260.523 78.0001 265 73.5229 265 68.0001V17.0001C265 11.4772 260.523 7.00007 255 7.00007H11.4437L5.08582 0.849755C3.18204 -0.991872 0 0.357208 0 3.00598V17.0001V19.93Z" fill="white"/>
<path d="M11.4437 7.00007V8.00007H11.0392L10.7485 7.71881L11.4437 7.00007ZM5.08582 0.849755L4.39053 1.5685V1.5685L5.08582 0.849755ZM1 19.93V68.0001H-1V19.93H1ZM1 68.0001C1 72.9706 5.02942 77.0001 10 77.0001V79.0001C3.92487 79.0001 -1 74.0752 -1 68.0001H1ZM10 77.0001H255V79.0001H10V77.0001ZM255 77.0001C259.971 77.0001 264 72.9706 264 68.0001H266C266 74.0752 261.075 79.0001 255 79.0001V77.0001ZM264 68.0001V17.0001H266V68.0001H264ZM264 17.0001C264 12.0295 259.971 8.00007 255 8.00007V6.00007C261.075 6.00007 266 10.9249 266 17.0001H264ZM255 8.00007H11.4437V6.00007H255V8.00007ZM10.7485 7.71881L4.39053 1.5685L5.7811 0.13101L12.139 6.28132L10.7485 7.71881ZM4.39053 1.5685C3.12137 0.340751 1 1.24013 1 3.00598H-1C-1 -0.525715 3.24271 -2.3245 5.7811 0.131013L4.39053 1.5685ZM1 3.00598V17.0001H-1V3.00598H1ZM1 17.0001V19.93H-1V17.0001H1Z" fill="black" mask="url(#path-1-inside-1_5983_198153)"/>
</svg>
