<svg xmlns="http://www.w3.org/2000/svg" width="90" height="51" viewBox="0 0 90 51" fill="none">
  <g clip-path="url(#clip0_5230_67625)">
    <path d="M84.3108 4.92764C85.996 5.98549 87.3483 7.23905 88.3113 8.6819L87.8947 8.95974C88.3852 9.69463 88.7684 10.4792 89.0375 11.3132C89.3066 12.1472 89.4542 13.0077 89.4856 13.8905L89.9862 13.8729C90.048 15.6061 89.6832 17.4129 88.9337 19.2553L88.4698 19.0665C87.847 20.5975 86.9467 22.1635 85.7888 23.7406L86.1926 24.037C85.1706 25.4291 83.9563 26.8228 82.5671 28.2025L82.214 27.8472C80.9845 29.0683 79.6143 30.2803 78.1152 31.4717L78.4269 31.8637C77.0406 32.9655 75.5466 34.0485 73.9546 35.104L73.6777 34.6867C72.2002 35.6663 70.6369 36.6226 68.9953 37.5486L69.2415 37.9847C67.6754 38.8681 66.0393 39.7236 64.3397 40.5452L64.1215 40.0944C62.5062 40.8753 60.8329 41.6256 59.1074 42.3401L59.2992 42.8027C57.6247 43.496 55.9015 44.1557 54.1349 44.7769L53.9686 44.3045C53.1093 44.6066 52.2397 44.8997 51.3603 45.183C50.4809 45.4664 49.6038 45.7362 48.7298 45.9925L48.8709 46.473C47.0739 47.0001 45.2897 47.4706 43.5253 47.8854L43.4106 47.3979C41.5924 47.8253 39.7957 48.1931 38.0282 48.5022L38.1147 48.9955C36.2549 49.3208 34.4268 49.5815 32.6393 49.7787L32.5843 49.281C30.7106 49.4877 28.8827 49.6241 27.1109 49.6915L27.1301 50.1919C25.2209 50.2645 23.3753 50.2576 21.606 50.1726L21.6299 49.6725C19.7167 49.5806 17.8962 49.3967 16.1844 49.1234L16.1056 49.6178C14.1715 49.309 12.3713 48.8866 10.728 48.3533L10.8825 47.8771C9.02082 47.2729 7.37468 46.5274 5.97426 45.6483L5.70803 46.0724C4.02283 45.0145 2.67057 43.761 1.70756 42.3181L2.12415 42.0403C1.63366 41.3054 1.25044 40.5208 0.981341 39.6868C0.712244 38.8528 0.564663 37.9923 0.533192 37.1095L0.0326556 37.1272C-0.0291323 35.3939 0.335664 33.5871 1.0851 31.7448L1.54906 31.9335C2.17185 30.4025 3.07214 28.8365 4.23001 27.2594L3.82621 26.963C4.84825 25.5709 6.06249 24.1772 7.45176 22.7975L7.8048 23.1528C9.03433 21.9317 10.4045 20.7198 11.9036 19.5284L11.5919 19.1363C12.9782 18.0345 14.4722 16.9516 16.0642 15.896L16.3411 16.3133C17.8186 15.3337 19.382 14.3774 21.0235 13.4515L20.7773 13.0153C22.3434 12.1319 23.9795 11.2764 25.6792 10.4548L25.8973 10.9056C27.5126 10.1247 29.1859 9.37442 30.9114 8.65996L30.7196 8.19732C32.3941 7.50399 34.1173 6.84437 35.8839 6.22315L36.0502 6.69553C36.9095 6.39339 37.7791 6.10036 38.6585 5.817C39.5379 5.53364 40.415 5.26383 41.2891 5.00748L41.1479 4.52698C42.9449 3.99992 44.7291 3.52941 46.4935 3.11465L46.6083 3.6021C48.4264 3.17471 50.2231 2.80691 51.9906 2.49777L51.9042 2.00453C53.7639 1.67926 55.592 1.41853 57.3795 1.22132L57.4346 1.71903C59.3082 1.51231 61.1361 1.37591 62.9079 1.30852L62.8887 0.808144C64.7979 0.735527 66.6435 0.74243 68.4128 0.8274L68.3889 1.32756C70.3021 1.41944 72.1226 1.60328 73.8344 1.87664L73.9132 1.38217C75.8473 1.69105 77.6476 2.11343 79.2908 2.64669L79.1363 3.12297C80.998 3.7271 82.6441 4.47261 84.0446 5.35169L84.3108 4.92764Z" stroke="black" stroke-opacity="0.2" stroke-width="1.00159" stroke-dasharray="6.01 6.01"/>
  </g>
  <defs>
    <clipPath id="clip0_5230_67625">
      <rect width="90" height="51" fill="white"/>
    </clipPath>
  </defs>
</svg>