<svg width="28" height="28" viewBox="0 0 28 28" fill="none" xmlns="http://www.w3.org/2000/svg">
<g id="Frame" clip-path="url(#clip0_229_2461)">
<g id="Group">
<path id="Vector" d="M14 2.52322C17.7404 2.52322 18.1795 2.5399 19.6578 2.60659C21.025 2.66773 21.7642 2.89559 22.2589 3.09012C22.9147 3.34577 23.3815 3.64589 23.8706 4.13497C24.3597 4.62406 24.6654 5.09091 24.9155 5.74673C25.1044 6.24137 25.3379 6.98055 25.399 8.34776C25.4657 9.82612 25.4824 10.2652 25.4824 14.0056C25.4824 17.7459 25.4657 18.185 25.399 19.6634C25.3379 21.0306 25.11 21.7698 24.9155 22.2644C24.6598 22.9202 24.3597 23.3871 23.8706 23.8761C23.3815 24.3652 22.9147 24.6709 22.2589 24.921C21.7642 25.11 21.025 25.3434 19.6578 25.4045C18.1795 25.4712 17.7404 25.4879 14 25.4879C10.2596 25.4879 9.82057 25.4712 8.34221 25.4045C6.975 25.3434 6.23581 25.1155 5.74117 24.921C5.08536 24.6653 4.6185 24.3652 4.12942 23.8761C3.64034 23.3871 3.33466 22.9202 3.08456 22.2644C2.8956 21.7698 2.66217 21.0306 2.60103 19.6634C2.53434 18.185 2.51767 17.7459 2.51767 14.0056C2.51767 10.2652 2.53434 9.82612 2.60103 8.34776C2.66217 6.98055 2.89004 6.24137 3.08456 5.74673C3.34022 5.09091 3.64034 4.62406 4.12942 4.13497C4.6185 3.64589 5.08536 3.34021 5.74117 3.09012C6.23581 2.90115 6.975 2.66773 8.34221 2.60659C9.82057 2.53434 10.2652 2.52322 14 2.52322ZM14 0C10.1985 0 9.72053 0.0166733 8.22549 0.0833664C6.73601 0.15006 5.71894 0.389043 4.8297 0.733624C3.90711 1.08932 3.12902 1.57285 2.35094 2.35093C1.57285 3.12902 1.09488 3.91266 0.733625 4.82969C0.389044 5.71894 0.15006 6.73601 0.0833665 8.23104C0.0166733 9.72052 0 10.1985 0 14C0 17.8015 0.0166733 18.2795 0.0833665 19.7745C0.15006 21.264 0.389044 22.2811 0.733625 23.1759C1.08932 24.0985 1.57285 24.8765 2.35094 25.6546C3.12902 26.4327 3.91267 26.9107 4.8297 27.2719C5.71894 27.6165 6.73601 27.8555 8.23105 27.9222C9.72609 27.9889 10.1985 28.0056 14.0056 28.0056C17.8126 28.0056 18.2851 27.9889 19.7801 27.9222C21.2696 27.8555 22.2866 27.6165 23.1814 27.2719C24.104 26.9162 24.8821 26.4327 25.6602 25.6546C26.4383 24.8765 26.9163 24.0929 27.2775 23.1759C27.6221 22.2866 27.8611 21.2696 27.9278 19.7745C27.9945 18.2795 28.0111 17.8071 28.0111 14C28.0111 10.1929 27.9945 9.72052 27.9278 8.22549C27.8611 6.73601 27.6221 5.71894 27.2775 4.82414C26.9218 3.90155 26.4383 3.12346 25.6602 2.34538C24.8821 1.56729 24.0985 1.08932 23.1814 0.728067C22.2922 0.383486 21.2751 0.144502 19.7801 0.0778087C18.2795 0.0166733 17.8015 0 14 0Z" fill="white"/>
<path id="Vector_2" d="M14.0003 6.81348C10.0321 6.81348 6.80859 10.0314 6.80859 14.0052C6.80859 17.979 10.0265 21.197 14.0003 21.197C17.9741 21.197 21.1921 17.979 21.1921 14.0052C21.1921 10.0314 17.9741 6.81348 14.0003 6.81348ZM14.0003 18.6682C11.4215 18.6682 9.33182 16.5785 9.33182 13.9997C9.33182 11.4209 11.4215 9.33114 14.0003 9.33114C16.5791 9.33114 18.6689 11.4209 18.6689 13.9997C18.6689 16.5785 16.5791 18.6682 14.0003 18.6682Z" fill="white"/>
<path id="Vector_3" d="M21.4753 8.20357C22.4023 8.20357 23.1538 7.4521 23.1538 6.52512C23.1538 5.59814 22.4023 4.84668 21.4753 4.84668C20.5483 4.84668 19.7969 5.59814 19.7969 6.52512C19.7969 7.4521 20.5483 8.20357 21.4753 8.20357Z" fill="white"/>
</g>
</g>
<defs>
<clipPath id="clip0_229_2461">
<rect width="28" height="28" fill="white"/>
</clipPath>
</defs>
</svg>
