<svg width="40" height="40" viewBox="0 0 40 40" fill="none" xmlns="http://www.w3.org/2000/svg">
<circle cx="20" cy="20" r="20" fill="url(#paint0_linear_191_3583)"/>
<circle cx="19.9999" cy="19.9999" r="17.037" fill="white"/>
<path d="M16.226 22.9916C15.056 22.9916 14.266 22.5516 13.746 21.9616L14.436 21.0316C14.876 21.4616 15.416 21.7916 16.086 21.7916C16.836 21.7916 17.346 21.4216 17.346 20.7616C17.346 20.0316 16.916 19.5816 15.306 19.5816V18.5216C16.666 18.5216 17.106 18.0516 17.106 17.3916C17.106 16.8116 16.746 16.4716 16.116 16.4616C15.586 16.4716 15.156 16.7216 14.716 17.1216L13.966 16.2216C14.606 15.6616 15.316 15.3116 16.186 15.3116C17.616 15.3116 18.586 16.0116 18.586 17.2816C18.586 18.0816 18.136 18.6616 17.346 18.9716V19.0216C18.186 19.2516 18.826 19.8716 18.826 20.8416C18.826 22.2016 17.636 22.9916 16.226 22.9916ZM20.2847 22.8516V15.4516H22.3147C24.5747 15.4516 25.9747 16.6216 25.9747 19.1216C25.9747 21.6116 24.5747 22.8516 22.3947 22.8516H20.2847ZM21.7647 21.6616H22.2247C23.6047 21.6616 24.4647 20.9216 24.4647 19.1216C24.4647 17.3116 23.6047 16.6316 22.2247 16.6316H21.7647V21.6616Z" fill="#222222"/>
<path fill-rule="evenodd" clip-rule="evenodd" d="M31.9387 20.2968C31.5971 20.0902 31.151 20.1967 30.9422 20.5348C30.7334 20.8728 30.841 21.3144 31.1826 21.5211C32.2852 22.1883 32.6242 22.8045 32.6242 23.2407C32.6242 23.6769 32.2852 24.2931 31.1826 24.9603C30.1095 25.6095 28.5142 26.1761 26.5297 26.5763C25.1965 26.8452 23.7372 27.0291 22.2221 27.1203V28.5577C23.8306 28.4647 25.3882 28.271 26.8192 27.9823C28.8934 27.564 30.6684 26.9531 31.9387 26.1845C33.1793 25.4339 34.0739 24.4417 34.0739 23.2407C34.0739 22.0397 33.1793 21.0475 31.9387 20.2968ZM17.0369 28.5075V27.068C15.7872 26.9665 14.5845 26.8011 13.47 26.5763C11.4855 26.1761 9.89018 25.6095 8.81715 24.9603C7.71448 24.2931 7.37547 23.6769 7.37547 23.2407C7.37547 22.8045 7.71448 22.1883 8.81714 21.5211C9.1587 21.3144 9.26632 20.8728 9.05753 20.5348C8.84873 20.1967 8.40258 20.0902 8.06102 20.2968C6.82041 21.0475 5.92578 22.0397 5.92578 23.2407C5.92578 24.4417 6.82041 25.4339 8.06102 26.1845C9.33127 26.9531 11.1063 27.564 13.1805 27.9823C14.3907 28.2264 15.6914 28.4027 17.0369 28.5075Z" fill="#222222"/>
<path d="M23.9246 25.3301L21.4814 27.7627L23.9246 30.1472" stroke="#222222" stroke-width="1.48148" stroke-linecap="round" stroke-linejoin="round"/>
<defs>
<linearGradient id="paint0_linear_191_3583" x1="17.3968" y1="-75.7692" x2="93.6871" y2="-35.6255" gradientUnits="userSpaceOnUse">
<stop stop-color="#FFE924"/>
<stop offset="0.255208" stop-color="#FF4A4D"/>
<stop offset="0.52667" stop-color="#B238FF"/>
<stop offset="0.729167" stop-color="#3D81FF"/>
<stop offset="1" stop-color="#41FFD2"/>
</linearGradient>
</defs>
</svg>
