<svg width="40" height="40" viewBox="0 0 40 40" fill="none" xmlns="http://www.w3.org/2000/svg">
<g id="Pin_alt_light">
<circle id="Ellipse 457" cx="20" cy="20" r="20" fill="url(#paint0_linear_190_3469)"/>
<circle id="Ellipse 532" cx="19.9999" cy="19.9999" r="17.037" fill="white"/>
<g id="Group 26086948">
<g id="&#236;&#156;&#160;&#237;&#138;&#156;&#235;&#184;&#140;&#235;&#161;&#156;&#234;&#179;&#160;">
<path id="Vector" d="M27.8071 13.2176C27.6193 12.5342 27.0679 11.9972 26.3663 11.8143C25.096 11.4824 19.9997 11.4824 19.9997 11.4824C19.9997 11.4824 14.9034 11.4824 13.633 11.8143C12.9315 11.9972 12.3801 12.5342 12.1923 13.2176C11.8516 14.4549 11.8516 17.038 11.8516 17.038C11.8516 17.038 11.8516 19.6211 12.1923 20.8584C12.3801 21.5418 12.9315 22.0788 13.633 22.2616C14.9034 22.5935 19.9997 22.5935 19.9997 22.5935C19.9997 22.5935 25.096 22.5935 26.3663 22.2616C27.0679 22.0788 27.6193 21.5418 27.8071 20.8584C28.1479 19.6211 28.1479 17.038 28.1479 17.038C28.1479 17.038 28.1465 14.4549 27.8071 13.2176Z" fill="#222222"/>
<path id="Vector_2" d="M18.5186 19.6305L22.2223 17.0379L18.5186 14.4453V19.6305Z" fill="white"/>
</g>
<path id="Subtract" fill-rule="evenodd" clip-rule="evenodd" d="M31.9387 20.2968C31.5971 20.0902 31.151 20.1967 30.9422 20.5348C30.7334 20.8728 30.841 21.3144 31.1826 21.5211C32.2852 22.1883 32.6242 22.8045 32.6242 23.2407C32.6242 23.6769 32.2852 24.2931 31.1826 24.9603C30.1095 25.6095 28.5142 26.1761 26.5297 26.5763C25.1965 26.8452 23.7372 27.0291 22.2221 27.1203V28.5577C23.8306 28.4647 25.3882 28.271 26.8192 27.9823C28.8934 27.564 30.6684 26.9531 31.9387 26.1845C33.1793 25.4339 34.0739 24.4417 34.0739 23.2407C34.0739 22.0397 33.1793 21.0475 31.9387 20.2968ZM17.0369 28.5075V27.068C15.7872 26.9665 14.5845 26.8011 13.47 26.5763C11.4855 26.1761 9.89018 25.6095 8.81715 24.9603C7.71448 24.2931 7.37547 23.6769 7.37547 23.2407C7.37547 22.8045 7.71448 22.1883 8.81714 21.5211C9.1587 21.3144 9.26632 20.8728 9.05753 20.5348C8.84873 20.1967 8.40258 20.0902 8.06102 20.2968C6.82041 21.0475 5.92578 22.0397 5.92578 23.2407C5.92578 24.4417 6.82041 25.4339 8.06102 26.1845C9.33127 26.9531 11.1063 27.564 13.1805 27.9823C14.3907 28.2264 15.6914 28.4027 17.0369 28.5075Z" fill="#222222"/>
<path id="Vector 9" d="M23.9246 25.3301L21.4814 27.7627L23.9246 30.1472" stroke="#222222" stroke-width="1.48148" stroke-linecap="round" stroke-linejoin="round"/>
</g>
</g>
<defs>
<linearGradient id="paint0_linear_190_3469" x1="17.3968" y1="-75.7692" x2="93.6871" y2="-35.6255" gradientUnits="userSpaceOnUse">
<stop stop-color="#FFE924"/>
<stop offset="0.255208" stop-color="#FF4A4D"/>
<stop offset="0.52667" stop-color="#B238FF"/>
<stop offset="0.729167" stop-color="#3D81FF"/>
<stop offset="1" stop-color="#41FFD2"/>
</linearGradient>
</defs>
</svg>
