<svg width="28" height="20" viewBox="0 0 28 20" fill="none" xmlns="http://www.w3.org/2000/svg">
<path id="Vector" d="M27.4116 3.12757C27.087 1.893 26.1333 0.925926 24.9362 0.596708C22.7449 2.94344e-07 14 0 14 0C14 0 5.23478 2.94344e-07 3.06377 0.596708C1.86667 0.925926 0.913044 1.893 0.588406 3.12757C2.90249e-07 5.34979 0 10 0 10C0 10 2.90249e-07 14.6502 0.588406 16.8724C0.913044 18.107 1.86667 19.0741 3.06377 19.4033C5.25507 20 14 20 14 20C14 20 22.7652 20 24.9362 19.4033C26.1333 19.0741 27.087 18.107 27.4116 16.8724C28 14.6502 28 10 28 10C28 10 28 5.34979 27.4116 3.12757ZM11.1391 14.2181V5.78189L18.4638 10L11.1391 14.2181Z" fill="white"/>
</svg>
