<svg width="375" height="473" viewBox="0 0 375 473" fill="none" xmlns="http://www.w3.org/2000/svg">
<g clip-path="url(#clip0_3337_58136)">
<rect width="375" height="473" fill="white"/>
<rect x="0.115234" y="-44" width="375" height="812" fill="url(#paint0_linear_3337_58136)"/>
<circle cx="188" cy="303" r="410" fill="url(#paint1_linear_3337_58136)"/>
<g filter="url(#filter0_f_3337_58136)">
<path d="M48 -203.501C48 -402.6 -251.682 -564.001 -621.359 -564.001C-991.035 -564.001 -549.993 -402.6 -549.993 -203.501C-549.993 -4.40231 -991.035 156.999 -621.359 156.999C-251.682 156.999 48 -4.40226 48 -203.501Z" fill="#FFF2D0"/>
</g>
<path d="M165.734 50.3281L176.914 33.9805C177.664 32.7852 178.18 32.0469 178.461 31.7656C178.742 31.4844 179.105 31.3437 179.551 31.3437C179.949 31.3437 180.277 31.4492 180.535 31.6602C180.816 31.8711 180.957 32.1289 180.957 32.4336C180.957 32.7383 180.816 33.1016 180.535 33.5234C180.348 33.8281 180.113 34.1562 179.832 34.5078L178.707 36.0195L150.125 76.2031L148.965 77.7852C147.957 79.1914 147.312 80.0234 147.031 80.2812C146.773 80.5391 146.41 80.668 145.941 80.668C145.191 80.668 144.816 80.3398 144.816 79.6836C144.816 79.332 145.156 78.7578 145.836 77.9609L153.852 67.0625L152.867 65.7266C145.742 56.1406 140.703 49.4609 137.75 45.6875C134.82 41.9141 131.094 37.3555 126.57 32.0117H152.059L165.734 50.3281ZM195.547 40.6602C199.32 40.6602 202.895 41.7031 206.27 43.7891C209.387 45.7109 211.766 48.3359 213.406 51.6641C214.859 54.5937 215.586 57.6992 215.586 60.9805C215.586 63.2305 215.152 65.4922 214.285 67.7656C213.441 70.0391 212.281 72.0547 210.805 73.8125C208.742 76.2266 206.223 78.043 203.246 79.2617C200.809 80.2695 198.266 80.7734 195.617 80.7734C191.188 80.7734 187.203 79.4609 183.664 76.8359C180.898 74.8203 178.801 72.2305 177.371 69.0664C176.176 66.3945 175.578 63.5703 175.578 60.5938C175.578 54.7812 177.688 49.9531 181.906 46.1094C185.867 42.5469 190.414 40.7305 195.547 40.6602ZM194.527 42.9453L194.422 78.3828C195.148 78.4297 195.652 78.4531 195.934 78.4531C199.191 78.4531 202.309 77.5391 205.285 75.7109C208.145 73.9297 210.289 71.5625 211.719 68.6094C212.844 66.2656 213.406 63.6875 213.406 60.875C213.406 55.2266 211.32 50.6445 207.148 47.1289C203.773 44.293 200.105 42.875 196.145 42.875C195.816 42.875 195.277 42.8984 194.527 42.9453ZM267.336 41.6094L267.23 69.2422L267.336 80L249.371 80V75.043C246.395 77.082 243.676 78.5469 241.215 79.4375C238.777 80.3281 236.223 80.7734 233.551 80.7734C228.652 80.7734 225.102 79.3203 222.898 76.4141C222.078 75.3359 221.504 74.1172 221.176 72.7578C220.871 71.375 220.719 69.418 220.719 66.8867L220.789 58.6602L220.824 53.1758L220.648 41.6094L238.613 41.6094L238.438 59.2578L238.473 65.9375L238.508 70.4375C238.508 73.1328 238.672 74.75 239 75.2891C239.398 75.8984 240.148 76.2031 241.25 76.2031C242.375 76.2031 243.535 75.9102 244.73 75.3242C245.949 74.7383 247.52 73.6953 249.441 72.1953L249.477 67.5898L249.547 55.0391L249.336 42.6992V41.6094H267.336ZM318.418 56.5859V52.2969C318.395 49.3203 318.348 47.4922 318.277 46.8125C318.207 46.1328 317.996 45.5234 317.645 44.9844C316.801 43.6719 314.832 43.0156 311.738 43.0156C306.957 43.0156 303.266 44.5156 300.664 47.5156C299.609 48.7344 298.719 49.3437 297.992 49.3437C297.453 49.3437 296.984 49.1562 296.586 48.7812C296.188 48.4062 295.988 47.9727 295.988 47.4805C295.988 46.0039 297.734 44.4805 301.227 42.9102C304.555 41.4102 308.855 40.6602 314.129 40.6602C322.801 40.6602 328.918 41.9727 332.48 44.5977C334.027 45.7461 335.035 47.0352 335.504 48.4648C335.973 49.8945 336.207 52.4141 336.207 56.0234V69.9805C336.113 72.5586 336.184 74.5039 336.418 75.8164C336.676 77.1055 337.238 78.5 338.105 80H318.418V76.3086C316.262 77.7852 314.117 78.8984 311.984 79.6484C309.875 80.3984 307.789 80.7734 305.727 80.7734C302.234 80.7734 299.129 79.7539 296.41 77.7148C292.871 75.043 291.102 71.5742 291.102 67.3086C291.102 63.5352 292.531 60.4883 295.391 58.168C298.719 55.4258 302.844 54.0547 307.766 54.0547C309.781 54.0547 311.562 54.2422 313.109 54.6172C314.656 54.9687 316.426 55.625 318.418 56.5859ZM318.453 59.1172C315.5 57.6406 313.215 56.9023 311.598 56.9023C310.238 56.9023 309.348 57.4414 308.926 58.5195C308.691 59.1055 308.574 60.8047 308.574 63.6172V72.0195C308.598 73.8711 308.656 74.9961 308.75 75.3945C308.984 76.4727 309.781 77.0117 311.141 77.0117C312.219 77.0117 313.414 76.6953 314.727 76.0625C316.062 75.4062 317.281 74.5508 318.383 73.4961L318.453 59.1172ZM362.152 52.5078L362.082 66.0078L362.223 80H344.188L344.223 78.0664L344.258 70.8945L344.363 57.9922L344.223 43.6484L344.188 41.6094H362.188V48.8516C364.883 45.9922 366.758 44.1875 367.812 43.4375C370.25 41.7266 372.547 40.8711 374.703 40.8711C376.016 40.8711 377.094 41.1523 377.938 41.7148C378.805 42.2773 379.238 42.9922 379.238 43.8594C379.238 44.5391 378.98 45.1016 378.465 45.5469C377.949 45.9922 377.305 46.2148 376.531 46.2148C376.039 46.2148 375.488 46.0742 374.879 45.793C373.848 45.3008 372.992 45.0547 372.312 45.0547C370.625 45.0547 368.996 45.6289 367.426 46.7773C365.855 47.9258 364.098 49.8359 362.152 52.5078ZM393.934 61.9297V72.8281C393.934 74.9375 394.062 76.2734 394.32 76.8359C394.812 77.9141 395.973 78.4531 397.801 78.4531C400.52 78.4531 403.203 77.7148 405.852 76.2383C408.523 74.7383 410.832 72.6758 412.777 70.0508C413.41 69.1836 413.867 68.6328 414.148 68.3984C414.43 68.1641 414.734 68.0469 415.062 68.0469C415.461 68.0469 415.789 68.1992 416.047 68.5039C416.305 68.7852 416.434 69.1484 416.434 69.5937C416.434 70.5781 415.648 71.9023 414.078 73.5664C412.016 75.6992 409.449 77.4336 406.379 78.7695C403.332 80.1055 400.355 80.7734 397.449 80.7734C392.457 80.7734 388.051 79.0977 384.23 75.7461C382.004 73.7773 380.293 71.3516 379.098 68.4687C378.043 65.9375 377.516 63.4062 377.516 60.875C377.516 58.4375 377.984 56 378.922 53.5625C379.859 51.1016 381.148 48.9805 382.789 47.1992C384.688 45.1133 386.938 43.4961 389.539 42.3477C392.094 41.2227 394.766 40.6602 397.555 40.6602C401.891 40.6602 405.816 41.9375 409.332 44.4922C414.816 48.4766 417.535 54.2539 417.488 61.8242H409.297L398.75 61.8594L393.934 61.9297ZM402.934 59.6094V49.3437C402.887 47.1406 402.84 45.8281 402.793 45.4062C402.746 44.9609 402.582 44.5508 402.301 44.1758C401.645 43.2617 400.309 42.8047 398.293 42.8047C396.23 42.8047 394.941 43.332 394.426 44.3867C394.098 45.0195 393.934 46.6719 393.934 49.3437V59.6094L398.223 59.75L402.934 59.6094ZM438.406 57.9922V61.1914H436.051L436.156 33.0312C432.805 33.2187 429.922 34.3203 427.508 36.3359C425.492 38 424.484 39.8633 424.484 41.9258C424.484 42.3477 424.531 42.793 424.625 43.2617C424.766 43.918 424.836 44.3867 424.836 44.668C424.836 44.9961 424.695 45.2891 424.414 45.5469C424.133 45.7812 423.793 45.8984 423.395 45.8984C422.855 45.8984 422.41 45.6172 422.059 45.0547C421.707 44.4922 421.531 43.7891 421.531 42.9453C421.531 41.2578 422.07 39.5703 423.148 37.8828C424.227 36.1719 425.668 34.7187 427.473 33.5234C430.449 31.5547 434.27 30.5703 438.934 30.5703C444.934 30.5703 449.527 32.1523 452.715 35.3164C455.129 37.7305 456.336 40.7539 456.336 44.3867C456.336 47.5273 455.363 50.2461 453.418 52.543C451.848 54.418 449.973 55.7539 447.793 56.5508C445.637 57.3242 442.508 57.8047 438.406 57.9922ZM437.105 65.4805C440.176 65.4805 442.672 66.207 444.594 67.6602C446.539 69.1133 447.512 71 447.512 73.3203C447.512 75.4297 446.75 77.1641 445.227 78.5234C443.281 80.2344 440.621 81.0898 437.246 81.0898C434.152 81.0898 431.621 80.3867 429.652 78.9805C427.707 77.5508 426.734 75.7109 426.734 73.4609C426.734 71.1641 427.613 69.3008 429.371 67.8711C431.27 66.3242 433.848 65.5273 437.105 65.4805Z" fill="white" fill-opacity="0.2"/>
<path d="M25.7344 162.328L36.9141 145.98C37.6641 144.785 38.1797 144.047 38.4609 143.766C38.7422 143.484 39.1055 143.344 39.5508 143.344C39.9492 143.344 40.2773 143.449 40.5352 143.66C40.8164 143.871 40.957 144.129 40.957 144.434C40.957 144.738 40.8164 145.102 40.5352 145.523C40.3477 145.828 40.1133 146.156 39.832 146.508L38.707 148.02L10.125 188.203L8.96484 189.785C7.95703 191.191 7.3125 192.023 7.03125 192.281C6.77344 192.539 6.41016 192.668 5.94141 192.668C5.19141 192.668 4.81641 192.34 4.81641 191.684C4.81641 191.332 5.15625 190.758 5.83594 189.961L13.8516 179.062L12.8672 177.727C5.74219 168.141 0.703125 161.461 -2.25 157.688C-5.17969 153.914 -8.90625 149.355 -13.4297 144.012H12.0586L25.7344 162.328ZM55.5469 152.66C59.3203 152.66 62.8945 153.703 66.2695 155.789C69.3867 157.711 71.7656 160.336 73.4062 163.664C74.8594 166.594 75.5859 169.699 75.5859 172.98C75.5859 175.23 75.1523 177.492 74.2852 179.766C73.4414 182.039 72.2812 184.055 70.8047 185.812C68.7422 188.227 66.2227 190.043 63.2461 191.262C60.8086 192.27 58.2656 192.773 55.6172 192.773C51.1875 192.773 47.2031 191.461 43.6641 188.836C40.8984 186.82 38.8008 184.23 37.3711 181.066C36.1758 178.395 35.5781 175.57 35.5781 172.594C35.5781 166.781 37.6875 161.953 41.9062 158.109C45.8672 154.547 50.4141 152.73 55.5469 152.66ZM54.5273 154.945L54.4219 190.383C55.1484 190.43 55.6523 190.453 55.9336 190.453C59.1914 190.453 62.3086 189.539 65.2852 187.711C68.1445 185.93 70.2891 183.562 71.7188 180.609C72.8438 178.266 73.4062 175.688 73.4062 172.875C73.4062 167.227 71.3203 162.645 67.1484 159.129C63.7734 156.293 60.1055 154.875 56.1445 154.875C55.8164 154.875 55.2773 154.898 54.5273 154.945ZM127.336 153.609L127.23 181.242L127.336 192H109.371V187.043C106.395 189.082 103.676 190.547 101.215 191.438C98.7773 192.328 96.2227 192.773 93.5508 192.773C88.6523 192.773 85.1016 191.32 82.8984 188.414C82.0781 187.336 81.5039 186.117 81.1758 184.758C80.8711 183.375 80.7188 181.418 80.7188 178.887L80.7891 170.66L80.8242 165.176L80.6484 153.609H98.6133L98.4375 171.258L98.4727 177.938L98.5078 182.438C98.5078 185.133 98.6719 186.75 99 187.289C99.3984 187.898 100.148 188.203 101.25 188.203C102.375 188.203 103.535 187.91 104.73 187.324C105.949 186.738 107.52 185.695 109.441 184.195L109.477 179.59L109.547 167.039L109.336 154.699V153.609H127.336ZM178.418 168.586V164.297C178.395 161.32 178.348 159.492 178.277 158.812C178.207 158.133 177.996 157.523 177.645 156.984C176.801 155.672 174.832 155.016 171.738 155.016C166.957 155.016 163.266 156.516 160.664 159.516C159.609 160.734 158.719 161.344 157.992 161.344C157.453 161.344 156.984 161.156 156.586 160.781C156.188 160.406 155.988 159.973 155.988 159.48C155.988 158.004 157.734 156.48 161.227 154.91C164.555 153.41 168.855 152.66 174.129 152.66C182.801 152.66 188.918 153.973 192.48 156.598C194.027 157.746 195.035 159.035 195.504 160.465C195.973 161.895 196.207 164.414 196.207 168.023V181.98C196.113 184.559 196.184 186.504 196.418 187.816C196.676 189.105 197.238 190.5 198.105 192H178.418V188.309C176.262 189.785 174.117 190.898 171.984 191.648C169.875 192.398 167.789 192.773 165.727 192.773C162.234 192.773 159.129 191.754 156.41 189.715C152.871 187.043 151.102 183.574 151.102 179.309C151.102 175.535 152.531 172.488 155.391 170.168C158.719 167.426 162.844 166.055 167.766 166.055C169.781 166.055 171.562 166.242 173.109 166.617C174.656 166.969 176.426 167.625 178.418 168.586ZM178.453 171.117C175.5 169.641 173.215 168.902 171.598 168.902C170.238 168.902 169.348 169.441 168.926 170.52C168.691 171.105 168.574 172.805 168.574 175.617V184.02C168.598 185.871 168.656 186.996 168.75 187.395C168.984 188.473 169.781 189.012 171.141 189.012C172.219 189.012 173.414 188.695 174.727 188.062C176.062 187.406 177.281 186.551 178.383 185.496L178.453 171.117ZM222.152 164.508L222.082 178.008L222.223 192H204.188L204.223 190.066L204.258 182.895L204.363 169.992L204.223 155.648L204.188 153.609H222.188V160.852C224.883 157.992 226.758 156.188 227.812 155.438C230.25 153.727 232.547 152.871 234.703 152.871C236.016 152.871 237.094 153.152 237.938 153.715C238.805 154.277 239.238 154.992 239.238 155.859C239.238 156.539 238.98 157.102 238.465 157.547C237.949 157.992 237.305 158.215 236.531 158.215C236.039 158.215 235.488 158.074 234.879 157.793C233.848 157.301 232.992 157.055 232.312 157.055C230.625 157.055 228.996 157.629 227.426 158.777C225.855 159.926 224.098 161.836 222.152 164.508ZM253.934 173.93V184.828C253.934 186.938 254.062 188.273 254.32 188.836C254.812 189.914 255.973 190.453 257.801 190.453C260.52 190.453 263.203 189.715 265.852 188.238C268.523 186.738 270.832 184.676 272.777 182.051C273.41 181.184 273.867 180.633 274.148 180.398C274.43 180.164 274.734 180.047 275.062 180.047C275.461 180.047 275.789 180.199 276.047 180.504C276.305 180.785 276.434 181.148 276.434 181.594C276.434 182.578 275.648 183.902 274.078 185.566C272.016 187.699 269.449 189.434 266.379 190.77C263.332 192.105 260.355 192.773 257.449 192.773C252.457 192.773 248.051 191.098 244.23 187.746C242.004 185.777 240.293 183.352 239.098 180.469C238.043 177.938 237.516 175.406 237.516 172.875C237.516 170.438 237.984 168 238.922 165.562C239.859 163.102 241.148 160.98 242.789 159.199C244.688 157.113 246.938 155.496 249.539 154.348C252.094 153.223 254.766 152.66 257.555 152.66C261.891 152.66 265.816 153.937 269.332 156.492C274.816 160.477 277.535 166.254 277.488 173.824H269.297L258.75 173.859L253.934 173.93ZM262.934 171.609V161.344C262.887 159.141 262.84 157.828 262.793 157.406C262.746 156.961 262.582 156.551 262.301 156.176C261.645 155.262 260.309 154.805 258.293 154.805C256.23 154.805 254.941 155.332 254.426 156.387C254.098 157.02 253.934 158.672 253.934 161.344V171.609L258.223 171.75L262.934 171.609ZM298.406 169.992V173.191H296.051L296.156 145.031C292.805 145.219 289.922 146.32 287.508 148.336C285.492 150 284.484 151.863 284.484 153.926C284.484 154.348 284.531 154.793 284.625 155.262C284.766 155.918 284.836 156.387 284.836 156.668C284.836 156.996 284.695 157.289 284.414 157.547C284.133 157.781 283.793 157.898 283.395 157.898C282.855 157.898 282.41 157.617 282.059 157.055C281.707 156.492 281.531 155.789 281.531 154.945C281.531 153.258 282.07 151.57 283.148 149.883C284.227 148.172 285.668 146.719 287.473 145.523C290.449 143.555 294.27 142.57 298.934 142.57C304.934 142.57 309.527 144.152 312.715 147.316C315.129 149.73 316.336 152.754 316.336 156.387C316.336 159.527 315.363 162.246 313.418 164.543C311.848 166.418 309.973 167.754 307.793 168.551C305.637 169.324 302.508 169.805 298.406 169.992ZM297.105 177.48C300.176 177.48 302.672 178.207 304.594 179.66C306.539 181.113 307.512 183 307.512 185.32C307.512 187.43 306.75 189.164 305.227 190.523C303.281 192.234 300.621 193.09 297.246 193.09C294.152 193.09 291.621 192.387 289.652 190.98C287.707 189.551 286.734 187.711 286.734 185.461C286.734 183.164 287.613 181.301 289.371 179.871C291.27 178.324 293.848 177.527 297.105 177.48Z" fill="white" fill-opacity="0.2"/>
<path d="M125.734 274.328L136.914 257.98C137.664 256.785 138.18 256.047 138.461 255.766C138.742 255.484 139.105 255.344 139.551 255.344C139.949 255.344 140.277 255.449 140.535 255.66C140.816 255.871 140.957 256.129 140.957 256.434C140.957 256.738 140.816 257.102 140.535 257.523C140.348 257.828 140.113 258.156 139.832 258.508L138.707 260.02L110.125 300.203L108.965 301.785C107.957 303.191 107.312 304.023 107.031 304.281C106.773 304.539 106.41 304.668 105.941 304.668C105.191 304.668 104.816 304.34 104.816 303.684C104.816 303.332 105.156 302.758 105.836 301.961L113.852 291.062L112.867 289.727C105.742 280.141 100.703 273.461 97.75 269.688C94.8203 265.914 91.0938 261.355 86.5703 256.012H112.059L125.734 274.328ZM155.547 264.66C159.32 264.66 162.895 265.703 166.27 267.789C169.387 269.711 171.766 272.336 173.406 275.664C174.859 278.594 175.586 281.699 175.586 284.98C175.586 287.23 175.152 289.492 174.285 291.766C173.441 294.039 172.281 296.055 170.805 297.812C168.742 300.227 166.223 302.043 163.246 303.262C160.809 304.27 158.266 304.773 155.617 304.773C151.188 304.773 147.203 303.461 143.664 300.836C140.898 298.82 138.801 296.23 137.371 293.066C136.176 290.395 135.578 287.57 135.578 284.594C135.578 278.781 137.688 273.953 141.906 270.109C145.867 266.547 150.414 264.73 155.547 264.66ZM154.527 266.945L154.422 302.383C155.148 302.43 155.652 302.453 155.934 302.453C159.191 302.453 162.309 301.539 165.285 299.711C168.145 297.93 170.289 295.562 171.719 292.609C172.844 290.266 173.406 287.688 173.406 284.875C173.406 279.227 171.32 274.645 167.148 271.129C163.773 268.293 160.105 266.875 156.145 266.875C155.816 266.875 155.277 266.898 154.527 266.945ZM227.336 265.609L227.23 293.242L227.336 304H209.371V299.043C206.395 301.082 203.676 302.547 201.215 303.438C198.777 304.328 196.223 304.773 193.551 304.773C188.652 304.773 185.102 303.32 182.898 300.414C182.078 299.336 181.504 298.117 181.176 296.758C180.871 295.375 180.719 293.418 180.719 290.887L180.789 282.66L180.824 277.176L180.648 265.609H198.613L198.438 283.258L198.473 289.938L198.508 294.438C198.508 297.133 198.672 298.75 199 299.289C199.398 299.898 200.148 300.203 201.25 300.203C202.375 300.203 203.535 299.91 204.73 299.324C205.949 298.738 207.52 297.695 209.441 296.195L209.477 291.59L209.547 279.039L209.336 266.699V265.609H227.336ZM278.418 280.586V276.297C278.395 273.32 278.348 271.492 278.277 270.812C278.207 270.133 277.996 269.523 277.645 268.984C276.801 267.672 274.832 267.016 271.738 267.016C266.957 267.016 263.266 268.516 260.664 271.516C259.609 272.734 258.719 273.344 257.992 273.344C257.453 273.344 256.984 273.156 256.586 272.781C256.188 272.406 255.988 271.973 255.988 271.48C255.988 270.004 257.734 268.48 261.227 266.91C264.555 265.41 268.855 264.66 274.129 264.66C282.801 264.66 288.918 265.973 292.48 268.598C294.027 269.746 295.035 271.035 295.504 272.465C295.973 273.895 296.207 276.414 296.207 280.023V293.98C296.113 296.559 296.184 298.504 296.418 299.816C296.676 301.105 297.238 302.5 298.105 304H278.418V300.309C276.262 301.785 274.117 302.898 271.984 303.648C269.875 304.398 267.789 304.773 265.727 304.773C262.234 304.773 259.129 303.754 256.41 301.715C252.871 299.043 251.102 295.574 251.102 291.309C251.102 287.535 252.531 284.488 255.391 282.168C258.719 279.426 262.844 278.055 267.766 278.055C269.781 278.055 271.562 278.242 273.109 278.617C274.656 278.969 276.426 279.625 278.418 280.586ZM278.453 283.117C275.5 281.641 273.215 280.902 271.598 280.902C270.238 280.902 269.348 281.441 268.926 282.52C268.691 283.105 268.574 284.805 268.574 287.617V296.02C268.598 297.871 268.656 298.996 268.75 299.395C268.984 300.473 269.781 301.012 271.141 301.012C272.219 301.012 273.414 300.695 274.727 300.062C276.062 299.406 277.281 298.551 278.383 297.496L278.453 283.117ZM322.152 276.508L322.082 290.008L322.223 304H304.188L304.223 302.066L304.258 294.895L304.363 281.992L304.223 267.648L304.188 265.609H322.188V272.852C324.883 269.992 326.758 268.188 327.812 267.438C330.25 265.727 332.547 264.871 334.703 264.871C336.016 264.871 337.094 265.152 337.938 265.715C338.805 266.277 339.238 266.992 339.238 267.859C339.238 268.539 338.98 269.102 338.465 269.547C337.949 269.992 337.305 270.215 336.531 270.215C336.039 270.215 335.488 270.074 334.879 269.793C333.848 269.301 332.992 269.055 332.312 269.055C330.625 269.055 328.996 269.629 327.426 270.777C325.855 271.926 324.098 273.836 322.152 276.508ZM353.934 285.93V296.828C353.934 298.938 354.062 300.273 354.32 300.836C354.812 301.914 355.973 302.453 357.801 302.453C360.52 302.453 363.203 301.715 365.852 300.238C368.523 298.738 370.832 296.676 372.777 294.051C373.41 293.184 373.867 292.633 374.148 292.398C374.43 292.164 374.734 292.047 375.062 292.047C375.461 292.047 375.789 292.199 376.047 292.504C376.305 292.785 376.434 293.148 376.434 293.594C376.434 294.578 375.648 295.902 374.078 297.566C372.016 299.699 369.449 301.434 366.379 302.77C363.332 304.105 360.355 304.773 357.449 304.773C352.457 304.773 348.051 303.098 344.23 299.746C342.004 297.777 340.293 295.352 339.098 292.469C338.043 289.938 337.516 287.406 337.516 284.875C337.516 282.438 337.984 280 338.922 277.562C339.859 275.102 341.148 272.98 342.789 271.199C344.688 269.113 346.938 267.496 349.539 266.348C352.094 265.223 354.766 264.66 357.555 264.66C361.891 264.66 365.816 265.938 369.332 268.492C374.816 272.477 377.535 278.254 377.488 285.824H369.297L358.75 285.859L353.934 285.93ZM362.934 283.609V273.344C362.887 271.141 362.84 269.828 362.793 269.406C362.746 268.961 362.582 268.551 362.301 268.176C361.645 267.262 360.309 266.805 358.293 266.805C356.23 266.805 354.941 267.332 354.426 268.387C354.098 269.02 353.934 270.672 353.934 273.344V283.609L358.223 283.75L362.934 283.609ZM398.406 281.992V285.191H396.051L396.156 257.031C392.805 257.219 389.922 258.32 387.508 260.336C385.492 262 384.484 263.863 384.484 265.926C384.484 266.348 384.531 266.793 384.625 267.262C384.766 267.918 384.836 268.387 384.836 268.668C384.836 268.996 384.695 269.289 384.414 269.547C384.133 269.781 383.793 269.898 383.395 269.898C382.855 269.898 382.41 269.617 382.059 269.055C381.707 268.492 381.531 267.789 381.531 266.945C381.531 265.258 382.07 263.57 383.148 261.883C384.227 260.172 385.668 258.719 387.473 257.523C390.449 255.555 394.27 254.57 398.934 254.57C404.934 254.57 409.527 256.152 412.715 259.316C415.129 261.73 416.336 264.754 416.336 268.387C416.336 271.527 415.363 274.246 413.418 276.543C411.848 278.418 409.973 279.754 407.793 280.551C405.637 281.324 402.508 281.805 398.406 281.992ZM397.105 289.48C400.176 289.48 402.672 290.207 404.594 291.66C406.539 293.113 407.512 295 407.512 297.32C407.512 299.43 406.75 301.164 405.227 302.523C403.281 304.234 400.621 305.09 397.246 305.09C394.152 305.09 391.621 304.387 389.652 302.98C387.707 301.551 386.734 299.711 386.734 297.461C386.734 295.164 387.613 293.301 389.371 291.871C391.27 290.324 393.848 289.527 397.105 289.48Z" fill="white" fill-opacity="0.2"/>
<path d="M15.7344 386.328L26.9141 369.98C27.6641 368.785 28.1797 368.047 28.4609 367.766C28.7422 367.484 29.1055 367.344 29.5508 367.344C29.9492 367.344 30.2773 367.449 30.5352 367.66C30.8164 367.871 30.957 368.129 30.957 368.434C30.957 368.738 30.8164 369.102 30.5352 369.523C30.3477 369.828 30.1133 370.156 29.832 370.508L28.707 372.02L0.125 412.203L-1.03516 413.785C-2.04297 415.191 -2.6875 416.023 -2.96875 416.281C-3.22656 416.539 -3.58984 416.668 -4.05859 416.668C-4.80859 416.668 -5.18359 416.34 -5.18359 415.684C-5.18359 415.332 -4.84375 414.758 -4.16406 413.961L3.85156 403.062L2.86719 401.727C-4.25781 392.141 -9.29687 385.461 -12.25 381.688C-15.1797 377.914 -18.9062 373.355 -23.4297 368.012H2.05859L15.7344 386.328ZM45.5469 376.66C49.3203 376.66 52.8945 377.703 56.2695 379.789C59.3867 381.711 61.7656 384.336 63.4062 387.664C64.8594 390.594 65.5859 393.699 65.5859 396.98C65.5859 399.23 65.1523 401.492 64.2852 403.766C63.4414 406.039 62.2812 408.055 60.8047 409.812C58.7422 412.227 56.2227 414.043 53.2461 415.262C50.8086 416.27 48.2656 416.773 45.6172 416.773C41.1875 416.773 37.2031 415.461 33.6641 412.836C30.8984 410.82 28.8008 408.23 27.3711 405.066C26.1758 402.395 25.5781 399.57 25.5781 396.594C25.5781 390.781 27.6875 385.953 31.9062 382.109C35.8672 378.547 40.4141 376.73 45.5469 376.66ZM44.5273 378.945L44.4219 414.383C45.1484 414.43 45.6523 414.453 45.9336 414.453C49.1914 414.453 52.3086 413.539 55.2852 411.711C58.1445 409.93 60.2891 407.562 61.7188 404.609C62.8438 402.266 63.4062 399.688 63.4062 396.875C63.4062 391.227 61.3203 386.645 57.1484 383.129C53.7734 380.293 50.1055 378.875 46.1445 378.875C45.8164 378.875 45.2773 378.898 44.5273 378.945ZM117.336 377.609L117.23 405.242L117.336 416H99.3711V411.043C96.3945 413.082 93.6758 414.547 91.2148 415.438C88.7773 416.328 86.2227 416.773 83.5508 416.773C78.6523 416.773 75.1016 415.32 72.8984 412.414C72.0781 411.336 71.5039 410.117 71.1758 408.758C70.8711 407.375 70.7188 405.418 70.7188 402.887L70.7891 394.66L70.8242 389.176L70.6484 377.609H88.6133L88.4375 395.258L88.4727 401.938L88.5078 406.438C88.5078 409.133 88.6719 410.75 89 411.289C89.3984 411.898 90.1484 412.203 91.25 412.203C92.375 412.203 93.5352 411.91 94.7305 411.324C95.9492 410.738 97.5195 409.695 99.4414 408.195L99.4766 403.59L99.5469 391.039L99.3359 378.699V377.609H117.336ZM168.418 392.586V388.297C168.395 385.32 168.348 383.492 168.277 382.812C168.207 382.133 167.996 381.523 167.645 380.984C166.801 379.672 164.832 379.016 161.738 379.016C156.957 379.016 153.266 380.516 150.664 383.516C149.609 384.734 148.719 385.344 147.992 385.344C147.453 385.344 146.984 385.156 146.586 384.781C146.188 384.406 145.988 383.973 145.988 383.48C145.988 382.004 147.734 380.48 151.227 378.91C154.555 377.41 158.855 376.66 164.129 376.66C172.801 376.66 178.918 377.973 182.48 380.598C184.027 381.746 185.035 383.035 185.504 384.465C185.973 385.895 186.207 388.414 186.207 392.023V405.98C186.113 408.559 186.184 410.504 186.418 411.816C186.676 413.105 187.238 414.5 188.105 416H168.418V412.309C166.262 413.785 164.117 414.898 161.984 415.648C159.875 416.398 157.789 416.773 155.727 416.773C152.234 416.773 149.129 415.754 146.41 413.715C142.871 411.043 141.102 407.574 141.102 403.309C141.102 399.535 142.531 396.488 145.391 394.168C148.719 391.426 152.844 390.055 157.766 390.055C159.781 390.055 161.562 390.242 163.109 390.617C164.656 390.969 166.426 391.625 168.418 392.586ZM168.453 395.117C165.5 393.641 163.215 392.902 161.598 392.902C160.238 392.902 159.348 393.441 158.926 394.52C158.691 395.105 158.574 396.805 158.574 399.617V408.02C158.598 409.871 158.656 410.996 158.75 411.395C158.984 412.473 159.781 413.012 161.141 413.012C162.219 413.012 163.414 412.695 164.727 412.062C166.062 411.406 167.281 410.551 168.383 409.496L168.453 395.117ZM212.152 388.508L212.082 402.008L212.223 416H194.188L194.223 414.066L194.258 406.895L194.363 393.992L194.223 379.648L194.188 377.609H212.188V384.852C214.883 381.992 216.758 380.188 217.812 379.438C220.25 377.727 222.547 376.871 224.703 376.871C226.016 376.871 227.094 377.152 227.938 377.715C228.805 378.277 229.238 378.992 229.238 379.859C229.238 380.539 228.98 381.102 228.465 381.547C227.949 381.992 227.305 382.215 226.531 382.215C226.039 382.215 225.488 382.074 224.879 381.793C223.848 381.301 222.992 381.055 222.312 381.055C220.625 381.055 218.996 381.629 217.426 382.777C215.855 383.926 214.098 385.836 212.152 388.508ZM243.934 397.93V408.828C243.934 410.938 244.062 412.273 244.32 412.836C244.812 413.914 245.973 414.453 247.801 414.453C250.52 414.453 253.203 413.715 255.852 412.238C258.523 410.738 260.832 408.676 262.777 406.051C263.41 405.184 263.867 404.633 264.148 404.398C264.43 404.164 264.734 404.047 265.062 404.047C265.461 404.047 265.789 404.199 266.047 404.504C266.305 404.785 266.434 405.148 266.434 405.594C266.434 406.578 265.648 407.902 264.078 409.566C262.016 411.699 259.449 413.434 256.379 414.77C253.332 416.105 250.355 416.773 247.449 416.773C242.457 416.773 238.051 415.098 234.23 411.746C232.004 409.777 230.293 407.352 229.098 404.469C228.043 401.938 227.516 399.406 227.516 396.875C227.516 394.438 227.984 392 228.922 389.562C229.859 387.102 231.148 384.98 232.789 383.199C234.688 381.113 236.938 379.496 239.539 378.348C242.094 377.223 244.766 376.66 247.555 376.66C251.891 376.66 255.816 377.938 259.332 380.492C264.816 384.477 267.535 390.254 267.488 397.824H259.297L248.75 397.859L243.934 397.93ZM252.934 395.609V385.344C252.887 383.141 252.84 381.828 252.793 381.406C252.746 380.961 252.582 380.551 252.301 380.176C251.645 379.262 250.309 378.805 248.293 378.805C246.23 378.805 244.941 379.332 244.426 380.387C244.098 381.02 243.934 382.672 243.934 385.344V395.609L248.223 395.75L252.934 395.609ZM288.406 393.992V397.191H286.051L286.156 369.031C282.805 369.219 279.922 370.32 277.508 372.336C275.492 374 274.484 375.863 274.484 377.926C274.484 378.348 274.531 378.793 274.625 379.262C274.766 379.918 274.836 380.387 274.836 380.668C274.836 380.996 274.695 381.289 274.414 381.547C274.133 381.781 273.793 381.898 273.395 381.898C272.855 381.898 272.41 381.617 272.059 381.055C271.707 380.492 271.531 379.789 271.531 378.945C271.531 377.258 272.07 375.57 273.148 373.883C274.227 372.172 275.668 370.719 277.473 369.523C280.449 367.555 284.27 366.57 288.934 366.57C294.934 366.57 299.527 368.152 302.715 371.316C305.129 373.73 306.336 376.754 306.336 380.387C306.336 383.527 305.363 386.246 303.418 388.543C301.848 390.418 299.973 391.754 297.793 392.551C295.637 393.324 292.508 393.805 288.406 393.992ZM287.105 401.48C290.176 401.48 292.672 402.207 294.594 403.66C296.539 405.113 297.512 407 297.512 409.32C297.512 411.43 296.75 413.164 295.227 414.523C293.281 416.234 290.621 417.09 287.246 417.09C284.152 417.09 281.621 416.387 279.652 414.98C277.707 413.551 276.734 411.711 276.734 409.461C276.734 407.164 277.613 405.301 279.371 403.871C281.27 402.324 283.848 401.527 287.105 401.48Z" fill="white" fill-opacity="0.2"/>
<circle cx="27" cy="12" r="3" fill="white" fill-opacity="0.3"/>
<circle cx="63" cy="12" r="3" fill="white" fill-opacity="0.3"/>
<circle cx="99" cy="12" r="3" fill="white" fill-opacity="0.3"/>
<circle cx="135" cy="12" r="3" fill="white" fill-opacity="0.3"/>
<circle cx="171" cy="12" r="3" fill="white" fill-opacity="0.3"/>
<circle cx="207" cy="12" r="3" fill="white" fill-opacity="0.3"/>
<circle cx="243" cy="12" r="3" fill="white" fill-opacity="0.3"/>
<circle cx="279" cy="12" r="3" fill="white" fill-opacity="0.3"/>
<circle cx="315" cy="12" r="3" fill="white" fill-opacity="0.3"/>
<circle cx="351" cy="12" r="3" fill="white" fill-opacity="0.3"/>
<circle cx="7" cy="38" r="3" fill="white" fill-opacity="0.3"/>
<circle cx="43" cy="38" r="3" fill="white" fill-opacity="0.3"/>
<circle cx="79" cy="38" r="3" fill="white" fill-opacity="0.3"/>
<circle cx="115" cy="38" r="3" fill="white" fill-opacity="0.3"/>
<circle cx="151" cy="38" r="3" fill="white" fill-opacity="0.3"/>
<circle cx="187" cy="38" r="3" fill="white" fill-opacity="0.3"/>
<circle cx="223" cy="38" r="3" fill="white" fill-opacity="0.3"/>
<circle cx="259" cy="38" r="3" fill="white" fill-opacity="0.3"/>
<circle cx="295" cy="38" r="3" fill="white" fill-opacity="0.3"/>
<circle cx="331" cy="38" r="3" fill="white" fill-opacity="0.3"/>
<circle cx="367" cy="38" r="3" fill="white" fill-opacity="0.3"/>
<circle cx="27" cy="66" r="3" fill="white" fill-opacity="0.3"/>
<circle cx="63" cy="66" r="3" fill="white" fill-opacity="0.3"/>
<circle cx="99" cy="66" r="3" fill="white" fill-opacity="0.3"/>
<circle cx="135" cy="66" r="3" fill="white" fill-opacity="0.3"/>
<circle cx="171" cy="66" r="3" fill="white" fill-opacity="0.3"/>
<circle cx="207" cy="66" r="3" fill="white" fill-opacity="0.3"/>
<circle cx="243" cy="66" r="3" fill="white" fill-opacity="0.3"/>
<circle cx="279" cy="66" r="3" fill="white" fill-opacity="0.3"/>
<circle cx="315" cy="66" r="3" fill="white" fill-opacity="0.3"/>
<circle cx="351" cy="66" r="3" fill="white" fill-opacity="0.3"/>
<circle cx="7" cy="92" r="3" fill="white" fill-opacity="0.3"/>
<circle cx="43" cy="92" r="3" fill="white" fill-opacity="0.3"/>
<circle cx="79" cy="92" r="3" fill="white" fill-opacity="0.3"/>
<circle cx="115" cy="92" r="3" fill="white" fill-opacity="0.3"/>
<circle cx="151" cy="92" r="3" fill="white" fill-opacity="0.3"/>
<circle cx="187" cy="92" r="3" fill="white" fill-opacity="0.3"/>
<circle cx="223" cy="92" r="3" fill="white" fill-opacity="0.3"/>
<circle cx="259" cy="92" r="3" fill="white" fill-opacity="0.3"/>
<circle cx="295" cy="92" r="3" fill="white" fill-opacity="0.3"/>
<circle cx="331" cy="92" r="3" fill="white" fill-opacity="0.3"/>
<circle cx="367" cy="92" r="3" fill="white" fill-opacity="0.3"/>
<circle cx="27" cy="120" r="3" fill="white" fill-opacity="0.3"/>
<circle cx="63" cy="120" r="3" fill="white" fill-opacity="0.3"/>
<circle cx="99" cy="120" r="3" fill="white" fill-opacity="0.3"/>
<circle cx="135" cy="120" r="3" fill="white" fill-opacity="0.3"/>
<circle cx="171" cy="120" r="3" fill="white" fill-opacity="0.3"/>
<circle cx="207" cy="120" r="3" fill="white" fill-opacity="0.3"/>
<circle cx="243" cy="120" r="3" fill="white" fill-opacity="0.3"/>
<circle cx="279" cy="120" r="3" fill="white" fill-opacity="0.3"/>
<circle cx="315" cy="120" r="3" fill="white" fill-opacity="0.3"/>
<circle cx="351" cy="120" r="3" fill="white" fill-opacity="0.3"/>
<circle cx="7" cy="146" r="3" fill="white" fill-opacity="0.3"/>
<circle cx="43" cy="146" r="3" fill="white" fill-opacity="0.3"/>
<circle cx="79" cy="146" r="3" fill="white" fill-opacity="0.3"/>
<circle cx="115" cy="146" r="3" fill="white" fill-opacity="0.3"/>
<circle cx="151" cy="146" r="3" fill="white" fill-opacity="0.3"/>
<circle cx="187" cy="146" r="3" fill="white" fill-opacity="0.3"/>
<circle cx="223" cy="146" r="3" fill="white" fill-opacity="0.3"/>
<circle cx="259" cy="146" r="3" fill="white" fill-opacity="0.3"/>
<circle cx="295" cy="146" r="3" fill="white" fill-opacity="0.3"/>
<circle cx="331" cy="146" r="3" fill="white" fill-opacity="0.3"/>
<circle cx="367" cy="146" r="3" fill="white" fill-opacity="0.3"/>
<circle cx="27" cy="174" r="3" fill="white" fill-opacity="0.3"/>
<circle cx="63" cy="174" r="3" fill="white" fill-opacity="0.3"/>
<circle cx="99" cy="174" r="3" fill="white" fill-opacity="0.3"/>
<circle cx="135" cy="174" r="3" fill="white" fill-opacity="0.3"/>
<circle cx="171" cy="174" r="3" fill="white" fill-opacity="0.3"/>
<circle cx="207" cy="174" r="3" fill="white" fill-opacity="0.3"/>
<circle cx="243" cy="174" r="3" fill="white" fill-opacity="0.3"/>
<circle cx="279" cy="174" r="3" fill="white" fill-opacity="0.3"/>
<circle cx="315" cy="174" r="3" fill="white" fill-opacity="0.3"/>
<circle cx="351" cy="174" r="3" fill="white" fill-opacity="0.3"/>
<circle cx="7" cy="200" r="3" fill="white" fill-opacity="0.3"/>
<circle cx="43" cy="200" r="3" fill="white" fill-opacity="0.3"/>
<circle cx="79" cy="200" r="3" fill="white" fill-opacity="0.3"/>
<circle cx="115" cy="200" r="3" fill="white" fill-opacity="0.3"/>
<circle cx="151" cy="200" r="3" fill="white" fill-opacity="0.3"/>
<circle cx="187" cy="200" r="3" fill="white" fill-opacity="0.3"/>
<circle cx="223" cy="200" r="3" fill="white" fill-opacity="0.3"/>
<circle cx="259" cy="200" r="3" fill="white" fill-opacity="0.3"/>
<circle cx="295" cy="200" r="3" fill="white" fill-opacity="0.3"/>
<circle cx="331" cy="200" r="3" fill="white" fill-opacity="0.3"/>
<circle cx="367" cy="200" r="3" fill="white" fill-opacity="0.3"/>
<circle cx="27" cy="228" r="3" fill="white" fill-opacity="0.3"/>
<circle cx="63" cy="228" r="3" fill="white" fill-opacity="0.3"/>
<circle cx="99" cy="228" r="3" fill="white" fill-opacity="0.3"/>
<circle cx="135" cy="228" r="3" fill="white" fill-opacity="0.3"/>
<circle cx="171" cy="228" r="3" fill="white" fill-opacity="0.3"/>
<circle cx="207" cy="228" r="3" fill="white" fill-opacity="0.3"/>
<circle cx="243" cy="228" r="3" fill="white" fill-opacity="0.3"/>
<circle cx="279" cy="228" r="3" fill="white" fill-opacity="0.3"/>
<circle cx="315" cy="228" r="3" fill="white" fill-opacity="0.3"/>
<circle cx="351" cy="228" r="3" fill="white" fill-opacity="0.3"/>
<circle cx="7" cy="254" r="3" fill="white" fill-opacity="0.3"/>
<circle cx="43" cy="254" r="3" fill="white" fill-opacity="0.3"/>
<circle cx="79" cy="254" r="3" fill="white" fill-opacity="0.3"/>
<circle cx="115" cy="254" r="3" fill="white" fill-opacity="0.3"/>
<circle cx="151" cy="254" r="3" fill="white" fill-opacity="0.3"/>
<circle cx="187" cy="254" r="3" fill="white" fill-opacity="0.3"/>
<circle cx="223" cy="254" r="3" fill="white" fill-opacity="0.3"/>
<circle cx="259" cy="254" r="3" fill="white" fill-opacity="0.3"/>
<circle cx="295" cy="254" r="3" fill="white" fill-opacity="0.3"/>
<circle cx="331" cy="254" r="3" fill="white" fill-opacity="0.3"/>
<circle cx="367" cy="254" r="3" fill="white" fill-opacity="0.3"/>
<circle cx="27" cy="282" r="3" fill="white" fill-opacity="0.3"/>
<circle cx="63" cy="282" r="3" fill="white" fill-opacity="0.3"/>
<circle cx="99" cy="282" r="3" fill="white" fill-opacity="0.3"/>
<circle cx="135" cy="282" r="3" fill="white" fill-opacity="0.3"/>
<circle cx="171" cy="282" r="3" fill="white" fill-opacity="0.3"/>
<circle cx="207" cy="282" r="3" fill="white" fill-opacity="0.3"/>
<circle cx="243" cy="282" r="3" fill="white" fill-opacity="0.3"/>
<circle cx="279" cy="282" r="3" fill="white" fill-opacity="0.3"/>
<circle cx="315" cy="282" r="3" fill="white" fill-opacity="0.3"/>
<circle cx="351" cy="282" r="3" fill="white" fill-opacity="0.3"/>
<circle cx="7" cy="308" r="3" fill="white" fill-opacity="0.3"/>
<circle cx="43" cy="308" r="3" fill="white" fill-opacity="0.3"/>
<circle cx="79" cy="308" r="3" fill="white" fill-opacity="0.3"/>
<circle cx="115" cy="308" r="3" fill="white" fill-opacity="0.3"/>
<circle cx="151" cy="308" r="3" fill="white" fill-opacity="0.3"/>
<circle cx="187" cy="308" r="3" fill="white" fill-opacity="0.3"/>
<circle cx="223" cy="308" r="3" fill="white" fill-opacity="0.3"/>
<circle cx="259" cy="308" r="3" fill="white" fill-opacity="0.3"/>
<circle cx="295" cy="308" r="3" fill="white" fill-opacity="0.3"/>
<circle cx="331" cy="308" r="3" fill="white" fill-opacity="0.3"/>
<circle cx="367" cy="308" r="3" fill="white" fill-opacity="0.3"/>
<circle cx="27" cy="336" r="3" fill="white" fill-opacity="0.3"/>
<circle cx="63" cy="336" r="3" fill="white" fill-opacity="0.3"/>
<circle cx="99" cy="336" r="3" fill="white" fill-opacity="0.3"/>
<circle cx="135" cy="336" r="3" fill="white" fill-opacity="0.3"/>
<circle cx="171" cy="336" r="3" fill="white" fill-opacity="0.3"/>
<circle cx="207" cy="336" r="3" fill="white" fill-opacity="0.3"/>
<circle cx="243" cy="336" r="3" fill="white" fill-opacity="0.3"/>
<circle cx="279" cy="336" r="3" fill="white" fill-opacity="0.3"/>
<circle cx="315" cy="336" r="3" fill="white" fill-opacity="0.3"/>
<circle cx="351" cy="336" r="3" fill="white" fill-opacity="0.3"/>
<circle cx="7" cy="362" r="3" fill="white" fill-opacity="0.3"/>
<circle cx="43" cy="362" r="3" fill="white" fill-opacity="0.3"/>
<circle cx="79" cy="362" r="3" fill="white" fill-opacity="0.3"/>
<circle cx="115" cy="362" r="3" fill="white" fill-opacity="0.3"/>
<circle cx="151" cy="362" r="3" fill="white" fill-opacity="0.3"/>
<circle cx="187" cy="362" r="3" fill="white" fill-opacity="0.3"/>
<circle cx="223" cy="362" r="3" fill="white" fill-opacity="0.3"/>
<circle cx="259" cy="362" r="3" fill="white" fill-opacity="0.3"/>
<circle cx="295" cy="362" r="3" fill="white" fill-opacity="0.3"/>
<circle cx="331" cy="362" r="3" fill="white" fill-opacity="0.3"/>
<circle cx="367" cy="362" r="3" fill="white" fill-opacity="0.3"/>
<circle cx="27" cy="390" r="3" fill="white" fill-opacity="0.3"/>
<circle cx="63" cy="390" r="3" fill="white" fill-opacity="0.3"/>
<circle cx="99" cy="390" r="3" fill="white" fill-opacity="0.3"/>
<circle cx="135" cy="390" r="3" fill="white" fill-opacity="0.3"/>
<circle cx="171" cy="390" r="3" fill="white" fill-opacity="0.3"/>
<circle cx="207" cy="390" r="3" fill="white" fill-opacity="0.3"/>
<circle cx="243" cy="390" r="3" fill="white" fill-opacity="0.3"/>
<circle cx="279" cy="390" r="3" fill="white" fill-opacity="0.3"/>
<circle cx="315" cy="390" r="3" fill="white" fill-opacity="0.3"/>
<circle cx="351" cy="390" r="3" fill="white" fill-opacity="0.3"/>
<circle cx="7" cy="416" r="3" fill="white" fill-opacity="0.3"/>
<circle cx="43" cy="416" r="3" fill="white" fill-opacity="0.3"/>
<circle cx="79" cy="416" r="3" fill="white" fill-opacity="0.3"/>
<circle cx="115" cy="416" r="3" fill="white" fill-opacity="0.3"/>
<circle cx="151" cy="416" r="3" fill="white" fill-opacity="0.3"/>
<circle cx="187" cy="416" r="3" fill="white" fill-opacity="0.3"/>
<circle cx="223" cy="416" r="3" fill="white" fill-opacity="0.3"/>
<circle cx="259" cy="416" r="3" fill="white" fill-opacity="0.3"/>
<circle cx="295" cy="416" r="3" fill="white" fill-opacity="0.3"/>
<circle cx="331" cy="416" r="3" fill="white" fill-opacity="0.3"/>
<circle cx="367" cy="416" r="3" fill="white" fill-opacity="0.3"/>
<circle cx="27" cy="444" r="3" fill="white" fill-opacity="0.3"/>
<circle cx="63" cy="444" r="3" fill="white" fill-opacity="0.3"/>
<circle cx="99" cy="444" r="3" fill="white" fill-opacity="0.3"/>
<circle cx="135" cy="444" r="3" fill="white" fill-opacity="0.3"/>
<circle cx="171" cy="444" r="3" fill="white" fill-opacity="0.3"/>
<circle cx="207" cy="444" r="3" fill="white" fill-opacity="0.3"/>
<circle cx="243" cy="444" r="3" fill="white" fill-opacity="0.3"/>
<circle cx="279" cy="444" r="3" fill="white" fill-opacity="0.3"/>
<circle cx="315" cy="444" r="3" fill="white" fill-opacity="0.3"/>
<circle cx="351" cy="444" r="3" fill="white" fill-opacity="0.3"/>
<circle cx="7" cy="470" r="3" fill="white" fill-opacity="0.3"/>
<circle cx="43" cy="470" r="3" fill="white" fill-opacity="0.3"/>
<circle cx="79" cy="470" r="3" fill="white" fill-opacity="0.3"/>
<circle cx="115" cy="470" r="3" fill="white" fill-opacity="0.3"/>
<circle cx="151" cy="470" r="3" fill="white" fill-opacity="0.3"/>
<circle cx="187" cy="470" r="3" fill="white" fill-opacity="0.3"/>
<circle cx="223" cy="470" r="3" fill="white" fill-opacity="0.3"/>
<circle cx="259" cy="470" r="3" fill="white" fill-opacity="0.3"/>
<circle cx="295" cy="470" r="3" fill="white" fill-opacity="0.3"/>
<circle cx="331" cy="470" r="3" fill="white" fill-opacity="0.3"/>
<circle cx="367" cy="470" r="3" fill="white" fill-opacity="0.3"/>
</g>
<defs>
<filter id="filter0_f_3337_58136" x="-1089" y="-884.001" width="1457" height="1361" filterUnits="userSpaceOnUse" color-interpolation-filters="sRGB">
<feFlood flood-opacity="0" result="BackgroundImageFix"/>
<feBlend mode="normal" in="SourceGraphic" in2="BackgroundImageFix" result="shape"/>
<feGaussianBlur stdDeviation="160" result="effect1_foregroundBlur_3337_58136"/>
</filter>
<linearGradient id="paint0_linear_3337_58136" x1="1.47437e-06" y1="-0.500003" x2="411" y2="515" gradientUnits="userSpaceOnUse">
<stop offset="0.0399821" stop-color="#DAFFC6"/>
<stop offset="1" stop-color="#DAFFC6" stop-opacity="0.05"/>
</linearGradient>
<linearGradient id="paint1_linear_3337_58136" x1="39" y1="26.5" x2="379" y2="475.5" gradientUnits="userSpaceOnUse">
<stop stop-color="#7AF8CB"/>
<stop offset="1" stop-color="#7AF8CB" stop-opacity="0"/>
</linearGradient>
<clipPath id="clip0_3337_58136">
<rect width="375" height="473" fill="white"/>
</clipPath>
</defs>
</svg>
